<?xml version="1.0" encoding="utf-8"?>
<!-- Generator: Adobe Illustrator 26.4.0, SVG Export Plug-In . SVG Version: 6.00 Build 0)  -->
<svg version="1.1" id="Layer_1" xmlns="http://www.w3.org/2000/svg" xmlns:xlink="http://www.w3.org/1999/xlink" x="0px" y="0px"
	 viewBox="0 0 225.4 212" style="enable-background:new 0 0 225.4 212;" xml:space="preserve">
<style type="text/css">
	.st0{fill:#9147FF;}
	.st1{fill:#FFFFFF;}
</style>
<g>
	<path class="st0" d="M49.6,212C37.9,212,0,174.1,0,162.4V21.3C0,9.6,9.6,0,21.3,0h119.5c5.3,0,10.4,2,14.3,5.5l63.4,60.2
		c4.4,4.1,6.9,9.8,6.9,15.6v109.3c0,11.7-9.6,21.3-21.3,21.3c0,0-56.6,0-56.7,0c-10.1,0-18.5-7.1-20.6-16.6
		c-2.1,9.5-10.6,16.7-20.8,16.7H49.6z"/>
	<path class="st1" d="M113,162.4v-24.6c0-3.5-2.8-6.3-6.3-6.3H90.3c-3.5,0-6.3,2.8-6.3,6.3v24.6c0,3.5-2.8,6.3-6.3,6.3H21.3
		c-3.5,0-6.3-2.8-6.3-6.3V21.3c0-3.5,2.8-6.3,6.3-6.3h119.5c1.6,0,3.1,0.6,4.2,1.6l35,31.8c1.3,1.2,2.1,2.9,2.1,4.6v109.3
		c0,3.5-2.8,6.3-6.3,6.3h-56.5C115.8,168.7,113,165.9,113,162.4z M113,84.9v-8.3H84v8.3H113z"/>
</g>
</svg>
