<?xml version="1.0" encoding="utf-8"?>
<!-- Generator: Adobe Illustrator 26.2.1, SVG Export Plug-In . SVG Version: 6.00 Build 0)  -->
<svg version="1.1" id="Layer_1" xmlns="http://www.w3.org/2000/svg" xmlns:xlink="http://www.w3.org/1999/xlink" x="0px" y="0px"
	 viewBox="0 0 486.3 486.3" style="enable-background:new 0 0 486.3 486.3;" xml:space="preserve">
<style type="text/css">
	.st0{fill:#e04e00;}
</style>
<path class="st0" d="M420.1,0H127.2C90.6,0,61,29.6,61,66.2v184.3L0,486.3l235.8-61h184.3c36.6,0,66.2-29.6,66.2-66.2V66.2
	C486.3,29.6,456.7,0,420.1,0z M438.1,345.1c0,17.7-14.3,32-32,32H235.8L70.5,415.8l38.7-165.3V80.2c0-17.7,14.3-32,32-32h264.9
	c17.7,0,32,14.3,32,32L438.1,345.1L438.1,345.1z"/>
<g>
	<path class="st0" d="M205,352h-60V103c0-16.6,13.4-30,30-30l0,0c16.6,0,30,13.4,30,30V352z"/>
	<path class="st0" d="M303.5,352.5h-60v-79c0-16.6,13.4-30,30-30l0,0c16.6,0,30,13.4,30,30V352.5z"/>
	<path class="st0" d="M402.5,352.5h-60v-145c0-16.6,13.4-30,30-30l0,0c16.6,0,30,13.4,30,30V352.5z"/>
</g>
</svg>
