<?xml version="1.0" encoding="utf-8"?>
<!-- Generator: Adobe Illustrator 26.0.2, SVG Export Plug-In . SVG Version: 6.00 Build 0)  -->
<svg version="1.1" id="Layer_1" xmlns="http://www.w3.org/2000/svg" xmlns:xlink="http://www.w3.org/1999/xlink" x="0px" y="0px"
	 viewBox="0 0 486.3 486.3" style="enable-background:new 0 0 486.3 486.3;" xml:space="preserve">
<style type="text/css">
	.st0{fill:#e04e00;}
</style>
<path class="st0" d="M420.1,0H127.2C90.6,0,61,29.6,61,66.2v184.3L0,486.3l235.8-61h184.3c36.6,0,66.2-29.6,66.2-66.2V66.2
	C486.3,29.6,456.7,0,420.1,0z M438.1,345.1c0,17.7-14.3,32-32,32H235.8L70.5,415.8l38.7-165.3V80.2c0-17.7,14.3-32,32-32h264.9
	c17.7,0,32,14.3,32,32L438.1,345.1L438.1,345.1z"/>
<path class="st0" d="M356.9,245.7L324,212.8l32.9-32.9c13.9-13.9,13.9-36.5,0-50.3c-13.9-13.9-36.5-13.9-50.3,0l-32.9,32.9
	l-32.9-32.9c-13.9-13.9-36.5-13.9-50.3,0c-13.9,13.9-13.9,36.5,0,50.3l32.9,32.9l-32.9,32.9c-13.9,13.9-13.9,36.4,0,50.3
	c13.9,13.9,36.5,13.9,50.3,0l32.9-32.9l32.9,32.9c13.9,13.9,36.4,13.9,50.3,0C370.8,282.1,370.8,259.5,356.9,245.7z"/>
</svg>
