<?xml version="1.0" encoding="utf-8"?>
<!-- Generator: Adobe Illustrator 26.1.0, SVG Export Plug-In . SVG Version: 6.00 Build 0)  -->
<svg version="1.1" id="Layer_1" xmlns="http://www.w3.org/2000/svg" xmlns:xlink="http://www.w3.org/1999/xlink" x="0px" y="0px"
	 viewBox="0 0 473.6 473.6" style="enable-background:new 0 0 473.6 473.6;" xml:space="preserve">
<style type="text/css">
	.st0{fill-rule:evenodd;clip-rule:evenodd;fill:#e04e00;}
</style>
<path class="st0" d="M236.8,473.6C106,473.6,0,367.6,0,236.8S106,0,236.8,0c130.8,0,236.8,106,236.8,236.8
	C473.6,367.6,367.6,473.6,236.8,473.6z M201.3,206v156.3c0,19.6,15.9,35.5,35.5,35.5c19.6,0,35.5-15.9,35.5-35.5V206
	c0-19.6-15.9-35.5-35.5-35.5C217.2,170.5,201.3,186.4,201.3,206z M236.8,146.8c19.6,0,35.5-15.9,35.5-35.5
	c0-19.6-15.9-35.5-35.5-35.5c-19.6,0-35.5,15.9-35.5,35.5C201.3,130.9,217.2,146.8,236.8,146.8z"/>
</svg>
