<?xml version="1.0" encoding="utf-8"?>
<!-- Generator: Adobe Illustrator 26.5.0, SVG Export Plug-In . SVG Version: 6.00 Build 0)  -->
<svg version="1.1" id="Layer_1" xmlns="http://www.w3.org/2000/svg" xmlns:xlink="http://www.w3.org/1999/xlink" x="0px" y="0px"
	 width="396px" height="473.6px" viewBox="0 0 396 473.6" style="enable-background:new 0 0 396 473.6;" xml:space="preserve">
<style type="text/css">
	.st0{fill:none;}
	.st1{fill-rule:evenodd;clip-rule:evenodd;fill:#e04e00;}
</style>
<rect y="0" class="st0" width="396" height="473.6"/>
<g>
	<path class="st1" d="M316.4,118.4v39.5h19.7c32.7,0,59.2,26.5,59.2,59.2v197.3c0,32.7-26.5,59.2-59.2,59.2H59.9
		c-32.7,0-59.2-26.5-59.2-59.2V217.1c0-32.7,26.5-59.2,59.2-59.2h19.7v-39.5C79.6,53,132.6,0,198,0S316.4,53,316.4,118.4z
		 M276.9,157.9H119.1v-39.5c0-43.6,35.3-78.9,78.9-78.9s78.9,35.3,78.9,78.9V157.9z M198,256.5c-32.7,0-59.2,26.5-59.2,59.2
		s26.5,59.2,59.2,59.2s59.2-26.5,59.2-59.2S230.7,256.5,198,256.5z"/>
</g>
</svg>
