<?xml version="1.0" encoding="utf-8"?>
<!-- Generator: Adobe Illustrator 26.2.1, SVG Export Plug-In . SVG Version: 6.00 Build 0)  -->
<svg version="1.1" id="Layer_1" xmlns="http://www.w3.org/2000/svg" xmlns:xlink="http://www.w3.org/1999/xlink" x="0px" y="0px"
	 viewBox="0 0 408.6 334.1" style="enable-background:new 0 0 408.6 334.1;" xml:space="preserve">
<style type="text/css">
	.st0{fill-rule:evenodd;clip-rule:evenodd;fill:#e04e00;}
</style>
<path class="st0" d="M408.6,143l-88.3,88.5c-0.8,0.9-1.7,1.7-2.6,2.5c-0.2,0.1-0.3,0.2-0.4,0.3l-9.2,4.4c-0.3,0.1-0.6,0.1-0.9,0.2
	c-2.4,0.4-4.8,0.4-7.2,0c-0.1,0-0.3,0-0.5-0.1c-3-0.5-5.8-1.5-8.3-3.1c-0.2-0.2-0.4-0.4-0.6-0.5c-0.2-0.2-0.4-0.4-0.6-0.5
	c-1.1-0.8-2.2-1.8-3.1-2.8l-82.3-82.3l31.8-31.8l52.9,52.9c0.1-1.3,0.1-2.5,0.1-3.8c0-33.8-11.9-62.6-35.8-86.4h-0.1
	c-23.8-23.9-52.6-35.8-86.4-35.7c-33.7-0.1-62.5,11.8-86.4,35.7C56.9,104.3,45,133.1,45,166.9c0.1,33.7,12,62.5,35.7,86.4l0.1,0.1
	c23.9,23.8,52.6,35.7,86.3,35.7c3.2-0.1,6.4-0.2,9.6-0.4l22.4-1.5L202,332l-22.3,1.5c-4.3,0.3-8.5,0.5-12.7,0.5
	c-46.1,0-85.5-16.3-118.1-48.9h-0.1C16.3,252.4,0.1,213,0,167l0-0.1c0-46.1,16.2-85.5,48.8-118.1h0.1C81.6,16.3,120.9,0,167,0
	c46.1,0,85.5,16.3,118.1,48.8c29.7,29.7,45.8,64.9,48.6,105.7l43.1-43.2L408.6,143z"/>
</svg>
