<?xml version="1.0" encoding="utf-8"?>
<!-- Generator: Adobe Illustrator 26.2.0, SVG Export Plug-In . SVG Version: 6.00 Build 0)  -->
<svg version="1.1" id="Layer_1" xmlns="http://www.w3.org/2000/svg" xmlns:xlink="http://www.w3.org/1999/xlink" x="0px" y="0px"
	 viewBox="0 0 426.2 426.2" style="enable-background:new 0 0 426.2 426.2;" xml:space="preserve">
<style type="text/css">
	.st0{fill:#9147ff;}
</style>
<path class="st0" d="M213.1,0C95.6,0,0,95.6,0,213.1c0,117.5,95.6,213.1,213.1,213.1c117.5,0,213.1-95.6,213.1-213.1
	C426.2,95.6,330.6,0,213.1,0z M213.1,28.4c102.2,0,184.7,82.5,184.7,184.7c0,102.2-82.5,184.7-184.7,184.7
	c-102.2,0-184.7-82.5-184.7-184.7C28.4,110.9,110.9,28.4,213.1,28.4L213.1,28.4z M213,70.7c-0.5,0-1,0.1-1.5,0.1
	c-7.3,0.8-12.7,7-12.6,14.4v20c-12.1,1.7-23.6,5.8-33.3,12.4c-13.5,9.3-23.5,24.9-23.5,43.4c0,18.9,11,33.9,24,42.8
	c13,8.9,28,13.9,42,19.2c14.1,5.3,27.1,10.8,35.4,17.3c8.3,6.5,12.3,12.5,12.3,24.9c0,9.1-3.6,14.8-11.1,20
	c-7.5,5.1-19.2,8.4-31.5,8.4c-34.8,0-43.8-24.7-43.8-24.7c-1.5-3.5-4.4-6.2-7.9-7.5c-3.5-1.4-7.4-1.3-10.9,0.3
	c-3.5,1.5-6.2,4.4-7.5,7.9c-1.4,3.5-1.3,7.4,0.3,10.9c0,0,16.3,33.4,55.6,40.3V341c-0.1,3.8,1.4,7.5,4.1,10.2
	c2.7,2.7,6.3,4.2,10.1,4.2c3.8,0,7.4-1.5,10.1-4.2c2.7-2.7,4.1-6.4,4.1-10.2v-20c12.1-1.7,23.6-5.8,33.3-12.4
	c13.5-9.3,23.5-24.9,23.5-43.4c0-20.5-10.2-36.9-23.2-47.2c-13.1-10.3-28.4-16-42.8-21.5c-14.4-5.4-27.8-10.6-36.1-16.3
	c-8.3-5.7-11.5-9.8-11.5-19.2c0-9.1,3.6-14.8,11.1-20c7.5-5.1,19.2-8.4,31.5-8.4c34.8,0,43.8,24.7,43.8,24.7
	c1.5,3.5,4.4,6.2,7.9,7.5c3.5,1.4,7.4,1.3,10.9-0.3c3.5-1.5,6.2-4.4,7.5-7.9c1.4-3.5,1.3-7.4-0.3-10.9c0,0-16.3-33.4-55.6-40.3V85.2
	c0.1-3.8-1.4-7.6-4.1-10.3C220.5,72.2,216.8,70.7,213,70.7L213,70.7z"/>
</svg>
