<?xml version="1.0" encoding="utf-8"?>
<!-- Generator: Adobe Illustrator 26.5.0, SVG Export Plug-In . SVG Version: 6.00 Build 0)  -->
<svg version="1.1" id="Layer_1" xmlns="http://www.w3.org/2000/svg" xmlns:xlink="http://www.w3.org/1999/xlink" x="0px" y="0px"
	 viewBox="0 0 208.6 202.5" style="enable-background:new 0 0 208.6 202.5;" xml:space="preserve">
<style type="text/css">
	.st0{fill:#FFFFFF;}
	.st1{fill:#BB3C3C;}
	.st2{opacity:0.1;}
</style>
<path class="st0" d="M151.6,0c-19.6,0-37,9.9-47.2,25C94,9.9,76.7,0,57.1,0C25.6,0,0,25.6,0,57.1c0,44.2,96.1,145.4,104.3,145.4
	S208.6,101.2,208.6,57.1C208.6,25.6,183.1,0,151.6,0z"/>
<path class="st1" d="M107.8,20.5l82.8,82.8c6.4-10.4,11.6-20.5,14.7-29.5l-71-71C123.8,6,114.7,12.3,107.8,20.5z"/>
<g>
	<path class="st0" d="M120.6,23.4c-1.1-1.1-1.1-2.2,0-3.3l9-9c1.1-1.1,2.2-1.1,3.3,0l3.4,3.4c2.1,2.1,3.2,4.3,3.3,6.6
		c0.1,2.2-0.8,4.3-2.8,6.3c-2,2-4.1,2.9-6.3,2.8c-2.2-0.1-4.4-1.2-6.6-3.3L120.6,23.4z M124.7,22.3l1.7,1.7c1.2,1.2,2.4,1.8,3.6,1.8
		c1.2,0,2.4-0.6,3.6-1.8c1.2-1.2,1.8-2.4,1.8-3.6c0-1.2-0.6-2.4-1.8-3.6l-1.7-1.7L124.7,22.3z"/>
	<path class="st0" d="M138.3,41.5c-1.2-1.2-2.1-2.6-2.5-4.1c-0.4-1.5-0.4-2.9,0-4.4c0.4-1.5,1.3-2.8,2.5-4.1
		c1.3-1.3,2.6-2.1,4.1-2.6c1.5-0.4,2.9-0.4,4.4,0c1.5,0.4,2.8,1.2,4.1,2.5c1.2,1.2,2.1,2.6,2.5,4.1c0.4,1.5,0.4,2.9,0,4.4
		c-0.4,1.5-1.3,2.8-2.6,4.1c-1.3,1.3-2.6,2.1-4.1,2.5c-1.5,0.4-2.9,0.4-4.4,0C140.9,43.6,139.6,42.7,138.3,41.5z M141,38.8
		c0.9,0.9,1.9,1.3,3.1,1.2c1.2-0.1,2.3-0.8,3.5-1.9c1.1-1.1,1.8-2.3,1.9-3.4c0.1-1.1-0.3-2.2-1.2-3.1s-2-1.3-3.1-1.2
		c-1.2,0.1-2.3,0.8-3.4,1.9c-1.1,1.1-1.8,2.3-1.9,3.5C139.7,36.9,140.1,37.9,141,38.8z"/>
	<path class="st0" d="M148,51.1c-1-1-1-2,0-3l9.5-9.5c0.5-0.5,1-0.8,1.6-0.8c0.5,0,1,0.2,1.4,0.6c0.4,0.4,0.6,0.7,0.7,1.1
		c0.1,0.3,0.1,0.8,0,1.4l-1.3,11.3l5.7-5.7c1-1,2-1,3,0c0.5,0.5,0.7,1,0.7,1.5c0,0.5-0.3,1-0.7,1.5l-9.7,9.7
		c-0.4,0.4-0.9,0.7-1.4,0.7c-0.5,0-0.9-0.2-1.3-0.5c-0.4-0.4-0.6-0.8-0.7-1.1c-0.1-0.4-0.1-0.8,0-1.4l1.3-11.3l-5.7,5.7
		C150,52.1,149,52.1,148,51.1z"/>
	<path class="st0" d="M165.6,68.8c-1.2-1.2-2.1-2.6-2.5-4.1c-0.4-1.5-0.4-2.9,0-4.4c0.4-1.5,1.3-2.8,2.5-4.1
		c1.3-1.3,2.6-2.1,4.1-2.6c1.5-0.4,2.9-0.4,4.4,0c1.5,0.4,2.8,1.2,4.1,2.5c1.2,1.2,2.1,2.6,2.5,4.1c0.4,1.5,0.4,2.9,0,4.4
		c-0.4,1.5-1.3,2.8-2.6,4.1c-1.3,1.3-2.6,2.1-4.1,2.5c-1.5,0.4-2.9,0.4-4.4,0C168.2,70.8,166.8,70,165.6,68.8z M168.3,66.1
		c0.9,0.9,1.9,1.3,3.1,1.2c1.2-0.1,2.3-0.8,3.5-1.9c1.1-1.1,1.8-2.3,1.9-3.4c0.1-1.1-0.3-2.2-1.2-3.1s-2-1.3-3.1-1.2
		c-1.2,0.1-2.3,0.8-3.4,1.9c-1.1,1.1-1.8,2.3-1.9,3.5C166.9,64.1,167.3,65.2,168.3,66.1z"/>
	<path class="st0" d="M175.3,78.5c-0.5-0.5-0.8-1-0.8-1.6s0.3-1.1,0.8-1.6l9.2-9.2c0.5-0.5,1.1-0.8,1.6-0.8c0.6,0,1.1,0.3,1.6,0.8
		l4.3,4.3c1.4,1.4,2.1,2.8,2.2,4.3c0.1,1.4-0.5,2.8-1.7,4c-0.9,0.9-1.9,1.5-3,1.6c-1.1,0.2-2.2-0.1-3.3-0.7c0.5,0.8,0.6,1.8,0.2,2.9
		l-0.7,2.4c-0.2,0.5-0.4,0.9-0.7,1.2c-0.3,0.3-0.7,0.4-1.1,0.4c-0.4,0-0.9-0.3-1.3-0.7c-0.5-0.5-0.7-0.9-0.8-1.4
		c-0.1-0.5-0.1-1,0.1-1.6l1.3-4.5c0.1-0.4,0.1-0.7,0-1.1s-0.3-0.6-0.6-0.9l-1-1l-3.1,3.1c-0.5,0.5-1.1,0.8-1.6,0.8
		C176.4,79.3,175.9,79,175.3,78.5z M184,73.1l2.1,2.1c1.3,1.3,2.4,1.4,3.4,0.4c1-1,0.8-2.1-0.4-3.4l-2.1-2.1L184,73.1z"/>
</g>
<g class="st2">
	<path d="M123.2,25c8.5-12.6,22.1-21.6,37.8-24.2c-3.1-0.5-6.2-0.8-9.4-0.8c-14.5,0-27.8,5.4-37.8,14.3
		C99.1,27.7,116.5,37.8,123.2,25z"/>
	<path d="M18.8,57.1c0-28.3,20.7-51.8,47.7-56.3C63.5,0.3,60.3,0,57.1,0C25.6,0,0,25.6,0,57.1c0,44.2,96.1,145.4,104.3,145.4
		c1.3,0,4.6-2.4,9.4-6.7C87.5,172.6,18.8,94.5,18.8,57.1z"/>
</g>
</svg>
