<?xml version="1.0" encoding="utf-8"?>
<!-- Generator: Adobe Illustrator 26.0.2, SVG Export Plug-In . SVG Version: 6.00 Build 0)  -->
<svg version="1.1" id="Layer_1" xmlns="http://www.w3.org/2000/svg" xmlns:xlink="http://www.w3.org/1999/xlink" x="0px" y="0px"
	 viewBox="0 0 225 225" style="enable-background:new 0 0 225 225;" xml:space="preserve">
<style type="text/css">
	.st0{fill:#FFFFFF;}
</style>
<path class="st0" d="M195.6,0H29.4C13.1,0,0,13.1,0,29.4v166.3C0,211.9,13.1,225,29.4,225h166.3c16.2,0,29.4-13.1,29.4-29.4V29.4
	C225,13.1,211.9,0,195.6,0z M64.2,36.5c15.2,0,27.5,12.3,27.5,27.5S79.3,91.4,64.2,91.4C49,91.4,36.7,79.1,36.7,64
	S49,36.5,64.2,36.5z M162.5,175.3c-13.3,8.5-30.9,13.2-49.6,13.2s-36.3-4.7-49.6-13.2c-16.7-10.7-25.8-27-25.8-46
	c0-7.1,4.9-12.8,10.9-12.8c6,0,10.9,5.7,10.9,12.8c0,9.5,4.9,17.4,14.5,23.6c10,6.4,24.2,10,39.1,10c14.9,0,29.1-3.7,39.1-10
	c9.6-6.1,14.5-14.1,14.5-23.6c0-7.1,4.9-12.8,10.9-12.8s10.9,5.7,10.9,12.8C188.3,148.4,179.1,164.7,162.5,175.3z M160.8,91.4
	c-15.2,0-27.5-12.3-27.5-27.5s12.3-27.5,27.5-27.5c15.2,0,27.5,12.3,27.5,27.5S176,91.4,160.8,91.4z"/>
</svg>
