<?xml version="1.0" encoding="utf-8"?>
<!-- Generator: Adobe Illustrator 26.2.1, SVG Export Plug-In . SVG Version: 6.00 Build 0)  -->
<svg version="1.1" id="Layer_1" xmlns="http://www.w3.org/2000/svg" xmlns:xlink="http://www.w3.org/1999/xlink" x="0px" y="0px"
	 viewBox="0 0 293.6 350.8" style="enable-background:new 0 0 293.6 350.8;" xml:space="preserve">
<style type="text/css">
	.st0{fill:#9147FF;}
</style>
<path class="st0" d="M146.8,47.7c-74.1,0-119.2,60.6-135.2,86.8C4,146.9,0,161.2,0,175.7c0,14.6,4,28.8,11.6,41.2
	c9.5,15.6,21,29.9,34,42.6l-21.1,21.2c-4.8,4.8-6.7,11.8-4.9,18.3c1.8,6.5,6.9,11.7,13.4,13.4c6.5,1.8,13.5-0.1,18.3-4.9v0
	l24.4-24.4c15.9,9.8,33.6,16.2,52.1,18.9v29.8c0,5,2,9.8,5.5,13.4c3.6,3.6,8.4,5.5,13.4,5.5c5,0,9.8-2,13.4-5.5
	c3.6-3.6,5.6-8.4,5.6-13.4v-30c18.5-2.7,36.2-9.1,52.1-18.9l24.5,24.4c4.8,4.8,11.8,6.7,18.3,4.9c6.5-1.8,11.6-6.9,13.4-13.4
	c1.8-6.5-0.1-13.5-4.9-18.3h0l-21.2-21.1c13.1-12.7,24.5-27.1,34.1-42.6c7.6-12.4,11.6-26.7,11.6-41.2c0-14.6-4-28.8-11.6-41.2
	C266,108.3,220.9,47.7,146.8,47.7L146.8,47.7z M37.9,175.6c0-7.6,2.1-15,6.1-21.5c13.3-21.7,48.3-68.5,102.9-68.5
	s89.6,46.8,102.9,68.5c4,6.4,6.1,13.9,6.1,21.5c0,7.6-2.1,15-6.1,21.5c-13.3,21.7-48.3,68.5-102.9,68.5S57.2,218.7,43.9,197
	C40,190.6,37.9,183.1,37.9,175.6z"/>
</svg>
