<?xml version="1.0" encoding="utf-8"?>
<!-- Generator: Adobe Illustrator 26.3.1, SVG Export Plug-In . SVG Version: 6.00 Build 0)  -->
<svg version="1.1" id="Layer_1" xmlns="http://www.w3.org/2000/svg" xmlns:xlink="http://www.w3.org/1999/xlink" x="0px" y="0px"
	 viewBox="0 0 199.3 199.3" style="enable-background:new 0 0 199.3 199.3;" xml:space="preserve">
<style type="text/css">
	.st0{fill:#FFFFFF;}
</style>
<path class="st0" d="M157.6,115.6c-4.6-1.4-8.8-3.9-12.2-7.4l-5.8-5.8l-5.8,5.8c-5.7,5.7-13.2,8.8-21.3,8.8s-15.6-3.1-21.3-8.8
	c-5.7-5.7-8.8-13.2-8.8-21.3c0-8,3.1-15.6,8.8-21.3l5.8-5.8L91.2,54c-3.5-3.5-6-7.7-7.4-12.2L54.2,10.5l10.1,53.8L10.5,54.2
	l39.8,37.6L0.9,115.3l54.2,7l-26.2,48.1l48-26.2l7.1,54.2l23.5-49.4l37.5,39.7L135,135l53.7,10L157.6,115.6z"/>
<path class="st0" d="M173.7,79.8l-20-20l20-20c3.9-3.9,3.9-10.3,0-14.2s-10.3-3.9-14.2,0l-20,20l-20-20c-3.9-3.9-10.3-3.9-14.2,0v0
	c-3.9,3.9-3.9,10.3,0,14.2l20,20l-20,20c-3.9,3.9-3.9,10.3,0,14.2c3.9,3.9,10.3,3.9,14.2,0l20-20l20,20c3.9,3.9,10.3,3.9,14.2,0
	C177.6,90.1,177.6,83.7,173.7,79.8z"/>
</svg>
