<?xml version="1.0" encoding="utf-8"?>
<!-- Generator: Adobe Illustrator 26.4.0, SVG Export Plug-In . SVG Version: 6.00 Build 0)  -->
<svg version="1.1" id="Layer_1" xmlns="http://www.w3.org/2000/svg" xmlns:xlink="http://www.w3.org/1999/xlink" x="0px" y="0px"
	 viewBox="0 0 230.1 150.7" style="enable-background:new 0 0 230.1 150.7;" xml:space="preserve">
<style type="text/css">
	.st0{fill:none;stroke:#9147FF;stroke-width:11.5025;stroke-linecap:round;stroke-linejoin:round;}
	.st1{fill:#9147FF;}
</style>
<path id="path38" class="st0" d="M178.7,83.9c-5.1,0.6-10.2,0.6-15.3,0V32.4h10.4C203.2,31.3,205.9,77.8,178.7,83.9 M223.3,47.6
	c-3.9-24.5-27.3-42.3-51.8-41.9c0,0-158,0-158,0c-4.3,0.3-7.7,3.9-7.7,8.2c0,2.7,0,69.4,0,109c0.6,12.7,11.3,22.5,23.9,22h106.7
	c16.8-0.9,28.8-17.8,26.3-34c39.6,2.2,67.5-25.8,60.5-62.9"/>
<path id="path42" class="st1" d="M83.3,116c0.8,0.7,2,0.7,2.8,0c0,0,25.2-23,36.5-36.1c9.6-9.3,9.8-24.6,0.5-34.2
	c-10.5-11.1-29.4-7.2-38.6,3.7c-9.9-12.1-31-13.5-39.7-3.3c-8,9.3-6.4,23.6,1.3,33.1c6.4,9,32.3,32.3,37.3,36.7"/>
</svg>
