<svg xmlns="http://www.w3.org/2000/svg" xmlns:xlink="http://www.w3.org/1999/xlink" width="30px" height="30px" viewBox="0 0 30 30" version="1.1">
    <g id="Page-1" stroke="none" stroke-width="1" fill="none" fill-rule="evenodd">
        <g id="Nav-Assets" transform="translate(-50.000000, -50.000000)">
            <g id="icPPLogoTransparentWhite30" transform="translate(50.000000, 50.000000)">
                <rect id="Specs" fill="#DE0063" opacity="0" x="0" y="0" width="30" height="30"/>
                <g transform="translate(2.904828, 1.770000)" fill="#FFFFFF">
                    <path d="M19.5181068,2.26537659 C18.2650598,0.837786747 16.0014201,0.226198663 13.1051956,0.226198663 L4.69782387,0.226198663 C4.10601543,0.226198663 3.60209661,0.656789733 3.50979874,1.24137978 L0.00909202907,23.4384459 C-0.060062495,23.8764752 0.278546709,24.2723545 0.721852005,24.2723545 L5.91202302,24.2723545 L5.55385218,26.5437706 C5.49351417,26.9269774 5.78941839,27.273544 6.17734496,27.273544 L10.5519885,27.273544 C11.0699587,27.273544 11.5107843,26.8966735 11.5915105,26.3853638 L11.634491,26.1630433 L12.4585595,20.9375465 L12.5117341,20.6488328 C12.5924603,20.1372477 13.0332859,19.7606527 13.5509805,19.7606527 L14.2053311,19.7606527 C18.4435942,19.7606527 21.7621848,18.0388394 22.7317258,13.0596308 C23.1370098,10.9791293 22.9276177,9.24243958 21.8561358,8.02146733 C21.5318534,7.65231056 21.1287735,7.34679201 20.6584676,7.09774893 C20.9885358,4.99383082 20.6562635,3.56210862 19.5181068,2.26537659 Z" id="Fill-8" fill-opacity="0.68"/>
                    <path d="M20.6584676,7.09839506 C20.9885358,4.99427912 20.6562635,3.5624223 19.5181068,2.26556833 C18.2650598,0.837844254 16.0014201,0.226198663 13.1051956,0.226198663 L4.69782387,0.226198663 C4.10601543,0.226198663 3.60209661,0.656830221 3.50979874,1.24147524 L0.00909202907,23.4406285 C-0.060062495,23.878699 0.278546709,24.2746155 0.721852005,24.2746155 L5.91202302,24.2746155 L7.21576489,16.0074815 L7.17526403,16.2667421 C7.2675619,15.682097 7.76734798,15.25119 8.35915642,15.25119 L10.826127,15.25119 C15.6708009,15.25119 19.4641056,13.2829034 20.5725066,7.59074221 C20.605293,7.42240191 20.6333957,7.2590209 20.6584676,7.09839506" id="Fill-9" fill-opacity="0.7"/>
                    <path d="M8.61621288,7.12649769 C8.67186712,6.77466372 8.89751475,6.48674946 9.20140893,6.34100148 C9.33971798,6.27487764 9.49400696,6.23795849 9.65573487,6.23795849 L16.2458028,6.23795849 C17.0266153,6.23795849 17.7545286,6.28920447 18.4198999,6.39638021 C18.6102814,6.42696249 18.7951527,6.46222854 18.9750647,6.50217836 C19.1547011,6.54185267 19.3293783,6.58648627 19.4982696,6.63607915 C19.582853,6.66060008 19.6657834,6.68649859 19.7476116,6.71377468 C20.0743736,6.82205248 20.3785433,6.95016743 20.6584676,7.09839506 C20.9885358,4.99427912 20.6562635,3.5624223 19.5181068,2.26556833 C18.2650598,0.837844254 16.0014201,0.226198663 13.1051956,0.226198663 L4.69782387,0.226198663 C4.10601543,0.226198663 3.60209661,0.656830221 3.50979874,1.24147524 L0.00909202907,23.4406285 C-0.060062495,23.878699 0.278546709,24.2746155 0.721852005,24.2746155 L5.91202302,24.2746155 L8.61621288,7.12649769" id="Fill-10"/>
                </g>
            </g>
        </g>
    </g>
</svg>