<?xml version="1.0" encoding="utf-8"?>
<!-- Generator: Adobe Illustrator 26.0.2, SVG Export Plug-In . SVG Version: 6.00 Build 0)  -->
<svg version="1.1" id="Layer_1" xmlns="http://www.w3.org/2000/svg" xmlns:xlink="http://www.w3.org/1999/xlink" x="0px" y="0px"
	 viewBox="0 0 426.2 338.8" style="enable-background:new 0 0 426.2 338.8;" xml:space="preserve">
<style type="text/css">
	.st0{fill:#FFFFFF;}
</style>
<g>
	<path class="st0" d="M405.5,84.3c0,15-12.1,27.1-27.1,27.1c-15,0-27.1-12.1-27.1-27.1c0-15,12.1-27.1,27.1-27.1
		C393.4,57.2,405.5,69.3,405.5,84.3"/>
	<path class="st0" d="M356.6,137.4c6.2,8.6,9.8,19,9.8,30.4v68.8c0,12.6-7.3,23.4-17.9,28.6v28.5c0,8.9,7.3,16.2,16.2,16.2h27.4
		c8.9,0,16.2-7.3,16.2-16.2V245h1.8c8.9,0,16.2-7.3,16.2-16.2v-58.7c0-18.5-15.1-33.6-33.6-33.6l-28.5,0
		C361.5,136.5,359,136.9,356.6,137.4L356.6,137.4z"/>
	<path class="st0" d="M329.2,67.4c0,17.5-14.2,31.7-31.7,31.7s-31.7-14.2-31.7-31.7s14.2-31.7,31.7-31.7S329.2,49.8,329.2,67.4"/>
	<path class="st0" d="M353.5,236.6v-68.8c0-21.6-17.7-39.3-39.3-39.3h-28.7c3,7,4.7,14.8,4.7,22.9v78.8c0,15.4-10.1,28.5-24.1,33
		v53.9c0,1.9-0.3,3.8-0.6,5.6c3.4,5.2,9.2,8.7,15.9,8.7h32c10.4,0,19-8.5,19-19v-56.9h2.1C344.9,255.5,353.5,247,353.5,236.6
		L353.5,236.6z"/>
	<path class="st0" d="M75,84.3c0,15-12.1,27.1-27.1,27.1c-15,0-27.1-12.1-27.1-27.1c0-15,12.1-27.1,27.1-27.1
		C62.8,57.2,75,69.3,75,84.3"/>
	<path class="st0" d="M0,170.1v58.7c0,8.9,7.3,16.2,16.2,16.2H18v48.6c0,8.9,7.3,16.2,16.2,16.2h27.4c8.9,0,16.2-7.3,16.2-16.2
		v-28.5c-10.6-5.2-17.9-16-17.9-28.6l0-68.8c0-11.3,3.7-21.8,9.8-30.4c-2.4-0.6-4.9-0.9-7.5-0.9H33.6C15.1,136.5,0,151.6,0,170.1
		L0,170.1z"/>
	<path class="st0" d="M160.5,67.4c0,17.5-14.2,31.7-31.7,31.7C111.2,99.1,97,84.9,97,67.4s14.2-31.7,31.7-31.7
		C146.3,35.6,160.5,49.8,160.5,67.4"/>
	<path class="st0" d="M160.1,263.2c-14-4.5-24.1-17.6-24.1-33v-78.8c0-8.1,1.7-15.9,4.7-22.9h-28.7c-21.6,0-39.3,17.7-39.3,39.3
		v68.8c0,10.4,8.5,19,19,19h2.1v56.9c0,10.4,8.5,19,19,19h32c6.6,0,12.5-3.5,15.9-8.7c-0.3-1.8-0.6-3.7-0.6-5.6L160.1,263.2
		L160.1,263.2z"/>
	<path class="st0" d="M249.5,36.4c0,20.1-16.3,36.4-36.4,36.4c-20.1,0-36.4-16.3-36.4-36.4C176.8,16.3,193,0,213.1,0
		C233.2,0,249.5,16.3,249.5,36.4"/>
	<path class="st0" d="M277.3,230.2v-78.8c0-24.8-20.3-45-45-45H194c-24.8,0-45,20.3-45,45v78.8c0,11.9,9.8,21.7,21.7,21.7h2.4v65.2
		c0,11.9,9.8,21.7,21.7,21.7h36.7c11.9,0,21.7-9.8,21.7-21.7l0-65.2h2.4C267.5,251.9,277.3,242.1,277.3,230.2L277.3,230.2z"/>
</g>
</svg>
