<?xml version="1.0" encoding="utf-8"?>
<!-- Generator: Adobe Illustrator 26.2.1, SVG Export Plug-In . SVG Version: 6.00 Build 0)  -->
<svg version="1.1" id="Layer_1" xmlns="http://www.w3.org/2000/svg" xmlns:xlink="http://www.w3.org/1999/xlink" x="0px" y="0px"
	 viewBox="0 0 408.6 334.1" style="enable-background:new 0 0 408.6 334.1;" xml:space="preserve">
<style type="text/css">
	.st0{fill-rule:evenodd;clip-rule:evenodd;fill:#FFFFFF;}
</style>
<path class="st0" d="M31.8,111.3l43.1,43.2c2.8-40.8,18.9-76,48.6-105.7C156.1,16.3,195.5,0,241.6,0c46.1,0,85.4,16.3,118.1,48.8
	h0.1c32.6,32.6,48.8,72,48.8,118.1v0.1c-0.1,46-16.3,85.4-48.8,118.1h-0.1c-32.6,32.6-72,48.9-118.1,48.9c-4.2,0-8.4-0.2-12.7-0.5
	l-22.3-1.5l2.9-44.8l22.4,1.5c3.2,0.2,6.4,0.3,9.6,0.4c33.7,0,62.4-11.9,86.3-35.7c0,0,0.1-0.1,0.1-0.1
	c23.7-23.9,35.6-52.7,35.7-86.4c0-33.8-11.9-62.6-35.7-86.4c-23.9-23.9-52.7-35.8-86.4-35.7c-33.8-0.1-62.6,11.8-86.4,35.7h-0.1
	c-23.9,23.8-35.8,52.6-35.8,86.4c0,1.3,0,2.5,0.1,3.8l52.9-52.9l31.8,31.8l-82.3,82.3c-0.9,1-2,2-3.1,2.8c-0.2,0.1-0.4,0.3-0.6,0.5
	c-0.2,0.1-0.4,0.3-0.6,0.5c-2.5,1.6-5.3,2.6-8.3,3.1c-0.2,0.1-0.4,0.1-0.5,0.1c-2.4,0.4-4.8,0.4-7.2,0c-0.3-0.1-0.6-0.1-0.9-0.2
	l-9.2-4.4c-0.1-0.1-0.2-0.2-0.4-0.3c-0.9-0.8-1.8-1.6-2.6-2.5L0,143L31.8,111.3z"/>
</svg>
