<?xml version="1.0" encoding="utf-8"?>
<!-- Generator: Adobe Illustrator 26.2.1, SVG Export Plug-In . SVG Version: 6.00 Build 0)  -->
<svg version="1.1" id="Layer_1" xmlns="http://www.w3.org/2000/svg" xmlns:xlink="http://www.w3.org/1999/xlink" x="0px" y="0px"
	 viewBox="0 0 315.7 315.7" style="enable-background:new 0 0 315.7 315.7;" xml:space="preserve">
<style type="text/css">
	.st0{fill:#FFFFFF;}
</style>
<g>
	<path class="st0" d="M264.4,5.9C260.5,2,254.5,0,250.6,0H19.7C7.9,0,0,7.9,0,19.7V296c0,11.8,7.9,19.7,19.7,19.7H296
		c11.8,0,19.7-7.9,19.7-19.7V65.1c0-5.9-2-9.9-5.9-13.8L264.4,5.9z M120.4,39.5h75v53.3h-75V39.5z M276.3,276.3H39.5V39.5h41.4v73
		c0,11.8,7.9,19.7,19.7,19.7h114.5c11.8,0,19.7-7.9,19.7-19.7l0-73h5.9L276.3,73L276.3,276.3z"/>
	<path class="st0" d="M215.1,183.5H100.6c-11.8,0-19.7,7.9-19.7,19.7c0,11.8,7.9,19.7,19.7,19.7h114.5c11.8,0,19.7-7.9,19.7-19.7
		C234.8,191.4,226.9,183.5,215.1,183.5L215.1,183.5z"/>
</g>
</svg>
