<?xml version="1.0" encoding="utf-8"?>
<!-- Generator: Adobe Illustrator 26.5.0, SVG Export Plug-In . SVG Version: 6.00 Build 0)  -->
<svg version="1.1" id="Layer_1" xmlns="http://www.w3.org/2000/svg" xmlns:xlink="http://www.w3.org/1999/xlink" x="0px" y="0px"
	 viewBox="0 0 30.1 30.1" style="enable-background:new 0 0 30.1 30.1;" xml:space="preserve">
<style type="text/css">
	.st0{fill:#FFFFFF;}
</style>
<path class="st0" d="M19.2,2.9l-1,1l-3.5-3.5l-3.1,3.1L15.2,7l-2.5,2.5l-4-4L1,13.1l6.7,6.7l2.7-2.7l4.9-4.9l6.5-6.5l2.8,2.8l-14,14
	l2.4,2.4l0.3-0.3c0.1,0.2,0.3,0.4,0.4,0.5c1.2,1.2,3.1,1.2,4.2,0s1.2-3.1,0-4.2c-0.2-0.2-0.3-0.3-0.5-0.4l1.4-1.4
	c0.1,0.2,0.3,0.4,0.4,0.5c1.2,1.2,3.1,1.2,4.2,0s1.2-3.1,0-4.2c-0.2-0.2-0.3-0.3-0.5-0.4l1.5-1.5c0.1,0.2,0.3,0.4,0.4,0.5
	c1.2,1.2,3.1,1.2,4.2,0s1.2-3.1,0-4.2c-0.2-0.2-0.3-0.3-0.5-0.4l1.4-1.4l-0.4-0.4l-2-2l-2.8-2.8L22.1,0L19.2,2.9z"/>
<path class="st0" d="M7,23.1c1.6,1.6,1.6,4.3,0,5.9s-6.8,0.9-6.8,0.9s-0.8-5.2,0.9-6.8S5.3,21.5,7,23.1z"/>
</svg>
