<?xml version="1.0" encoding="utf-8"?>
<!-- Generator: Adobe Illustrator 26.3.1, SVG Export Plug-In . SVG Version: 6.00 Build 0)  -->
<svg version="1.1" id="Layer_1" xmlns="http://www.w3.org/2000/svg" xmlns:xlink="http://www.w3.org/1999/xlink" x="0px" y="0px"
	 viewBox="0 0 246.3 283.8" style="enable-background:new 0 0 246.3 283.8;" xml:space="preserve">
<style type="text/css">
	.st0{fill:#18181b;}
</style>
<path class="st0" d="M81.1,124.2L61,144.3l37.9,37.9l0,0c5.5,5.5,14.5,5.5,20.1,0l71-71l-20.1-20.1l-61,61L81.1,124.2z"/>
<path class="st0" d="M132.6,3.3L123.1,0l-9.5,3.3L18.9,36.4L0,43.1v114.1c0,21.2,6.2,42,17.7,59.8c11.5,17.8,27.9,31.9,47.3,40.6
	l46.5,20.9l11.7,5.3l11.6-5.3l46.5-20.9l0,0c19.3-8.7,35.8-22.8,47.3-40.7c11.5-17.8,17.7-38.6,17.7-59.8V43l-18.9-6.7L132.6,3.3z
	 M217.8,157.2L217.8,157.2c0,15.7-4.6,31.2-13.1,44.4c-8.6,13.2-20.7,23.7-35.1,30.2l-46.5,20.9l-46.5-20.9
	c-14.4-6.5-26.6-16.9-35.1-30.2c-8.6-13.2-13.1-28.6-13.1-44.4v-94l94.7-33.2l94.7,33.2L217.8,157.2z"/>
</svg>
