<?xml version="1.0" encoding="utf-8"?>
<!-- Generator: Adobe Illustrator 26.4.0, SVG Export Plug-In . SVG Version: 6.00 Build 0)  -->
<svg version="1.1" id="Layer_1" xmlns="http://www.w3.org/2000/svg" xmlns:xlink="http://www.w3.org/1999/xlink" x="0px" y="0px"
	 viewBox="0 0 190.3 203.7" style="enable-background:new 0 0 190.3 203.7;" xml:space="preserve">
<style type="text/css">
	.st0{fill:#000000;}
	.st1{fill:#FFFFFF;}
</style>
<g>
	<path class="st0" d="M35.3,6.6c2.2-2,8-6.6,15.7-6.6C66.5,0,82.3,0,97.9,0s31.5,0,47,0.1c2.3,0,4.2,0.5,5,0.8l10.5,2.3l29.3,39.4
		c0,0.2,0,0.4,0.1,0.6c0.1,1.1,0.4,2.8,0.4,4.7c0,4.6,0,9.2,0,13.9c0,13.6,0,27.7,0.1,41.5l0,0.2c0,5.1-1.4,9.5-3.9,12.8
		c2.7,3.8,3.9,8.5,3.9,13.1l0,0.2c-0.3,17.7-0.3,35.7,0,53.5c0.1,6.2-1.7,11.2-5.3,15c-3.7,3.8-8.8,5.7-15.1,5.7h-0.1
		c-11.8,0-23.5,0-35.3-0.1c-17.4,0-35.4,0-53.1-0.1c-6.6,0-13.8-3-18.9-7.7c-9.5-8.8-47-46.1-55.3-54.8c-4.3-4.5-6.9-11.4-6.9-18.4
		c0-6.7,0.1-13.4,0.2-20C0.8,90,1,78.1,0.2,66.3C-1.1,47,4.9,33,19.1,22.3L35.3,6.6z"/>
	<path class="st1" d="M81.4,95.3c2.5,0,4.4,0,6.4,0c17.7,0,35.3,0.1,53-0.1c4.3,0,6.1,0.8,6.1,5.8c-0.3,18-0.3,36,0,54
		c0.1,4.2-1.3,5.4-5.4,5.4c-29.5-0.1-59,0-88.4-0.2c-2.9,0-6.5-1.6-8.7-3.7c-9.1-8.4-17.9-17-26.4-25.9c-1.8-1.9-2.7-5.3-2.7-8
		c-0.1-19.2,1.2-38.4-0.2-57.4c-0.9-13.3,2.4-22.9,13-30.9c0,0,11.4-11.2,17.3-16.6c1.4-1.3,3.6-2.6,5.5-2.6c31.3-0.1,62.7-0.1,94,0
		c0.3,0,0.6,0.2,1.5,0.4c0.1,1.2,0.4,2.6,0.4,4.1c0,18.5-0.1,37,0.1,55.5c0,4-1.2,5.1-5.2,5.1c-18.3-0.2-36.7-0.1-55-0.3
		c-4,0-5.9,0.8-5.4,5.3C81.7,87.9,81.4,91.1,81.4,95.3z"/>
</g>
</svg>
