<?xml version="1.0" encoding="utf-8"?>
<!-- Generator: Adobe Illustrator 26.4.0, SVG Export Plug-In . SVG Version: 6.00 Build 0)  -->
<svg version="1.1" id="Layer_1" xmlns="http://www.w3.org/2000/svg" xmlns:xlink="http://www.w3.org/1999/xlink" x="0px" y="0px"
	 viewBox="0 0 206.9 260.6" style="enable-background:new 0 0 206.9 260.6;" xml:space="preserve">
<style type="text/css">
	.st0{fill:#000000;}
	.st1{fill:#FFFFFF;}
</style>
<g>
	<path class="st0" d="M199.1,118.6c4.6,4.8,7.5,11.8,7.5,18.2c0.2,34.7,0.1,69,0.2,103.5c0,12.3-7.9,20.2-20.2,20.2
		c-18.6-0.1-37.2-0.1-55.8,0c-5.1,0-9.4-1.3-12.8-3.9c-4.9,4-10.6,4-12.6,4c-10.3-0.4-21.5,0-32.4-0.1c-7.3,0-16.4,0-23.2,0
		C35.3,261.1-0.4,221.6,0,210.9C0.1,147.8,0.1,83.6,0.1,21.5C-0.6,7.7,7.7-0.5,21.6,0.1c16.8,0,38.4,0.1,53.7-0.1
		c14.7-0.5,50.2,39.3,49.5,49.8L199.1,118.6z"/>
	<path class="st1" d="M97,136.5c-4.7,0-9-0.2-13.3,0.2c-1,0.1-2.5,2.4-2.5,3.8c-0.1,20.8-0.2,41.6,0.1,62.5
		c0.2,17.6,1.4,13.9-13.1,14.1c-15.6,0.2-31.3-0.1-46.9,0.1c-4.8,0.1-6.3-1.5-6.3-6.3c0.1-63.1,0.1-126.3,0.1-189.4
		c0-6.2,0.1-6.3,6.5-6.4c18,0,36,0.1,53.9-0.1c4.7-0.1,6,1.6,5.9,6.1c-0.3,15.2-0.2,30.3-0.4,45.5c-0.1,3.9,1.3,5.2,5.2,5.1
		c13.3-0.2,26.7-0.2,40,0c2.4,0,5.3,1.2,7,2.8c9.1,8.5,18.1,17.2,26.8,26.2c1.8,1.9,3.3,5.1,3.3,7.8c0.2,34.5,0.1,69,0.2,103.5
		c0,4-1.3,5.2-5.2,5.2c-18.6-0.1-37.3-0.1-55.9,0c-4,0-5.1-1.5-5-5.3c0.1-22.8,0.1-45.6,0.1-68.5C97.4,141.3,97.1,139.1,97,136.5z"
		/>
</g>
</svg>
