<?xml version="1.0" encoding="utf-8"?>
<!-- Generator: Adobe Illustrator 26.4.0, SVG Export Plug-In . SVG Version: 6.00 Build 0)  -->
<svg version="1.1" id="Layer_1" xmlns="http://www.w3.org/2000/svg" xmlns:xlink="http://www.w3.org/1999/xlink" x="0px" y="0px"
	 viewBox="0 0 124.6 260.5" style="enable-background:new 0 0 124.6 260.5;" xml:space="preserve">
<style type="text/css">
	.st0{fill:#9147FF;}
	.st1{fill:#FFFFFF;}
</style>
<g>
	<path class="st0" d="M0,211.3c0,12.6,36.4,49.1,48.9,49.1c18.2-0.2,36.5-0.2,54.7,0c12.6,0.4,21.1-7.9,20.9-20.7l0-190.1
		c0.1-2.4,0.2-9.7-5.5-15.5c-3.8-3.9-37.7-34.2-44-34.1C61,0.2,40.9,0.1,25.4,0.1c-7.2,0-13.9,0-19.6,5.7S0.1,18.2,0.1,25.4L0,211.3
		z"/>
	<path class="st1" d="M81.1,144.6c0,22.3-0.1,44.6,0.1,66.9c0,4.5-1.5,5.7-5.7,5.6c-18.3-0.2-36.6-0.2-54.9,0
		c-4.4,0-5.6-1.5-5.6-5.8c0.1-44.8,0.1-89.6,0-134.3c0-3.9,0.8-5.6,5.2-5.5c18.6,0.2,37.3,0.2,55.9,0c4.1,0,5.1,1.3,5,5.2
		C81,99.3,81.1,122,81.1,144.6z"/>
	<path class="st1" d="M81.1,55.5c-22.2,0-43.8,0-66,0c0-10.2,0-20.2,0-30.1c0-10.3,0-10.3,10.3-10.3c16.6,0,33.3,0.1,49.9-0.1
		c4.5-0.1,6,1.2,5.9,5.9C80.9,32.2,81.1,43.5,81.1,55.5z"/>
</g>
</svg>
