<?xml version="1.0" encoding="utf-8"?>
<!-- Generator: Adobe Illustrator 26.4.0, SVG Export Plug-In . SVG Version: 6.00 Build 0)  -->
<svg version="1.1" id="Layer_1" xmlns="http://www.w3.org/2000/svg" xmlns:xlink="http://www.w3.org/1999/xlink" x="0px" y="0px"
	 viewBox="0 0 182.4 260.3" style="enable-background:new 0 0 182.4 260.3;" xml:space="preserve">
<style type="text/css">
	.st0{fill:#000000;}
	.st1{fill:#FFFFFF;}
</style>
<g>
	<path class="st0" d="M161.3,260.2c-26.6-0.1-52.8,0.1-79.9-0.2c-7.6,0-14.6-3.9-18.6-7.6c-8.4-7.6-44.4-44.2-52.6-51.7
		C3.3,194.2-0.1,186.4,0,176.9c0.3-21,0.3-42.7,0.3-63.6c0-10.3,0-22.4,0-32.6c0-19.4,0-39.5-0.1-59.1C0.2,5.4,11.2-0.2,21.6,0
		c18.2,0.3,33.7,0.2,54,0c12.6-0.1,20.9,8.1,20.9,20.7c-0.2,12-0.1,23.8-0.1,35.8c12.6-0.1,25,0,37.6-0.1c6.1,0,39.6,30.2,43.2,34
		c3.6,3.7,5.3,8.5,5.2,14.4c-0.1,18.3-0.1,36.9,0,55.2c0,5-1.4,9.3-4,12.6c2.7,3.5,4,8,3.9,13.3c-0.2,17.8-0.2,35.8,0,53.5
		C182.8,252,173.8,260.8,161.3,260.2z"/>
	<path class="st1" d="M15.3,100.4c0-26.3,0.1-52.7-0.1-79c0-4.6,1.1-6.5,6.1-6.4c18.1,0.3,36.3,0.2,54.5,0c4.3,0,5.7,1.3,5.7,5.7
		c-0.3,15.2,0,30.3-0.2,45.5c-0.1,4.1,1.1,5.5,5.4,5.4c15.8-0.2,31.7,0,47.5-0.2c3.7,0,5,1.1,4.9,4.8c-0.1,18.5-0.1,37,0,55.5
		c0,3.8-1.5,4.8-5.1,4.8c-15.7-0.2-31.3,0-47-0.3c-4.2-0.1-5.9,0.9-5.8,5.5c0.3,10.2,0,10.2,10.4,10.2c14,0,28,0.1,42-0.1
		c4.1-0.1,5.5,1.3,5.4,5.5c-0.2,18-0.2,36,0,54c0.1,4.6-1.7,5.7-5.9,5.6c-26.7-0.1-53.3,0.1-80-0.2c-2.9,0-6.4-1.7-8.6-3.7
		c-8.2-7.5-15.9-15.7-24.1-23.3c-3.8-3.6-5.4-7.3-5.4-12.6C15.4,151.7,15.3,126.1,15.3,100.4z"/>
</g>
</svg>
