<?xml version="1.0" encoding="utf-8"?>
<!-- Generator: Adobe Illustrator 26.4.0, SVG Export Plug-In . SVG Version: 6.00 Build 0)  -->
<svg version="1.1" id="Layer_1" xmlns="http://www.w3.org/2000/svg" xmlns:xlink="http://www.w3.org/1999/xlink" x="0px" y="0px"
	 viewBox="0 0 288.7 204.2" style="enable-background:new 0 0 288.7 204.2;" xml:space="preserve">
<style type="text/css">
	.st0{fill:#000000;}
	.st1{fill:#FFFFFF;}
</style>
<g>
	<path class="st0" d="M83.5,204.2c-9.4,0-17-3.2-23.3-9.7c-3.8-4-36.2-36.3-40.5-40.4c-4-3.8-8.1-7.8-12-11.9
		c-4.7-5-7.6-12.1-7.6-18.5C0,89.1,0.1,54.8,0,20.3C0.1,5.1,10.8,0,20.2,0.2c18.6,0.2,37,0.2,55.6,0c5.3,0,9.9,1.4,13.3,4.1
		c3.5-2.7,8.2-4.2,13.7-4.2c18.1,0.3,36.4,0.3,54.5,0c4.8-0.1,9.8,1.1,13.7,4C174.5,1.5,179,0,184.4,0c18.7,0.2,37.3,0.2,56,0
		c12.1,0,48.3,36.2,48.3,48.4c-0.1,44.8-0.1,90.2,0,135c0,12.5-8.1,20.6-20.7,20.6C208.3,204.2,142.1,204,83.5,204.2z"/>
	<path class="st1" d="M146.1,160.8c-30.3,0-60.6-0.1-90.9,0.1c-5,0-8.8-1.3-12.4-5c-7.8-8.2-16.3-15.8-24.1-23.9
		c-1.9-2-3.5-5.4-3.5-8.2C15,89.3,15.1,54.8,15,20.3c0-3.9,0.9-5.2,5-5.1c18.7,0.2,37.3,0.2,56,0c4,0,5.2,1.2,5.2,5.1
		c-0.2,23.3,0,46.7-0.2,70c0,4.4,1.1,5.8,5.6,5.6c10.5-0.4,10.5-0.2,10.5-10.6c0-21.5,0.1-43-0.1-64.5c0-4.3,1-5.7,5.6-5.7
		c18.3,0.3,36.7,0.3,55,0c4.8-0.1,5.8,1.6,5.8,6c-0.2,23-0.1,46-0.3,69c-0.1,4.6,1.3,6,6,5.7c10.1-0.5,10.1-0.2,10.1-10.5
		c0-21.7,0.1-43.3-0.1-65c0-4.2,1.2-5.3,5.3-5.3c18.7,0.2,37.3,0.2,56,0c4,0,5,1.2,5,5.1c-0.1,45-0.1,90,0,135
		c0,4.5-1.5,5.6-5.7,5.6C208.4,160.7,177.3,160.8,146.1,160.8z"/>
</g>
</svg>
