<?xml version="1.0" encoding="utf-8"?>
<!-- Generator: Adobe Illustrator 26.0.3, SVG Export Plug-In . SVG Version: 6.00 Build 0)  -->
<svg version="1.1" id="Layer_1" xmlns="http://www.w3.org/2000/svg" xmlns:xlink="http://www.w3.org/1999/xlink" x="0px" y="0px"
	 viewBox="0 0 451.6 446.7" style="enable-background:new 0 0 451.6 446.7;" xml:space="preserve">
<style type="text/css">
	.st0{fill-rule:evenodd;clip-rule:evenodd;fill:#b71f1f;}
	.st1{fill-rule:evenodd;clip-rule:evenodd;fill:none;stroke:#b71f1f;stroke-width:34.0157;stroke-miterlimit:10;}
</style>
<path class="st0" d="M451.6,302.3c0-14.7,0-141.3,0-156H363C356.1,63.7,286.8,0,203.8,0S51.5,63.7,44.6,146.3H0
	c0,96.2,45.5,206.3,138.4,237.7l-28.2,23.7v38.9h187.2v-38.9L269.2,384c77.8-26.3,132.6-128.5,138-210.8h17.5v129H451.6z
	 M203.8,26.9c74.1,0,132.9,59.9,132.9,133.7c0,0,0,0,0,0v0c0,0,0,0,0,0c-0.5,73.1-59.8,132-132.9,132
	c-73.4,0-132.9-59.5-132.9-132.9C70.9,86.4,130.4,26.9,203.8,26.9z M203.8,367.9c-92.5,0-169.5-102.5-176.4-194.6h17.1
	c6.9,82.7,76.2,146.3,159.2,146.3h0c83,0,152.3-63.7,159.2-146.3h17.2C373.3,265.4,296.3,367.9,203.8,367.9z"/>
<line class="st1" x1="61.5" y1="159.8" x2="346.7" y2="159.8"/>
<path class="st1" d="M61.5,204.2c106.9,54,171.3,55.2,285.2,0"/>
<path class="st1" d="M346.7,112.9c-106.9-54-171.3-55.2-285.2,0"/>
</svg>
