<?xml version="1.0" encoding="utf-8"?>
<!-- Generator: Adobe Illustrator 26.3.1, SVG Export Plug-In . SVG Version: 6.00 Build 0)  -->
<svg version="1.1" id="Layer_1" xmlns="http://www.w3.org/2000/svg" xmlns:xlink="http://www.w3.org/1999/xlink" x="0px" y="0px"
	 viewBox="0 0 159.3 155.6" style="enable-background:new 0 0 159.3 155.6;" xml:space="preserve">
<style type="text/css">
	.st0{fill:#b71f1f;}
</style>
<path class="st0" d="M147.1,32.8L116.6,1.5c-4.1-3.5-10.5-0.6-10.5,4.8v18.1H24.4C10.9,24.5,0,35.4,0,48.9v48.8l20.5-20V58.1
	c0-3.7,3-6.7,6.7-6.7h79V70c0,5.4,6.4,8.4,10.5,4.8l30.5-32.4C150.1,39.9,150.1,35.3,147.1,32.8z"/>
<path class="st0" d="M12.2,122.8l30.5,31.3c4.1,3.5,10.5,0.6,10.5-4.8l0-18.1l81.7,0c13.5,0,24.4-10.9,24.4-24.4l0-48.8l-20.5,20
	l0,19.6c0,3.7-3,6.7-6.7,6.7l-79,0l0-18.6c0-5.4-6.4-8.4-10.5-4.8l-30.5,32.4C9.2,115.7,9.2,120.3,12.2,122.8z"/>
</svg>
