<?xml version="1.0" encoding="utf-8"?>
<!-- Generator: Adobe Illustrator 26.5.0, SVG Export Plug-In . SVG Version: 6.00 Build 0)  -->
<svg version="1.1" id="Layer_1" xmlns="http://www.w3.org/2000/svg" xmlns:xlink="http://www.w3.org/1999/xlink" x="0px" y="0px"
	 viewBox="0 0 30.1 30.1" style="enable-background:new 0 0 30.1 30.1;" xml:space="preserve">
<style type="text/css">
	.st0{fill:#b71f1f;}
</style>
<path class="st0" d="M0,26.3c0-2.1,1.7-3.8,3.8-3.8s3.8,1.7,3.8,3.8s-1.7,3.8-3.8,3.8H0V26.3z"/>
<path class="st0" d="M21.6,0l8.5,8.5l-1.4,1.4c1.3,0.8,1.7,2.5,0.9,3.9c-0.8,1.3-2.5,1.7-3.9,0.9c-0.4-0.2-0.7-0.6-0.9-0.9l-1.8,1.8
	c1.3,0.8,1.7,2.5,0.9,3.9c-0.8,1.3-2.5,1.7-3.9,0.9c-0.4-0.2-0.7-0.6-0.9-0.9l-1.8,1.8c1.3,0.8,1.7,2.5,0.9,3.9
	c-0.8,1.3-2.5,1.7-3.9,0.9c-0.4-0.2-0.7-0.6-0.9-0.9l-0.4,0.4l-2.8-2.8L24.4,8.5l-2.8-2.8L7.5,19.7l-6.6-6.6l7.5-7.5l3.8,3.8
	l2.9-2.9l-3.3-3.3l2.7-2.7l3.3,3.3L21.6,0z"/>
</svg>
