<?xml version="1.0" encoding="utf-8"?>
<!-- Generator: Adobe Illustrator 26.4.0, SVG Export Plug-In . SVG Version: 6.00 Build 0)  -->
<svg version="1.1" id="Logo" xmlns="http://www.w3.org/2000/svg" xmlns:xlink="http://www.w3.org/1999/xlink" x="0px" y="0px"
	 viewBox="0 0 248 204" style="enable-background:new 0 0 248 204;" xml:space="preserve">
<style type="text/css">
	.st0{fill:#b71f1f;}
</style>
<g id="Logo_1_">
	<path id="white_background" class="st0" d="M221.9,51.3c0.1,2.2,0.1,4.3,0.1,6.5c0,66.7-50.8,143.7-143.7,143.7v0
		c-27.4,0-54.3-7.8-77.4-22.6c4,0.5,8,0.7,12,0.7c22.7,0,44.8-7.6,62.7-21.7c-21.6-0.4-40.6-14.5-47.2-35.1
		c7.6,1.5,15.4,1.2,22.8-0.9c-23.6-4.8-40.5-25.5-40.5-49.5c0-0.2,0-0.4,0-0.6c7,3.9,14.9,6.1,22.9,6.3
		c-22.2-14.8-29-44.3-15.6-67.4c25.6,31.5,63.5,50.7,104.1,52.8c-4.1-17.5,1.5-35.9,14.6-48.2c20.3-19.1,52.3-18.1,71.4,2.2
		c11.3-2.2,22.1-6.4,32.1-12.3c-3.8,11.7-11.7,21.6-22.2,27.9c10-1.2,19.8-3.9,29-8C240.4,35.3,231.8,44.1,221.9,51.3z"/>
</g>
</svg>
