<?xml version="1.0" encoding="utf-8"?>
<!-- Generator: Adobe Illustrator 27.4.0, SVG Export Plug-In . SVG Version: 6.00 Build 0)  -->
<svg version="1.1" id="Layer_1" xmlns="http://www.w3.org/2000/svg" xmlns:xlink="http://www.w3.org/1999/xlink" x="0px" y="0px"
	 width="283.6px" height="230.4px" viewBox="0 0 283.6 230.4" style="enable-background:new 0 0 283.6 230.4;" xml:space="preserve"
	>
<style type="text/css">
	.st0{fill:#b71f1f;}
	.st1{fill:none;stroke:#b71f1f;stroke-width:23;stroke-linecap:round;stroke-miterlimit:10;}
</style>
<path class="st0" d="M135.4,1.2c-4.3-1.9-9-1.4-12.3,0.9L49.3,58.9H35.5C16.1,58.9,0,75,0,94.5v47.4c0,19.4,16.1,35.5,35.5,35.5
	h14.2l73.9,51.1c3.6,2.5,8.4,2.4,12.3,0.5c3.8-1.9,6.2-6.2,6.2-10.4v-207C142.1,7.3,139.7,3.1,135.4,1.2L135.4,1.2z"/>
<path class="st1" d="M170.8,72.3c23.7,0,42.9,19.2,42.9,42.9s-19.2,42.9-42.9,42.9"/>
<path class="st1" d="M170.8,23.1c50.9,0,92.1,41.3,92.1,92.1s-41.3,92.1-92.1,92.1"/>
</svg>
