<?xml version="1.0" encoding="utf-8"?>
<!-- Generator: Adobe Illustrator 26.4.0, SVG Export Plug-In . SVG Version: 6.00 Build 0)  -->
<svg version="1.1" id="Layer_1" xmlns="http://www.w3.org/2000/svg" xmlns:xlink="http://www.w3.org/1999/xlink" x="0px" y="0px"
	 viewBox="0 0 1244.5 308.4" style="enable-background:new 0 0 1244.5 308.4;" xml:space="preserve">
<style type="text/css">
	.st0{fill:rgba(0,0,0,.7);}
	.st1{fill:#FFFFFF;}
</style>
<path class="st0" d="M1236.7,61.6h-25.2c-4.3,0-7.9-3.5-7.9-7.9V23.3c0-4.3-3.5-7.9-7.9-7.9h-82.4c-3.2,0-6.2,1.2-8.4,3.5
	c-9.3,9.2-34,33.6-35.6,33.6H928.6c-4.3,0-7.9,3.5-7.9,7.9v20.3c-7.1-6.9-14.1-13.9-21.3-20.7c-1.8-1.7-4.9-2.9-7.4-3
	c-10.3-0.3-20.7-0.3-31,0c-4.5,0.1-5.7-1.5-5.6-5.8c0.2-14.7,0.1-29.3,0.1-44c0-6.7-0.5-7.2-7-7.2c-25.7,0-51.3,0.1-77-0.1
	c-5.3,0-8.7,1.7-11.7,5.9c-11.2,15.6-22.5,31-34.1,46.3c-1.6,2.1-4.4,4.5-6.6,4.5c-17.6,0.2-35.3,0.3-52.9-0.3
	c-10.5-0.3-19.8,0.8-26.8,9.7c-3.7,4.8-8.2,9-12.3,13.5c-0.7-0.3-0.8-0.3-1.5-0.6c0-5.4-0.3-10.8,0.1-16.1c0.4-5-1.6-6.2-6.3-6.1
	c-15.2,0.3-30.3,0-45.5,0.2c-4.1,0.1-5.6-1.2-5.5-5.4c0.2-15,0.1-30,0.1-45c0-5.9-0.6-6.5-6.7-6.5c-56.3,0-112.6,0-169,0
	c-6.2,0-6.9,0.7-6.9,6.9c0,14.7,0,29.3,0.2,44c0.1,4.4-1.1,6.1-5.9,6.1c-80.5-0.1-161-0.1-241.5,0c-3.7,0-6.2-1.3-8.3-4.3
	c-11.6-16-23.5-31.9-35.2-47.9C92.8,1.6,90.1,0,86,0C59.7,0.1,33.3,0,7,0.1c-6,0-7,0.9-7,7c0,60.3,0,120.6,0,181
	c0,4.6,1.6,8.2,5,11.5c12.4,11.9,24.6,24,36.8,36c23.2,22.8,46.3,45.6,69.7,68.2c2.2,2.2,6,3.9,9.1,3.9c35,0.3,70,0.1,105,0.3
	c5,0,6.3-1.7,6.1-6.4c-0.3-6.9-0.1-13.8-0.1-21.7c1.8,1.4,2.9,2.1,3.8,2.9c7.7,6.9,15.5,13.7,23,20.8c3.3,3.1,6.7,4.3,11.1,4.3
	c69.7-0.1,139.3-0.1,209-0.1c8,0,8,0,8-8c0-7,0-14.1,0-22.6c10,9.8,18.6,18.6,27.6,27c2,1.9,5.1,3.5,7.7,3.5c33,0.2,66,0.1,99,0.2
	c3.7,0,5-1.2,4.9-4.9c-0.2-8.4-0.1-16.9-0.1-25.3c1-0.4,1-0.4,2-0.8c8.1,8.6,16.3,17.1,24.3,25.8c3.4,3.7,7.1,5.3,12.2,5.3
	c57.7-0.1,115.4-0.2,173.1,0c-0.2,0.3-0.2,0.5,0,0.5h280.6c2.4,0,4.4-2,4.4-4.4l-0.3-26.4c0-1.6,2-2.2,2.9-0.9l17.9,29.5
	c1.4,1.3,3.3,2,5.3,2l15.2,0.2l0.4-0.5c5.1-0.1,9-1.8,12.6-5.5c21.4-21.2,42.9-42.3,64.5-63.4c2.7-2.6,3.8-5.4,3.8-9.2
	c0-8.1,0-16.3,0-24.4v-0.1v-136C1244.5,65.1,1241,61.6,1236.7,61.6z"/>
<path class="st1" d="M288,218.9c-30.3,0-60.6-0.1-90.9,0.1c-5,0-8.8-1.3-12.4-5c-7.8-8.2-16.3-15.8-24.1-23.9
	c-1.9-2-3.5-5.4-3.5-8.2c-0.2-34.5-0.1-69-0.2-103.5c0-3.9,0.9-5.2,5-5.1c18.7,0.2,37.3,0.2,56,0c4,0,5.2,1.2,5.2,5.1
	c-0.2,23.3,0,46.7-0.2,70c0,4.4,1.1,5.8,5.6,5.6c10.5-0.4,10.5-0.2,10.5-10.6c0-21.5,0.1-43-0.1-64.5c0-4.3,1-5.7,5.6-5.7
	c18.3,0.3,36.7,0.3,55,0c4.8-0.1,5.8,1.6,5.8,6c-0.2,23-0.1,46-0.3,69c-0.1,4.6,1.3,6,6,5.7c10.1-0.5,10.1-0.2,10.1-10.5
	c0-21.7,0.1-43.3-0.1-65c0-4.2,1.2-5.3,5.3-5.3c18.7,0.2,37.3,0.2,56,0c4,0,5,1.2,5,5.1c-0.1,45-0.1,90,0,135c0,4.5-1.5,5.6-5.7,5.6
	C350.3,218.8,319.2,218.9,288,218.9z"/>
<path class="st1" d="M854.2,138.3c-4.7,0-9-0.2-13.3,0.2c-1,0.1-2.5,2.4-2.5,3.8c-0.1,20.8-0.2,41.6,0.1,62.5
	c0.2,17.6,1.4,13.9-13.1,14.1c-15.6,0.2-31.3-0.1-46.9,0.1c-4.8,0.1-6.3-1.5-6.3-6.3c0.1-63.1,0.1-126.3,0.1-189.4
	c0-6.2,0.1-6.3,6.5-6.4c18,0,36,0.1,53.9-0.1c4.7-0.1,6,1.6,5.9,6.1c-0.3,15.2-0.2,30.3-0.4,45.5c-0.1,3.9,1.3,5.2,5.2,5.1
	c13.3-0.2,26.7-0.2,40,0c2.4,0,5.3,1.2,7,2.8c9.1,8.5,18.1,17.2,26.8,26.2c1.8,1.9,3.3,5.1,3.3,7.8c0.2,34.5,0.1,69,0.2,103.5
	c0,4-1.3,5.2-5.2,5.2c-18.6-0.1-37.3-0.1-55.9,0c-4,0-5.1-1.5-5-5.3c0.1-22.8,0.1-45.6,0.1-68.5
	C854.6,143.1,854.3,140.9,854.2,138.3z"/>
<path class="st1" d="M17.3,102.2c0-26.3,0.1-52.7-0.1-79c0-4.6,1.1-6.5,6.1-6.4c18.1,0.3,36.3,0.2,54.5,0c4.3,0,5.7,1.3,5.7,5.7
	c-0.3,15.2,0,30.3-0.2,45.5c-0.1,4.1,1.1,5.5,5.4,5.4c15.8-0.2,31.7,0,47.5-0.2c3.7,0,5,1.1,4.9,4.8c-0.1,18.5-0.1,37,0,55.5
	c0,3.8-1.5,4.8-5.1,4.8c-15.7-0.2-31.3,0-47-0.3c-4.2-0.1-5.9,0.9-5.8,5.5c0.3,10.2,0,10.2,10.4,10.2c14,0,28,0.1,42-0.1
	c4.1-0.1,5.5,1.3,5.4,5.5c-0.2,18-0.2,36,0,54c0.1,4.6-1.7,5.7-5.9,5.6c-26.7-0.1-53.3,0.1-80-0.2c-2.9,0-6.4-1.7-8.6-3.7
	c-8.2-7.5-15.9-15.7-24.1-23.3c-3.8-3.6-5.4-7.3-5.4-12.6C17.4,153.5,17.3,127.9,17.3,102.2z"/>
<path class="st1" d="M562.8,218.9c-12.8,0-25.7-0.1-38.5,0.1c-4.5,0.1-7.8-1.4-11-4.6c-8-8.2-16.3-16.2-24.6-24.1
	c-2.8-2.7-3.6-5.6-3.6-9.3c0.1-37.8,0.2-75.7,0.2-113.5c0-15,0-30-0.2-45c-0.1-4.1,1.3-5.6,5.4-5.5c18.5,0.2,37,0.2,55.5,0
	c4.1,0,5.5,1.2,5.4,5.4c-0.3,15.2-0.1,30.3-0.3,45.5c-0.1,4.3,1,5.8,5.6,5.7c15.7-0.3,31.3,0,47-0.2c4-0.1,5.1,1.2,5.1,5.1
	c-0.1,18.7,0,37.3,0.2,56c0,3.5-1.8,4.1-4.7,4c-15.7-0.1-31.3,0-47-0.3c-4.3-0.1-6.3,0.6-6,5.7c0.6,10,0.3,10,10.5,10
	c13.3,0,26.7,0,40,0c7.2,0,7,0,7,7.2c-0.1,17.3-0.2,34.7,0,52c0.1,4.6-1.4,6-6,5.9C589.4,218.7,576.1,218.9,562.8,218.9z"/>
<path class="st1" d="M690.9,153.9c2.5,0,4.4,0,6.4,0c17.7,0,35.3,0.1,53-0.1c4.3,0,6.1,0.8,6.1,5.8c-0.3,18-0.3,36,0,54
	c0.1,4.2-1.3,5.4-5.4,5.4c-29.5-0.1-59,0-88.4-0.2c-2.9,0-6.5-1.6-8.7-3.7c-9.1-8.4-17.9-17-26.4-25.9c-1.8-1.9-2.7-5.3-2.7-8
	c-0.1-19.2,1.2-38.4-0.2-57.4c-0.9-13.3,2.4-22.9,13-30.9c6.3-4.8,11.4-11.2,17.3-16.6c1.4-1.3,3.6-2.6,5.5-2.6
	c31.3-0.1,62.7-0.1,94,0c0.3,0,0.6,0.2,1.5,0.4c0.1,1.2,0.4,2.6,0.4,4.1c0,18.5-0.1,37,0.1,55.5c0,4-1.2,5.1-5.2,5.1
	c-18.3-0.2-36.7-0.1-55-0.3c-4,0-5.9,0.8-5.4,5.3C691.2,146.5,690.9,149.7,690.9,153.9z"/>
<path class="st1" d="M469.1,146.4c0,22.3-0.1,44.6,0.1,66.9c0,4.5-1.5,5.7-5.7,5.6c-18.3-0.2-36.6-0.2-54.9,0
	c-4.4,0-5.6-1.5-5.6-5.8c0.1-44.8,0.1-89.6,0-134.3c0-3.9,0.8-5.6,5.2-5.5c18.6,0.2,37.3,0.2,55.9,0c4.1,0,5.1,1.3,5,5.2
	C469,101.1,469.1,123.8,469.1,146.4z"/>
<path class="st1" d="M469.1,57.3c-22.2,0-43.8,0-66,0c0-10.2,0-20.2,0-30.1c0-10.3,0-10.3,10.3-10.3c16.6,0,33.3,0.1,49.9-0.1
	c4.5-0.1,6,1.2,5.9,5.9C468.9,34,469.1,45.3,469.1,57.3z"/>
<path class="st1" d="M1035.7,216.9v-24.6c0-3.5-2.8-6.3-6.3-6.3H1013c-3.5,0-6.3,2.8-6.3,6.3v24.6c0,3.5-2.8,6.3-6.3,6.3H944
	c-3.5,0-6.3-2.8-6.3-6.3V75.8c0-3.5,2.8-6.3,6.3-6.3h119.5c1.6,0,3.1,0.6,4.2,1.6l35,31.8c1.3,1.2,2.1,2.9,2.1,4.6v109.3
	c0,3.5-2.8,6.3-6.3,6.3H1042C1038.5,223.2,1035.7,220.4,1035.7,216.9z M1035.7,139.4v-8.3h-29v8.3H1035.7z"/>
<path class="st1" d="M1154.7,221.6l-34.9-31.7c-1.3-1.2-2.1-2.9-2.1-4.6V38.7c0-3.5,2.8-6.3,6.3-6.3h56.4c3.5,0,6.3,2.8,6.3,6.3
	v36.6c0,3.5,2.8,6.3,6.3,6.3h28.3c3.5,0,6.3,2.8,6.3,6.3v52c0,3.5-2.8,6.3-6.3,6.3h-31.4c-1.8,0-3.2,1.4-3.2,3.2v6.1
	c0,1.8,1.4,3.2,3.2,3.2h31.4c3.5,0,6.3,2.8,6.3,6.3v52c0,3.5-2.8,6.3-6.3,6.3h-62.4C1157.3,223.2,1155.8,222.6,1154.7,221.6z"/>
</svg>
