<?xml version="1.0" encoding="utf-8"?>
<!-- Generator: Adobe Illustrator 27.5.0, SVG Export Plug-In . SVG Version: 6.00 Build 0)  -->
<svg version="1.1" xmlns="http://www.w3.org/2000/svg" xmlns:xlink="http://www.w3.org/1999/xlink" x="0px" y="0px"
	 width="240.5px" height="240.5px" viewBox="0 0 240.5 240.5" style="enable-background:new 0 0 240.5 240.5;" xml:space="preserve"
	>
<path style="fill:#FFFFFF;" d="M216.7,96.5H144V23.8C144,10.7,133.3,0,120.2,0l0,0c-13.1,0-23.8,10.7-23.8,23.8v72.7H23.8
	C10.7,96.5,0,107.1,0,120.3l0,0c0,13.1,10.7,23.8,23.8,23.8h72.7v72.7c0,13.1,10.7,23.8,23.8,23.8l0,0c13.1,0,23.8-10.7,23.8-23.8
	v-72.7h72.7c13.1,0,23.8-10.7,23.8-23.8l0,0C240.5,107.1,229.9,96.5,216.7,96.5z"/>
</svg>
