<?xml version="1.0" encoding="utf-8"?>
<!-- Generator: Adobe Illustrator 27.8.1, SVG Export Plug-In . SVG Version: 6.00 Build 0)  -->
<svg version="1.1" xmlns="http://www.w3.org/2000/svg" xmlns:xlink="http://www.w3.org/1999/xlink" x="0px" y="0px"
	 viewBox="0 0 364 248.8" style="enable-background:new 0 0 364 248.8;" xml:space="preserve">
<g>
	<path d="M33.2,56.4c-2.5,0-5-0.6-7.3-1.9c-5.2-2.9-10.5-5.3-15.8-7.2C2.2,44.5-1.9,35.9,0.9,28.1
		C3.6,20.3,12.2,16.2,20,19c6.9,2.4,13.9,5.6,20.5,9.4c7.2,4.1,9.8,13.2,5.7,20.4C43.5,53.6,38.4,56.4,33.2,56.4z"/>
	<path d="M87.5,115.7c-5.6,0-11-3.2-13.6-8.6c-3-6.4-6.5-12.5-10.4-18.1c-4.7-6.8-3-16.2,3.8-20.9
		c6.8-4.7,16.2-3,20.9,3.8c4.8,7,9.2,14.5,12.9,22.3c3.5,7.5,0.3,16.4-7.1,20C91.8,115.2,89.6,115.7,87.5,115.7z"/>
	<path d="M103.9,191.7c-0.6,0-1.3,0-1.9-0.1c-7.4-1-12.9-7.2-13.1-14.6c-0.1-6.4-0.5-12.6-1.2-18.6
		c-0.9-8.2,5.1-15.6,13.3-16.5c3.2-0.3,6.3,0.3,8.9,1.8c3.2-0.4,6.6,0.2,9.6,1.9c7.1,4.2,9.6,13.4,5.4,20.5
		c-3.1,5.3-5.3,10.2-6.6,14.7C116.5,187.3,110.5,191.7,103.9,191.7z"/>
	<path d="M145.7,132.8c-3.9,0-7.8-1.5-10.8-4.6c-5.8-6-5.6-15.5,0.4-21.2c5-4.9,10.5-9.9,16.3-14.9
		c6.3-5.4,15.7-4.7,21.2,1.5c5.4,6.3,4.7,15.7-1.5,21.2c-5.4,4.6-10.4,9.3-15.1,13.7C153.2,131.4,149.4,132.8,145.7,132.8z"/>
	<path d="M203.2,85.8c-4.7,0-9.3-2.2-12.3-6.3c-4.8-6.8-3.2-16.1,3.6-20.9c10.2-7.2,16.9-11.5,17.2-11.6
		c7-4.4,16.3-2.4,20.7,4.6c4.4,7,2.4,16.3-4.6,20.7c-0.1,0-6.4,4.1-15.9,10.8C209.2,85,206.2,85.8,203.2,85.8z"/>
</g>
<path d="M349,248.8H15c-8.3,0-15-6.7-15-15v0c0-8.3,6.7-15,15-15h334c8.3,0,15,6.7,15,15v0
	C364,242.1,357.3,248.8,349,248.8z"/>
<circle cx="309.5" cy="54.5" r="54.5"/>
</svg>
