<?xml version="1.0" encoding="utf-8"?>
<!-- Generator: Adobe Illustrator 27.5.0, SVG Export Plug-In . SVG Version: 6.00 Build 0)  -->
<svg version="1.1" xmlns="http://www.w3.org/2000/svg" xmlns:xlink="http://www.w3.org/1999/xlink" x="0px" y="0px"
	 width="287.8px" height="287.8px" viewBox="0 0 287.8 287.8" style="enable-background:new 0 0 287.8 287.8;" xml:space="preserve"
	>
<path style="fill:#FFFFFF;" d="M287.8,0c0,96.1,0,191.1,0,287.1c-2.2-1.1-3.9-1.9-5.5-2.8c-38.6-22-77.2-44.2-115.8-66.1
	c-2.7-1.5-6.2-2.4-9.3-2.5c-14.7-0.3-29.3,0-44-0.2c-4-0.1-5.1,1.3-5,5.2c0.2,20.5-0.1,41,0.2,61.5c0.1,4.5-1.4,5.7-5.7,5.5
	c-8.7-0.3-17.3-0.2-26,0c-3.6,0.1-4.5-1.2-4.5-4.6c0.1-20.7-0.1-41.3,0.2-62c0.1-4.4-1.2-5.7-5.6-5.6c-10.2,0.3-20.3,0.2-30.5,0.1
	c-20.1-0.2-35.9-15.9-36-35.9c-0.1-24-0.1-48,0-72c0.1-20.4,15.8-36.1,36.2-36.1c40.3-0.1,80.7,0,121-0.1c3,0,6.3-0.9,8.9-2.4
	c38.7-21.9,77.2-44,115.8-66.1C283.6,2.2,285.2,1.4,287.8,0z M251.7,62.4c-1.8,0.8-3.2,1.3-4.4,2c-21.3,12.1-42.5,24.3-63.8,36.3
	c-2.7,1.5-3.5,3.4-3.5,6.4c0.1,24.3,0.1,48.7,0,73c0,3,0.8,4.9,3.5,6.4c21.6,12.2,43.1,24.6,64.7,36.8c1.1,0.6,2.3,0.9,3.5,1.4
	C251.7,170.5,251.7,116.8,251.7,62.4z M36.3,179c0.8,0.3,1.1,0.5,1.4,0.5c34.3,0.1,68.6,0.1,102.9,0.2c3.1,0,3.5-1.5,3.5-4.1
	c-0.1-21.3-0.1-42.6,0-63.9c0-2.9-0.8-4.1-4-4.1c-33.3,0.1-66.6,0.1-99.9,0c-3.9,0-4.2,1.8-4.2,4.9c0.1,21,0,42,0.1,62.9
	C36.1,176.6,36.2,177.7,36.3,179z"/>
</svg>
