<?xml version="1.0" encoding="utf-8"?>
<!-- Generator: Adobe Illustrator 27.9.0, SVG Export Plug-In . SVG Version: 6.00 Build 0)  -->
<svg version="1.1" xmlns="http://www.w3.org/2000/svg" xmlns:xlink="http://www.w3.org/1999/xlink" x="0px" y="0px"
	 viewBox="0 0 238 217.3" style="enable-background:new 0 0 238 217.3;" xml:space="preserve">
<path style="fill:#FFFFFF;" d="M34.3,170.7c-3.8,0-7.1-0.1-10.4,0c-5.5,0.3-5.8-3.4-5.7-7.4c0.1-3.8-0.8-8.3,5.4-8.2
	c0.7,0,1.5,0,2.2,0c8.9,0.6,16.3-0.8,23.9-7.5c15.6-13.6,40-9.8,53,6.5c1.1,1.4,2.2,2.9,3.6,4.6c8.5-4.9,17-4.8,25.5,0
	c6.6-9.7,14.9-16.3,26.4-18.4c13.6-2.5,25.4,1.3,35,11c2.8,2.8,5.3,4,9.1,3.7c3.9-0.3,7.8,0.1,11.7-0.1c5.9-0.3,6,3.6,5.9,7.7
	c0,4,0.3,8.2-5.7,7.9c-3.3-0.1-6.6,0-10.3,0c0,4.6,0.4,8.8-0.1,12.9c-2.5,19.6-19.7,34.3-39.3,33.6c-20.2-0.6-36.6-16.6-37.7-36.7
	c-0.4-6.3-2.9-9.6-7.5-9.8c-4.7-0.2-7.7,3.3-8,9.3c-1.3,22-19.9,38.9-41.1,37.2c-22.6-1.8-38.5-20.9-36.1-43.6
	C34.2,172.9,34.2,172.1,34.3,170.7z"/>
<path style="fill:#FFFFFF;" d="M50.4,17.4c2.9-14,16.6-21,30.1-15.7c6.2,2.4,12.2,5.3,18.3,8c13.5,6.1,27,6.1,40.6,0
	c5.6-2.5,11.2-5.1,16.9-7.5c15.4-6.5,29.3,1.2,31.9,17.6c1.7,10.6,10.2,67.3,10.2,67.3s20.6,0,30.9,0c7.8,0,10.3,3.2,7.9,10.9
	c-0.4,1.2-2.1,2.4-3.4,2.9c-1.3,0.5-151.3,0.2-224.8,0.2c-7.7,0-10.8-4.1-7.8-11.4c0.5-1.3,3.3-2.5,5.1-2.5
	c11-0.2,33.5-0.1,33.5-0.1S48.1,28.8,50.4,17.4z"/>
</svg>
