<?xml version="1.0" encoding="utf-8"?>
<!-- Generator: Adobe Illustrator 27.5.0, SVG Export Plug-In . SVG Version: 6.00 Build 0)  -->
<svg version="1.1" xmlns="http://www.w3.org/2000/svg" xmlns:xlink="http://www.w3.org/1999/xlink" x="0px" y="0px"
	 width="400.7px" height="449.4px" viewBox="0 0 400.7 449.4" style="enable-background:new 0 0 400.7 449.4;" xml:space="preserve"
	>
<path style="fill:#FFFFFF;" d="M367,273.3v-96.6c19.4-4.7,33.6-21.8,33.6-42.6c0-24.2-19.4-43.6-43.6-43.6
	c-12.3,0-23.7,5.2-31.7,13.7L242,56.4c1.4-3.8,1.9-8.1,1.9-12.8c0-24.2-19.4-43.6-43.6-43.6s-43.6,19.4-43.6,43.6
	c0,4.3,0.9,8.5,1.9,12.3l-83.3,48.3c-8.1-8.5-19.4-13.7-31.7-13.7C19.4,90.5,0,109.9,0,134c0,20.8,14.7,37.9,33.6,42.6v96.1
	C14.2,277.5,0,294.6,0,315.4C0,339.6,19.4,359,43.6,359c12.3,0,23.7-5.2,31.7-13.7l83.4,48.3c-0.9,3.8-1.9,8.1-1.9,12.3
	c0,24.2,19.4,43.6,43.6,43.6s43.6-19.4,43.6-43.6c0-4.3-0.9-8.5-1.9-12.3l83.4-48.3c8.1,8.5,19.4,13.7,31.7,13.7
	c24.2,0,43.6-19.4,43.6-43.6C401.1,295,386.4,277.5,367,273.3L367,273.3z M325.4,285.6L242,237.7c1.4-3.8,1.9-8.1,1.9-12.8
	c0-4.3-0.9-8.5-1.9-12.3l83.4-48.3c5.7,6.2,13.3,10.4,21.8,12.3v96.1C338.6,275.1,331.5,279.4,325.4,285.6z M200.3,248.6
	c-13.3,0-23.7-10.9-23.7-23.7s10.9-23.7,23.7-23.7s23.7,10.9,23.7,23.7S213.6,248.6,200.3,248.6z M53.5,273.3v-96.6
	c8.5-1.9,16.1-6.6,21.8-12.3l83.4,48.3c-0.9,3.8-1.9,8.1-1.9,12.3s0.9,8.5,1.9,12.3l-83.4,48.3C69.1,279.4,62,275.1,53.5,273.3
	L53.5,273.3z M357.1,110.3c13.3,0,23.7,10.9,23.7,23.7s-10.9,23.7-23.7,23.7c-13.3,0-23.7-10.9-23.7-23.7S344.3,110.3,357.1,110.3z
	 M315.4,121.7c-1.4,3.8-1.9,8.1-1.9,12.3s0.9,8.5,1.9,12.8L232,195.1c-5.7-6.2-13.3-10.4-21.8-12.8V86.2c8.5-1.9,16.1-6.6,21.8-12.3
	L315.4,121.7z M200.3,19.9c13.3,0,23.7,10.9,23.7,23.7s-10.9,23.7-23.7,23.7s-23.7-10.9-23.7-23.7S187.1,19.9,200.3,19.9z
	 M168.6,73.4c5.7,6.2,13.3,10.4,21.8,12.8v96.1c-8.5,1.9-16.1,6.6-21.8,12.8l-83.3-48.3c1.4-3.8,1.9-8.1,1.9-12.8
	c0-4.3-0.9-8.5-1.9-12.8L168.6,73.4z M19.4,134.5c0-13.3,10.9-23.7,23.7-23.7c13.3,0,23.7,10.9,23.7,23.7s-10.9,23.7-23.7,23.7
	S19.4,147.3,19.4,134.5z M43.6,339.6c-13.3,0-23.7-10.9-23.7-23.7c0-13.3,10.9-23.7,23.7-23.7c13.3,0,23.7,10.9,23.7,23.7
	C67.2,328.7,56.4,339.6,43.6,339.6z M85.2,328.2c1.4-3.8,1.9-8.1,1.9-12.8c0-4.3-0.9-8.5-1.9-12.3l83.4-48.3
	c5.7,6.2,13.3,10.4,21.8,12.8v96.1c-8.5,1.9-16.1,6.6-21.8,12.8L85.2,328.2z M200.3,430c-13.3,0-23.7-10.9-23.7-23.7
	c0-13.3,10.9-23.7,23.7-23.7s23.7,10.9,23.7,23.7S213.6,430,200.3,430z M232.1,376c-5.7-6.2-13.3-10.4-21.8-12.8v-95.7
	c8.5-1.9,16.1-6.6,21.8-12.3l83.4,48.3c-1.4,3.8-1.9,8.1-1.9,12.3c0,4.3,0.9,8.5,1.9,12.8L232.1,376z M357.1,339.6
	c-13.3,0-23.7-10.9-23.7-23.7c0-13.3,10.9-23.7,23.7-23.7c13.3,0,23.7,10.9,23.7,23.7C381.2,328.7,370.3,339.6,357.1,339.6z"/>
</svg>
