<?xml version="1.0" encoding="utf-8"?>
<!-- Generator: Adobe Illustrator 27.5.0, SVG Export Plug-In . SVG Version: 6.00 Build 0)  -->
<svg version="1.1" xmlns="http://www.w3.org/2000/svg" xmlns:xlink="http://www.w3.org/1999/xlink" x="0px" y="0px"
	 width="161.6px" height="140px" viewBox="0 0 161.6 140" style="enable-background:new 0 0 161.6 140;" xml:space="preserve">
<path style="fill:#FFFFFF;" d="M121.2,0H40.4L0,70l40.4,70h80.8l40.4-70L121.2,0z M93.3,109.8c-0.7,1.6-1.7,3-2.9,4.2
	c-1.3,1.2-2.7,2.1-4.4,2.7c-1.7,0.6-3.4,0.9-5.2,0.9c-1.8,0-3.6-0.3-5.2-0.9c-1.7-0.6-3.1-1.5-4.4-2.7s-2.2-2.6-2.9-4.2
	c-0.7-1.6-1-3.4-1-5.3c0-1.8,0.3-3.6,1-5.2c0.7-1.7,1.7-3.1,2.9-4.3c1.3-1.2,2.7-2.2,4.4-2.9c1.7-0.7,3.4-1.1,5.2-1.1
	c1.8,0,3.6,0.4,5.2,1.1c1.7,0.7,3.1,1.7,4.4,2.9c1.3,1.2,2.2,2.7,2.9,4.3c0.7,1.7,1,3.4,1,5.2C94.4,106.5,94,108.2,93.3,109.8z
	 M94,40.9c-0.3,1.9-0.7,3.9-1.1,5.9s-0.9,3.9-1.3,5.7s-0.8,3.4-1,4.7l-6.7,27.5h-6.8l-7.3-31.6c-0.6-2.7-1.2-5.4-1.8-8.1
	c-0.6-2.7-0.9-5.4-0.9-8.2c0-5.2,1.2-9,3.7-11.2c2.5-2.3,5.8-3.4,10-3.4c4.3,0,7.6,1.2,10,3.5s3.7,5.8,3.7,10.3
	C94.5,37.4,94.3,39,94,40.9z"/>
</svg>
