<?xml version="1.0" encoding="UTF-8"?>
<svg xmlns="http://www.w3.org/2000/svg" version="1.1" viewBox="0 0 71.5 61.1">
  <defs>
    <style>
      .cls-1 {
        fill: #fff;
      }
    </style>
  </defs>
  <!-- Generator: Adobe Illustrator 28.6.0, SVG Export Plug-In . SVG Version: 1.2.0 Build 709)  -->
  <g>
    <g id="Layer_1">
      <path class="cls-1" d="M60.1,40.3c6.3,0,11.5-4.5,11.5-10.1h-3.1c.6-.6.9-1.4.6-2.3l-7-21.8s0,0,0,0c0-.4-.2-.8-.5-1.2-.9-1.3-1.9-1.4-13.1-1.1-2.3,0-5.2.1-6.8.1C40.8,1.4,38.4,0,36,0c0,0,0,0,0,0-2.4,0-4.8,1.3-5.7,3.9H12.3c-.4,0-.8.2-1.2.4-1.6,1-2.9,4.6-6.6,17.8-.7,2.6-1.4,4.9-1.7,5.8-.3.9,0,1.8.6,2.3H0c0,5.6,5.1,10.1,11.5,10.1s11.5-4.5,11.5-10.1h-3.5c.6-.5.9-1.4.6-2.2l-5.9-19.8h16c.4,1.2,1.3,2.3,2.5,3,.4.2.8.4,1.2.5v36.7c-5.8,0-11,0-11.6.2-3.7.6-2.4,4.4-3.2,4.7-5.9-.4-10.1.6-9,7.5,6.5-.7,49.2.9,51.6,0,.2,0,.4-.5.6-.6.1-9.4-9.4-6.1-9.8-6.9,0-2-.8-4.3-3-4.7-.6-.1-5.7-.2-11.3-.2V11.7c.5-.1.8-.3,1.1-.4,1.2-.7,2.1-1.7,2.5-3,1.5,0,3.8,0,7-.1,2.8,0,6.7-.2,8.9-.1-.5,1.9-1.6,5.7-2.6,8.8-1.4,4.7-2.9,9.5-3.3,11.3-.2.8.1,1.6.7,2.1h-3.8c0,5.6,5.1,10.1,11.5,10.1ZM35.9,4.3s0,0,0,0c.4,0,1.7.1,1.7,1.7,0,.7-.2,1.2-.7,1.5-.6.3-1.5.3-2.1,0-.5-.3-.7-.8-.7-1.5,0-1.5,1.3-1.7,1.7-1.7ZM16.6,30.3H6.3c.3-.2.5-.5.6-.9.4-1,1-3.3,1.8-6.1.7-2.4,1.7-6.1,2.7-9.3l4.6,15.3c.1.4.3.7.6,1ZM55.9,29.1c.4-1.7,1.9-6.6,3.2-11,.4-1.4.8-2.6,1.1-3.7l4.8,14.9c.1.4.3.7.6,1h-10.3c.3-.3.6-.7.7-1.1Z"/>
    </g>
  </g>
</svg>