<?xml version="1.0" encoding="utf-8"?>
<!-- Generator: Adobe Illustrator 27.5.0, SVG Export Plug-In . SVG Version: 6.00 Build 0)  -->
<svg version="1.1" xmlns="http://www.w3.org/2000/svg" xmlns:xlink="http://www.w3.org/1999/xlink" x="0px" y="0px"
	 width="16px" height="16px" viewBox="0 0 16 16" style="enable-background:new 0 0 16 16;" xml:space="preserve">
<path style="fill:#FFFFFF;" d="M8,0C3.6,0,0,3.6,0,8s3.6,8,8,8s8-3.6,8-8S12.4,0,8,0z M14.5,8c0,1.3-0.4,2.5-1,3.5l-9-9
	c1-0.6,2.2-1,3.5-1C11.6,1.5,14.5,4.4,14.5,8z M1.5,8c0-1.3,0.4-2.5,1-3.5l9,9c-1,0.6-2.2,1-3.5,1C4.4,14.5,1.5,11.6,1.5,8z"/>
</svg>
