<?xml version="1.0" encoding="utf-8"?>
<!-- Generator: Adobe Illustrator 27.5.0, SVG Export Plug-In . SVG Version: 6.00 Build 0)  -->
<svg version="1.1" xmlns="http://www.w3.org/2000/svg" xmlns:xlink="http://www.w3.org/1999/xlink" x="0px" y="0px"
	 width="451.6px" height="446.7px" viewBox="0 0 451.6 446.7" style="enable-background:new 0 0 451.6 446.7;" xml:space="preserve"
	>
<path style="fill:#FFFFFF;" d="M363,146.3C356.1,63.7,286.8,0,203.8,0S51.5,63.7,44.6,146.3H0C0,242.5,45.5,352.6,138.4,384
	l-28.2,23.7v38.9h187.2v-38.9L269.2,384c77.8-26.3,132.6-128.5,138-210.8h17.5v129h26.9c0-15.1,0-141.2,0-155.9H363z M72,176.8
	h263.6c-0.7,5.2-1.6,10.3-2.9,15.2c-102.2,48.4-159.8,48.3-257.9-0.2C73.6,186.9,72.6,181.9,72,176.8z M72,142.8
	c0.8-6,2-12,3.5-17.7c101.7-48.2,159.2-48.3,256.4-0.6c1.6,5.9,2.9,12,3.7,18.3H72z M202.4,262.1c34.3,0,68.9-7.8,108.3-23.4
	c-24.2,32.7-63.1,53.9-106.9,53.9c-43.5,0-82.2-20.9-106.4-53.3C135,254.5,168.5,262.1,202.4,262.1z M203.8,26.9
	c42,0,79.1,19.3,103.4,49.4c-73.4-28.9-131.6-28.5-207.9,1.3C123.6,46.8,161.4,26.9,203.8,26.9z M203.8,367.9
	c-92.5,0-169.5-102.5-176.4-194.6h17.1c6.9,82.7,76.2,146.3,159.2,146.3S356,255.9,362.9,173.3h17.2
	C373.3,265.4,296.3,367.9,203.8,367.9z"/>
</svg>
