<?xml version="1.0" encoding="UTF-8"?>
<svg id="Layer_1" xmlns="http://www.w3.org/2000/svg" version="1.1" viewBox="0 0 114 54.34">
  <!-- Generator: Adobe Illustrator 30.1.0, SVG Export Plug-In . SVG Version: 2.1.1 Build 136)  -->
  <defs>
    <style>
      .st0 {
        fill: #fff;
      }
    </style>
  </defs>
  <g>
    <rect x="25.5" width="12" height="7.5"/>
    <polygon points="108 10.5 93 10.5 88.5 15 88.5 10.5 67.5 10.5 62.25 15.75 57 10.5 37.5 10.5 36 10.5 25.5 10.5 25.5 15 21 10.5 12 10.5 12 0 0 0 0 37.5 9.6 45.61 27.06 45.61 30.81 41.87 30.81 45.61 39.54 45.61 40.78 45.61 49.52 45.61 49.52 33.14 51 37.5 52.01 45.61 61.5 45.61 61.5 48 61.51 48 63.28 54.34 76.54 54.34 81.53 49.35 82.5 48 85.91 44.59 86.94 45.61 99.41 45.61 104.4 40.62 108 37.5 114 31.5 114 16.5 108 10.5"/>
  </g>
  <path class="st0" d="M2,35.5V2h8v10.5h10.17l4.83,4.83v13.34l-4.83,4.83H2ZM10,29h7v-10h-7v10Z"/>
  <path class="st0" d="M27.5,35.5V12.5h8v23h-8ZM27.5,5.5V2h8v3.5h-8Z"/>
  <polygon class="st0" points="53 35.5 53 20.5 46 20.5 46 35.5 38 35.5 38 12.5 56.17 12.5 61 17.33 61 35.5 53 35.5"/>
  <path class="st0" d="M63.5,46v-3.5h15v-7h-10.17l-4.83-4.83v-13.34l4.83-4.83h18.17v28.67l-4.83,4.83h-18.17ZM71.5,29h7v-10h-7v10Z"/>
  <path class="st0" d="M93.83,35.5l-4.83-4.83v-13.34l4.83-4.83h13.34l4.83,4.83v13.34l-4.83,4.83h-13.34ZM97,29h7v-10h-7v10Z"/>
</svg>