<?xml version="1.0" encoding="utf-8"?>
<!-- Generator: Adobe Illustrator 27.5.0, SVG Export Plug-In . SVG Version: 6.00 Build 0)  -->
<svg version="1.1" xmlns="http://www.w3.org/2000/svg" xmlns:xlink="http://www.w3.org/1999/xlink" x="0px" y="0px"
	 width="111.7px" height="111.6px" viewBox="0 0 111.7 111.6" style="enable-background:new 0 0 111.7 111.6;" xml:space="preserve"
	>
<path style="fill:#FFFFFF;" d="M111.7,0c0,0.4,0,0.8,0,1.1c0,5.7,0,11.4,0,17.2c0,13.9-4.6,26.3-13.6,36.9c-1.1,1.3-2.2,2.4-3.4,3.6
	C86.6,66.9,78.6,75,70.5,83c-0.5,0.5-0.7,1-0.7,1.7c0,4.6,0.1,9.2-0.1,13.8c-0.2,6.9-6.1,12.7-13,13c-2.6,0.1-5.2,0-7.9,0
	c0-0.4,0-0.8,0-1.2c0-6.3,0-12.5,0-18.8c0-0.5-0.3-1.2-0.7-1.6C39.3,81,30.4,72.2,21.6,63.3c-0.5-0.5-1-0.7-1.7-0.7
	c-6.2,0-12.4,0-18.6,0c-0.4,0-0.8,0-1.3,0c0.2-4.4-0.7-8.8,1.4-13c2.5-5,6.6-7.7,12.2-7.9c4.4-0.2,8.9-0.1,13.3,0
	c0.7,0,1.2-0.2,1.7-0.7c8-8,16-16,24-24.1C58.8,11,65.8,6.3,74,3.3C80.1,1.1,86.5,0,93,0c6,0,11.9,0,17.9,0C111.1,0,111.3,0,111.7,0
	z M97.8,14c-1.7,0-3.1,0-4.6,0c-4.4,0-8.7,0.6-12.8,1.9c-6.9,2.2-12.8,5.9-17.9,11.1c-9.3,9.4-18.7,18.8-28.1,28.1
	c-0.2,0.2-0.5,0.4-0.6,0.5C41.2,63,48.6,70.4,56,77.8c0.1-0.1,0.3-0.2,0.4-0.4c9.6-9.6,19.3-19.3,28.9-29c2.1-2.1,4-4.5,5.7-7.1
	c3.5-5.3,5.6-11.1,6.3-17.4C97.7,20.7,97.7,17.4,97.8,14z"/>
<path style="fill:#FFFFFF;" d="M0,111.6c0-4.7,0-9.3,0-13.9c0-1.2,0.1-2.3,0.4-3.5c1.4-5.8,6.5-10,12.4-10.5
	c7.4-0.6,14.3,4.7,15.1,12.7c0.7,7.1-4.5,13.9-11.8,15c-0.8,0.1-1.6,0.1-2.5,0.1c-4.1,0-8.3,0-12.4,0C0.9,111.6,0.5,111.6,0,111.6z"
	/>
<path style="fill:#FFFFFF;" d="M83.7,34.9c0,3.8-3.1,7-6.9,7c-3.9,0-7-3.1-7-7s3.1-6.9,7-6.9C80.6,27.9,83.7,31,83.7,34.9z"/>
</svg>
