<?xml version="1.0" encoding="utf-8"?>
<!-- Generator: Adobe Illustrator 27.5.0, SVG Export Plug-In . SVG Version: 6.00 Build 0)  -->
<svg version="1.1" xmlns="http://www.w3.org/2000/svg" xmlns:xlink="http://www.w3.org/1999/xlink" x="0px" y="0px"
	 width="48.8px" height="28.1px" viewBox="0 0 48.8 28.1" style="enable-background:new 0 0 48.8 28.1;" xml:space="preserve">
<circle style="fill:#FFFFFF;" cx="17" cy="12.2" r="3.8"/>
<circle style="fill:#FFFFFF;" cx="31.9" cy="12.2" r="3.8"/>
<g>
	<path style="fill:#FFFFFF;" d="M27.7,19.7h-6.5c-0.8,0-1.4,0.6-1.4,1.4s0.6,1.4,1.4,1.4h6.5c0.8,0,1.4-0.6,1.4-1.4
		S28.5,19.7,27.7,19.7z"/>
	<path style="fill:#FFFFFF;" d="M47.4,12.6h-3.6V1.4c0-0.8-0.6-1.4-1.4-1.4h-36C5.6,0,5,0.6,5,1.4v11.2H1.4C0.6,12.6,0,13.2,0,14
		s0.6,1.4,1.4,1.4H5v11.2C5,27.4,5.6,28,6.4,28h36c0.8,0,1.4-0.6,1.4-1.4V15.4h3.6c0.8,0,1.4-0.6,1.4-1.4S48.2,12.6,47.4,12.6z
		 M41,25.2H7.8V2.8H41V25.2z"/>
</g>
</svg>
