<?xml version="1.0" encoding="utf-8"?>
<!-- Generator: Adobe Illustrator 28.3.0, SVG Export Plug-In . SVG Version: 6.00 Build 0)  -->
<svg version="1.1" xmlns="http://www.w3.org/2000/svg" xmlns:xlink="http://www.w3.org/1999/xlink" x="0px" y="0px"
	 viewBox="0 0 669 669" style="enable-background:new 0 0 669 669;" xml:space="preserve">
<g>
	<path style="fill:#FFFFFF;" d="M334.5,173.1c-89.1,0-161.4,72.3-161.4,161.4s72.3,161.4,161.4,161.4c89.1,0,161.4-72.3,161.4-161.4
		S423.6,173.1,334.5,173.1z M334.5,427.5c-51.4,0-93-41.7-93-93c0-51.4,41.7-93,93-93s93,41.7,93,93
		C427.5,385.9,385.9,427.5,334.5,427.5z"/>
</g>
<g>
	<path style="fill:#FFFFFF;" d="M334.5,141.8L334.5,141.8c-23.1,0-41.8-18.7-41.8-41.8V41.8c0-23.1,18.7-41.8,41.8-41.8h0
		c23.1,0,41.8,18.7,41.8,41.8V100C376.2,123.1,357.5,141.8,334.5,141.8z"/>
</g>
<g>
	<path style="fill:#FFFFFF;" d="M198.2,198.2L198.2,198.2c-16.3,16.3-42.8,16.3-59.1,0L98,157c-16.3-16.3-16.3-42.8,0-59.1l0,0
		c16.3-16.3,42.8-16.3,59.1,0l41.2,41.2C214.5,155.5,214.5,181.9,198.2,198.2z"/>
</g>
<g>
	<path style="fill:#FFFFFF;" d="M141.8,334.5L141.8,334.5c0,23.1-18.7,41.8-41.8,41.8H41.8C18.7,376.2,0,357.5,0,334.5l0,0
		c0-23.1,18.7-41.8,41.8-41.8H100C123.1,292.7,141.8,311.4,141.8,334.5z"/>
</g>
<g>
	<path style="fill:#FFFFFF;" d="M198.2,470.7L198.2,470.7c16.3,16.3,16.3,42.8,0,59.1L157,571c-16.3,16.3-42.8,16.3-59.1,0l0,0
		c-16.3-16.3-16.3-42.8,0-59.1l41.2-41.2C155.5,454.4,181.9,454.4,198.2,470.7z"/>
</g>
<g>
	<path style="fill:#FFFFFF;" d="M334.5,527.2L334.5,527.2c23.1,0,41.8,18.7,41.8,41.8v58.2c0,23.1-18.7,41.8-41.8,41.8h0
		c-23.1,0-41.8-18.7-41.8-41.8V569C292.7,545.9,311.4,527.2,334.5,527.2z"/>
</g>
<g>
	<path style="fill:#FFFFFF;" d="M470.7,470.7L470.7,470.7c16.3-16.3,42.8-16.3,59.1,0l41.2,41.2c16.3,16.3,16.3,42.8,0,59.1l0,0
		c-16.3,16.3-42.8,16.3-59.1,0l-41.2-41.2C454.4,513.5,454.4,487.1,470.7,470.7z"/>
</g>
<g>
	<path style="fill:#FFFFFF;" d="M527.2,334.5L527.2,334.5c0-23.1,18.7-41.8,41.8-41.8h58.2c23.1,0,41.8,18.7,41.8,41.8v0
		c0,23.1-18.7,41.8-41.8,41.8H569C545.9,376.2,527.2,357.5,527.2,334.5z"/>
</g>
<g>
	<path style="fill:#FFFFFF;" d="M470.7,198.2L470.7,198.2c-16.3-16.3-16.3-42.8,0-59.1L511.9,98c16.3-16.3,42.8-16.3,59.1,0l0,0
		c16.3,16.3,16.3,42.8,0,59.1l-41.2,41.2C513.5,214.5,487.1,214.5,470.7,198.2z"/>
</g>
<g>
	<circle style="fill:#FFFFFF;" cx="334.5" cy="334.5" r="29.1"/>
</g>
</svg>
