<?xml version="1.0" encoding="utf-8"?>
<!-- Generator: Adobe Illustrator 27.5.0, SVG Export Plug-In . SVG Version: 6.00 Build 0)  -->
<svg version="1.1" xmlns="http://www.w3.org/2000/svg" xmlns:xlink="http://www.w3.org/1999/xlink" x="0px" y="0px"
	 width="426.2px" height="319.7px" viewBox="0 0 426.2 319.7" style="enable-background:new 0 0 426.2 319.7;" xml:space="preserve"
	>
<path style="fill:#FFFFFF;" d="M0,143.9C0,88.5,21.1,38,55.6,0l22.1,20.1C48,52.8,29.9,96.2,29.9,143.9S48,235,77.7,267.7
	l-22.1,20.1C21,249.8,0,199.3,0,143.9L0,143.9z M348.5,267.7c29.7-32.7,47.8-76.1,47.8-123.8s-18.1-91.1-47.8-123.8L370.6,0
	c34.5,38,55.6,88.5,55.6,143.9s-21.1,105.9-55.6,143.9L348.5,267.7z M90.9,143.9c0-32.2,12.2-61.6,32.3-83.7l22.1,20.1
	c-15.3,16.8-24.6,39.1-24.6,63.6s9.3,46.8,24.6,63.6l-22.1,20.1C103.1,205.4,90.9,176.1,90.9,143.9L90.9,143.9z M180.2,143.8
	c0-18.2,14.7-32.9,32.9-32.9s32.9,14.7,32.9,32.9c0,14.7-9.6,27.1-22.9,31.4l28.4,144.5h-76.7l28.4-144.5
	C189.8,170.9,180.2,158.4,180.2,143.8L180.2,143.8z M280.9,207.5c15.3-16.8,24.6-39.1,24.6-63.6s-9.3-46.8-24.6-63.6L303,60.2
	c20.1,22.1,32.3,51.4,32.3,83.7c0,32.2-12.2,61.6-32.3,83.7L280.9,207.5z"/>
</svg>
