<?xml version="1.0" encoding="UTF-8"?>
<svg id="Layer_1" xmlns="http://www.w3.org/2000/svg" version="1.1" viewBox="0 0 12.3 8.2">
  <!-- Generator: Adobe Illustrator 29.4.0, SVG Export Plug-In . SVG Version: 2.1.0 Build 152)  -->
  <defs>
    <style>
      .st0 {
        fill: #fff;
      }
    </style>
  </defs>
  <polygon class="st0" points="0 3.2 .7 1.7 12.3 6.4 11.7 7.9 0 3.2"/>
  <g>
    <path class="st0" d="M3.1,1.8c0-.3.2-.6.2-.9h0c0,.4.2.7.3,1.1l1.2.5-.9-2.5h-1.3l-.5,1.5.8.3Z"/>
    <polygon class="st0" points="1.2 4.5 0 8.1 1.1 8.1 1.9 5.5 3.8 5.5 1.2 4.5"/>
    <polygon class="st0" points="4.9 6 5.6 8.1 6.8 8.1 6.2 6.5 4.9 6"/>
  </g>
  <g>
    <path class="st0" d="M7.6,7.1c.2.6.8,1.1,1.7,1.1s.5,0,.8-.1l-2.5-1Z"/>
    <path class="st0" d="M9.7,2.9c1.2,0,1.3.9,1.3,1.3h0c-.5.1-.9.2-1.2.2l2.3.9v-.9c0-1.2-.4-2.4-2.2-2.4s-1.4.2-1.9.5l.2.7c.4-.3,1-.4,1.5-.4Z"/>
  </g>
</svg>