<?xml version="1.0" encoding="UTF-8"?>
<svg id="Layer_1" xmlns="http://www.w3.org/2000/svg" version="1.1" viewBox="0 0 12.1 8.2">
  <!-- Generator: Adobe Illustrator 29.4.0, SVG Export Plug-In . SVG Version: 2.1.0 Build 152)  -->
  <defs>
    <style>
      .st0 {
        fill: #fff;
      }
    </style>
  </defs>
  <path class="st0" d="M1.9,5.5l-.8,2.5H0L2.7,0h1.3l2.8,8.1h-1.1l-.9-2.5H1.9ZM4.6,4.7l-.8-2.3c-.2-.5-.3-1-.4-1.5h0c-.1.5-.3,1-.4,1.5l-.8,2.3h2.4Z"/>
  <path class="st0" d="M11.2,8.1v-.7h-.1c-.3.5-.9.9-1.8.9-1.2,0-1.8-.8-1.8-1.7,0-1.4,1.2-2.2,3.5-2.2h0c0-.6-.1-1.5-1.3-1.5s-1.1.2-1.5.4l-.2-.7c.5-.3,1.2-.5,1.9-.5,1.8,0,2.2,1.2,2.2,2.4v2.2c0,.5,0,1,0,1.4h-1ZM11,5.1c-1.2,0-2.5.2-2.5,1.3s.5,1,1,1,1.2-.5,1.4-1c0-.1,0-.2,0-.3v-1Z"/>
</svg>