<?xml version="1.0" encoding="utf-8"?>
<!-- Generator: Adobe Illustrator 28.0.0, SVG Export Plug-In . SVG Version: 6.00 Build 0)  -->
<svg version="1.1" xmlns="http://www.w3.org/2000/svg" xmlns:xlink="http://www.w3.org/1999/xlink" x="0px" y="0px"
	 viewBox="0 0 63.6 66.5" style="enable-background:new 0 0 63.6 66.5;" xml:space="preserve">
<ellipse cx="31.8" cy="61.7" rx="28.1" ry="4.8"/>
<path d="M31.8,0C14.2,0,0,14.2,0,31.8s14.2,31.8,31.8,31.8s31.8-14.2,31.8-31.8S49.3,0,31.8,0z M31.8,55.9
	c-13.4,0-24.2-10.8-24.2-24.2S18.4,7.6,31.8,7.6S56,18.4,56,31.8S45.1,55.9,31.8,55.9z"/>
<path d="M31.8,23.3c4.7,0,8.5,3.8,8.5,8.5h7.9c0-9.1-7.3-16.4-16.4-16.4V23.3z"/>
</svg>
