<?xml version="1.0" encoding="utf-8"?>
<!-- Generator: Adobe Illustrator 27.5.0, SVG Export Plug-In . SVG Version: 6.00 Build 0)  -->
<svg version="1.1" xmlns="http://www.w3.org/2000/svg" xmlns:xlink="http://www.w3.org/1999/xlink" x="0px" y="0px"
	 width="415px" height="420.9px" viewBox="0 0 415 420.9" style="enable-background:new 0 0 415 420.9;" xml:space="preserve">
<path style="fill:#FFFFFF;" d="M198.5,335.9C135.9,335.9,85,285,85,222.4c0-62.6,50.9-113.5,113.5-113.5c14.8,0,29.1,2.8,42.3,8.1
	l-44.4,51.3L415,210.5L342.3,0l-44,50.8C291.8,47,285,43.5,278,40.5c-25.2-11-51.9-16.6-79.5-16.6c-53,0-102.9,20.6-140.4,58.1
	C20.6,119.5,0,169.4,0,222.4c0,53,20.6,102.9,58.1,140.4s87.3,58.1,140.4,58.1c36.4,0,72-9.9,102.8-28.7l-44.2-72.6
	C239.6,330.2,219.3,335.9,198.5,335.9z"/>
</svg>
