<?xml version="1.0" encoding="utf-8"?>
<!-- Generator: Adobe Illustrator 26.0.3, SVG Export Plug-In . SVG Version: 6.00 Build 0)  -->
<svg version="1.1" id="Layer_1" xmlns="http://www.w3.org/2000/svg" xmlns:xlink="http://www.w3.org/1999/xlink" x="0px" y="0px"
	 viewBox="0 0 101.5 72.7" style="enable-background:new 0 0 101.5 72.7;" xml:space="preserve">
<style type="text/css">
	.st0{opacity:0.3;fill:#9147ff;}
	.st1{opacity:0.2;}
	.st2{fill:#9147ff;}
</style>
<ellipse class="st0" cx="50.7" cy="59.7" rx="50.7" ry="13"/>
<ellipse class="st1" cx="50.5" cy="61.7" rx="28.1" ry="4.8"/>
<path class="st2" d="M50.5,0C32.9,0,18.7,14.2,18.7,31.8s14.2,31.8,31.8,31.8s31.8-14.2,31.8-31.8S68,0,50.5,0z M50.5,55.9
	c-13.4,0-24.2-10.8-24.2-24.2S37.1,7.6,50.5,7.6s24.2,10.8,24.2,24.2S63.8,55.9,50.5,55.9z"/>
<path class="st2" d="M50.5,23.3c4.7,0,8.5,3.8,8.5,8.5h7.9c0-9.1-7.3-16.4-16.4-16.4V23.3z"/>
</svg>
