<?xml version="1.0" encoding="UTF-8"?>
<svg xmlns="http://www.w3.org/2000/svg" version="1.1" viewBox="0 0 158.7 166.5">
<g>
	<path d="M98.6,38.6c-7.8,0-14.1,6.3-14.1,14.1h-13c0-15.1,12.1-27.2,27.2-27.2,0,0,0,13.1,0,13.1Z"/>
	<path d="M0,104.3c4.1-1.8,8.3-3.5,12.4-5.2,10.6-4.3,21.9-3.7,33-1.1,14.9,3.5,29.7,7.4,44.5,10.9,3.5.9,7.3.9,10.8,1.9,4.8,1.4,5.4,4.3,1.7,7.5-5.9,5-12.7,7.8-20.7,6.6-4.4-.7-8.8-1.8-13.3-2.1-4-.3-8,.9-9.2,5.3-1.2,4.5,2.8,5.8,5.9,7.4.7.4,1.5.7,2.3,1,15.7,5.7,31.5,8.2,47.7,1.8,3.9-1.5,7.9-2.9,12-3.5,8.3-1.2,16.8-2.1,25.2-2.5,2.1-.1,4.2,2,6.4,3-1.2,2-2,4.8-3.8,5.9-6.8,4.5-13.9,8.4-20.8,12.7-22.5,13.9-47,15.1-71.8,9.4-15.4-3.5-30.4-8.7-45.3-13.6-5.7-1.9-11.2-2.4-16.7-1.3v-44.1h-.3Z"/>
	<path d="M121.1,0c-8.5,0-16.3,2.9-22.5,7.7-6.2-4.8-14-7.7-22.5-7.7-20.2,0-36.6,16.4-36.6,36.6s35.4,66.3,59.1,66.3,59.1-46.1,59.1-66.3S141.3,0,121.1,0Z"/>
</g>
</svg>
