<?xml version="1.0" encoding="UTF-8"?>
<svg id="Layer_1" xmlns="http://www.w3.org/2000/svg" version="1.1" viewBox="0 0 425.4 513.4">
  <!-- Generator: Adobe Illustrator 30.1.0, SVG Export Plug-In . SVG Version: 2.1.1 Build 136)  -->
  <path d="M354.4,0H70.9C31.7,0,0,31.7,0,70.9v283.5c0,39.1,31.7,70.9,70.9,70.9h53.7l88.1,88.1,88.1-88.1h53.7c39.1,0,70.9-31.7,70.9-70.9V70.9c-.1-39.2-31.8-70.9-71-70.9h0ZM377.1,342.4c0,19.2-15.5,34.7-34.7,34.7h-61.7l-68.1,68.1-68.1-68.1h-61.6c-19.2,0-34.7-15.5-34.7-34.7V82.9c0-19.2,15.5-34.7,34.7-34.7h259.5c19.2,0,34.7,15.5,34.7,34.7v259.5h0Z"/>
  <g>
    <path d="M230.44,277.13c4.77,0,8.83-3.42,9.54-8.11,0-33.88,41.44-93.85,41.44-118.02,0-37.94-30.78-68.63-68.71-68.63s-68.71,30.78-68.71,68.63,41.36,81.92,41.36,118.02c.8,4.69,4.77,8.11,9.54,8.11h35.55,0Z"/>
    <path d="M197.4,296.99h31.66c4.79,0,8.68,3.89,8.68,8.68v18.64c0,10.29-8.35,18.64-18.64,18.64h-11.74c-10.29,0-18.64-8.35-18.64-18.64v-18.64c0-4.79,3.89-8.68,8.68-8.68Z"/>
  </g>
</svg>