<?xml version="1.0" encoding="UTF-8"?>
<svg id="Layer_1" xmlns="http://www.w3.org/2000/svg" version="1.1" viewBox="0 0 425.4 513.4">
  <!-- Generator: Adobe Illustrator 29.2.0, SVG Export Plug-In . SVG Version: 2.1.0 Build 108)  -->
  <defs>
    <style>
      .st0 {
        fill: #fff;
      }
    </style>
  </defs>
  <path class="st0" d="M354.4,0H70.9C31.7,0,0,31.7,0,70.9v283.5c0,39.1,31.7,70.9,70.9,70.9h53.7l88.1,88.1,88.1-88.1h53.7c39.1,0,70.9-31.7,70.9-70.9V70.9c-.1-39.2-31.8-70.9-71-70.9h0ZM377.1,342.4c0,19.2-15.5,34.7-34.7,34.7h-61.7l-68.1,68.1-68.1-68.1h-61.6c-19.2,0-34.7-15.5-34.7-34.7V82.9c0-19.2,15.5-34.7,34.7-34.7h259.5c19.2,0,34.7,15.5,34.7,34.7v259.5h0Z"/>
  <path class="st0" d="M235,329.8c6,0,11.1-4.3,12-10.2,0-42.6,52.1-118,52.1-148.4,0-47.7-38.7-86.3-86.4-86.3s-86.4,38.7-86.4,86.3,52,103,52,148.4c1,5.9,6,10.2,12,10.2h44.7Z"/>
</svg>