<?xml version="1.0" encoding="utf-8"?>
<!-- Generator: Adobe Illustrator 27.9.1, SVG Export Plug-In . SVG Version: 6.00 Build 0)  -->
<svg version="1.1" xmlns="http://www.w3.org/2000/svg" xmlns:xlink="http://www.w3.org/1999/xlink" x="0px" y="0px"
	 viewBox="0 0 425.4 513.4" style="enable-background:new 0 0 425.4 513.4;" xml:space="preserve">
<path d="M296,245.7l-32.9-32.9l32.9-32.9c13.9-13.9,13.9-36.5,0-50.3c-13.9-13.9-36.5-13.9-50.3,0l-32.9,32.9
	l-32.9-32.9c-13.9-13.9-36.5-13.9-50.3,0c-13.9,13.9-13.9,36.5,0,50.3l32.9,32.9l-32.9,32.9c-13.9,13.9-13.9,36.4,0,50.3
	s36.5,13.9,50.3,0l32.9-32.9l32.9,32.9c13.9,13.9,36.4,13.9,50.3,0C309.9,282.1,309.9,259.5,296,245.7z"/>
<path d="M354.4,0H70.9C31.7,0,0,31.7,0,70.9v283.5c0,39.1,31.7,70.9,70.9,70.9h53.7l88.1,88.1l88.1-88.1h53.7
	c39.1,0,70.9-31.7,70.9-70.9V70.9C425.3,31.7,393.6,0,354.4,0z M377.1,342.4c0,19.2-15.5,34.7-34.7,34.7h-46.3h-15.4l-68.1,68.1
	l-68.1-68.1h-12.6h-49c-19.2,0-34.7-15.5-34.7-34.7V82.9c0-19.2,15.5-34.7,34.7-34.7h259.5c19.2,0,34.7,15.5,34.7,34.7V342.4z"/>
</svg>
