<?xml version="1.0" encoding="UTF-8"?>
<svg id="Layer_1" xmlns="http://www.w3.org/2000/svg" version="1.1" viewBox="0 0 425.4 513.4">
  <!-- Generator: Adobe Illustrator 30.1.0, SVG Export Plug-In . SVG Version: 2.1.1 Build 136)  -->
  <path d="M354.4,0H70.9C31.7,0,0,31.7,0,70.9v283.5c0,39.1,31.7,70.9,70.9,70.9h53.7l88.1,88.1,88.1-88.1h53.7c39.1,0,70.9-31.7,70.9-70.9V70.9c-.1-39.2-31.8-70.9-71-70.9ZM377.1,342.4c0,19.2-15.5,34.7-34.7,34.7h-61.7l-68.1,68.1-68.1-68.1h-61.6c-19.2,0-34.7-15.5-34.7-34.7V82.9c0-19.2,15.5-34.7,34.7-34.7h259.5c19.2,0,34.7,15.5,34.7,34.7v259.5Z"/>
  <g>
    <path d="M281.8,153.06h-138c-15.19,0-27.5,12.31-27.5,27.5v130.59c0,15.19,12.31,27.5,27.5,27.5h138c15.19,0,27.5-12.31,27.5-27.5v-130.59c0-15.19-12.31-27.5-27.5-27.5ZM170.01,291.86c0,8.28-6.72,15-15,15s-15-6.72-15-15v-92.01c0-8.28,6.72-15,15-15s15,6.72,15,15v92.01ZM227.8,291.86c0,8.28-6.72,15-15,15s-15-6.72-15-15v-92.01c0-8.28,6.72-15,15-15s15,6.72,15,15v92.01ZM285.59,291.86c0,8.28-6.72,15-15,15s-15-6.72-15-15v-92.01c0-8.28,6.72-15,15-15s15,6.72,15,15v92.01Z"/>
    <path d="M299.3,106.95h-41.49v-15.72c0-7.88-6.39-14.28-14.28-14.28h-61.47c-7.88,0-14.28,6.39-14.28,14.28v15.72h-41.49c-8.28,0-15,6.72-15,15s6.72,15,15,15h173c8.28,0,15-6.72,15-15s-6.72-15-15-15Z"/>
  </g>
</svg>