<?xml version="1.0" encoding="utf-8"?>
<!-- Generator: Adobe Illustrator 27.5.0, SVG Export Plug-In . SVG Version: 6.00 Build 0)  -->
<svg version="1.1" xmlns="http://www.w3.org/2000/svg" xmlns:xlink="http://www.w3.org/1999/xlink" x="0px" y="0px"
	 width="238.6px" height="263.9px" viewBox="0 0 238.6 263.9" style="enable-background:new 0 0 238.6 263.9;" xml:space="preserve"
	>
<path style="fill:#FFFFFF;" d="M205.6,230.8c0-38.4,0-76.8,0-115.2c11,0,21.9,0,33,0c0,0.7,0,1.3,0,1.9c0,37.5,0,75,0,112.4
	c0,14.4-6.7,24.9-19.7,31.1c-4.4,2.1-9.2,2.8-14.2,2.8c-34.6,0-69.2,0-103.7,0c-20,0-40.1,0.1-60.1,0c-14.1-0.1-24.2-6.9-30.3-19.5
	c-2.1-4.3-2.9-9-2.9-13.8c0-37.8,0-75.5,0-113.3c0-0.5,0-1,0.1-1.6c11,0,21.8,0,32.9,0c0,38.4,0,76.8,0,115.3
	C95.7,230.8,150.5,230.8,205.6,230.8z"/>
<path style="fill:#FFFFFF;" d="M57.2,148.3c0-10.9,0-21.8,0-32.8c10.9,0,21.8,0,32.8,0c0,10.9,0,21.8,0,32.8
	C79.1,148.3,68.2,148.3,57.2,148.3z"/>
<path style="fill:#FFFFFF;" d="M189,148.4c-11,0-21.8,0-32.7,0c0-11,0-21.9,0-32.9c10.9,0,21.7,0,32.7,0
	C189,126.4,189,137.3,189,148.4z"/>
<path style="fill:#FFFFFF;" d="M94.6,38.5c10.5-3.2,21-6.4,31.5-9.6c3.2,10.5,6.4,20.9,9.6,31.5c-10.6,3.2-21,6.4-31.5,9.6
	C101,59.4,97.8,49,94.6,38.5z"/>
<path style="fill:#FFFFFF;" d="M151.5,55.5c-3.3-10.6-6.4-20.9-9.6-31.4c10.4-3.2,20.9-6.4,31.5-9.7c3.2,10.5,6.4,21,9.6,31.5
	C172.5,49.2,162.1,52.3,151.5,55.5z"/>
<path style="fill:#FFFFFF;" d="M47.3,52.9c10.5-3.2,20.9-6.3,31.5-9.6c3.2,10.5,6.4,20.8,9.7,31.4C78,77.9,67.6,81.1,57,84.4
	C53.7,74,50.5,63.6,47.3,52.9z"/>
<path style="fill:#FFFFFF;" d="M9.6,98.9C6.4,88.3,3.2,78,0,67.4c10.6-3.2,21-6.4,31.5-9.6c3.2,10.5,6.4,20.9,9.6,31.5
	C30.7,92.5,20.2,95.7,9.6,98.9z"/>
<path style="fill:#FFFFFF;" d="M230.4,31.5c-10.5,3.2-20.9,6.4-31.5,9.6c-3.2-10.5-6.4-20.9-9.7-31.5c10.6-3.2,21-6.4,31.5-9.6
	C224,10.5,227.2,21,230.4,31.5z"/>
<path style="fill:#FFFFFF;" d="M139.6,115.6c0,11,0,21.8,0,32.7c-10.9,0-21.8,0-32.8,0c0-10.9,0-21.7,0-32.7
	C117.6,115.6,128.5,115.6,139.6,115.6z"/>
</svg>
