<?xml version="1.0" encoding="utf-8"?>
<!-- Generator: Adobe Illustrator 27.5.0, SVG Export Plug-In . SVG Version: 6.00 Build 0)  -->
<svg version="1.1" xmlns="http://www.w3.org/2000/svg" xmlns:xlink="http://www.w3.org/1999/xlink" x="0px" y="0px"
	 width="27.1px" height="39.2px" viewBox="0 0 27.1 39.2" style="enable-background:new 0 0 27.1 39.2;" xml:space="preserve">
<path d="M24.2,9.1L24.2,9.1L24.2,9.1L24.2,9.1z"/>
<path d="M24.6,11.9L24.6,11.9L24.6,11.9z"/>
<path d="M24.2,9.1L24.2,9.1L24.2,9.1L24.2,9.1z"/>
<path d="M24.6,11.9L24.6,11.9L24.6,11.9L24.6,11.9C24.7,11.9,24.6,11.9,24.6,11.9z"/>
<path d="M24.3,9.2L24.3,9.2L24.3,9.2C24.3,9.1,24.3,9.2,24.3,9.2z"/>
<path d="M13.2,36.3C13.1,36.4,13.1,36.4,13.2,36.3L13.2,36.3C13.1,36.4,13.2,36.4,13.2,36.3z"/>
<path d="M19.6,35.1C19.6,35.1,19.6,35.1,19.6,35.1C19.6,35.2,19.6,35.2,19.6,35.1L19.6,35.1z"/>
<path d="M19,36.3C18.9,36.4,18.9,36.4,19,36.3L19,36.3C18.9,36.4,19,36.4,19,36.3z"/>
<path d="M8.6,36.6L8.6,36.6C8.5,36.6,8.6,36.6,8.6,36.6L8.6,36.6z"/>
<path d="M7.6,35.7L7.6,35.7C7.6,35.6,7.6,35.6,7.6,35.7L7.6,35.7z"/>
<path style="fill:#FFFFFF;fill-opacity:0.4;enable-background:new    ;" d="M14.5,18.1c-1.4,0.6-3,1.3-5.1,1.3
	c-0.9,0-1.7-0.1-2.6-0.4l1.4,14.7c0.1,0.6,0.3,1.2,0.8,1.6c0.5,0.4,1,0.6,1.7,0.6c0,0,2,0.1,2.7,0.1s2.9-0.1,2.9-0.1
	c0.6,0,1.2-0.2,1.7-0.6c0.5-0.4,0.7-1,0.8-1.6l1.5-16.2c-0.7-0.2-1.4-0.4-2.2-0.4C16.8,17.1,15.7,17.6,14.5,18.1z"/>
<path d="M2.4,11.8L2.4,11.8L2.4,11.8C2.4,11.9,2.4,11.8,2.4,11.8z"/>
<path style="fill:#FFFFFF;" d="M26.9,10.5l-0.2-1.1c-0.2-1-0.6-1.9-1.6-2.3C24.8,7,24.4,7,24.2,6.7c-0.2-0.2-0.3-0.6-0.4-0.9
	c-0.1-0.6-0.2-1.2-0.3-1.9c-0.1-0.5-0.2-1.1-0.4-1.6c-0.3-0.7-1-1-1.6-1.3c-0.3-0.1-0.7-0.2-1-0.3c-1.6-0.4-3.3-0.6-5-0.7
	c-2-0.1-4-0.1-6,0.1C7.9,0.3,6.3,0.5,4.9,1C4.3,1.2,3.8,1.4,3.4,1.8C2.9,2.3,2.8,3.1,3.1,3.7c0.3,0.4,0.7,0.7,1.1,0.9
	C4.8,4.9,5.4,5.1,6,5.2c1.8,0.4,3.6,0.5,5.4,0.6c2,0.1,4,0,6-0.2c0.5-0.1,1-0.1,1.5-0.2c0.6-0.1,0.9-0.8,0.8-1.4
	c-0.2-0.6-0.7-0.9-1.4-0.8c-0.1,0-0.2,0-0.3,0h-0.1c-0.2,0-0.4,0.1-0.6,0.1c-0.4,0-0.9,0.1-1.3,0.1c-1,0.1-1.9,0.1-2.9,0.1
	s-1.9,0-2.9-0.1C9.8,3.5,9.4,3.5,9,3.4c-0.2,0-0.4,0-0.6-0.1H8.2l0,0L8,3.3c-0.4,0-0.8-0.1-1.2-0.2c0,0-0.1,0-0.1-0.1V2.9V2.8
	l0.1-0.1l0,0c0.3-0.1,0.7-0.1,1-0.2c0.1,0,0.2,0,0.3-0.1l0,0c0.2,0,0.4-0.1,0.6-0.1c1.9-0.2,3.7-0.3,5.6-0.2c0.9,0,1.8,0.1,2.7,0.2
	c0.2,0,0.4,0,0.6,0.1c0.1,0,0.1,0,0.2,0h0.1c0.4,0.1,0.9,0.1,1.3,0.2c0.6,0.1,1.5,0.2,1.7,0.9C21,3.7,21,4,21.1,4.2l0.1,0.3l0,0
	c0.2,0.7,0.3,1.4,0.5,2.1c0,0.1,0,0.1,0,0.2s0,0.1-0.1,0.1L21.5,7c0,0-0.1,0-0.1,0.1l0,0h-0.1h-0.1c-0.3,0-0.6,0.1-0.9,0.1
	c-0.6,0.1-1.1,0.1-1.7,0.2c-1.1,0.1-2.3,0.2-3.4,0.2c-0.6,0-1.2,0-1.7,0c-2.3,0-4.6-0.1-6.9-0.4c-0.2,0-0.5-0.1-0.7-0.1
	c0.2,0-0.1,0-0.2,0c-0.2,0-0.3,0-0.5-0.1C4.7,7.1,4.1,7,3.6,6.9C3,6.8,2.4,6.8,1.8,7.2C1.3,7.4,0.9,7.8,0.7,8.3
	C0.4,8.8,0.3,9.4,0.2,9.9c-0.1,0.6-0.3,1.2-0.2,1.7c0.1,1.2,1,2.2,2.2,2.5c1.2,0.2,2.3,0.4,3.5,0.5c4.6,0.6,9.3,0.6,13.9,0.2
	c0.4,0,0.8-0.1,1.1-0.1c0.1,0,0.2,0,0.3,0c0.1,0,0.2,0.1,0.3,0.2c0.1,0.1,0.1,0.2,0.2,0.3c0,0.1,0.1,0.2,0,0.3l-0.1,1.1
	c-0.2,2.3-0.5,4.6-0.7,6.9c-0.2,2.4-0.5,4.8-0.7,7.2c-0.1,0.7-0.1,1.4-0.2,2c-0.1,0.7-0.1,1.4-0.2,2c-0.2,1-0.9,1.7-1.9,1.9
	c-0.9,0.2-1.9,0.3-2.9,0.3c-1.1,0-2.1,0-3.2,0S9.1,36.8,8.2,36c-0.8-0.7-0.9-1.9-1-2.9c-0.1-1.3-0.3-2.7-0.4-4L6,21.7L5.6,17
	c0-0.1,0-0.2,0-0.2c-0.1-0.6-0.5-1.1-1.1-1.1c-0.5,0-1.2,0.5-1.1,1.1l0.4,3.6l0.8,7.4C4.8,29.9,5,32,5.3,34.1c0,0.4,0.1,0.8,0.1,1.2
	c0.2,2.2,1.9,3.4,4,3.7c1.2,0.2,2.5,0.2,3.7,0.3c1.6,0,3.2,0.1,4.7-0.2c2.3-0.4,4-2,4.3-4.3c0.1-0.7,0.1-1.4,0.2-2.1
	c0.2-2.3,0.5-4.5,0.7-6.8l0.8-7.4l0.3-3.4c0-0.2,0.1-0.3,0.2-0.5c0.1-0.1,0.3-0.2,0.4-0.2c0.7-0.1,1.3-0.3,1.8-0.8
	C27.1,12.6,27.2,11.5,26.9,10.5z M2.2,11.2v0.1V11.2z M2.3,11.7L2.3,11.7L2.3,11.7L2.3,11.7z M2.3,11.8C2.4,11.8,2.4,11.8,2.3,11.8
	L2.3,11.8z M2.5,11.9L2.5,11.9L2.5,11.9L2.5,11.9L2.5,11.9z M24.5,11.7c-0.2,0.2-0.6,0.3-0.9,0.4c-3.9,0.6-7.9,0.9-11.9,0.8
	c-2.9-0.1-5.7-0.4-8.5-0.8c-0.3,0-0.6-0.1-0.8-0.3c-0.4-0.4-0.2-1.2-0.1-1.6c0.1-0.4,0.2-1,0.8-1.1C3.8,9,4.8,9.3,5.6,9.4
	c0.9,0.1,1.9,0.3,2.8,0.3c4,0.4,8.2,0.3,12.2-0.2c0.7-0.1,1.5-0.2,2.2-0.3c0.6-0.1,1.4-0.3,1.8,0.3c0.3,0.5,0.3,1.1,0.3,1.6
	C24.8,11.4,24.7,11.6,24.5,11.7L24.5,11.7z"/>
</svg>
