<?xml version="1.0" encoding="utf-8"?>
<!-- Generator: Adobe Illustrator 27.6.1, SVG Export Plug-In . SVG Version: 6.00 Build 0)  -->
<svg version="1.1" xmlns="http://www.w3.org/2000/svg" xmlns:xlink="http://www.w3.org/1999/xlink" x="0px" y="0px"
	 width="446.2px" height="446.2px" viewBox="0 0 446.2 446.2" style="enable-background:new 0 0 446.2 446.2;" xml:space="preserve"
	>
<path style="fill:#FFFFFF;" d="M223.1,0C100.1,0,0,100.1,0,223.1c0,123,100.1,223.1,223.1,223.1s223.1-100.1,223.1-223.1
	C446.2,100.1,346.1,0,223.1,0z M197.8,182c7.3,5,20.2,10,34,15.2l1.2,0.4c14.2,5.4,30.3,11.6,44.3,22.6c17.2,13.6,27,33.7,27,55.1
	c0,20.3-10.4,39.6-27.8,51.6c-8.4,5.7-18.3,10-29,12.5V351c0,6.6-2.5,12.7-7,17.3c-4.6,4.6-10.7,7.1-17.2,7.1
	c-6.5,0-12.6-2.5-17.2-7.1c-4.6-4.6-7.2-10.9-7-17.4v-12.1c-37.9-10.5-53.9-42.5-54.6-43.9l-0.1-0.2c-2.7-6-2.9-12.6-0.5-18.7
	c2.3-6,6.9-10.9,12.8-13.4c3.1-1.4,6.5-2.1,9.9-2.1c3,0,5.9,0.6,8.7,1.6c6,2.3,11,7,13.5,12.9l0.2,0.4l0,0.1
	c0.6,1.5,8.2,18.2,34.4,18.2c9.9,0,19.8-2.6,25.9-6.7c5.1-3.6,6.7-6.3,6.7-11.7c0-8.8-2.2-12.1-8.5-17c-7.6-5.9-20.8-11.3-32.8-15.8
	c-1.8-0.7-3.6-1.3-5.3-2c-13-4.8-26.4-9.8-38.8-18.3c-18-12.3-28.4-30.9-28.4-51.1c0-20.3,10.4-39.6,27.8-51.6
	c8.4-5.7,18.3-10,29-12.5V95.3c-0.1-12.6,9.1-23,21.5-24.4l0.5-0.1l0.3,0c0.4,0,1-0.1,1.7-0.1c6.4,0,12.6,2.5,17.2,7l0.1,0.1
	c4.6,4.6,7.2,11,7,17.5v12.1c37.9,10.5,53.9,42.5,54.6,43.9l0.1,0.2c2.7,6,2.9,12.6,0.5,18.7c-2.3,6-6.9,10.9-12.8,13.4
	c-3.1,1.4-6.5,2.1-9.9,2.1c0,0,0,0,0,0c-3,0-5.9-0.6-8.7-1.6c-6-2.3-11-7-13.5-12.9l-0.2-0.4l0-0.1c-0.6-1.5-8.2-18.2-34.4-18.2
	c-9.9,0-19.8,2.6-25.9,6.7c-5.1,3.6-6.7,6.3-6.7,11.7C190.6,175.8,190.9,177.2,197.8,182z"/>
</svg>
