<?xml version="1.0" encoding="utf-8"?>
<!-- Generator: Adobe Illustrator 27.9.0, SVG Export Plug-In . SVG Version: 6.00 Build 0)  -->
<svg version="1.1" xmlns="http://www.w3.org/2000/svg" xmlns:xlink="http://www.w3.org/1999/xlink" x="0px" y="0px"
	 viewBox="0 0 404 441.88" style="enable-background:new 0 0 404 441.88;" xml:space="preserve">
<path style="fill:#FFFFFF;" d="M328.8,277.16c-26.25-1.09-58.82-42.5-24.32-98.32c34.5-55.82,97.5-46.18,97.5-97.18
	c18.56-128.26-425.48-128.45-401,168c20.23,244.96,324,186,324,186C449.37,397.69,408.37,280.46,328.8,277.16z M306.48,44.16
	c19.33,0,35,15.67,35,35s-15.67,35-35,35s-35-15.67-35-35S287.15,44.16,306.48,44.16z M97.48,125.16c19.33,0,35,15.67,35,35
	s-15.67,35-35,35s-35-15.67-35-35S78.15,125.16,97.48,125.16z M92.48,314.16c-19.33,0-35-15.67-35-35s15.67-35,35-35s35,15.67,35,35
	S111.81,314.16,92.48,314.16z M175.48,392.16c-19.33,0-35-15.67-35-35s15.67-35,35-35s35,15.67,35,35S194.81,392.16,175.48,392.16z
	 M193.48,121.16c-19.33,0-35-15.67-35-35s15.67-35,35-35s35,15.67,35,35S212.81,121.16,193.48,121.16z M306.48,392.16
	c-19.33,0-35-15.67-35-35s15.67-35,35-35s35,15.67,35,35S325.81,392.16,306.48,392.16z"/>
</svg>
