<?xml version="1.0" encoding="utf-8"?>
<!-- Generator: Adobe Illustrator 27.9.4, SVG Export Plug-In . SVG Version: 9.03 Build 54784)  -->
<svg version="1.1" xmlns="http://www.w3.org/2000/svg" xmlns:xlink="http://www.w3.org/1999/xlink" x="0px" y="0px"
	 viewBox="0 0 155.7 155.7" style="enable-background:new 0 0 155.7 155.7;" xml:space="preserve">
<path d="M155.7,135.5V20.2c0-11.2-9-20.2-20.2-20.2H20.2C9,0,0,9,0,20.2v115.3c0,11.2,9,20.2,20.2,20.2h115.3
	C146.6,155.7,155.7,146.6,155.7,135.5z M139.8,20.2v115.3c0,2.4-1.9,4.3-4.3,4.3h-26.4V15.9h26.4C137.8,15.9,139.8,17.8,139.8,20.2z
	 M93.2,139.8H62.5V15.9h30.7V139.8z M15.9,135.5V20.2c0-2.4,1.9-4.3,4.3-4.3h26.4v123.9H20.2C17.8,139.8,15.9,137.8,15.9,135.5z"/>
</svg>
