<?xml version="1.0" encoding="utf-8"?>
<!-- Generator: Adobe Illustrator 27.5.0, SVG Export Plug-In . SVG Version: 6.00 Build 0)  -->
<svg version="1.1" xmlns="http://www.w3.org/2000/svg" xmlns:xlink="http://www.w3.org/1999/xlink" x="0px" y="0px"
	 width="369.7px" height="369.7px" viewBox="0 0 369.7 369.7" style="enable-background:new 0 0 369.7 369.7;" xml:space="preserve"
	>
<path style="fill:#FFFFFF;" d="M286.3,369.7h-203c-46,0-83.3-37.4-83.3-83.3v-203C0,37.4,37.4,0,83.3,0h203
	c46,0,83.3,37.4,83.3,83.3v203C369.7,332.3,332.3,369.7,286.3,369.7z M83.3,39.7c-24.1,0-43.7,19.6-43.7,43.7v203
	c0,24.1,19.6,43.7,43.7,43.7h203c24.1,0,43.7-19.6,43.7-43.7v-203c0-24.1-19.6-43.7-43.7-43.7C286.3,39.7,83.3,39.7,83.3,39.7z"/>
<path style="fill:#FFFFFF;" d="M113.7,275.9c-5.1,0-10.2-1.9-14-5.8c-7.7-7.7-7.7-20.3,0-28.1L242,99.6c7.8-7.7,20.3-7.7,28.1,0
	c7.7,7.7,7.7,20.3,0,28.1L127.7,270.1C123.8,273.9,118.7,275.9,113.7,275.9z"/>
</svg>
