<?xml version="1.0" encoding="utf-8"?>
<!-- Generator: Adobe Illustrator 27.5.0, SVG Export Plug-In . SVG Version: 6.00 Build 0)  -->
<svg version="1.1" xmlns="http://www.w3.org/2000/svg" xmlns:xlink="http://www.w3.org/1999/xlink" x="0px" y="0px"
	 width="265.2px" height="388.3px" viewBox="0 0 265.2 388.3" style="enable-background:new 0 0 265.2 388.3;" xml:space="preserve"
	>
<path style="fill:#FFFFFF;" d="M13.3,0C6.5,0.4,0.5,6.4,0,13.2s4.6,13.6,11.2,15c4.2,43.3,8,77.4,18,105.7
	c8.6,24.4,22.9,44.3,44.6,60.4c-21.6,16.1-36,36-44.6,60.4c-10,28.3-13.8,62.3-18,105.7c-6.9,1.5-11.9,8.7-11.1,15.7
	c0.9,7,7.6,12.7,14.6,12.4H251c6.8,0,13.2-5.6,14.1-12.4s-3.9-13.8-10.5-15.6c-4.2-43.4-8-77.5-18-105.8
	c-8.6-24.4-23-44.3-44.6-60.4c21.7-16.1,36-36,44.6-60.4c10-28.3,13.8-62.4,18-105.8c6.6-1.7,11.4-8.8,10.5-15.6
	C264.2,5.6,257.9,0,251,0H13.3L13.3,0z M39.9,28.4h186c-4,41.4-7.9,73-15.9,95.9c-9.1,25.8-22.4,42-50.8,57.3
	c-4.5,2.4-7.4,7.4-7.4,12.5s3,10.1,7.4,12.5c28.4,15.3,41.7,31.6,50.8,57.4c8.1,22.9,11.9,54.4,15.9,95.9h-186
	c4-41.5,7.9-73,15.9-95.9c9.1-25.8,22.4-42.1,50.8-57.4c4.5-2.4,7.4-7.4,7.4-12.5s-3-10.1-7.4-12.5c-28.4-15.3-41.7-31.5-50.8-57.3
	C47.8,101.4,43.9,69.8,39.9,28.4L39.9,28.4z M80.9,132.6c0,28.4,18.9,28.4,52,47.4c33.1-18.9,52-18.9,52-47.4H80.9z M132.9,255.7
	c-66.1,37.9-80.3,23.7-80.3,94.7h160.6C213.2,279.4,199.1,293.6,132.9,255.7L132.9,255.7z"/>
</svg>
