<?xml version="1.0" encoding="utf-8"?>
<!-- Generator: Adobe Illustrator 27.5.0, SVG Export Plug-In . SVG Version: 6.00 Build 0)  -->
<svg version="1.1" xmlns="http://www.w3.org/2000/svg" xmlns:xlink="http://www.w3.org/1999/xlink" x="0px" y="0px"
	 width="627.4px" height="332.7px" viewBox="0 0 627.4 332.7" style="enable-background:new 0 0 627.4 332.7;" xml:space="preserve"
	>
<path style="fill:#FFFFFF;" d="M461.1,0c-64,0-119.5,36.1-147.4,89.1C285.9,36.1,230.4,0,166.4,0C74.5,0,0,74.5,0,166.4
	s74.5,166.4,166.4,166.4c64,0,119.5-36.1,147.4-89.1c27.8,53,83.4,89.1,147.4,89.1c91.9,0,166.4-74.5,166.4-166.4S553,0,461.1,0z
	 M262.9,190.2h-72.7v72.7c0,13.1-10.7,23.8-23.8,23.8s-23.8-10.7-23.8-23.8v-72.7H69.9c-13.1,0-23.8-10.7-23.8-23.8
	c0-13.2,10.7-23.8,23.8-23.8h72.6V69.9c0-13.1,10.7-23.8,23.8-23.8s23.8,10.7,23.8,23.8v72.7h72.7c13.2,0,23.8,10.6,23.9,23.8
	C286.7,179.5,276,190.2,262.9,190.2z M557.6,190.2h-193c-13.1,0-23.8-10.7-23.8-23.8c0-13.2,10.7-23.8,23.8-23.8h192.9
	c13.2,0,23.8,10.6,23.9,23.8C581.4,179.5,570.7,190.2,557.6,190.2z"/>
</svg>
