<?xml version="1.0" encoding="utf-8"?>
<!-- Generator: Adobe Illustrator 27.9.0, SVG Export Plug-In . SVG Version: 6.00 Build 0)  -->
<svg version="1.1" xmlns="http://www.w3.org/2000/svg" xmlns:xlink="http://www.w3.org/1999/xlink" x="0px" y="0px"
	 viewBox="0 0 154.06 148.53" style="enable-background:new 0 0 154.06 148.53;" xml:space="preserve">
<path style="fill:#FFFFFF;" d="M149.2,148.53H74.26l8.15-9.72h66.79c2.69,0,4.86,2.18,4.86,4.86l0,0
	C154.06,146.35,151.88,148.53,149.2,148.53z"/>
<path style="fill:#FFFFFF;" d="M74.26,0C33.25,0,0,33.25,0,74.26s33.25,74.26,74.26,74.26s74.26-33.25,74.26-74.26S115.28,0,74.26,0
	z M29.34,93.88c-10.83,0-19.62-8.78-19.62-19.62c0-10.83,8.78-19.62,19.62-19.62c10.83,0,19.62,8.78,19.62,19.62
	C48.96,85.1,40.17,93.88,29.34,93.88z M74.26,138.81c-10.83,0-19.62-8.78-19.62-19.62s8.78-19.62,19.62-19.62
	s19.62,8.78,19.62,19.62S85.1,138.81,74.26,138.81z M62.44,74.26c0-6.53,5.29-11.82,11.82-11.82s11.82,5.29,11.82,11.82
	c0,6.53-5.29,11.82-11.82,11.82S62.44,80.79,62.44,74.26z M74.26,48.96c-10.83,0-19.62-8.78-19.62-19.62S63.43,9.72,74.26,9.72
	s19.62,8.78,19.62,19.62S85.1,48.96,74.26,48.96z M119.19,93.88c-10.83,0-19.62-8.78-19.62-19.62c0-10.83,8.78-19.62,19.62-19.62
	c10.83,0,19.62,8.78,19.62,19.62C138.81,85.1,130.02,93.88,119.19,93.88z"/>
</svg>
