<?xml version="1.0" encoding="utf-8"?>
<!-- Generator: Adobe Illustrator 27.5.0, SVG Export Plug-In . SVG Version: 6.00 Build 0)  -->
<svg version="1.1" xmlns="http://www.w3.org/2000/svg" xmlns:xlink="http://www.w3.org/1999/xlink" x="0px" y="0px"
	 width="87.4px" height="87.4px" viewBox="0 0 87.4 87.4" style="enable-background:new 0 0 87.4 87.4;" xml:space="preserve">
<path style="fill:#FFFFFF;" d="M78.2,84.6c-1.7,0-3.3-0.7-4.5-1.9l-30-30l-30,30c-1.2,1.2-2.8,1.9-4.5,1.9s-3.3-0.7-4.5-1.9
	c-1.2-1.2-1.9-2.8-1.9-4.5s0.7-3.3,1.9-4.5l30-30l-30-30c-2.5-2.5-2.5-6.5,0-9c1.2-1.2,2.8-1.9,4.5-1.9s3.3,0.7,4.5,1.9l30,30l30-30
	c1.2-1.2,2.8-1.9,4.5-1.9s3.3,0.7,4.5,1.9c2.5,2.5,2.5,6.5,0,9l-30,30l30,30c2.5,2.5,2.5,6.5,0,9C81.5,83.9,79.9,84.6,78.2,84.6z"/>
</svg>
