<?xml version="1.0" encoding="UTF-8"?>
<svg  xmlns="http://www.w3.org/2000/svg" version="1.1" viewBox="0 0 40.6 36">
  <path d="M0,20.3v-4.5c1.4,0,2.4-.4,3.1-1.2s1-2.6,1-5.4,0-3.7.2-4.7.5-1.9,1.1-2.6,1.4-1.2,2.3-1.5,2.3-.5,4-.5h1v4.5c-1.8,0-2.9.2-3.3.6s-.5,1.1-.6,2.2c0,3-.2,4.9-.3,5.8s-.4,1.8-.8,2.6-1.2,1.6-2.4,2.4c1.1.7,1.9,1.5,2.4,2.4s.8,2.3.9,4l.3,5.5c.1.5.4.9.8,1.2s1.4.4,2.9.4v4.5h-1c-2,0-3.5-.2-4.6-.7s-1.9-1.2-2.4-2.2-.7-2.7-.7-5,0-4.2-.3-4.9-.5-1.4-1-2-1.4-.9-2.8-1Z"/>
  <path d="M40.6,20.3c-1.4,0-2.4.4-3.1,1.2s-1,2.6-1,5.3,0,3.7-.2,4.7-.5,1.9-1.1,2.6-1.4,1.2-2.3,1.5-2.3.5-4,.5h-1v-4.5c1.7,0,2.8-.2,3.2-.5s.6-1.1.6-2.2c0-3.2.2-5.3.3-6.2s.5-1.8.9-2.5,1.2-1.5,2.2-2.1c-1.1-.7-1.8-1.4-2.2-2.1s-.7-1.4-.9-2.2-.3-2.3-.3-4.4-.2-3.4-.3-3.7-.3-.6-.7-.8-1.4-.3-2.9-.3V0h1c2,0,3.5.2,4.6.7s1.9,1.2,2.4,2.2.7,2.7.7,5,0,4.3.3,5,.5,1.3,1,1.9,1.4.9,2.8.9v4.5Z"/>
</svg>
