<?xml version="1.0" encoding="utf-8"?>
<!-- Generator: Adobe Illustrator 27.5.0, SVG Export Plug-In . SVG Version: 6.00 Build 0)  -->
<svg version="1.1" id="Layer_1" xmlns="http://www.w3.org/2000/svg" xmlns:xlink="http://www.w3.org/1999/xlink" x="0px" y="0px"
	 width="385.2px" height="371.2px" viewBox="0 0 385.2 371.2" style="enable-background:new 0 0 385.2 371.2;" xml:space="preserve"
	>
<path style="fill:#FFFFFF;" d="M83.3,0c-7.8,0-14.2,6.4-14.2,14.2v21.5H56.8c-15.1,0-29.5,6-40.2,16.6C6,63,0,77.5,0,92.5v221.8
	c0,15.1,6,29.5,16.6,40.2c10.7,10.7,25.1,16.6,40.2,16.6h271.5c15.1,0,29.5-6,40.2-16.6c10.7-10.7,16.6-25.1,16.6-40.2V92.5
	c0-15.1-6-29.5-16.6-40.2c-10.7-10.7-25.1-16.6-40.2-16.6H316V14.2C316,6.4,309.6,0,301.8,0c-7.8,0-14.2,6.4-14.2,14.2v21.5h-80.9
	V14.2c0-7.8-6.4-14.2-14.2-14.2s-14.2,6.4-14.2,14.2v21.5H97.5V14.2C97.5,6.4,91.2,0,83.3,0L83.3,0z M356.8,314.4
	c0,7.5-3,14.8-8.3,20.1c-5.3,5.3-12.6,8.3-20.1,8.3H56.8c-7.5,0-14.8-3-20.1-8.3s-8.3-12.6-8.3-20.1V159.3h328.4V314.4z M178.4,64.1
	v21.5c0,7.8,6.4,14.2,14.2,14.2s14.2-6.4,14.2-14.2V64.1h80.9v21.5c0,7.8,6.4,14.2,14.2,14.2c7.8,0,14.2-6.4,14.2-14.2V64.1h12.3
	c7.5,0,14.8,3,20.1,8.3c5.3,5.3,8.3,12.6,8.3,20.1v38.4H28.4V92.5c0-7.5,3-14.8,8.3-20.1c5.3-5.3,12.6-8.3,20.1-8.3h12.3v21.5
	c0,7.8,6.4,14.2,14.2,14.2s14.2-6.4,14.2-14.2V64.1H178.4z"/>
</svg>
