<?xml version="1.0" encoding="utf-8"?>
<!-- Generator: Adobe Illustrator 27.5.0, SVG Export Plug-In . SVG Version: 6.00 Build 0)  -->
<svg version="1.1" xmlns="http://www.w3.org/2000/svg" xmlns:xlink="http://www.w3.org/1999/xlink" x="0px" y="0px"
	 width="404px" height="404px" viewBox="0 0 404 404" style="enable-background:new 0 0 404 404;" xml:space="preserve">
<path style="fill-rule:evenodd;clip-rule:evenodd;fill:#FFFFFF;" d="M391.4,189.4h-65c-2.3-17.1-7-33.2-13.4-47.9l48.1-35.1
	c5.7-4.4,5-11,5-18V25.3c0-7-5.6-12.6-12.6-12.6s-12.6,5.7-12.6,12.6v63.1l-41.7,27.8c-6.4-9.5-13.7-18.1-21.8-25.3
	C273.6,39.9,241.3,0,202,0s-71.6,39.9-75.4,90.9c-8.1,7.2-15.3,15.8-21.8,25.3L63.1,88.4V25.3c0-7-5.6-12.6-12.6-12.6
	s-12.6,5.7-12.6,12.6v63.1c0,7,0.3,16.1,9.9,21.9L91,141.5c-6.4,14.7-11.1,30.8-13.4,47.9h-65C5.7,189.4,0,195,0,202
	s5.7,12.6,12.6,12.6h64.9c1.4,10.5,3.8,45.9,6.8,55.6l-41.6,42.7c-4.8,5.6-4.8,9.4-4.8,15.3v63.1c0,7,5.7,12.6,12.6,12.6
	c7,0,12.6-5.6,12.6-12.6v-63.1L95,296.4c47.7,93.7,166.4,93.7,214.1,0l31.8,31.8v63.1c0,7,5.6,12.6,12.6,12.6s12.6-5.6,12.6-12.6
	v-63.1c0-5.9-1.9-13.1-6.3-17.6l-40.2-40.5c3-9.7,5.4-45,6.8-55.6h64.9c7,0,12.6-5.6,12.6-12.6S398.4,189.4,391.4,189.4L391.4,189.4
	L391.4,189.4z"/>
</svg>
