<?xml version="1.0" encoding="utf-8"?>
<!-- Generator: Adobe Illustrator 27.5.0, SVG Export Plug-In . SVG Version: 6.00 Build 0)  -->
<svg version="1.1" id="Layer_1" xmlns="http://www.w3.org/2000/svg" xmlns:xlink="http://www.w3.org/1999/xlink" x="0px" y="0px"
	 width="114.8px" height="75px" viewBox="0 0 114.8 75" style="enable-background:new 0 0 114.8 75;" xml:space="preserve">
<path style="fill:#FFFFFF;" d="M114.8,0H90v14.5h24.8V0z"/>
<path style="fill:#FFFFFF;" d="M114.8,20.2H90v14.5h24.8V20.2z"/>
<path style="fill:#FFFFFF;" d="M114.8,40.3H90v14.5h24.8V40.3z"/>
<path style="fill:#FFFFFF;" d="M24.8,60.5H0V75h24.8V60.5z"/>
<path style="fill:#FFFFFF;" d="M54.8,60.5H30V75h24.8V60.5z"/>
<path style="fill:#FFFFFF;" d="M84.8,60.5H60V75h24.8V60.5z"/>
<path style="fill:#FFFFFF;" d="M114.8,60.5H90V75h24.8V60.5z"/>
<path style="fill:#FFFFFF;" d="M84.8,40.3H60v14.5h24.8V40.3z"/>
<path style="fill:#FFFFFF;" d="M54.8,40.3H30v14.5h24.8V40.3z"/>
<path style="fill:#FFFFFF;" d="M54.8,20.2H30v14.5h24.8V20.2z"/>
</svg>
