<?xml version="1.0" encoding="utf-8"?>
<!-- Generator: Adobe Illustrator 27.5.0, SVG Export Plug-In . SVG Version: 6.00 Build 0)  -->
<svg version="1.1" xmlns="http://www.w3.org/2000/svg" xmlns:xlink="http://www.w3.org/1999/xlink" x="0px" y="0px"
	 width="273px" height="285.3px" viewBox="0 0 273 285.3" style="enable-background:new 0 0 273 285.3;" xml:space="preserve">
<g>
	<path style="fill:#FFFFFF;" d="M261,40.7h-74.4C182.7,17,162,0,137.1,0h-0.9c-24.9,0-45.6,16.6-49.5,40.3H12
		C5.8,40.3,0.4,46.8,0,53c-0.4,6.9,4.8,12.4,11.7,12.4h17.1v169.2c0,28,22.7,50.7,50.7,50.7h113.4c28,0,50.7-22.7,50.7-50.7V65.4
		h17.7c6.8,0,12.1-5.5,11.7-12.4C272.6,46.8,267.2,40.7,261,40.7z M136.5,23.4h0.9c12,0,22.2,7.8,25.5,17h-52.2
		C114.3,31.2,124.2,23.4,136.5,23.4z M219.8,234.9c0,15.1-12.2,27.3-27.3,27.3H79.8c-15.1,0-27.3-12.2-27.3-27.3V65.4h167v169.2h0.3
		V234.9z"/>
	<path style="fill:#FFFFFF;" d="M101.4,223.5c6.6,0,11.7-5.1,11.7-11.7v-95.1c0-6.6-5.1-11.7-11.7-11.7s-11.7,5.1-11.7,11.7v95.1
		C89.7,218.4,94.8,223.5,101.4,223.5z"/>
	<path style="fill:#FFFFFF;" d="M172.2,223.5c6.6,0,11.7-5.1,11.7-11.7v-95.1c0-6.6-5.1-11.7-11.7-11.7c-6.6,0-11.7,5.1-11.7,11.7
		v95.1C160.5,218.4,166.2,223.5,172.2,223.5z"/>
</g>
</svg>
