<?xml version="1.0" encoding="utf-8"?>
<!-- Generator: Adobe Illustrator 27.5.0, SVG Export Plug-In . SVG Version: 6.00 Build 0)  -->
<svg version="1.1" xmlns="http://www.w3.org/2000/svg" xmlns:xlink="http://www.w3.org/1999/xlink" x="0px" y="0px"
	 width="198.8px" height="240px" viewBox="0 0 198.8 240" style="enable-background:new 0 0 198.8 240;" xml:space="preserve">
<path style="fill:#FFFFFF;fill-opacity:0.3;" d="M0,55.6v127.8L99.4,240V112.3L0,55.6z M54.8,162.8c-6.2,2.1-13.6-2.9-16.4-11.2
	c-2.8-8.3,0-16.7,6.2-18.8S58.2,135.7,61,144C63.8,152.2,61,160.7,54.8,162.8z"/>
<path style="fill:#FFFFFF;" d="M99.4,112.3V240l99.4-56.7V55.6L99.4,112.3z M137.2,196.2c-3.9,7.9-11.8,11.9-17.7,8.9
	s-7.6-11.6-3.7-19.5s11.8-11.9,17.7-8.9S141.1,188.4,137.2,196.2z M183.4,111.3c-3.9,7.9-11.8,11.9-17.7,8.9
	c-5.9-2.9-7.6-11.6-3.7-19.5c3.9-7.9,11.8-11.9,17.7-8.9S187.2,103.4,183.4,111.3z"/>
<path style="fill:#FFFFFF;fill-opacity:0.6;" d="M99.4,0L0,55.6l99.4,57.1l99.4-57.1L99.4,0z M47.5,66.1c-8.3,2.8-16.7,0-18.8-6.2
	s2.9-13.6,11.2-16.4s16.7,0,18.8,6.2S55.8,63.3,47.5,66.1z M102.6,66.1c-8.3,2.8-16.7,0-18.8-6.2c-2.1-6.2,2.9-13.6,11.2-16.4
	s16.7,0,18.8,6.2S110.9,63.3,102.6,66.1z M157.2,66.1c-8.3,2.8-16.7,0-18.8-6.2s2.9-13.6,11.2-16.4s16.7,0,18.8,6.2
	S165.5,63.3,157.2,66.1z"/>
</svg>
