<?xml version="1.0" encoding="utf-8"?>
<!-- Generator: Adobe Illustrator 27.5.0, SVG Export Plug-In . SVG Version: 6.00 Build 0)  -->
<svg version="1.1" xmlns="http://www.w3.org/2000/svg" xmlns:xlink="http://www.w3.org/1999/xlink" x="0px" y="0px"
	 width="253.8px" height="152.9px" viewBox="0 0 253.8 152.9" style="enable-background:new 0 0 253.8 152.9;" xml:space="preserve"
	>
<path style="fill:#FFFFFF;" d="M9.2,86C-3,86-3,66.9,9.2,66.9c3.9-0.2,6.8-0.8,8.8-1.8s3.7-2.6,5.1-4.8s2.4-5.1,2.9-8.5
	c0.4-2.5,0.6-7,0.6-13.3C26.6,28.2,27.1,21,28,17c1-4.1,2.7-7.3,5.2-9.8s6.1-4.4,10.9-5.8c3.2-1,8.3-1.4,15.3-1.4h4.2v19
	c-5.9,0-9.7,0.3-11.3,1s-2.9,1.7-3.7,3c-0.8,1.4-1.2,3.7-1.2,7s-0.2,9.7-0.7,19c-0.3,5.3-1,9.5-2.1,12.8s-2.5,6-4.2,8.1
	s-4.4,4.3-7.9,6.6c3.1,1.8,5.7,3.9,7.7,6.3s3.5,5.3,4.6,8.8c1.1,3.4,1.8,8.1,2.1,13.8c0.4,8.8,0.6,14.4,0.6,16.9
	c0,3.5,0.4,5.9,1.3,7.3s2.1,2.4,3.9,3.1c1.7,0.7,5.4,1.1,11.2,1.1v19.1h-4.2c-7.2,0-12.6-0.6-16.5-1.7c-3.8-1.1-7-3-9.7-5.7
	c-2.6-2.7-4.4-5.9-5.3-9.8c-0.9-3.9-1.4-10-1.4-18.4c0-9.8-0.4-16.1-1.3-19C24.2,94,22.4,91,20,89.1C17.7,87.3,14.1,86.3,9.2,86z"/>
<path style="fill:#FFFFFF;" d="M233.7,89.1c-2.4,1.8-4.1,4.9-5.3,9.1c-0.8,2.9-1.3,9.3-1.3,19c0,8.4-0.5,14.5-1.4,18.4
	s-2.7,7.2-5.3,9.8c-2.6,2.7-5.8,4.5-9.7,5.7c-3.8,1.1-9.3,1.7-16.5,1.7H190v-19.1c5.7,0,9.4-0.4,11.2-1.1s3-1.8,3.9-3.1
	s1.3-3.8,1.3-7.3c0-2.4,0.2-8.1,0.6-16.9c0.3-5.8,1-10.4,2.1-13.8s2.6-6.4,4.6-8.8s4.6-4.5,7.7-6.3c-3.6-2.3-6.2-4.5-7.9-6.6
	s-3.1-4.8-4.2-8.1c-1.1-3.3-1.8-7.5-2.1-12.8c-0.5-9.3-0.7-15.7-0.7-19s-0.4-5.6-1.2-7s-2-2.4-3.7-3c-1.7-0.7-5.4-1-11.3-1V0h4.2
	c6.9,0,12,0.5,15.3,1.4c4.8,1.4,8.4,3.4,10.9,5.8c2.5,2.5,4.2,5.7,5.2,9.8s1.4,11.2,1.4,21.5c0,6.3,0.2,10.7,0.6,13.3
	c0.5,3.4,1.5,6.2,2.9,8.5s3.1,3.9,5.1,4.8c2,1,4.9,1.5,8.8,1.8c12.2,0,12.2,19.1,0,19.1C239.7,86.3,236.1,87.3,233.7,89.1z"/>
<g>
	<path style="fill:#FFFFFF;fill-opacity:0.3;" d="M63.6,35.4v81.4l63.3,36.1V71.5L63.6,35.4z M98.5,103.7c-4,1.4-8.7-1.8-10.4-7.1
		c-1.8-5.3,0-10.7,3.9-12c4-1.4,8.7,1.8,10.4,7.1C104.2,97,102.4,102.4,98.5,103.7z"/>
	<path style="fill:#FFFFFF;" d="M126.9,71.5v81.4l63.3-36.1V35.4L126.9,71.5z M151,125c-2.5,5-7.5,7.6-11.3,5.7
		c-3.8-1.9-4.8-7.4-2.4-12.4c2.5-5,7.5-7.6,11.3-5.7C152.4,114.5,153.4,120,151,125z M180.4,70.9c-2.5,5-7.5,7.6-11.3,5.7
		s-4.8-7.4-2.4-12.4c2.5-5,7.5-7.6,11.3-5.7S182.8,65.9,180.4,70.9z"/>
	<path style="fill:#FFFFFF;fill-opacity:0.6;" d="M126.9,0L63.6,35.4l63.3,36.4l63.3-36.4L126.9,0z M93.8,42.1
		c-5.3,1.8-10.7,0-12-3.9c-1.4-4,1.8-8.7,7.1-10.4c5.3-1.8,10.7,0,12,3.9C102.3,35.6,99.1,40.3,93.8,42.1z M128.9,42.1
		c-5.3,1.8-10.7,0-12-3.9c-1.4-4,1.8-8.7,7.1-10.4c5.3-1.8,10.7,0,12,3.9C137.4,35.6,134.2,40.3,128.9,42.1z M163.7,42.1
		c-5.3,1.8-10.7,0-12-3.9c-1.4-4,1.8-8.7,7.1-10.4s10.7,0,12,3.9C172.2,35.6,169,40.3,163.7,42.1z"/>
</g>
</svg>
