<?xml version="1.0" encoding="utf-8"?>
<!-- Generator: Adobe Illustrator 27.5.0, SVG Export Plug-In . SVG Version: 6.00 Build 0)  -->
<svg version="1.1" xmlns="http://www.w3.org/2000/svg" xmlns:xlink="http://www.w3.org/1999/xlink" x="0px" y="0px"
	 width="516px" height="375.2px" viewBox="0 0 516 375.2" style="enable-background:new 0 0 516 375.2;" xml:space="preserve">
<path style="fill:#FFFFFF;" d="M344.7,349.6c39.2-13.8,72.7-36,100-67.4c-0.5,0.3-0.9,0.6-1.4,0.9c-18.2,13.6-37.8,24.8-58.8,33.5
	c-18.4,7.6-37.4,13.2-57,17c-12.5,2.4-25.1,4.1-37.8,5.1c-17.9,1.4-35.9,1.6-53.8,0.6c-13.7-0.7-27.2-2.1-40.7-4.4
	c-24.1-4.1-47.5-10.9-69.8-20.9c-18.5-8.3-35.9-18.5-52.3-30.6c-0.6-0.4-1.2-0.9-1.9-1.1c13.3,15.5,28.5,28.9,45.5,40.2
	c17,11.4,35.2,20.3,54.6,27.1c-0.4,0.6-0.7,1.1-1,1.5c-5.7,7.6-11.3,15.1-17,22.7c-0.7,0.9-1.4,1.4-2.6,1.3
	c-9.2-1.1-18.6-1.7-27.7-3.3c-23-4.1-45-11.4-65.8-22.2C35.7,338.4,16.8,324,0.8,305.8c-0.5-0.6-0.9-1.7-0.8-2.5
	c0.7-9.2,1.3-18.4,2.2-27.5C3.3,265.4,4.3,255,6,244.7c2.6-16.4,5.4-32.8,8.7-49.1c5.8-28.3,13.8-56.1,24-83.1
	c8.4-22.3,18-44,30.7-64.3c0.6-1,1.4-1.9,2.4-2.5c17.6-13,36.7-23.3,57-31.3c17.5-6.9,35.5-11.7,54.1-14c4.6-0.6,4.6-0.6,6.7,3.6
	c1.2,2.3,2.3,4.6,3.6,7.3c-42.4,9-79.1,28.8-110.9,58.7c1-0.4,1.5-0.7,2.1-0.9c16.8-8.5,33.6-16.9,51.2-23.7
	c19.6-7.7,39.8-13.4,60.6-17c14.4-2.4,28.8-3.9,43.3-4.6c15.7-0.7,31.3-0.6,47,0.5C324,26.9,360,35.7,394.3,51.2
	c12.5,5.7,24.8,11.9,37.2,17.9c0.5,0.3,1,0.5,1.8,0.9C402.2,39.3,365,20.7,322.7,11.3c1.9-3.8,3.5-7.2,5.4-10.6
	c0.3-0.5,1.3-0.8,2-0.7c9.3,0.8,18.5,2.4,27.5,4.7c31.5,8,60.2,22.1,86.5,41c1,0.7,1.8,1.6,2.5,2.6c9,14.2,16.2,29.3,22.8,44.7
	c11.7,27.5,20.8,55.8,27.9,84.8c5,20.6,9.2,41.3,12,62.3c2,15.2,3.6,30.5,5.3,45.7c0.6,5.5,0.9,11.1,1.4,16.7
	c0.1,1.5-0.2,2.7-1.3,3.9c-23,25.8-51.3,43.6-83.7,55.2c-16.3,5.8-33.1,10-50.3,12c-5.2,0.6-10.5,1-15.8,1.4c-0.6,0-1.6-0.3-1.9-0.8
	c-6.1-8-12.1-16-18.1-24.1C344.8,350.1,344.8,349.9,344.7,349.6z M140.5,211c0.2,13.8,4.6,25.8,14.3,35.7c14.8,15.1,39,15,53.8-0.2
	c7.6-7.8,12.1-17.1,13.6-27.8c2.2-16.7-2-31.4-13.9-43.5c-14.8-15-38.8-14.8-53.5,0.3C145.1,185.3,140.7,197.4,140.5,211z
	 M375.4,210.9c-0.2-13.6-4.5-25.7-14.3-35.5c-7.5-7.5-16.5-11.5-27.1-11.4c-12.1,0.1-22,5.4-29.6,14.7c-9.3,11.4-12.6,24.6-10.9,39
	c1.5,12.4,6.8,22.9,16.4,31.2c15,12.9,37.1,12,51-2.1C370.8,236.8,375.2,224.8,375.4,210.9z"/>
</svg>
