<?xml version="1.0" encoding="utf-8"?>
<!-- Generator: Adobe Illustrator 28.0.0, SVG Export Plug-In . SVG Version: 6.00 Build 0)  -->
<svg version="1.1" xmlns="http://www.w3.org/2000/svg" xmlns:xlink="http://www.w3.org/1999/xlink" x="0px" y="0px"
	 viewBox="0 0 95.8 95.7" style="enable-background:new 0 0 95.8 95.7;" xml:space="preserve">
<path style="fill:#FFFFFF;" d="M76.8,31l0.3,0c2.9,0.4,5.9,0.6,9.6,0.6h9.2v-5h-9.2c-3.4,0-6.1-0.2-8.7-0.5c-1.9-0.7-3.9-1.3-5.8-2
	c-0.1-0.6-0.2-1.2-0.4-1.8C70.9,18,70,13.4,69.2,9V0h-5v9.2l0,0.4c0.7,4.3,1.6,8.6,2.4,12.8c-8.4-2.8-18-5.2-27.8-5.8
	c0-0.4,0.1-0.8,0.1-1.2l0-0.7c0.1-1.6,0.2-2.9,0.2-5.4V0h-5v9.2c0,2.4-0.1,3.5-0.2,5.1l0,0.7c0,0.5-0.1,1-0.1,1.4
	c-10.5,0-21,2.3-30,8.5L6.7,29c7.9-5.5,17.2-7.6,26.7-7.7c-0.3,6.1-0.5,13.1,0.2,19.3c0.3,1.8,0.6,3.6,0.8,5.4
	c0.6,3.9,1.2,7.8,1.8,11.7C21.3,55.2,16,53,0,53.2l0.1,5c16.2-0.2,21.7,2.1,36.8,4.7c1.8,14,2.4,17.7-0.7,31.7l4.9,1.1
	c3.2-14.2,2.7-17.9,1-31.8c1.1,0.2,2.3,0.4,3.4,0.6c1.8,0.3,3.5,0.6,5.3,0.9l0.3,0c1.3,0.1,2.6,0.1,4.1,0.1c3.8,0,8.1-0.3,13.2-0.9
	c2.4-0.3,4.8-0.6,7.2-1c-0.6,8.7-3.2,17.6-8,26.1l4.4,2.5c5.4-9.5,8.2-19.5,8.7-29.4c2.1-0.4,4.3-0.8,6.4-1.2h8.9v-5h-9.2l-0.5,0
	c-1.9,0.4-3.7,0.7-5.6,1.1c-0.3-6.8-1.8-13.4-4.6-19.6c-0.3-0.8-0.6-1.6-0.9-2.4c-0.7-2-1.4-3.9-1.9-5.9c1.1,0.4,2.2,0.7,3.3,1.1
	L76.8,31z M75.6,58.6c-2.6,0.4-5.3,0.8-7.9,1.1c-6.6,0.8-12,1.1-16.2,0.8c-1.7-0.3-3.4-0.6-5.1-0.9c-1.7-0.3-3.3-0.6-5-0.9
	c-0.6-4.4-1.3-8.9-2-13.4c-0.3-1.8-0.6-3.6-0.8-5.3c-0.7-5.8-0.5-12.5-0.2-18.5c10.4,0.6,20.8,3.4,29.4,6.5c0.1,0.7,0.3,1.3,0.4,2
	c0.5,2.7,1.4,5.1,2.2,7.4c0.3,0.8,0.6,1.6,0.9,2.4l0.1,0.2C74,45.9,75.3,52.1,75.6,58.6z"/>
</svg>
