<?xml version="1.0" encoding="utf-8"?>
<!-- Generator: Adobe Illustrator 27.5.0, SVG Export Plug-In . SVG Version: 6.00 Build 0)  -->
<svg version="1.1" xmlns="http://www.w3.org/2000/svg" xmlns:xlink="http://www.w3.org/1999/xlink" x="0px" y="0px"
	 width="208.6px" height="202.5px" viewBox="0 0 208.6 202.5" style="enable-background:new 0 0 208.6 202.5;" xml:space="preserve"
	>
<path style="fill:#FFFFFF;" d="M151.6,0c-19.6,0-37,9.9-47.2,25C94,9.9,76.7,0,57.1,0C25.6,0,0,25.6,0,57.1
	c0,44.2,96.1,145.4,104.3,145.4S208.6,101.2,208.6,57.1C208.6,25.6,183.1,0,151.6,0z"/>
<path style="fill:#BB3C3C;" d="M107.8,20.5l82.8,82.8c6.4-10.4,11.6-20.5,14.7-29.5l-71-71C123.8,6,114.7,12.3,107.8,20.5z"/>
<g>
	<path style="fill:#FFFFFF;" d="M125.5,28c-1.1-1.1-1.1-2.2,0-3.3l9-9c1.1-1.1,2.2-1.1,3.3,0l3.4,3.4c2.1,2.1,3.2,4.3,3.3,6.6
		c0.1,2.2-0.8,4.3-2.8,6.3s-4.1,2.9-6.3,2.8c-2.2-0.1-4.4-1.2-6.6-3.3L125.5,28z M129.7,26.9l1.7,1.7c1.2,1.2,2.4,1.8,3.6,1.8
		c1.2,0,2.4-0.6,3.6-1.8c1.2-1.2,1.8-2.4,1.8-3.6s-0.6-2.4-1.8-3.6l-1.7-1.7L129.7,26.9z"/>
	<path style="fill:#FFFFFF;" d="M143.3,46.1c-1.2-1.2-2.1-2.6-2.5-4.1s-0.4-2.9,0-4.4s1.3-2.8,2.5-4.1c1.3-1.3,2.6-2.1,4.1-2.6
		c1.5-0.4,2.9-0.4,4.4,0s2.8,1.2,4.1,2.5c1.2,1.2,2.1,2.6,2.5,4.1s0.4,2.9,0,4.4s-1.3,2.8-2.6,4.1s-2.6,2.1-4.1,2.5s-2.9,0.4-4.4,0
		C145.9,48.2,144.5,47.3,143.3,46.1z M146,43.4c0.9,0.9,1.9,1.3,3.1,1.2c1.2-0.1,2.3-0.8,3.5-1.9c1.1-1.1,1.8-2.3,1.9-3.4
		c0.1-1.1-0.3-2.2-1.2-3.1c-0.9-0.9-2-1.3-3.1-1.2c-1.2,0.1-2.3,0.8-3.4,1.9c-1.1,1.1-1.8,2.3-1.9,3.5C144.7,41.5,145,42.5,146,43.4
		z"/>
	<path style="fill:#FFFFFF;" d="M152.9,55.7c-1-1-1-2,0-3l9.5-9.5c0.5-0.5,1-0.8,1.6-0.8c0.5,0,1,0.2,1.4,0.6
		c0.4,0.4,0.6,0.7,0.7,1.1c0.1,0.3,0.1,0.8,0,1.4l-1.3,11.3l5.7-5.7c1-1,2-1,3,0c0.5,0.5,0.7,1,0.7,1.5s-0.3,1-0.7,1.5l-9.7,9.7
		c-0.4,0.4-0.9,0.7-1.4,0.7s-0.9-0.2-1.3-0.5c-0.4-0.4-0.6-0.8-0.7-1.1c-0.1-0.4-0.1-0.8,0-1.4l1.3-11.3l-5.7,5.7
		C154.9,56.7,153.9,56.7,152.9,55.7z"/>
	<path style="fill:#FFFFFF;" d="M170.5,73.4c-1.2-1.2-2.1-2.6-2.5-4.1s-0.4-2.9,0-4.4s1.3-2.8,2.5-4.1c1.3-1.3,2.6-2.1,4.1-2.6
		c1.5-0.4,2.9-0.4,4.4,0s2.8,1.2,4.1,2.5c1.2,1.2,2.1,2.6,2.5,4.1s0.4,2.9,0,4.4s-1.3,2.8-2.6,4.1c-1.3,1.3-2.6,2.1-4.1,2.5
		s-2.9,0.4-4.4,0C173.1,75.4,171.8,74.6,170.5,73.4z M173.2,70.7c0.9,0.9,1.9,1.3,3.1,1.2c1.2-0.1,2.3-0.8,3.5-1.9
		c1.1-1.1,1.8-2.3,1.9-3.4c0.1-1.1-0.3-2.2-1.2-3.1s-2-1.3-3.1-1.2c-1.2,0.1-2.3,0.8-3.4,1.9c-1.1,1.1-1.8,2.3-1.9,3.5
		C171.9,68.7,172.3,69.8,173.2,70.7z"/>
	<path style="fill:#FFFFFF;" d="M180.3,83.1c-0.5-0.5-0.8-1-0.8-1.6s0.3-1.1,0.8-1.6l9.2-9.2c0.5-0.5,1.1-0.8,1.6-0.8
		c0.6,0,1.1,0.3,1.6,0.8L197,75c1.4,1.4,2.1,2.8,2.2,4.3c0.1,1.4-0.5,2.8-1.7,4c-0.9,0.9-1.9,1.5-3,1.6c-1.1,0.2-2.2-0.1-3.3-0.7
		c0.5,0.8,0.6,1.8,0.2,2.9l-0.7,2.4c-0.2,0.5-0.4,0.9-0.7,1.2c-0.3,0.3-0.7,0.4-1.1,0.4c-0.4,0-0.9-0.3-1.3-0.7
		c-0.5-0.5-0.7-0.9-0.8-1.4s-0.1-1,0.1-1.6l1.3-4.5c0.1-0.4,0.1-0.7,0-1.1s-0.3-0.6-0.6-0.9l-1-1l-3.1,3.1c-0.5,0.5-1.1,0.8-1.6,0.8
		C181.4,83.8,180.8,83.6,180.3,83.1z M188.9,77.7l2.1,2.1c1.3,1.3,2.4,1.4,3.4,0.4s0.8-2.1-0.4-3.4l-2.1-2.1L188.9,77.7z"/>
</g>
<g style="opacity:0.1;">
	<path d="M123.2,25c8.5-12.6,22.1-21.6,37.8-24.2c-3.1-0.5-6.2-0.8-9.4-0.8c-14.5,0-27.8,5.4-37.8,14.3
		C99.1,27.7,116.5,37.8,123.2,25z"/>
	<path d="M18.8,57.1c0-28.3,20.7-51.8,47.7-56.3c-3-0.5-6.2-0.8-9.4-0.8C25.6,0,0,25.6,0,57.1c0,44.2,96.1,145.4,104.3,145.4
		c1.3,0,4.6-2.4,9.4-6.7C87.5,172.6,18.8,94.5,18.8,57.1z"/>
	<path d="M107.8,20.5c3.4,22.2,40.1,58.1,75.8,93.6l7-10.9L107.8,20.5z"/>
</g>
<path style="fill:#FFFFFF;" d="M166.7,19.8c8.4,4.2,14.7,10.6,18.8,19c2.8,5.8,11.4,0.7,8.6-5c-4.8-9.8-12.7-17.8-22.4-22.6
	C166,8.3,161,16.9,166.7,19.8L166.7,19.8z"/>
<path style="fill:#FFFFFF;" d="M64.8,19.2c8.9,2.9,16.1,8.4,21.4,16.1c3.6,5.3,11.4-1,7.8-6.3c-6.1-9-15.1-15.7-25.5-19.1
	C62.5,8,58.7,17.2,64.8,19.2L64.8,19.2z"/>
</svg>
