<?xml version="1.0" encoding="utf-8"?>
<!-- Generator: Adobe Illustrator 27.5.0, SVG Export Plug-In . SVG Version: 6.00 Build 0)  -->
<svg version="1.1" xmlns="http://www.w3.org/2000/svg" xmlns:xlink="http://www.w3.org/1999/xlink" x="0px" y="0px"
	 width="293.6px" height="303.1px" viewBox="0 0 293.6 303.1" style="enable-background:new 0 0 293.6 303.1;" xml:space="preserve"
	>
<g>
	<path style="fill:#FFFFFF;" d="M18.9,208.4c-5,0-9.8,2-13.4,5.5C2,217.5,0,222.3,0,227.3v18.9c0,15.1,6,29.5,16.6,40.2
		S41.7,303,56.8,303h180c15.1,0,29.5-6,40.2-16.6c10.7-10.7,16.6-25.1,16.6-40.2v-18.9c0-6.8-3.6-13-9.5-16.4s-13.1-3.4-18.9,0
		c-5.9,3.4-9.5,9.6-9.5,16.4v18.9c0,5-2,9.8-5.6,13.4s-8.4,5.5-13.4,5.5h-180c-5,0-9.8-2-13.4-5.5c-3.6-3.6-5.5-8.4-5.5-13.4v-18.9
		c0-5-2-9.8-5.5-13.4C28.8,210.4,24,208.4,18.9,208.4L18.9,208.4z"/>
	<path style="fill:#FFFFFF;" d="M146.8,0c-5,0-9.8,2-13.4,5.5c-3.6,3.6-5.5,8.4-5.5,13.4v139l-28.4-28.4c-3.2-3.3-7.4-5.4-11.9-6
		c-4.6-0.5-9.2,0.5-13,3c-4.6,3.2-7.6,8.3-8.1,13.9s1.5,11.1,5.5,15.1l45.7,45.6c7.8,7.8,18.3,12.1,29.3,12.1s21.5-4.4,29.3-12.1
		l45.7-45.6c4-4,6-9.5,5.5-15.1s-3.5-10.7-8.1-13.9c-3.8-2.5-8.4-3.6-13-3c-4.6,0.5-8.8,2.6-11.9,6l-28.4,28.4v-139
		c0-5-2-9.9-5.6-13.4C156.7,2,151.9,0,146.8,0L146.8,0z"/>
</g>
</svg>
