<?xml version="1.0" encoding="utf-8"?>
<!-- Generator: Adobe Illustrator 27.8.1, SVG Export Plug-In . SVG Version: 6.00 Build 0)  -->
<svg version="1.1" xmlns="http://www.w3.org/2000/svg" xmlns:xlink="http://www.w3.org/1999/xlink" x="0px" y="0px"
	 viewBox="0 0 75.7 75.8" style="enable-background:new 0 0 75.7 75.8;" xml:space="preserve">
<path d="M5.7,75.8c-0.5,0-0.9,0-1,0C2,75.6-0.1,73.3,0,70.5c0.1-2.8,2.5-4.9,5.2-4.7c0.3,0,12.3,0.4,20.2-7.2
	c4.9-4.7,7.4-11.6,7.4-20.7c0-11.9,3.5-21.3,10.6-28C54.6-0.7,70.3,0,71,0c2.8,0.1,4.9,2.5,4.7,5.2s-2.5,4.9-5.2,4.7
	c-0.1,0-12.2-0.4-20.2,7.2c-4.9,4.7-7.4,11.6-7.4,20.7c0,11.9-3.5,21.3-10.6,28C22.6,75.1,9.4,75.8,5.7,75.8z"/>
</svg>
