<?xml version="1.0" encoding="utf-8"?>
<!-- Generator: Adobe Illustrator 27.5.0, SVG Export Plug-In . SVG Version: 6.00 Build 0)  -->
<svg version="1.1" xmlns="http://www.w3.org/2000/svg" xmlns:xlink="http://www.w3.org/1999/xlink" x="0px" y="0px"
	 width="350.2px" height="350px" viewBox="0 0 350.2 350" style="enable-background:new 0 0 350.2 350;" xml:space="preserve">
<path style="fill:#FFFFFF;" d="M339.8,57.3l-46.9-46.9C286.3,3.8,277.3,0,267.8,0s-18.5,3.8-25.1,10.4L38.6,214.5
	c-4.3,4.3-7.1,9.5-9,15.2l-28.9,99c-1.9,5.7,0,11.8,4.3,16.6c3.3,3.3,7.6,4.7,11.8,4.7c1.4,0,3.3,0,4.7-0.5l99-28.9
	c5.7-1.9,10.9-4.7,15.2-9l204.1-204.1c6.6-6.6,10.4-15.6,10.4-25.1C350.2,72.9,346.4,63.9,339.8,57.3L339.8,57.3z M56.1,257.2
	L93,294.1l-52,15.1L56.1,257.2z M316.1,84.3l-32.2,32.2l-50.2-50.2l32.2-32.2c0.5-0.5,1.4-0.5,1.9-0.5s0.9,0,1.9,0.5L316.6,81
	c0.5,0.5,0.5,1.4,0.5,1.9S316.6,83.8,316.1,84.3L316.1,84.3z"/>
</svg>
