<?xml version="1.0" encoding="utf-8"?>
<!-- Generator: Adobe Illustrator 27.5.0, SVG Export Plug-In . SVG Version: 6.00 Build 0)  -->
<svg version="1.1" xmlns="http://www.w3.org/2000/svg" xmlns:xlink="http://www.w3.org/1999/xlink" x="0px" y="0px"
	 width="365.7px" height="369.3px" viewBox="0 0 365.7 369.3" style="enable-background:new 0 0 365.7 369.3;" xml:space="preserve"
	>
<path style="fill:#FAFAFB;" d="M113.6,111.8c7.6-6.1,16.8-9.5,24.6-15.1c6.2-4.5,10.9-3.8,17.3,0c68.6,39.6,137.5,78.9,206.3,118.1
	c3.5,2,4.4,3.7,3.5,7.8c-13,56.8-44.7,99.7-96.6,126.1c-77.6,39.4-166.6,21.9-223.9-43.6C10.3,265.6-3.8,219,0.8,166.8
	C7.7,89.2,65.1,24.3,140.1,5.4c91.6-23.1,190.2,30.4,219.3,119.7c1.1,3.5,0.9,5.3-2.5,7.1c-8.4,4.5-16.6,9.3-24.6,14.2
	c-3.3,2-4.3,1.9-5.6-2.2c-16.3-52.1-50.5-86.5-102.9-101.8C150.1,20.9,69.7,63.3,45,136c-28.3,83.6,19.9,171.4,105.5,192.3
	c72.3,17.6,148.6-23.8,173.3-94c1.2-3.3,0.3-4.6-2.5-6.2c-56.8-32.4-113.6-64.8-170.5-97.2c-5-2.9-5.1-2.8-5.1,3
	c0,33.2,0,66.3,0,99.5c0,5.4,0.1,5.4,4.7,2.8c17.9-10.3,35.8-20.6,53.7-30.9c2-1.1,3.6-2,5.9-0.6c9.5,5.6,19.1,10.9,28.6,16.4
	c-1,2.2-3.1,2.7-4.7,3.6c-27.8,16-55.7,32-83.5,48.1c-2.6,1.5-4.6,1.7-7.3,0.1c-8.6-5.1-17.3-10.1-26-14.8c-2.4-1.3-3.3-3-3.6-5.4
	c0.1-1.3,0.4-2.6,0.4-3.9c0-44.2,0-88.3,0-132.5C114,114.7,113.7,113.2,113.6,111.8z"/>
</svg>
