<?xml version="1.0" encoding="utf-8"?>
<!-- Generator: Adobe Illustrator 27.5.0, SVG Export Plug-In . SVG Version: 6.00 Build 0)  -->
<svg version="1.1" xmlns="http://www.w3.org/2000/svg" xmlns:xlink="http://www.w3.org/1999/xlink" x="0px" y="0px"
	 width="276.6px" height="298.8px" viewBox="0 0 276.6 298.8" style="enable-background:new 0 0 276.6 298.8;" xml:space="preserve"
	>
<path style="fill:#FFFFFF;" d="M265.6,247.9H11.1C5.6,247.9,0,253.4,0,259v28.8c0,5.5,5.5,11.1,11.1,11.1h254.5
	c6.6,0,11.1-5.5,11.1-11.1V259C276.6,253.4,272.2,247.9,265.6,247.9L265.6,247.9z"/>
<path style="fill:#FFFFFF;" d="M27.7,222.4H249V110.6C249,49.8,199.2,0,138.3,0C77.5,0,27.7,49.8,27.7,110.6V222.4L27.7,222.4z
	 M145,52c-5.5,0-10-4.4-10-10s4.4-11,10-11c39.8,0,73,33.2,73,73c0,5.5-4.4,10-11.1,10c-5.5,0-10-4.4-10-10
	C197,75.2,173.7,52,145,52z"/>
</svg>
