<?xml version="1.0" encoding="utf-8"?>
<!-- Generator: Adobe Illustrator 27.9.1, SVG Export Plug-In . SVG Version: 6.00 Build 0)  -->
<svg version="1.1" xmlns="http://www.w3.org/2000/svg" xmlns:xlink="http://www.w3.org/1999/xlink" x="0px" y="0px"
	 viewBox="0 0 70.9 70.9" style="enable-background:new 0 0 70.9 70.9;" xml:space="preserve">
<path style="fill-rule:evenodd;clip-rule:evenodd;fill:#FFFFFF;" d="M8.9,62h48.7c2.4,0,4.4-2,4.4-4.4V22.2H39.9v-6.6
	c0-3.7-3-6.6-6.6-6.6s-6.6,3-6.6,6.6v6.6H8.9v4.6c8.5,1.2,14.4,9.1,13.2,17.5c-1,6.8-6.3,12.2-13.2,13.2V62z M0,13.3v22.2h6.6
	c3.7,0,6.6,3,6.6,6.6s-3,6.6-6.6,6.6H0v22.2h57.6c6.6,0,13.3-6.6,13.3-13.3V13.3H48.7C48.7,6,42.8,0,35.4,0H31
	c-7.3,0-13.3,6-13.3,13.3H0z"/>
</svg>
