<?xml version="1.0" encoding="utf-8"?>
<!-- Generator: Adobe Illustrator 27.5.0, SVG Export Plug-In . SVG Version: 6.00 Build 0)  -->
<svg version="1.1" xmlns="http://www.w3.org/2000/svg" xmlns:xlink="http://www.w3.org/1999/xlink" x="0px" y="0px"
	 width="367.9px" height="367.9px" viewBox="0 0 367.9 367.9" style="enable-background:new 0 0 367.9 367.9;" xml:space="preserve"
	>
<path style="fill:#FFFFFF;" d="M300.1,135.8c1-0.2,1.2-1.1,1.5-1.8c4.6-9.3,9.3-18.6,13.9-27.9c3-5.9,6.8-11.2,11.8-15.6
	c3.3-3,7.2-5.1,11.1-7.1c9.2-4.7,18.4-9.3,27.6-13.9c0.8-0.4,1.9-0.6,1.9-1.7s-1.2-1.2-1.9-1.6c-9.3-4.7-18.5-9.5-27.8-13.9
	c-10.2-4.9-17.7-12.4-22.8-22.5c-4.7-9.3-9.6-18.6-14.4-27.9c-0.4-0.8-0.6-1.9-1.7-1.9s-1.2,1.2-1.6,1.9c-4.3,9-8.7,18-13,27.1
	c-5,10.5-12.6,18.5-23.2,23.6c-9.1,4.4-18.2,9-27.3,13.6c-0.8,0.4-1.9,0.6-1.9,1.6c0,1.1,1.2,1.3,1.9,1.6
	c9.1,4.6,18.3,9.2,27.4,13.7c10.5,5.1,18.2,12.9,23.3,23.3c4.5,9.1,9,18.2,13.6,27.3C298.8,134.6,299,135.6,300.1,135.8z"/>
<path style="fill:#FFFFFF;" d="M299.9,218c0,2.8-0.1,5.5,0,8.3c0.1,2.3-0.8,3.6-2.9,4.7c-24.7,12.3-49.3,24.6-73.9,37
	c-2.6,1.3-5.2,2.5-7.6,4.3c-6.8,5-11.9,11.4-15.6,19c-12.1,24.5-24.5,48.9-36.6,73.4c-1.2,2.4-2.6,3.4-5.3,3.3
	c-5.4-0.2-10.8-0.2-16.1,0c-2.4,0.1-3.8-0.8-4.8-3c-12.3-24.7-24.7-49.3-36.9-74c-3.8-7.6-9-13.9-15.8-18.9
	c-2.4-1.8-5.1-3.1-7.8-4.4C52.1,255.4,27.7,243.2,3.2,231c-2.4-1.2-3.3-2.6-3.2-5.2c0.2-5.4,0.2-10.9,0-16.4
	c-0.1-2.4,0.8-3.6,2.9-4.7c24.3-12.1,48.6-24.3,73-36.4c6.6-3.3,12.6-7.3,17.4-13.1c2.6-3.2,4.7-6.7,6.6-10.4
	c12.3-24.5,24.6-49,36.7-73.6c1.3-2.6,2.8-3.6,5.7-3.5c5.4,0.2,10.8,0.2,16.1,0c2.4-0.1,3.8,0.9,4.8,3
	c12.2,24.5,24.5,48.9,36.6,73.4c5.3,10.7,13,18.5,23.7,23.7c24.5,12,48.8,24.4,73.2,36.5c2.3,1.2,3.4,2.5,3.2,5.2
	C299.8,212.5,299.9,215.3,299.9,218z M150,149c-0.8,0.3-0.9,1-1.2,1.5c-2.5,4.9-5,9.9-7.4,14.8c-9.6,19.5-24.1,34.1-43.6,43.7
	c-5.1,2.5-10.2,5.1-15.2,7.6c-0.6,0.3-1.5,0.4-1.5,1.2s0.9,0.9,1.5,1.2c5.3,2.7,10.5,5.3,15.8,7.9c17.5,8.7,31.1,21.5,40.5,38.7
	c3.5,6.4,6.6,12.9,9.9,19.3c0.4,0.7,0.5,1.9,1.4,1.8c0.9,0,1-1.2,1.4-1.9c2.6-5.1,5.2-10.3,7.7-15.4c8.9-17.7,21.9-31.5,39.5-40.9
	c6.2-3.3,12.5-6.4,18.8-9.5c0.6-0.3,1.4-0.4,1.5-1.2c0-0.8-0.9-1-1.4-1.2c-4.9-2.5-9.9-5-14.8-7.4c-18.3-9.1-32.6-22.4-42.2-40.6
	c-3.1-6-6.1-12-9.1-18C151.1,150,150.9,149.2,150,149z"/>
<path style="fill:#FFFFFF;" d="M300.1,135.8c-1.1-0.2-1.3-1.2-1.6-2c-4.6-9.1-9.1-18.1-13.6-27.3c-5.1-10.4-12.8-18.2-23.3-23.3
	c-9.2-4.5-18.3-9.1-27.4-13.7c-0.8-0.4-1.9-0.6-1.9-1.6c0-1.1,1.2-1.3,1.9-1.6c9.1-4.6,18.1-9.2,27.3-13.6
	c10.6-5.1,18.2-13.1,23.2-23.6c4.3-9,8.7-18,13-27.1c0.4-0.8,0.5-1.9,1.6-1.9s1.3,1.1,1.7,1.9c4.8,9.3,9.7,18.5,14.4,27.9
	c5.1,10.1,12.5,17.6,22.8,22.5c9.4,4.5,18.6,9.3,27.8,13.9c0.8,0.4,1.9,0.6,1.9,1.6c0,1.1-1.1,1.3-1.9,1.7
	c-9.2,4.6-18.5,9.2-27.6,13.9c-3.9,2-7.8,4.1-11.1,7.1c-5,4.4-8.8,9.7-11.8,15.6c-4.6,9.3-9.3,18.6-13.9,27.9
	C301.3,134.7,301.1,135.5,300.1,135.8z"/>
</svg>
