<?xml version="1.0" encoding="utf-8"?>
<!-- Generator: Adobe Illustrator 27.5.0, SVG Export Plug-In . SVG Version: 6.00 Build 0)  -->
<svg version="1.1" xmlns="http://www.w3.org/2000/svg" xmlns:xlink="http://www.w3.org/1999/xlink" x="0px" y="0px"
	 width="298.5px" height="298.4px" viewBox="0 0 298.5 298.4" style="enable-background:new 0 0 298.5 298.4;" xml:space="preserve"
	>
<path style="fill:#FFFFFF;" d="M73.9,298.4c-7,0-13.9-1-20.6-2.9L37,290.8l49.5-49.5l-29.4-29.4L7.7,261.4L3,245.2
	c-7.5-25.9-0.4-53.8,18.7-72.9c13.7-13.7,32.8-21.6,52.3-21.6c5.9,0,11.7,0.7,17.4,2.1l61.5-61.5c-6-25,1.3-51.6,19.5-69.7
	C186.2,7.7,204.8,0,224.6,0c7,0,13.9,1,20.6,2.9l16.2,4.7l-49.5,49.5l29.4,29.4L290.8,37l4.7,16.2c7.5,25.9,0.4,53.8-18.7,72.9
	c-13.7,13.7-32.8,21.6-52.3,21.6l0,0c-5.9,0-11.7-0.7-17.4-2.1l-61.5,61.5c6,25-1.3,51.6-19.5,69.7
	C112.2,290.8,93.7,298.4,73.9,298.4z"/>
</svg>
