<?xml version="1.0" encoding="utf-8"?>
<!-- Generator: Adobe Illustrator 27.5.0, SVG Export Plug-In . SVG Version: 6.00 Build 0)  -->
<svg version="1.1" id="Layer_1" xmlns="http://www.w3.org/2000/svg" xmlns:xlink="http://www.w3.org/1999/xlink" x="0px" y="0px"
	 width="224px" height="217.5px" viewBox="0 0 223.6 217.5" style="enable-background:new 0 0 223.6 217.5;" xml:space="preserve"
	>
<path style="fill:#FFFFFF;" d="M111.8,217.5c-2.8,0-6.4,0-25.1-18.7c-11.5-11.5-24.3-25.8-36-40.2C27.6,130.1,0,90.7,0,64.6
	C0,29,29,0,64.6,0c18,0,35.1,7.5,47.3,20.5C123.9,7.5,141,0,159.1,0c35.6,0,64.5,29,64.5,64.6c0,26-27.6,65.5-50.8,94
	c-11.7,14.4-24.5,28.7-36,40.2C118.2,217.5,114.6,217.5,111.8,217.5z M64.6,15C37.3,15,15,37.3,15,64.6c0,16.1,16.3,45.7,44.8,81.3
	c22.3,27.9,44.2,49.7,52,55.6c7.8-5.9,29.7-27.7,52-55.6c28.5-35.6,44.8-65.2,44.8-81.3c0-27.3-22.2-49.6-49.5-49.6
	c-16.5,0-31.8,8.1-41,21.7l-6.2,9.1l-6.2-9.1C96.3,23.1,81,15,64.6,15z"/>
</svg>
