<?xml version="1.0" encoding="utf-8"?>
<!-- Generator: Adobe Illustrator 27.5.0, SVG Export Plug-In . SVG Version: 6.00 Build 0)  -->
<svg version="1.1" xmlns="http://www.w3.org/2000/svg" xmlns:xlink="http://www.w3.org/1999/xlink" x="0px" y="0px"
	 width="20px" height="20.9px" viewBox="0 0 20 20.9" style="enable-background:new 0 0 20 20.9;" xml:space="preserve">
<path style="fill:#FFFFFF;" d="M20,20.9c-2,0-4,0-6,0c0-0.6,0-1.1,0-1.7c0,0,0.1-0.1,0.2-0.1c0.5-0.1,0.9-0.2,1.4-0.3
	c0-0.1,0-0.1-0.1-0.2c-0.4-1.2-0.8-2.3-1.2-3.5c0-0.1-0.1-0.2-0.3-0.2c-2.7,0-5.3,0-8,0c-0.1,0-0.2,0-0.2,0.1
	c-0.4,1.2-0.9,2.4-1.3,3.6c0,0,0,0,0,0.1C4.8,18.9,5.2,19,5.6,19C6,19.1,6,19.1,6,19.5c0,0.5,0,0.9,0,1.4c-2,0-4,0-6,0
	c0-0.6,0-1.2,0-1.8c0.4,0,0.7-0.1,1.1-0.1c0.3,0,0.5-0.1,0.6-0.4C4,12.4,6.4,6.3,8.8,0.2C8.8,0,8.9,0,9.1,0c0.7,0,1.4,0,2.2,0
	c0.3,0.8,0.6,1.6,0.9,2.5c2.1,5.4,4.1,10.8,6.2,16.2c0.1,0.1,0.1,0.2,0.3,0.2c0.4,0,0.8,0.1,1.2,0.2c0.1,0,0.2,0.1,0.2,0.1
	C20,19.8,20,20.3,20,20.9z M10.1,3.6C10.1,3.6,10,3.6,10.1,3.6c-1.2,3-2.3,6-3.4,9c2.2,0,4.4,0,6.6,0C12.2,9.6,11.2,6.6,10.1,3.6z"
	/>
</svg>
