<?xml version="1.0" encoding="utf-8"?>
<!-- Generator: Adobe Illustrator 27.6.1, SVG Export Plug-In . SVG Version: 6.00 Build 0)  -->
<svg version="1.1" xmlns="http://www.w3.org/2000/svg" xmlns:xlink="http://www.w3.org/1999/xlink" x="0px" y="0px"
	 width="358.6px" height="358.6px" viewBox="0 0 358.6 358.6" style="enable-background:new 0 0 358.6 358.6;" xml:space="preserve"
	>
<path style="fill:#FFFFFF;" d="M14.2,152.7c-7.8,0-14.2-6.3-14.2-14.2V60.9C0,27.3,27.3,0,60.9,0h77.6c7.8,0,14.2,6.3,14.2,14.2
	c0,7.8-6.3,14.2-14.2,14.2H60.9c-17.9,0-32.5,14.6-32.5,32.5v77.6C28.3,146.3,22,152.7,14.2,152.7z"/>
<path style="fill:#FFFFFF;" d="M344.4,152.7c-7.8,0-14.2-6.3-14.2-14.2V60.9c0-17.9-14.6-32.5-32.5-32.5h-77.6
	c-7.8,0-14.2-6.3-14.2-14.2c0-7.8,6.3-14.2,14.2-14.2h77.6c33.6,0,60.9,27.3,60.9,60.9v77.6C358.6,146.3,352.3,152.7,344.4,152.7z"
	/>
<path style="fill:#FFFFFF;" d="M138.5,358.6H60.9C27.3,358.6,0,331.3,0,297.7v-77.6c0-7.8,6.3-14.2,14.2-14.2s14.2,6.3,14.2,14.2
	v77.6c0,17.9,14.6,32.5,32.5,32.5h77.6c7.8,0,14.2,6.3,14.2,14.2S146.3,358.6,138.5,358.6z"/>
<path style="fill:#FFFFFF;" d="M297.7,358.6h-77.6c-7.8,0-14.2-6.3-14.2-14.2s6.3-14.2,14.2-14.2h77.6c17.9,0,32.5-14.6,32.5-32.5
	v-77.6c0-7.8,6.3-14.2,14.2-14.2s14.2,6.3,14.2,14.2v77.6C358.6,331.3,331.3,358.6,297.7,358.6z"/>
</svg>
