<?xml version="1.0" encoding="utf-8"?>
<!-- Generator: Adobe Illustrator 27.5.0, SVG Export Plug-In . SVG Version: 6.00 Build 0)  -->
<svg version="1.1" xmlns="http://www.w3.org/2000/svg" xmlns:xlink="http://www.w3.org/1999/xlink" x="0px" y="0px"
	 width="80px" height="79px" viewBox="0 0 80 79" style="enable-background:new 0 0 80 79;" xml:space="preserve">
<path style="fill:#FFFFFF;" d="M69.8,19C70.7,9.3,67.5,2.5,61,0.5c-6.8-2.1-14.5,2.3-20.6,11.3c-6.1-9-13.8-13.4-20.6-11.3
	c-6.4,2-9.7,8.8-8.8,18.5H0v30h5v20v10h10h60v-6v-4V49h5V19H69.8z M58.6,8.6c1.9,0.6,3.5,4,2.7,10.4l0,0H45.9
	C50.7,10.7,56.1,7.9,58.6,8.6z M19.6,19c-0.8-6.4,0.8-9.8,2.7-10.4c2.5-0.7,7.9,2.1,12.6,10.4H19.6L19.6,19z M35,69H15V49h20V69z
	 M35,39H10V29h25V39z M65,69H45V49h20V69z M70,39H45V29h25V39z"/>
</svg>
