<?xml version="1.0" encoding="utf-8"?>
<!-- Generator: Adobe Illustrator 27.5.0, SVG Export Plug-In . SVG Version: 6.00 Build 0)  -->
<svg version="1.1" xmlns="http://www.w3.org/2000/svg" xmlns:xlink="http://www.w3.org/1999/xlink" x="0px" y="0px"
	 width="675.1px" height="658.5px" viewBox="0 0 675.1 658.5" style="enable-background:new 0 0 675.1 658.5;" xml:space="preserve"
	>
<path style="fill:#FFFFFF;" d="M399.4,486.4c22.3-2.8,43.1-6.7,63.2-14.2c47.5-17.6,75.5-51.8,85.8-100.8
	c6.1-29.3,7.8-58.7,0.4-88.1c-4.7-18.7-13.9-35.2-26.3-49.9c-2.5-3-3.2-5.3-1.9-9.2c8.8-27.8,5.9-55.2-4-82.2c-1-2.7-2.7-2.9-5-3
	c-13.5-0.7-26,2.9-38.4,7.7c-15.9,6.2-30.7,14.4-44.9,23.8c-3.9,2.6-7.3,3.3-11.9,2.2c-29.4-7.6-59.2-10.6-89.5-9.6
	c-22.7,0.8-45.1,3.9-67,9.7c-4.2,1.1-7.4,0.5-11-1.9c-19-12.4-38.8-23.3-61-29.2c-7.6-2-15.3-3-23.2-2.7c-2.5,0.1-3.7,1-4.6,3.4
	c-10.1,27.5-12.7,55.3-3.3,83.6c0.8,2.5,0.3,4-1.2,5.8c-17.8,20.8-28.4,44.8-31.5,72.1c-1.3,11.4-0.9,23-0.2,34.4
	c1.4,22.2,5.6,43.9,14.4,64.5c12.1,28.1,32.3,48.5,59.3,62.3c21.9,11.2,45.5,16.6,69.7,20c2.8,0.4,5.6,0.8,9.2,1.4
	c-8,7.7-13.4,16.5-16.7,26.5c-1.2,3.6-2.7,7.3-3,11c-0.4,6.1-3.4,8.8-8.9,10.6c-21.5,7.2-42.6,8.9-63.3-2.7
	c-9.8-5.5-17.6-13.1-23.7-22.4c-7.8-11.9-16.1-23.3-28.2-31.3c-11.1-7.4-23-11.2-36.4-8.1c-7.3,1.7-8.6,5.5-3.8,11.3
	c2.4,3,5.4,5.5,8.7,7.4c10.3,5.8,17.7,14.4,24.2,24.1c5.8,8.6,11.3,17.4,15,27c8.8,23.2,26.3,35.2,49.6,40
	c19.5,4.1,39.1,3.1,58.5-0.5c4.6-0.9,5.2,0.3,5.1,4.4c-0.1,18.2,0,36.3,0.1,54.5c0,16.3-10.8,23.8-26.3,18.3
	c-34.5-12.2-66.4-29.1-95.4-51.4c-51.4-39.6-88.5-89.9-111.3-150.7C2.4,405.2-3.5,354,2,301.8c5.9-56.6,24.9-108.7,57.6-155.6
	c40.5-58.1,93.8-100,160-125c30-11.4,61.2-18,93.3-20.2c58.5-4.2,114.5,5.9,167.6,30.7c42.8,20,79.7,47.9,111,83.5
	c39.3,44.8,65.5,96.4,76.8,154.7c16.1,82.3,4.5,160.8-37.2,234C588.9,578,527,628.8,446.7,657.2c-13.9,4.9-24.8-3.1-24.8-17.9
	c0.2-29,0.5-58,0.6-87c0-16.4-1.8-32.6-9.2-47.6C409.9,498.1,406,491.9,399.4,486.4z"/>
</svg>
