<?xml version="1.0" encoding="UTF-8"?>
<svg xmlns="http://www.w3.org/2000/svg" version="1.1" viewBox="0 0 69.4 78.1">
	<path d="M5.8,5.3c1.2.6,1.9,1.3,2.7,1.5,6.1,1.5,12.2,1.1,18.3.2,8.1-1.2,16.3-2.7,24.4-3.8,5.2-.7,10.4-.1,15.5,1.2,2.2.6,2.7,1.2,2.7,3.4,0,11.6,0,23.3,0,34.9,0,2.9-1.2,3.8-4,3-7.1-1.9-14.3-1.3-21.4-.2-7,1.1-14.1,2.4-21.1,3.4-5.2.7-10.5.4-15.9-.8,0,.7-.1,1.3-.1,1.9,0,8.1,0,16.1,0,24.2,0,.6.2,1.4-.1,1.9-.5.8-1.3,1.6-2.2,1.9-1.2.3-2.1-.5-2.4-1.7-.2-.6-.1-1.3-.1-1.9,0-22.2,0-44.3,0-66.5,0-1,.2-1.9.3-2.6-.8-.8-1.7-1.4-2.1-2.3C-.4,1.7.6.2,2.2,0,3.5,0,4.9,0,6.2,0c1.4,0,2.4.7,2.6,2.1.2,1.3-.5,2.2-1.8,2.7-.2,0-.4.2-1.2.5ZM55,17.5c0,4.2,0,8.4,0,12.6-1.7,0-3.5,0-5.2,0-2.4.2-4.7.5-7.1.7v-12.1c-4.5.9-8.5,1.7-12.5,2.5v-9.8c-4.1.4-8,.8-12,1.3v9.5c.7,0,1.4,0,2,0,3.4-.3,6.7-.7,10.1-1,0,4.1.1,8.2.2,12.3-.6,0-1.3,0-1.9,0-3.5.3-7,.5-10.5.8v-11.8c-3.3-.3-6.5-.6-9.7-.9v12.4c3.3.1,6.5.2,9.7.3v10.2c4.1-.5,8.1-.9,12.2-1.3v-9.7c1.1-.3,2.1-.5,3.2-.7,3.1-.6,6.1-1.3,9.2-1.9v9.8c3.4-.3,6.9-.7,10.3-.9,1.4,0,1.8-.5,1.8-1.8,0-2.6.1-5.2.2-7.8,3.1,0,6.2.2,9.5.3,0-3.6,0-7.3,0-11,0-.3-.7-.9-1.1-1-2.8-.3-5.6-.6-8.3-.8V7.7c-4.4.5-8.4,1-12.3,1.4v9.6c4.2-.4,8.3-.8,12.3-1.1Z"/>
</svg>
