<?xml version="1.0" encoding="utf-8"?>
<!-- Generator: Adobe Illustrator 27.6.1, SVG Export Plug-In . SVG Version: 6.00 Build 0)  -->
<svg version="1.1" xmlns="http://www.w3.org/2000/svg" xmlns:xlink="http://www.w3.org/1999/xlink" x="0px" y="0px"
	 width="164.5px" height="164.5px" viewBox="0 0 164.5 164.5" style="enable-background:new 0 0 164.5 164.5;" xml:space="preserve"
	>
<path style="fill:#FFFFFF;" d="M89.1,75.8L89.1,75.8c-3.2-3.2-3.2-8.4,0-11.6l61.4-61.4c3.2-3.2,8.4-3.2,11.6,0v0
	c3.2,3.2,3.2,8.4,0,11.6l-61.4,61.4C97.5,79,92.3,79,89.1,75.8z"/>
<path style="fill:#FFFFFF;" d="M75.8,75.5L75.8,75.5c-3.2,3.2-8.4,3.2-11.6,0L2.7,14.1c-3.2-3.2-3.2-8.4,0-11.6l0,0
	c3.2-3.2,8.4-3.2,11.6,0l61.4,61.4C79,67,79,72.2,75.8,75.5z"/>
<path style="fill:#FFFFFF;" d="M75.5,88.8L75.5,88.8c3.2,3.2,3.2,8.4,0,11.6l-61.4,61.4c-3.2,3.2-8.4,3.2-11.6,0l0,0
	c-3.2-3.2-3.2-8.4,0-11.6l61.4-61.4C67,85.5,72.2,85.5,75.5,88.8z"/>
<path style="fill:#FFFFFF;" d="M88.8,89.1L88.8,89.1c3.2-3.2,8.4-3.2,11.6,0l61.4,61.4c3.2,3.2,3.2,8.4,0,11.6h0
	c-3.2,3.2-8.4,3.2-11.6,0l-61.4-61.4C85.5,97.5,85.5,92.3,88.8,89.1z"/>
</svg>
