<?xml version="1.0" encoding="utf-8"?>
<!-- Generator: Adobe Illustrator 27.6.1, SVG Export Plug-In . SVG Version: 6.00 Build 0)  -->
<svg version="1.1" id="Layer_1" xmlns="http://www.w3.org/2000/svg" xmlns:xlink="http://www.w3.org/1999/xlink" x="0px" y="0px"
	 width="182.2px" height="109.7px" viewBox="0 0 182.2 109.7" style="enable-background:new 0 0 182.2 109.7;" xml:space="preserve"
	>
<path style="fill:#FFFFFF;" d="M0,109.7V0h74v12.9H14.5v34H66v12.9H14.5v49.8H0z"/>
<path style="fill:#FFFFFF;" d="M81.7,109.7l42.4-57.1L86.7,0H104l19.9,28.1c4.1,5.8,7.1,10.3,8.8,13.5c2.4-4,5.3-8.2,8.7-12.5
	L163.4,0h15.8l-38.5,51.7l41.5,58h-18l-27.6-39.1c-1.5-2.2-3.1-4.7-4.8-7.3c-2.4,4-4.2,6.7-5.2,8.2l-27.5,38.2H81.7z"/>
</svg>
