<?xml version="1.0" encoding="utf-8"?>
<!-- Generator: Adobe Illustrator 27.6.1, SVG Export Plug-In . SVG Version: 6.00 Build 0)  -->
<svg version="1.1" xmlns="http://www.w3.org/2000/svg" xmlns:xlink="http://www.w3.org/1999/xlink" x="0px" y="0px"
	 width="183.8px" height="100.4px" viewBox="0 0 183.8 100.4" style="enable-background:new 0 0 183.8 100.4;" xml:space="preserve"
	>
<path style="fill:#FFFFFF;" d="M12.7,72.2v3.3c0,3.3-2.3,5.1-6.4,5.1c-4,0-6.3-1.8-6.3-5.1v-3.3c0-3.4,2.3-5.2,6.3-5.2
	C10.4,66.9,12.7,68.8,12.7,72.2z M10.9,56.5H1.7L0.9,0h10.8L10.9,56.5z"/>
<path style="fill:#FFFFFF;" d="M117.6,43v5.7c0,16.8-9.1,28.9-24.3,28.9c-8.6,0-13.5-4-14.4-10.7c-5.4,6.5-11.9,10.7-17.6,10.7
	c-9.7,0-14.3-7-12.7-19l2.1-15.7c1.6-12.4,8.2-19.2,18-19.2c5.2,0,10.8,3.1,13.9,6.2l0.6-4.7h9.1l-4.7,36.5C87.5,66,88.3,69,93.4,69
	c8,0,14.5-8.4,14.5-20.3V43c0-22.5-12.5-34.3-37.6-34.3C48,8.7,34.9,22.1,34.9,46.4v11.4c0,22.1,11.9,33.9,35.4,33.9h15.4v8.7H70.3
	c-30.8,0-45-14.9-45-42.5V46.4C25.2,19.2,39.1,0,70.3,0C102.5,0,117.6,14.7,117.6,43z M60.2,44.1l-1.7,13.1
	c-1.1,8.3,1.4,11.6,5.8,11.6c4.4,0,9.7-3.6,14.1-10.4L81,37.9c-2.7-3.3-7.2-5.6-10.7-5.6C65.1,32.3,61.4,35.8,60.2,44.1z"/>
<path style="fill:#FFFFFF;" d="M174.7,23.6h9.1v8h-9.1V57h9.1v8h-9.1v14.3H165V65h-17.8v14.3h-9.7V65h-9.1v-8h9.1V31.6h-9.1v-8h9.1
	V9.4h9.7v14.3H165V9.4h9.7V23.6z M147.2,31.6V57H165V31.6H147.2z"/>
</svg>
