<?xml version="1.0" encoding="utf-8"?>
<!-- Generator: Adobe Illustrator 27.6.1, SVG Export Plug-In . SVG Version: 6.00 Build 0)  -->
<svg version="1.1" id="Layer_1" xmlns="http://www.w3.org/2000/svg" xmlns:xlink="http://www.w3.org/1999/xlink" x="0px" y="0px"
	 width="175.6px" height="96.6px" viewBox="0 0 175.6 96.6" style="enable-background:new 0 0 175.6 96.6;" xml:space="preserve">
<path style="fill:#FFFFFF;" d="M4.4,86.7L9,64H0V56h10.6l3.9-19.4H0v-7.9h16.2l4.6-22.9h8l-4.6,22.9H41l4.6-22.9h8.1L49,28.7h9.2
	v7.9H47.4l-4,19.4h14.8V64H41.8l-4.6,22.7h-8L33.8,64H17l-4.6,22.7H4.4z M18.6,56h16.7l4-19.4H22.6L18.6,56z"/>
<path style="fill:#FFFFFF;" d="M86.8,96.6V87c-4.8-0.6-8.7-1.7-11.7-3.2c-3-1.5-5.6-4-7.8-7.5s-3.5-7.7-3.8-12.6l9.7-1.8
	c0.7,5.2,2.1,8.9,3.9,11.4c2.7,3.4,5.9,5.3,9.7,5.7V48.4c-3.9-0.7-8-2.3-12.1-4.6c-3.1-1.7-5.4-4.1-7.1-7.1c-1.7-3-2.5-6.5-2.5-10.3
	c0-6.8,2.4-12.4,7.3-16.6c3.2-2.8,8-4.6,14.4-5.2V0h5.7v4.6c5.6,0.5,10,2.2,13.3,4.9c4.2,3.5,6.7,8.3,7.6,14.3l-9.9,1.5
	c-0.6-3.8-1.8-6.7-3.5-8.7c-1.8-2-4.3-3.3-7.4-4v27.7c4.8,1.2,8,2.2,9.6,2.8c3,1.3,5.4,2.9,7.3,4.8c1.9,1.9,3.3,4.1,4.3,6.7
	c1,2.6,1.5,5.4,1.5,8.4c0,6.6-2.1,12.2-6.3,16.6c-4.2,4.4-9.7,6.8-16.4,7.1v9.7H86.8z M86.8,12.6c-3.7,0.6-6.7,2.1-8.8,4.5
	c-2.2,2.4-3.2,5.3-3.2,8.6c0,3.3,0.9,6,2.7,8.2c1.8,2.2,4.9,4,9.3,5.3V12.6z M92.5,78.9c3.7-0.5,6.8-2.1,9.3-4.9
	c2.4-2.8,3.7-6.2,3.7-10.3c0-3.5-0.9-6.3-2.6-8.4c-1.7-2.1-5.2-4-10.3-5.7V78.9z"/>
<path style="fill:#FFFFFF;" d="M145.5,66.1c0-1.3-0.1-2.2-0.1-2.9c0-3.8,0.5-7,1.6-9.8c0.8-2.1,2-4.1,3.8-6.2
	c1.3-1.5,3.6-3.8,6.9-6.7s5.5-5.3,6.5-7c1-1.7,1.5-3.6,1.5-5.7c0-3.7-1.5-7-4.4-9.8c-2.9-2.8-6.5-4.2-10.7-4.2
	c-4.1,0-7.5,1.3-10.2,3.8s-4.5,6.6-5.4,12l-9.9-1.2c0.9-7.3,3.5-12.9,7.9-16.7c4.4-3.9,10.2-5.8,17.4-5.8c7.6,0,13.7,2.1,18.3,6.2
	c4.5,4.2,6.8,9.2,6.8,15.1c0,3.4-0.8,6.6-2.4,9.4c-1.6,2.9-4.7,6.4-9.4,10.5c-3.1,2.8-5.2,4.8-6.1,6.1c-1,1.3-1.7,2.8-2.1,4.5
	s-0.7,4.5-0.8,8.3H145.5z M144.9,85.4V74.4h10.9v10.9H144.9z"/>
</svg>
