<?xml version="1.0" encoding="utf-8"?>
<!-- Generator: Adobe Illustrator 27.5.0, SVG Export Plug-In . SVG Version: 6.00 Build 0)  -->
<svg version="1.1" xmlns="http://www.w3.org/2000/svg" xmlns:xlink="http://www.w3.org/1999/xlink" x="0px" y="0px"
	 width="426.2px" height="426.2px" viewBox="0 0 426.2 426.2" style="enable-background:new 0 0 426.2 426.2;" xml:space="preserve"
	>
<path style="fill:#FFFFFF;" d="M104,157.2c3.4,14.2-5.4,28.4-19.6,31.8c-14.2,3.4-28.4-5.4-31.8-19.6c-3.4-14.2,5.4-28.4,19.6-31.8
	C86.4,134.2,100.7,143,104,157.2"/>
<path style="fill:#FFFFFF;" d="M410.4,179.1c4.2,0,8.2-1.7,11.2-4.6c3-3,4.6-7,4.6-11.2s-1.7-8.2-4.6-11.2c-3-3-7-4.6-11.2-4.6
	s-8.2,1.7-11.2,4.6c-3,3-4.6,7-4.6,11.2s1.7,8.2,4.6,11.2C402.2,177.4,406.2,179.1,410.4,179.1L410.4,179.1z"/>
<path style="fill:#FFFFFF;" d="M366.6,244.2c10.3,10.3,10.3,27.1,0,37.4s-27.1,10.3-37.4,0s-10.3-27.1,0-37.4
	S356.3,233.9,366.6,244.2"/>
<path style="fill:#FFFFFF;" d="M426.2,262.9c0,8.7-7.1,15.8-15.8,15.8c-8.7,0-15.8-7.1-15.8-15.8c0-8.7,7.1-15.8,15.8-15.8
	C419.1,247.1,426.2,254.2,426.2,262.9"/>
<path style="fill:#FFFFFF;" d="M189.4,74c2.3,14.4-7.4,28-21.8,30.3c-14.4,2.3-28-7.4-30.3-21.8s7.4-28,21.9-30.3
	C173.5,49.8,187,59.6,189.4,74"/>
<path style="fill:#FFFFFF;" d="M104.4,74.1c2.3,14.4-7.4,28-21.9,30.3c-14.4,2.3-28-7.4-30.3-21.9c-2.3-14.4,7.4-28,21.9-30.3
	C88.5,49.9,102,59.7,104.4,74.1"/>
<path style="fill:#FFFFFF;" d="M373.7,341.9c3.4,14.2-5.4,28.4-19.6,31.8s-28.4-5.4-31.8-19.6s5.4-28.4,19.6-31.8
	S370.3,327.7,373.7,341.9"/>
<path style="fill:#FFFFFF;" d="M163.3,31.6c4.2,0,8.2-1.7,11.2-4.6c3-3,4.6-7,4.6-11.2s-1.7-8.2-4.6-11.2c-3-3-7-4.6-11.2-4.6
	s-8.2,1.7-11.2,4.6c-3,3-4.6,7-4.6,11.2s1.7,8.2,4.6,11.2C155.1,30,159.1,31.6,163.3,31.6L163.3,31.6z"/>
<path style="fill:#FFFFFF;" d="M262.9,31.6c4.2,0,8.2-1.7,11.2-4.6c3-3,4.6-7,4.6-11.2s-1.7-8.2-4.6-11.2c-3-3-7-4.6-11.2-4.6
	s-8.2,1.7-11.2,4.6c-3,3-4.6,7-4.6,11.2s1.7,8.2,4.6,11.2C254.7,30,258.7,31.6,262.9,31.6L262.9,31.6z"/>
<path style="fill:#FFFFFF;" d="M281.6,329.3c10.3,10.3,10.3,27.1,0,37.4s-27.1,10.3-37.4,0s-10.3-27.1,0-37.4S271.3,319,281.6,329.3
	"/>
<path style="fill:#FFFFFF;" d="M262.9,394.6c-4.2,0-8.2,1.7-11.2,4.6c-3,3-4.6,7-4.6,11.2s1.7,8.2,4.6,11.2c3,3,7,4.6,11.2,4.6
	c4.2,0,8.2-1.7,11.2-4.6c3-3,4.6-7,4.6-11.2s-1.7-8.2-4.6-11.2C271.1,396.3,267.1,394.6,262.9,394.6L262.9,394.6z"/>
<path style="fill:#FFFFFF;" d="M163.3,394.6c-4.2,0-8.2,1.7-11.2,4.6c-3,3-4.6,7-4.6,11.2s1.7,8.2,4.6,11.2c3,3,7,4.6,11.2,4.6
	s8.2-1.7,11.2-4.6c3-3,4.6-7,4.6-11.2s-1.7-8.2-4.6-11.2C171.5,396.3,167.5,394.6,163.3,394.6L163.3,394.6z"/>
<path style="fill:#FFFFFF;" d="M31.6,262.9c0,8.7-7.1,15.8-15.8,15.8S0,271.6,0,262.9c0-8.7,7.1-15.8,15.8-15.8
	C24.6,247.1,31.6,254.2,31.6,262.9"/>
<path style="fill:#FFFFFF;" d="M15.8,147.5c-4.2,0-8.2,1.7-11.2,4.6c-3,3-4.6,7-4.6,11.2s1.7,8.2,4.6,11.2c3,3,7,4.6,11.2,4.6
	s8.2-1.7,11.2-4.6c3-3,4.6-7,4.6-11.2s-1.7-8.2-4.6-11.2C24,149.2,20,147.5,15.8,147.5L15.8,147.5z"/>
<path style="fill:#FFFFFF;" d="M280.9,228.1l-53.3,53.3c4.1,7.8,10.9,14.3,19.7,17.9c20.1,8.4,43.2-1.2,51.5-21.3
	C306.6,259.1,298.6,237.4,280.9,228.1z"/>
<path style="fill:#FFFFFF;" d="M365.4,143.5l-37.3,37.3c0.4,0.4,0.7,0.8,1.1,1.2c10.3,10.3,27.1,10.3,37.4,0s10.3-27.1,0-37.4
	C366.2,144.2,365.8,143.9,365.4,143.5z"/>
<path style="fill:#FFFFFF;" d="M145.4,198.1l53.3-53.3c-8.2-15.4-26.1-24.1-43.9-19.9c-21.2,5-34.3,26.2-29.3,47.4
	C128.2,183.8,135.7,192.9,145.4,198.1z"/>
<path style="fill:#FFFFFF;" d="M245.4,98l37.3-37.3c-2.6-2.9-5.8-5.3-9.6-6.8c-13.5-5.6-29,0.8-34.5,14.3
	C234.2,78.9,237.3,90.8,245.4,98z"/>
<path style="fill:#FFFFFF;" d="M60.7,282.7L98,245.4c-6.3-7-16-10.5-25.8-8.1c-14.2,3.4-23,17.6-19.6,31.8
	C53.9,274.6,56.8,279.2,60.7,282.7z"/>
<path style="fill:#FFFFFF;" d="M180.8,328.2l-37.3,37.3c6.2,7.1,16.1,10.6,25.9,8.2c14.2-3.4,23-17.6,19.6-31.8
	C187.7,336.4,184.7,331.7,180.8,328.2z"/>
<path style="fill:#FFFFFF;" d="M33.9,392.3L33.9,392.3c-11.1-11.1-11.1-29.2,0-40.3l318-318c11.1-11.1,29.2-11.1,40.3,0l0,0
	c11.1,11.1,11.1,29.2,0,40.3l-318,318C63.1,403.4,45.1,403.4,33.9,392.3z"/>
</svg>
