<?xml version="1.0" encoding="utf-8"?>
<!-- Generator: Adobe Illustrator 27.5.0, SVG Export Plug-In . SVG Version: 6.00 Build 0)  -->
<svg version="1.1" xmlns="http://www.w3.org/2000/svg" xmlns:xlink="http://www.w3.org/1999/xlink" x="0px" y="0px"
	 width="426.2px" height="426.2px" viewBox="0 0 426.2 426.2" style="enable-background:new 0 0 426.2 426.2;" xml:space="preserve"
	>
<path style="fill:#FFFFFF;" d="M104,256.9c3.4,14.2-5.4,28.4-19.6,31.8s-28.4-5.4-31.8-19.6c-3.4-14.2,5.4-28.4,19.6-31.8
	C86.4,233.9,100.6,242.7,104,256.9"/>
<path style="fill:#FFFFFF;" d="M202.7,256.6c3.5,21.5-11.1,41.7-32.6,45.2s-41.7-11.1-45.2-32.6s11.1-41.7,32.6-45.2
	C179,220.5,199.2,235.1,202.7,256.6"/>
<path style="fill:#FFFFFF;" d="M104,157.2c3.4,14.2-5.4,28.4-19.6,31.8c-14.2,3.4-28.4-5.4-31.8-19.6c-3.4-14.2,5.4-28.4,19.6-31.8
	C86.4,134.2,100.7,143,104,157.2"/>
<path style="fill:#FFFFFF;" d="M202.2,154.2c5,21.2-8.1,42.4-29.3,47.4s-42.4-8.1-47.4-29.3c-5-21.2,8.1-42.4,29.3-47.4
	C175.9,119.9,197.2,133.1,202.2,154.2"/>
<path style="fill:#FFFFFF;" d="M366.6,144.6c10.3,10.3,10.3,27.1,0,37.4s-27.1,10.3-37.4,0s-10.3-27.1,0-37.4
	C339.6,134.3,356.3,134.3,366.6,144.6"/>
<path style="fill:#FFFFFF;" d="M290.3,135.4c15.4,15.4,15.4,40.3,0,55.7s-40.3,15.4-55.7,0s-15.4-40.3,0-55.7S274.9,120,290.3,135.4
	"/>
<path style="fill:#FFFFFF;" d="M410.4,179.1c4.2,0,8.2-1.7,11.2-4.6c3-3,4.6-7,4.6-11.2s-1.7-8.2-4.6-11.2c-3-3-7-4.6-11.2-4.6
	s-8.2,1.7-11.2,4.6c-3,3-4.6,7-4.6,11.2s1.7,8.2,4.6,11.2C402.2,177.4,406.2,179.1,410.4,179.1L410.4,179.1z"/>
<path style="fill:#FFFFFF;" d="M366.6,244.2c10.3,10.3,10.3,27.1,0,37.4s-27.1,10.3-37.4,0s-10.3-27.1,0-37.4
	S356.3,233.9,366.6,244.2"/>
<path style="fill:#FFFFFF;" d="M277.5,226.5c20.1,8.3,29.6,31.4,21.3,51.5c-8.3,20.1-31.4,29.7-51.5,21.3
	c-20.1-8.3-29.7-31.4-21.3-51.5C234.3,227.7,257.4,218.2,277.5,226.5"/>
<path style="fill:#FFFFFF;" d="M426.2,262.9c0,8.7-7.1,15.8-15.8,15.8c-8.7,0-15.8-7.1-15.8-15.8c0-8.7,7.1-15.8,15.8-15.8
	C419.1,247.1,426.2,254.2,426.2,262.9"/>
<path style="fill:#FFFFFF;" d="M189.4,74c2.3,14.4-7.4,28-21.8,30.3c-14.4,2.3-28-7.4-30.3-21.8s7.4-28,21.9-30.3
	C173.5,49.8,187,59.6,189.4,74"/>
<path style="fill:#FFFFFF;" d="M104.4,74.1c2.3,14.4-7.4,28-21.9,30.3c-14.4,2.3-28-7.4-30.3-21.9c-2.3-14.4,7.4-28,21.9-30.3
	C88.5,49.9,102,59.7,104.4,74.1"/>
<path style="fill:#FFFFFF;" d="M97,329.3c10.3,10.3,10.3,27.1,0,37.4s-27.1,10.3-37.4,0s-10.3-27.1,0-37.4S86.7,319,97,329.3"/>
<path style="fill:#FFFFFF;" d="M358.1,53.9c13.5,5.6,19.9,21,14.3,34.5s-21,19.9-34.5,14.3s-19.9-21-14.3-34.5
	C329.1,54.7,344.6,48.3,358.1,53.9"/>
<path style="fill:#FFFFFF;" d="M373.7,341.9c3.4,14.2-5.4,28.4-19.6,31.8s-28.4-5.4-31.8-19.6s5.4-28.4,19.6-31.8
	S370.3,327.7,373.7,341.9"/>
<path style="fill:#FFFFFF;" d="M163.3,31.6c4.2,0,8.2-1.7,11.2-4.6c3-3,4.6-7,4.6-11.2s-1.7-8.2-4.6-11.2c-3-3-7-4.6-11.2-4.6
	s-8.2,1.7-11.2,4.6c-3,3-4.6,7-4.6,11.2s1.7,8.2,4.6,11.2C155.1,30,159.1,31.6,163.3,31.6L163.3,31.6z"/>
<path style="fill:#FFFFFF;" d="M273.1,53.9c13.5,5.6,19.9,21,14.3,34.5s-21,19.9-34.5,14.3s-19.9-21-14.3-34.5
	C244.1,54.7,259.6,48.3,273.1,53.9"/>
<path style="fill:#FFFFFF;" d="M262.9,31.6c4.2,0,8.2-1.7,11.2-4.6c3-3,4.6-7,4.6-11.2s-1.7-8.2-4.6-11.2c-3-3-7-4.6-11.2-4.6
	s-8.2,1.7-11.2,4.6c-3,3-4.6,7-4.6,11.2s1.7,8.2,4.6,11.2C254.7,30,258.7,31.6,262.9,31.6L262.9,31.6z"/>
<path style="fill:#FFFFFF;" d="M281.6,329.3c10.3,10.3,10.3,27.1,0,37.4s-27.1,10.3-37.4,0s-10.3-27.1,0-37.4S271.3,319,281.6,329.3
	"/>
<path style="fill:#FFFFFF;" d="M262.9,394.6c-4.2,0-8.2,1.7-11.2,4.6c-3,3-4.6,7-4.6,11.2s1.7,8.2,4.6,11.2c3,3,7,4.6,11.2,4.6
	c4.2,0,8.2-1.7,11.2-4.6c3-3,4.6-7,4.6-11.2s-1.7-8.2-4.6-11.2C271.1,396.3,267.1,394.6,262.9,394.6L262.9,394.6z"/>
<path style="fill:#FFFFFF;" d="M189,341.9c3.4,14.2-5.4,28.4-19.6,31.8c-14.2,3.4-28.4-5.4-31.8-19.6c-3.4-14.2,5.4-28.4,19.6-31.8
	C171.4,318.9,185.7,327.7,189,341.9"/>
<path style="fill:#FFFFFF;" d="M163.3,394.6c-4.2,0-8.2,1.7-11.2,4.6c-3,3-4.6,7-4.6,11.2s1.7,8.2,4.6,11.2c3,3,7,4.6,11.2,4.6
	s8.2-1.7,11.2-4.6c3-3,4.6-7,4.6-11.2s-1.7-8.2-4.6-11.2C171.5,396.3,167.5,394.6,163.3,394.6L163.3,394.6z"/>
<path style="fill:#FFFFFF;" d="M31.6,262.9c0,8.7-7.1,15.8-15.8,15.8S0,271.6,0,262.9c0-8.7,7.1-15.8,15.8-15.8
	C24.6,247.1,31.6,254.2,31.6,262.9"/>
<path style="fill:#FFFFFF;" d="M15.8,147.5c-4.2,0-8.2,1.7-11.2,4.6c-3,3-4.6,7-4.6,11.2s1.7,8.2,4.6,11.2c3,3,7,4.6,11.2,4.6
	s8.2-1.7,11.2-4.6c3-3,4.6-7,4.6-11.2s-1.7-8.2-4.6-11.2C24,149.2,20,147.5,15.8,147.5L15.8,147.5z"/>
</svg>
