<?xml version="1.0" encoding="UTF-8"?>
<svg xmlns="http://www.w3.org/2000/svg" version="1.1" viewBox="0 0 81.5 118.7">
  <defs>
    <style>
      .cls-1 {
        fill: #fff;
      }
    </style>
  </defs>
  <!-- Generator: Adobe Illustrator 28.6.0, SVG Export Plug-In . SVG Version: 1.2.0 Build 709)  -->
  <g>
    <g id="Layer_1">
      <path class="cls-1" d="M11.5,104.9c3.5-3,6.8-6,10.4-8.6.9-.6,3.2-.3,4.2.4,8.2,5.8,16.9,7.1,25.9,2.3,9-4.8,13.1-12.7,13-23-.2-11.5,0-23,0-34.5-.1-14-10.1-24.5-23.4-24.9-13.3-.4-24.1,9.8-25,23.4-.9,12.7,10.6,24.7,24,25,4.5.1,8.9,0,14.2,0,0,5,.1,9.4-.1,13.9,0,.9-1.5,2.3-2.5,2.4-15.9,1.3-30.5-.8-41.9-13.6C-1.6,54.7-3.4,34.8,6,19.5,15.5,4.2,34-3.2,51,1.3c17.7,4.8,30.2,20.5,30.3,38.2,0,13.5.5,27-.1,40.5-.8,16.5-9.3,28.3-24.3,34.9-15.1,6.7-29.2,4-42-6.2-.9-.7-1.5-1.7-3.4-3.8Z"/>
    </g>
  </g>
</svg>