<?xml version="1.0" encoding="utf-8"?>
<!-- Generator: Adobe Illustrator 27.5.0, SVG Export Plug-In . SVG Version: 6.00 Build 0)  -->
<svg version="1.1" xmlns="http://www.w3.org/2000/svg" xmlns:xlink="http://www.w3.org/1999/xlink" x="0px" y="0px"
	 width="92.4px" height="101.2px" viewBox="0 0 92.4 101.2" style="enable-background:new 0 0 92.4 101.2;" xml:space="preserve">
<path style="fill:#FFFFFF;" d="M85.4,0c-3.9,0-7.1,3.2-7.1,7.1v16.5c0,20.7-16.9,37.6-37.6,37.6H24.2l13.8-13.8
	c2.8-2.8,2.8-7.3,0-10c-2.8-2.8-7.3-2.8-10,0L2.1,63.3c0,0,0,0,0,0l0,0c0,0,0,0,0,0c-0.2,0.2-0.3,0.3-0.4,0.5c0,0,0,0,0,0
	C1.5,63.9,1.5,64,1.4,64c-0.1,0.1-0.2,0.2-0.2,0.3c0,0,0,0,0,0c-0.1,0.1-0.1,0.2-0.2,0.3C1,64.8,0.9,64.9,0.8,65c0,0,0,0,0,0
	c0,0.1-0.1,0.2-0.1,0.3c0,0.1-0.1,0.2-0.1,0.3c0,0,0,0,0,0c0,0.1-0.1,0.2-0.1,0.3c0,0.1-0.1,0.2-0.1,0.3c0,0,0,0,0,0
	c0,0.1,0,0.2-0.1,0.3c0,0.1-0.1,0.2-0.1,0.3c0,0,0,0,0,0c0,0.1,0,0.2,0,0.3c0,0.1,0,0.2,0,0.3c0,0,0,0,0,0c0,0.1,0,0.2,0,0.4
	c0,0.1,0,0.2,0,0.3c0,0.1,0,0.2,0,0.4c0,0.1,0,0.2,0,0.3c0,0,0,0,0,0c0,0.1,0,0.2,0,0.3c0,0,0,0.1,0,0.1c0,0.1,0,0.2,0,0.3
	c0,0,0,0,0,0c0,0.1,0.1,0.2,0.1,0.3c0,0,0,0,0,0c0,0.1,0,0.2,0.1,0.3c0,0,0,0,0,0c0,0.1,0.1,0.2,0.1,0.3c0,0,0,0,0,0.1
	c0,0.1,0,0.1,0.1,0.2c0,0,0,0,0,0c0,0.1,0.1,0.2,0.1,0.3c0,0,0,0.1,0,0.1c0,0.1,0.1,0.1,0.1,0.2c0,0,0,0,0,0C0.9,71.7,1,71.8,1,71.9
	c0,0,0.1,0.1,0.1,0.1c0,0,0.1,0.1,0.1,0.1c0,0,0,0,0,0c0.1,0.1,0.2,0.2,0.2,0.3c0,0,0,0,0.1,0.1c0,0,0.1,0.1,0.1,0.1c0,0,0,0,0,0
	c0.1,0.2,0.3,0.4,0.5,0.5c0,0,0,0,0,0c0,0,0,0,0,0l25.8,25.8c1.4,1.4,3.2,2.1,5,2.1s3.6-0.7,5-2.1c2.8-2.8,2.8-7.3,0-10L24.2,75.4
	h16.5c28.6,0,51.8-23.2,51.8-51.8V7.1C92.5,3.2,89.3,0,85.4,0z"/>
</svg>
