<?xml version="1.0" encoding="utf-8"?>
<!-- Generator: Adobe Illustrator 27.5.0, SVG Export Plug-In . SVG Version: 6.00 Build 0)  -->
<svg version="1.1" xmlns="http://www.w3.org/2000/svg" xmlns:xlink="http://www.w3.org/1999/xlink" x="0px" y="0px"
	 width="339.6px" height="399.4px" viewBox="0 0 339.6 399.4" style="enable-background:new 0 0 339.6 399.4;" xml:space="preserve"
	>
<path style="fill:#FFFFFF;" d="M251.4,53.2c-13.6,4.2-21.3,19-17,33l27.3,89c1,3.5-7.2,1.3-8.2-1.9L201.1,23.2
	C196.3,9.4,181.4,2,167.9,6.6c-13.5,4.7-20.5,19.8-15.7,33.6l46.3,133c1,3.7-6.1,4.6-7.4,1.5L131,17.2C125.8,3.6,110.7-3.4,97.4,1.7
	c-13.4,5-20,20.4-14.8,34l60.5,158.5c1.1,2.6-4.2,6-5.3,3.3L82.7,62.3c-5.5-13.5-20.8-20.2-34-14.8s-19.5,20.8-14,34.4l62.9,154.4
	c3.6,8.8-3.8,17.2-7.4,11.8l-34.6-50c-10.7-15.5-30.5-20.6-43.9-11.3s-15.6,29.6-4.9,45.1l80.6,116.3c1.6,2.3,3.4,4.3,5.3,6.2
	c30.2,42.9,95.7,58,156.7,33.2c64.2-26.1,100.9-87.2,87.4-141c-0.1-2.1-0.5-4.1-1.1-6.2L283.9,71.1C279.6,57.1,265,49.1,251.4,53.2
	L251.4,53.2z"/>
</svg>
