<?xml version="1.0" encoding="utf-8"?>
<!-- Generator: Adobe Illustrator 27.6.1, SVG Export Plug-In . SVG Version: 6.00 Build 0)  -->
<svg version="1.1" xmlns="http://www.w3.org/2000/svg" xmlns:xlink="http://www.w3.org/1999/xlink" x="0px" y="0px"
	 width="198.7px" height="242.5px" viewBox="0 0 198.7 242.5" style="enable-background:new 0 0 198.7 242.5;" xml:space="preserve"
	>
<path style="fill:#FFFFFF;" d="M152.4,174.9c-54.9,0-99.3-44.5-99.3-99.3c0-13.7,6.2-29.4,15.4-45.3C39.3,60.9,0,108.6,0,143.2
	c0,54.9,44.5,99.4,99.3,99.4c47.5,0,87.2-33.3,97-77.9C183.1,171.2,168.2,174.9,152.4,174.9z"/>
<g style="opacity:0.5;">
	<path style="fill:#FFFFFF;" d="M53.1,75.5c0,24.3,8.7,46.6,23.2,63.8c0.7,0,1.5,0,2.2,0c41.4,0,76.9-25.4,91.8-61.4
		c-29.4-41-71-78-71-78S85.7,12.2,68.5,30.3C59.2,46.2,53.1,61.9,53.1,75.5z"/>
</g>
<g style="opacity:0.7;">
	<path style="fill:#FFFFFF;" d="M168.8,81.4c-2,4.4-4.3,8.6-6.9,12.6c0,0,0,0.1-0.1,0.1c-1.9,3-4.1,5.9-6.3,8.6c0,0,0,0,0,0
		c-9.9,12.1-22.5,21.8-37,28.2c-0.1,0-0.2,0.1-0.3,0.1c-5,2.2-10.2,4-15.6,5.3c-1.1,0.3-2.3,0.5-3.4,0.8c-3,0.6-6.1,1.2-9.2,1.5
		c-0.4,0-0.8,0.1-1.2,0.1c-3.4,0.3-6.8,0.5-10.2,0.5c-0.7,0-1.5,0-2.2,0c18.2,21.7,45.6,35.5,76.1,35.5c15.8,0,30.7-3.7,43.9-10.2
		c1.5-6.9,2.3-14.1,2.3-21.5c0-19.3-12.4-42.9-28.4-65.2c-0.5,1.1-1,2.2-1.5,3.4C168.9,81.4,168.8,81.4,168.8,81.4z"/>
</g>
</svg>
