<?xml version="1.0" encoding="utf-8"?>
<!-- Generator: Adobe Illustrator 27.9.1, SVG Export Plug-In . SVG Version: 6.00 Build 0)  -->
<svg version="1.1" xmlns="http://www.w3.org/2000/svg" xmlns:xlink="http://www.w3.org/1999/xlink" x="0px" y="0px"
	 viewBox="0 0 524.3 554.7" style="enable-background:new 0 0 524.3 554.7;" xml:space="preserve">
<path d="M481.8,241.7v-21.9c0-58.7-22.9-113.9-64.4-155.4S320.7,0,262,0c-58.7,0-113.9,22.9-155.4,64.4
	s-64.4,96.7-64.4,155.4v22C17.3,253.2,0,278.3,0,307.5v75.9c0,39.8,32.3,72.2,72.2,72.2h51.3c17.1,0,31-13.9,31-31V266.3
	c0-17.1-13.9-31-31-31h-11.2v-15.5C112.2,137.2,179.4,70,262,70s149.8,67.2,149.8,149.8v15.5h-11c-17.1,0-31,13.9-31,31v158.2
	c0,17.1,13.9,31,31,31h35.4v5.6c0,21.9-17.8,39.7-39.7,39.7H346c-5.5-15.9-20.6-27.4-38.4-27.4h-28.2c-22.4,0-40.6,18.2-40.6,40.6
	l0,0c0,22.4,18.2,40.6,40.6,40.6h28.2c16.4,0,30.6-9.8,37-23.8h52c38.4,0,69.7-31.3,69.7-69.7v-7c33.1-6.6,58-35.8,58-70.8v-75.9
	C524.3,278.2,506.9,253.1,481.8,241.7z"/>
</svg>
