<?xml version="1.0" encoding="utf-8"?>
<!-- Generator: Adobe Illustrator 27.5.0, SVG Export Plug-In . SVG Version: 6.00 Build 0)  -->
<svg version="1.1" xmlns="http://www.w3.org/2000/svg" xmlns:xlink="http://www.w3.org/1999/xlink" x="0px" y="0px"
	 width="16.5px" height="16.5px" viewBox="0 0 16.5 16.5" style="enable-background:new 0 0 16.5 16.5;" xml:space="preserve">
<path style="fill:#FFFFFF;" d="M8.3,16.5C3.7,16.5,0,12.8,0,8.3S3.7,0,8.3,0s8.3,3.7,8.3,8.3S12.8,16.5,8.3,16.5z M8.3,0.9
	C4.3,0.9,1,4.2,1,8.2s3.3,7.3,7.3,7.3s7.3-3.3,7.3-7.3S12.3,0.9,8.3,0.9z"/>
<rect x="7.2" y="11.5" style="fill:#FFFFFF;" width="2.2" height="2.2"/>
<path style="fill:#FFFFFF;" d="M7.2,10.5V10c0-0.8,0.1-1.4,0.3-1.8C7.7,7.8,8,7.4,8.6,7c0.3-0.3,0.6-0.5,0.7-0.7
	C9.4,6,9.4,5.9,9.4,5.8c0-0.3-0.1-0.6-0.3-0.8C8.9,4.8,8.7,4.7,8.3,4.7c-0.5,0-1,0.1-1.2,1.2l0,0.4H5V5.8c0.1-0.9,0.4-1.6,1-2.1
	s1.4-0.8,2.3-0.8s1.7,0.3,2.3,0.8s0.9,1.2,0.9,2.1c0,0.5-0.1,0.9-0.3,1.3s-0.6,0.8-1.1,1.2C9.6,8.6,9.5,8.9,9.4,9L9.2,9.3l0.1,0.1
	c0,0.1,0,0.4,0,0.6v0.5C9.3,10.5,7.2,10.5,7.2,10.5z"/>
</svg>
