<?xml version="1.0" encoding="utf-8"?>
<!-- Generator: Adobe Illustrator 27.1.0, SVG Export Plug-In . SVG Version: 6.00 Build 0)  -->
<svg version="1.1" id="Layer_1" xmlns="http://www.w3.org/2000/svg" xmlns:xlink="http://www.w3.org/1999/xlink" x="0px" y="0px"
	 width="293.6px" height="350.8px" viewBox="0 0 293.6 350.8" style="enable-background:new 0 0 293.6 350.8;" xml:space="preserve"
	>
<style type="text/css">
	.st0{fill:#9147FF;}
</style>
<path class="st0" d="M293.6,175.3c0-14.6-4-28.8-11.6-41.2c-9.5-15.6-21-29.9-34.1-42.6c-9.4-8.5-19.2-16.8-30.1-23.5
	c-15.9-9.8-33.6-16.2-52.1-18.9c-12.6-2-25.2-2.1-37.8-0.4c-18.5,2.7-36.2,9.1-52.1,18.9c-10.7,6.9-20.9,14.7-30.2,23.6
	c-13.1,12.8-24.5,27.1-34,42.6C4,146.2,0,160.5,0,175.1c0,13.5,3.4,26.6,9.9,38.3c0.4,1.1,0.8,2.1,1.5,3.2c0.1,0.1,0.2,0.3,0.2,0.4
	c9.5,15.6,21,29.9,34,42.6l-21.1,21.2c-4.8,4.8-6.7,11.8-4.9,18.3c1.8,6.5,6.9,11.7,13.4,13.4c6.5,1.8,13.5-0.1,18.3-4.9l24.4-24.4
	c15.9,9.8,33.6,16.2,52.1,18.9v29.8c0,5,2,9.8,5.5,13.4c3.6,3.6,8.4,5.5,13.4,5.5s9.8-2,13.4-5.5c3.6-3.6,5.6-8.4,5.6-13.4v-30
	c18.5-2.7,36.2-9.1,52.1-18.9l24.5,24.4c4.8,4.8,11.8,6.7,18.3,4.9s11.6-6.9,13.4-13.4s-0.1-13.5-4.9-18.3l-21.2-21.1
	c13.1-12.7,24.5-27.1,34.1-42.6c0.1-0.1,0.2-0.3,0.2-0.4c0.5-0.7,0.8-1.5,1.1-2.3C290.1,202.4,293.6,188.9,293.6,175.3z M43.9,153.8
	C57.2,132,92.2,85.2,146.8,85.2c54.6,0,89.6,46.8,102.9,68.5c4,6.5,6.1,13.9,6.1,21.5c0,7.6-2.1,15-6.1,21.5
	c-13.3,21.7-48.3,68.5-102.9,68.5c-54.6,0-89.6-46.8-102.9-68.5c-4-6.4-6.1-13.9-6.1-21.5C37.9,167.6,40,160.2,43.9,153.8z"/>
</svg>
