<?xml version="1.0" encoding="utf-8"?>
<!-- Generator: Adobe Illustrator 27.5.0, SVG Export Plug-In . SVG Version: 6.00 Build 0)  -->
<svg version="1.1" xmlns="http://www.w3.org/2000/svg" xmlns:xlink="http://www.w3.org/1999/xlink" x="0px" y="0px"
	 width="293.6px" height="350.8px" viewBox="0 0 293.6 350.8" style="enable-background:new 0 0 293.6 350.8;" xml:space="preserve"
	>
<path style="fill:#FFFFFF;" d="M287.2,261l-21-21.7c5.7-7.1,11-14.6,15.8-22.4c0.1-0.1,0.2-0.3,0.2-0.4c7.6-12.5-6.5-26.9-19.3-19.8
	c-0.2,0-0.4,0.2-0.7,0.3c-11.4,6.3-21.6,14.5-30.1,24.3c-18.3,21.2-46.9,44.3-85.2,44.3c-38.4,0-67.1-23.2-85.4-44.4
	c-8.1-9.4-17.5-17.5-28.2-23.8c-0.5-0.3-1-0.6-1.6-0.9c-13.2-7.9-28.3,7-20.3,20.1c0.1,0.1,0.2,0.3,0.2,0.4
	c5.6,9.2,11.9,18,18.8,26.2L8,267.4c-7.1,7.7-6.6,19.7,1,26.8l0,0c7.7,7.1,19.7,6.6,26.8-1l22.1-23.9l17.8,13.9
	c2.9,1.8,5.8,3.4,8.8,5l-11.2,33c-3.4,9.9,2,20.7,11.9,24l0,0c9.9,3.4,20.7-2,24-11.9l11-32.5c2.5,0.5,5,1,7.6,1.3l37.9-0.2
	c2.5-0.4,5-0.8,7.4-1.3l11.9,31.9c3.6,9.8,14.6,14.8,24.4,11.2c9.8-3.6,14.8-14.6,11.2-24.4L208.9,288c3-1.6,6-3.2,8.9-5l21.6-16.9
	l20.5,21.2c7.3,7.5,19.3,7.8,26.8,0.5l0,0C294.2,280.6,294.4,268.6,287.2,261z"/>
</svg>
