<?xml version="1.0" encoding="utf-8"?>
<!-- Generator: Adobe Illustrator 26.3.1, SVG Export Plug-In . SVG Version: 6.00 Build 0)  -->
<svg version="1.1" id="Layer_1" xmlns="http://www.w3.org/2000/svg" xmlns:xlink="http://www.w3.org/1999/xlink" x="0px" y="0px"
	 viewBox="0 0 293.6 350.8" style="enable-background:new 0 0 293.6 350.8;" xml:space="preserve">
<style type="text/css">
	.st0{fill:#FFFFFF;}
</style>
<path class="st0" d="M262.2,197c-11.4,6.3-21.6,14.5-30.1,24.3c-18.3,21.2-46.9,44.3-85.2,44.3c-38.4,0-67.1-23.2-85.4-44.4
	c-8.1-9.4-17.5-17.5-28.2-23.8c-0.5-0.3-1-0.6-1.6-0.9c-13.2-7.9-28.3,7-20.3,20.1c0.1,0.1,0.2,0.3,0.2,0.4
	c9.5,15.6,21,29.9,34,42.6l-21.1,21.2c-4.8,4.8-6.7,11.8-4.9,18.3c1.8,6.5,6.9,11.7,13.4,13.4c6.5,1.8,13.5-0.1,18.3-4.9l24.4-24.4
	c15.9,9.8,33.6,16.2,52.1,18.9v29.8c0,5,2,9.8,5.5,13.4c3.6,3.6,8.4,5.5,13.4,5.5s9.8-2,13.4-5.5c3.6-3.6,5.6-8.4,5.6-13.4v-30
	c18.5-2.7,36.2-9.1,52.1-18.9l24.5,24.4c4.8,4.8,11.8,6.7,18.3,4.9c6.5-1.8,11.6-6.9,13.4-13.4s-0.1-13.5-4.9-18.3l-21.2-21.1
	c13.1-12.7,24.5-27.1,34.1-42.6c0.1-0.1,0.2-0.3,0.2-0.4c7.6-12.5-6.5-26.9-19.3-19.8C262.7,196.7,262.5,196.9,262.2,197z"/>
</svg>
