<?xml version="1.0" encoding="utf-8"?>
<!-- Generator: Adobe Illustrator 27.5.0, SVG Export Plug-In . SVG Version: 6.00 Build 0)  -->
<svg version="1.1" xmlns="http://www.w3.org/2000/svg" xmlns:xlink="http://www.w3.org/1999/xlink" x="0px" y="0px"
	 width="197.5px" height="192.5px" viewBox="0 0 197.5 192.5" style="enable-background:new 0 0 197.5 192.5;" xml:space="preserve"
	>
<path style="fill:#FFFFFF;" d="M197.5,123.8L148.1,90l29.8-51.9l-57.2,17.5L98.8,0l-22,55.7L19.6,38.1L49.4,90L0,123.8l59.2,9
	l-4.4,59.7l43.9-40.6l43.9,40.6l-4.4-59.7L197.5,123.8z M133,134.2c-3.9,3.9-10.3,3.9-14.2,0l-20-20l-20,20
	c-3.9,3.9-10.3,3.9-14.2,0c-3.9-3.9-3.9-10.3,0-14.2l20-20l-20-20c-3.9-3.9-3.9-10.3,0-14.2c3.9-3.9,10.3-3.9,14.2,0l20,20l20-20
	c3.9-3.9,10.3-3.9,14.2,0s3.9,10.3,0,14.2l-20,20l20,20C136.9,123.9,136.9,130.3,133,134.2z"/>
</svg>
