<?xml version="1.0" encoding="utf-8"?>
<!-- Generator: Adobe Illustrator 27.9.0, SVG Export Plug-In . SVG Version: 6.00 Build 0)  -->
<svg version="1.1" xmlns="http://www.w3.org/2000/svg" xmlns:xlink="http://www.w3.org/1999/xlink" x="0px" y="0px"
	 viewBox="0 0 338 338.7" style="enable-background:new 0 0 338 338.7;" xml:space="preserve">
<path style="fill:#FFFFFF;" d="M240.9,256.1c-3.3,0-6.5-1.2-9-3.7l-75.2-75.2V93.8c0-7,5.7-12.8,12.8-12.8s12.8,5.7,12.8,12.8v72.7
	l67.7,67.7c5,5,5,13.1,0,18C247.5,254.8,244.2,256.1,240.9,256.1z"/>
<path style="fill:#FFFFFF;" d="M271.41,303.66c-3.6,0-7.18-1.52-9.7-4.47c-4.58-5.35-3.95-13.41,1.41-17.99
	c5.73-4.9,10.9-10.07,15.79-15.79c4.58-5.36,12.63-5.99,17.98-1.41c5.36,4.58,5.99,12.63,1.41,17.98
	c-5.77,6.75-11.85,12.83-18.61,18.61C277.29,302.65,274.34,303.66,271.41,303.66z"/>
<path style="fill:#FFFFFF;" d="M198.19,338.66c-6.03,0-11.39-4.29-12.53-10.43c-1.28-6.93,3.29-13.58,10.22-14.87
	c7.33-1.36,14.58-3.3,21.55-5.78c6.64-2.36,13.93,1.11,16.29,7.75c2.36,6.64-1.11,13.93-7.75,16.29c-8.24,2.93-16.8,5.22-25.45,6.82
	C199.74,338.59,198.96,338.66,198.19,338.66z"/>
<path style="fill:#FFFFFF;" d="M317.3,236.76c-1.4,0-2.83-0.23-4.23-0.73c-6.65-2.33-10.14-9.62-7.81-16.26
	c3.65-10.39,6.09-21.14,7.25-31.93c0.75-7,7.04-12.07,14.04-11.32c7,0.75,12.07,7.04,11.32,14.04c-1.37,12.75-4.25,25.42-8.55,37.67
	C327.49,233.48,322.56,236.76,317.3,236.76z"/>
<path style="fill:#FFFFFF;" d="M308.9,87.6l-16.7-76.4C289.9,0.5,277-3.6,268.9,3.7l-20.2,18.4C224.4,9.2,197.3,2.4,169.5,2.4
	C76,2.4,0,78.4,0,171.9c0,81.7,58.2,151.8,138.4,166.6c0.8,0.1,1.6,0.2,2.3,0.2c6,0,11.4-4.3,12.5-10.4c1.3-6.9-3.3-13.6-10.2-14.9
	C75,300.8,25.5,241.2,25.5,171.9C25.5,92.5,90.1,28,169.5,28c20.5,0,40.5,4.3,59,12.6L211,56.3c-8,7.3-5.2,20.6,5.2,23.9l74.5,23.8
	C301.2,107.4,311.2,98.2,308.9,87.6z"/>
</svg>
