<?xml version="1.0" encoding="utf-8"?>
<!-- Generator: Adobe Illustrator 27.6.1, SVG Export Plug-In . SVG Version: 6.00 Build 0)  -->
<svg version="1.1" id="Layer_1" xmlns="http://www.w3.org/2000/svg" xmlns:xlink="http://www.w3.org/1999/xlink" x="0px" y="0px"
	 width="338px" height="338.7px" viewBox="0 0 338 338.7" style="enable-background:new 0 0 338 338.7;" xml:space="preserve">
<path style="fill:#FFFFFF;" d="M240.9,256.1c-3.3,0-6.5-1.2-9-3.7l-75.2-75.2V93.8c0-7,5.7-12.8,12.8-12.8s12.8,5.7,12.8,12.8v72.7
	l67.7,67.7c5,5,5,13.1,0,18C247.5,254.8,244.2,256.1,240.9,256.1z"/>
<path style="fill:none;stroke:#FFFFFF;stroke-width:25.5118;stroke-linecap:round;stroke-miterlimit:10;" d="M271.4,290.9
	c6.2-5.3,11.9-11,17.2-17.2"/>
<path style="fill:none;stroke:#FFFFFF;stroke-width:25.5118;stroke-linecap:round;stroke-miterlimit:10;" d="M198.2,325.9
	c8.1-1.5,15.9-3.6,23.5-6.3"/>
<path style="fill:none;stroke:#FFFFFF;stroke-width:25.5118;stroke-linecap:round;stroke-miterlimit:10;" d="M317.3,224
	c3.9-11.1,6.6-22.7,7.9-34.8"/>
<path style="fill:#FFFFFF;" d="M308.9,87.6l-16.7-76.4C289.9,0.5,277-3.6,268.9,3.7l-20.2,18.4C224.4,9.2,197.3,2.4,169.5,2.4
	C76,2.4,0,78.4,0,171.9c0,81.7,58.2,151.8,138.4,166.6c0.8,0.1,1.6,0.2,2.3,0.2c6,0,11.4-4.3,12.5-10.4c1.3-6.9-3.3-13.6-10.2-14.9
	C75,300.8,25.5,241.2,25.5,171.9c0-79.4,64.6-143.9,144-143.9c20.5,0,40.5,4.3,59,12.6L211,56.3c-8,7.3-5.2,20.6,5.2,23.9l74.5,23.8
	C301.2,107.4,311.2,98.2,308.9,87.6z"/>
</svg>
