<?xml version="1.0" encoding="UTF-8"?>
<svg xmlns="http://www.w3.org/2000/svg" version="1.1" viewBox="0 0 12.9 7.1">
  <path d="M3.2,1.2v4.7c.4,0,1.6-.1,1.8.2.4.5,0,1.1-.6,1,0,0-3.6,0-3.6,0-.3,0-.5,0-.6-.2-.2-.2-.2-.7,0-.9.3-.3,1.5-.1,1.8-.2,0,0,0-4.7,0-4.7-.4,0-1.6.1-1.8-.2C-.3.6.1,0,.8,0c0,0,3.6,0,3.6,0,.3,0,.5,0,.6.2.2.2.2.7,0,.9-.3.3-1.5.1-1.8.2Z"/>
  <path d="M7.1,5.9V1.2c-.6,0-1-.6-.6-1,.2-.3,2.7-.1,3.1-.2,1.8,0,3.2,1.6,3.1,3.4,0,1.1-.1,2.2-.9,2.9-1.1,1.2-3.3.8-4.7.8-1,.1-1.1-1.3,0-1.2ZM8.3,5.9h1.3c1.3,0,2.1-.7,2-2,.1-1.4-.6-2.8-2-2.7,0,0-1.3,0-1.3,0v4.7Z"/>
</svg>
