<?xml version="1.0" encoding="utf-8"?>
<!-- Generator: Adobe Illustrator 27.5.0, SVG Export Plug-In . SVG Version: 6.00 Build 0)  -->
<svg version="1.1" xmlns="http://www.w3.org/2000/svg" xmlns:xlink="http://www.w3.org/1999/xlink" x="0px" y="0px"
	 width="270.3px" height="346.2px" viewBox="0 0 270.3 346.2" style="enable-background:new 0 0 270.3 346.2;" xml:space="preserve"
	>
<path style="fill:#FFFFFF;" d="M87.8,279.9v47.4c0,10.9,8.9,18.9,18.9,18.9h56.8c10,0,18.9-8.1,18.9-18.9v-47.4H87.8z"/>
<path style="fill:#FFFFFF;" d="M135.1,24.2L135.1,24.2L135.1,24.2z"/>
<path style="fill:#FFFFFF;" d="M135.1,24.2c-52.9,0-104.2,43.2-104.2,104.2c0,74.5,50.2,85.5,56.2,132.6H183
	c6-47.1,56.2-58.1,56.2-132.6C239.3,67.3,188.1,24.2,135.1,24.2z M202.3,159.3c-7.8,0-14.3-6.6-14.4-14.4
	c-0.1-12.9-1.2-25.4-6.3-37.5c0.1,0.3-1.3-2.8-1.3-2.7c-0.6-1.2-1.2-2.3-1.9-3.5c-0.7-1.1-1.3-2.3-2.1-3.4c0.1,0.1-2-2.8-1.6-2.4
	c-3.6-4.6-6.8-7.3-10.9-9.9c-6.6-4.1-9.2-12.8-5.2-19.7c3.8-6.5,13.1-9.3,19.7-5.2c28.9,18.1,38,51.9,38.3,84.1
	C216.8,152.7,210.1,159.3,202.3,159.3z"/>
<path style="fill:#FFFFFF;" d="M254,134.4c3.4,0,6.8,0,10.2,0c3.2,0,6.3-2.8,6.1-6.1c-0.1-3.3-2.7-6.1-6.1-6.1s-6.8,0-10.2,0
	c-3.2,0-6.3,2.8-6.1,6.1C248,131.6,250.6,134.4,254,134.4L254,134.4z"/>
<path style="fill:#FFFFFF;" d="M234.5,63.5c2.7-2,5.5-4,8.2-6c2.6-1.9,3.4-6,1.4-8.5c-2.1-2.6-5.8-3.4-8.5-1.4s-5.5,4-8.2,6
	c-2.6,1.9-3.4,6-1.4,8.5C228,64.7,231.7,65.5,234.5,63.5L234.5,63.5z"/>
<path style="fill:#FFFFFF;" d="M177,17.6c1-3.2,2.1-6.4,3.1-9.7c1-3-0.7-6.8-3.9-7.7s-6.6,0.7-7.7,3.9c-1,3.2-2.1,6.4-3.1,9.7
	c-1,3,0.7,6.8,3.9,7.7C172.5,22.4,176,20.9,177,17.6L177,17.6z"/>
<path style="fill:#FFFFFF;" d="M103.6,14.3c-1-3.2-2.1-6.4-3.1-9.7c-1-3-4.6-5.1-7.7-3.9s-5,4.4-3.9,7.7c1,3.2,2.1,6.4,3.1,9.7
	c1,3,4.6,5.1,7.7,3.9C102.7,20.8,104.6,17.5,103.6,14.3L103.6,14.3z"/>
<path style="fill:#FFFFFF;" d="M42.2,54.7c-2.7-2-5.5-4-8.2-6c-2.6-1.9-6.7-1.4-8.5,1.4c-1.8,2.8-1.4,6.5,1.4,8.5c2.7,2,5.5,4,8.2,6
	c2.6,1.9,6.7,1.4,8.5-1.4C45.3,60.5,44.9,56.7,42.2,54.7L42.2,54.7z"/>
<path style="fill:#FFFFFF;" d="M16.3,123.5c-3.4,0-6.8,0-10.2,0c-3.2,0-6.3,2.8-6.1,6.1c0.1,3.3,2.7,6.1,6.1,6.1s6.8,0,10.2,0
	c3.2,0,6.3-2.8,6.1-6.1S19.7,123.5,16.3,123.5L16.3,123.5z"/>
<path style="fill:#FFFFFF;" d="M35.8,194.4c-2.7,2-5.5,4-8.2,6c-2.6,1.9-3.4,6-1.4,8.5c2.1,2.6,5.8,3.4,8.5,1.4c2.7-2,5.5-4,8.2-6
	c2.6-1.9,3.4-6,1.4-8.5C42.3,193.2,38.6,192.4,35.8,194.4L35.8,194.4z"/>
<path style="fill:#FFFFFF;" d="M228.1,203.2c2.7,2,5.5,4,8.2,6c2.6,1.9,6.7,1.4,8.5-1.4c1.8-2.8,1.4-6.5-1.4-8.5c-2.7-2-5.5-4-8.2-6
	c-2.6-1.9-6.7-1.4-8.5,1.4C224.9,197.4,225.3,201.2,228.1,203.2L228.1,203.2z"/>
</svg>
