<?xml version="1.0" encoding="utf-8"?>
<!-- Generator: Adobe Illustrator 27.5.0, SVG Export Plug-In . SVG Version: 6.00 Build 0)  -->
<svg version="1.1" xmlns="http://www.w3.org/2000/svg" xmlns:xlink="http://www.w3.org/1999/xlink" x="0px" y="0px"
	 width="25.6px" height="15.9px" viewBox="0 0 25.6 15.9" style="enable-background:new 0 0 25.6 15.9;" xml:space="preserve">
<path style="fill:#FFFFFF;" d="M17.7,0H8C3.6,0,0,3.6,0,8s3.6,8,8,8h9.7c4.4,0,8-3.6,8-8S22.1,0,17.7,0z M11.5,12.6l-0.8-1.5
	c-0.2-0.4-0.4-0.8-0.6-1.2l0,0c-0.2,0.4-0.4,0.8-0.6,1.2l-0.8,1.5H5.8l2.7-4.1l-2.7-4h2.8l0.8,1.3C9.7,6.2,9.9,6.7,10.2,7l0,0
	c0.2-0.4,0.4-0.8,0.6-1.2l0.7-1.3h2.7l-2.7,3.9l2.7,4.2C14.2,12.6,11.5,12.6,11.5,12.6z M19.8,12.6h-2.1V5.3l0,0l-1.8,0.8l-0.4-1.6
	L18,3.3h1.8V12.6z"/>
</svg>
