<?xml version="1.0" encoding="utf-8"?>
<!-- Generator: Adobe Illustrator 26.0.2, SVG Export Plug-In . SVG Version: 6.00 Build 0)  -->
<svg version="1.1" id="Layer_1" xmlns="http://www.w3.org/2000/svg" xmlns:xlink="http://www.w3.org/1999/xlink" x="0px" y="0px"
	 viewBox="0 0 473.6 473.6" style="enable-background:new 0 0 473.6 473.6;" xml:space="preserve">
<style type="text/css">
	.st0{fill:none;}
	.st1{fill:#C9A700;}
</style>
<rect x="0" y="0" class="st0" width="473.6" height="473.6"/>
<path class="st1" d="M236.8,0C106,0,0,106,0,236.8s106,236.8,236.8,236.8s236.8-106,236.8-236.8S367.6,0,236.8,0z M209.4,339V230.6
	c0-9.8,5.2-18.8,13.7-23.7c8.5-4.9,18.9-4.9,27.4,0c8.5,4.9,13.7,13.9,13.7,23.7V339c0,9.8-5.2,18.8-13.7,23.7
	c-8.5,4.9-18.9,4.9-27.4,0C214.6,357.8,209.4,348.8,209.4,339z M236.8,173.4L236.8,173.4c-8.7,0-17.1-3.5-23.3-9.6
	s-9.6-14.5-9.6-23.3c0-8.7,3.5-17.1,9.6-23.3s14.5-9.6,23.3-9.6s17.1,3.5,23.3,9.6s9.6,14.5,9.6,23.3c0,8.7-3.5,17.1-9.6,23.3
	S245.5,173.4,236.8,173.4L236.8,173.4z"/>
</svg>
