<?xml version="1.0" encoding="utf-8"?>
<!-- Generator: Adobe Illustrator 27.9.0, SVG Export Plug-In . SVG Version: 6.00 Build 0)  -->
<svg version="1.1" xmlns="http://www.w3.org/2000/svg" xmlns:xlink="http://www.w3.org/1999/xlink" x="0px" y="0px"
	 viewBox="0 0 244.7 244.8" style="enable-background:new 0 0 244.7 244.8;" xml:space="preserve">
<path style="fill:#FFFFFF;" d="M121.9,244.8C54.5,244.6-0.1,189.6,0,122c0.1-32.7,12.8-63.4,36-86.4C59.1,12.7,89.8,0,122.5,0l0.5,0
	c32.6,0.1,63.3,13,86.2,36.2c23,23.2,35.5,54,35.4,86.8c-0.1,32.6-12.9,63.2-36,86.2c-23.1,23-53.8,35.6-86.5,35.6H121.9z
	 M67.5,35.2c-1.2,0-1.8,0.2-1.9,0.3C32.3,56.2,13,99.3,19.6,138c9,51.9,51.5,88.1,103.4,88.1c0,0,0,0,0,0c3.5,0,7.1-0.2,10.7-0.5
	c-1.3-1-2.7-1.9-4.1-2.8c-2.3-1.6-4.7-3.2-6.9-4.9c-3.3-2.5-5.1-6.4-5.1-10.8c0-2.9,0.9-5.6,2.5-7.9c-1.3-0.2-2.6-0.4-3.9-0.6
	c-1.1-0.2-4.7-1.1-6.2-3.9c-2.8-5.4-8-7.3-14.2-9.5l-1.5-0.5c-5.3-1.9-10.8-3.9-16-6.5c-6.3-3.2-9.7-7.7-10.1-13.6
	c-7.2-4.3-10.6-11.2-12.7-16.7c-4.4-11.3-4.3-23,0.3-35.5c3-8.2,6.1-17.3,9.4-27.7c0.9-3,0.5-3.7,0.5-3.7c0,0-0.6-0.7-3.9-1.1
	c-2.1-0.2-4.6-0.5-6.9-1.4c-3.4-1.3-5.9-4.6-6.5-8.5c-0.6-3.7,0.6-7.3,3.2-9.5c3.4-2.9,6.7-5.6,10.5-7.9c3.4-2.1,6.5-3.1,9.5-3.1
	c3.4,0,6.6,1.4,9.1,4.1c3.4,3.6,6.5,7.7,9.3,12.4c1.3,2.2,1.8,2.6,2,2.7c0,0,0.1,0,0.1,0c0.5,0,1.4-0.2,2.6-0.6
	c1.1-0.4,2.2-0.4,3-0.4c1.6,0,4.5,0.3,6.1,2.5c1.9,2.5,4.1,3.4,8.4,3.4c0.4,0,0.7,0,1.1,0l0.2,0c2.8,0,6.7,2,8,5.1
	c0.6,1.4,0.5,2.8,0.2,4.1c4,0.6,9.1,1.6,13.9,3.6c11.8,4.9,20.2,14,25.4,20.4c1.6,1.9,2.4,5.5,2.1,7.6c-0.2,1.8-1.2,2.7-1.9,3.3
	c-1.6,1.1-4.2,2.3-6.8,2.3c-1,0-2-0.2-2.8-0.5c0,0-0.1,0-0.1,0c-0.6,1.7-1.6,3.2-3,4c-5.2,3-7.8,8.2-10.6,13.7
	c-0.2,0.4-0.4,0.8-0.6,1.2c-0.9,2-2,4.4-4.3,5.8c-4.9,3-5.9,6.2-3.7,12c1.2,3.2-0.6,7.7-3.1,9.6c-0.9,0.7-2.1,1.1-3.4,1.1
	c-1.6,0-3.3-0.6-4.7-1l-0.5-0.2c-1.7-0.6-2.8-1.8-3.5-2.6c-0.1-0.1-0.2-0.3-0.3-0.4c-1.5-1.6-3.8-2.5-6.2-2.5
	c-3.1,0-5.8,1.3-7.3,3.6c-0.1,0.2-0.2,0.3-0.3,0.4c0.1,0,0.1,0.1,0.2,0.1c2.7,1.5,5.4,3,8.1,4.5c3.6,2,7.4,4.1,11,6.2
	c2.2,1.2,3.7,2.7,4.7,4.4c1.3,2.3,2.7,3.7,3.9,3.7c0.8,0,1.9-0.6,3-1.6c4.2-3.7,8.8-4.4,12.7-4.8c1-0.1,2.1-0.2,3.1-0.3
	c2.3-0.3,4.6-0.6,7-0.6c0.7,0,1.4,0,2,0.1c1.3,0.1,2.7,0.2,4,0.3c8,0.5,16.2,1.1,24.1,3c2.5,0.6,4.1,0.8,5.5,0.8
	c1.7,0,3.1-0.3,4.6-1.1c3-1.5,5.8-2.2,8.3-2.2c0.6,0,1.1,0,1.7,0.1c2.1,0.3,3.8,1.3,5.3,2.3c8.3-12.6,13.7-27.1,16-43
	c0.1-0.7,0.1-1,0.1-1.2c-0.2-0.1-0.5-0.2-1-0.4c-9-2.3-14.9-8.6-17.2-18c-1.4-5.5-2.6-11.2-3.8-16.6c-0.3-1.5-0.7-3-1-4.6
	c-8.5-2-11.4-9.8-12.7-16.2c-2.3-2.3-4.9-5-6.3-8.5c-0.7-1.8-1.5-3.6-2.4-5.5c-1.2-2.7-2.5-5.5-3.5-8.5c-1.7,2-5,2.6-6.8,2.6
	c-1.4,0-2.5-0.3-3.5-0.8c-6.3-3.6-12.9-7.9-20.9-13.4c-2.3-1.6-4.1-5-4-7.8c0.1-3.4-1.2-5.3-4-5.6c-0.9-0.1-1.9-0.1-2.8-0.1
	c-1.8,0-3.6,0.1-5.6,0.4c-1.6,0.2-3.3,0.5-4.9,0.8c-4.1,0.7-8.4,1.5-12.8,1.5c-4,0-7.6-0.6-11-1.9c-0.2,0-0.4,0.1-0.6,0.1
	c-0.4,0.1-0.7,0.2-1,0.3c-9.3,2-17.7,2.9-25.8,2.9c-2,0-4-0.1-5.9-0.2C67.9,35.2,67.7,35.2,67.5,35.2z M113.2,93.5
	c-0.5,0.4-0.9,0.8-1.4,1.3c-2.3,2.1-1.9,3.5-0.6,5.1c0.8,1,1.9,1.8,3,2.6c-0.1-1-0.2-2-0.4-3.1C113.5,97.5,113.3,95.5,113.2,93.5z"
	/>
<path style="fill:#FFFFFF;" d="M144.9,91.7c-3.7,0-7.1-2.2-9.5-6.2c-3.3-5.6-8-9.9-14.7-13.7c-6.5-3.7-7.1-10-7.5-14.5
	c-0.1-1.5-0.3-2.8-0.5-4.1c-0.8-3.7,3.4-6.9,5.8-7.5c2.5-0.7,5-1,7.4-1.3c0.9-0.1,1.8-0.3,2.7-0.4l0.4-0.1l0.4,0
	c10.9,0.4,19.2,3.8,25.3,10.4c2,2.2,3.3,5.6,3.2,8.5c-0.1,3.2-0.5,6.4-0.9,9.5c-0.3,2.4-0.5,4.6-0.7,6.9c-0.2,2.2-0.7,9-7.7,11.8
	C147.4,91.5,146.1,91.7,144.9,91.7z"/>
<path style="fill:#FFFFFF;" d="M129.3,47.9c8.7,0.3,16.5,2.7,22.6,9.1c1.3,1.4,2.2,3.8,2.1,5.6c-0.2,5.4-1.2,10.9-1.6,16.3
	c-0.3,3.8-1.5,6.9-5.2,8.3c-4,1.5-6.7-1.1-8.3-3.8c-4-6.7-9.5-11.4-16.1-15.2c-6.3-3.6-4.9-10.4-6.2-16c-0.2-0.7,1.7-2.5,2.9-2.8
	C122.7,48.7,126,48.4,129.3,47.9z"/>
<path style="fill:#FFFFFF;" d="M141.2,181.4c-1.8-0.4-3.5-0.8-5.1-1.1c-3.6-0.8-7-1.5-10.4-2.4c-3.2-0.8-4.7-2.6-5.4-3.9
	c-1.6-2.9-0.9-6.2-0.2-8.4c1.1-3.4,3.6-5.4,6.9-5.4c1.7,0,3.3,0.6,4.5,1l0.2,0.1c1.9,0.8,3.5,1.4,5,1.4c0.8,0,1.5-0.2,2.3-0.6
	c0.8-0.4,1.8-0.7,3-0.7c2.2,0,6,1,7.5,3.7c0.8,1.4,3.3,6.2,2.1,10.8c-0.8,3.2-4.2,4.2-6.7,4.9c-0.5,0.1-1.1,0.3-1.3,0.4l-1.2,0.5
	L141.2,181.4z"/>
<path style="fill:#FFFFFF;" d="M142.1,177.5c-5.7-1.3-10.5-2.2-15.3-3.4c-4-1-3.8-4.2-2.8-7.2c1.1-3.4,3.8-2.8,6.2-1.9
	c3.5,1.4,6.8,2.8,10.7,0.7c1.2-0.6,4.5,0.3,5.2,1.4c1.3,2.3,2.3,5.4,1.7,7.8C147.4,176.3,143.7,176.8,142.1,177.5z"/>
</svg>
