<?xml version="1.0" encoding="UTF-8"?>
<svg xmlns="http://www.w3.org/2000/svg" version="1.1" viewBox="0 0 267 267">
  <path d="M133.5,0C59.8877,0,0,59.8876,0,133.4998s59.8877,133.5002,133.5,133.5002,133.5-59.8876,133.5-133.5002S207.1123,0,133.5,0ZM232.6343,82.4998h-44.7327c-2.6562-17.4097-6.6752-34.7965-12.0541-52.138,24.527,10.1077,44.6876,28.7145,56.7868,52.138ZM245,133.4998c0,10.0287-1.3387,19.7491-3.8331,29.0004h-50.6304c1.6749-19.3283,1.6749-38.6721,0-58.0004h50.6305c2.4943,9.2512,3.833,18.9715,3.833,28.9999ZM22,133.4998c0-10.0285,1.3387-19.7487,3.833-28.9999h50.6262c-1.6747,19.3281-1.6644,38.6719.0109,58.0004H25.8331c-2.4943-9.2513-3.8331-18.9718-3.8331-29.0004ZM98.5852,104.4998h69.8337c1.7866,19.3276,1.7865,38.6729,0,58.0004h-69.8432c-1.787-19.328-1.7766-38.6732.0095-58.0004ZM150.31,23.2663c6.975,19.6857,12.0745,39.4428,15.2957,59.2335h-64.2095c3.2209-19.7906,8.3186-39.5477,15.2935-59.2335,5.484-.8328,11.0974-1.2664,16.8104-1.2664s11.3261.4336,16.81,1.2664ZM91.1518,30.3621c-5.379,17.3416-9.4001,34.7283-12.0563,52.1377h-44.7299c12.0991-23.4232,32.2595-42.03,56.7861-52.1377ZM34.3658,184.5002h44.7388c2.6566,17.4103,6.6762,34.798,12.0554,52.1411-24.5303-10.107-44.6938-28.7152-56.7943-52.1411ZM116.6948,243.7344c-6.9742-19.687-12.0829-39.4441-15.3043-59.2342h64.2153c-3.2213,19.7907-8.3209,39.548-15.296,59.2335-5.4839.8328-11.0971,1.2664-16.8098,1.2664s-11.3228-.4333-16.8052-1.2657ZM175.8475,236.6382c5.3789-17.3414,9.3979-34.7283,12.0542-52.138h44.7325c-12.0992,23.4235-32.2598,42.0304-56.7867,52.138Z" style="fill: #fff;"/>
</svg>