<?xml version="1.0" encoding="UTF-8"?>
<svg xmlns="http://www.w3.org/2000/svg" version="1.1" viewBox="0 0 196.7 220.8">
	<path d="M.1,110.4C.1,75.8.2,41.1,0,6.5,0,1.3,1.8,0,6.7,0,26.3.2,46,.2,65.6,0c4.8,0,6.8,1.1,6.6,6.4-.4,12.3-.2,24.7-.1,37,0,6.3.9,7.1,7.3,7.2,4.7,0,9.3,0,14,0,6-.1,6.7-.9,6.8-7.1,0-4.3.1-8.7,0-13-.2-3.7,1.4-5,5-4.9,4.5.2,9,0,13.5,0,4.2,0,6.1-2,6.1-6.1,0-4.7.4-9.4-.1-14-.6-4.6,1.6-5.5,5.4-5.4,5.7.1,11.3,0,17,0,14.8,0,29.7,0,44.5,0,4,0,5.2,1.4,5.1,5.3-.2,19.8,0,39.7-.1,59.5,0,6.7-.2,6.8-6.6,6.8-4.5,0-9,0-13.5,0-3.5,0-5.2,1.8-5.2,5.3,0,4.8-.2,9.7,0,14.5.1,3.9-1.6,5.4-5.4,5.2-4.7-.2-9.3,0-14,0-4,0-5.7,1.9-5.7,5.8,0,5.3,0,10.7,0,16,0,4.3,1.8,6.5,6.3,6.4,4.7-.1,9.3,0,14-.2,3.4-.1,4.9,1.2,4.8,4.6-.1,4.3,0,8.7,0,13,0,6.4,1,7.3,7.2,7.1,4.5-.1,9,0,13.5-.3,3.3-.2,4.8.9,4.8,4.5-.1,20.8,0,41.7,0,62.5,0,3.5-1.4,4.7-4.8,4.7-20.5,0-41,0-61.5,0-4.2,0-5.7-1.7-5.5-5.7.2-4,.1-8,0-12,0-5.1-1.7-6.9-6.9-7.1-4.3-.2-8.7-.1-13,0-3.5.1-4.8-1.4-4.8-4.7,0-4.3-.2-8.7,0-13,.3-4.9-1.9-6.6-6.5-6.4-5.2.2-10.3.2-15.5,0-4.5-.2-6.4,1.8-6.3,6.2,0,12,0,24,0,36,0,6.3-.5,6.7-6.9,6.7-19.7,0-39.3-.2-59,0-4.9,0-6.2-1.6-6.2-6.3.2-34.7,0-69.3,0-104Z"/>
</svg>
