<?xml version="1.0" encoding="utf-8"?>
<!-- Generator: Adobe Illustrator 27.5.0, SVG Export Plug-In . SVG Version: 6.00 Build 0)  -->
<svg version="1.1" xmlns="http://www.w3.org/2000/svg" xmlns:xlink="http://www.w3.org/1999/xlink" x="0px" y="0px"
	 width="230.1px" height="150.7px" viewBox="0 0 230.1 150.7" style="enable-background:new 0 0 230.1 150.7;" xml:space="preserve"
	>
<path style="fill:#FFFFFF;" d="M28.8,150.7c-15.2,0-28-12.1-28.7-27.5c0-0.1,0-0.2,0-0.3v-109C0,6.6,5.8,0.5,13.1,0
	c0.1,0,0.3,0,0.4,0h158c28-0.5,53.2,20.1,57.5,46.7c0.1,0.4,0.1,0.9,0.1,1.3c3.2,18.2-1.3,35.3-12.6,48.1
	c-11.3,12.9-28.4,20.2-47.7,20.6c-0.3,7.7-3.2,15.2-8.2,21.4c-6.1,7.6-14.6,12-23.8,12.5c-0.1,0-0.2,0-0.3,0H29.8
	C29.5,150.7,29.1,150.7,28.8,150.7z M11.6,122.8c0.5,9.4,8.5,16.8,17.9,16.4c0.1,0,0.2,0,0.2,0h106.5c5.9-0.4,11.4-3.3,15.4-8.2
	c4.4-5.4,6.4-12.6,5.4-19.1c-0.3-1.7,0.3-3.5,1.4-4.7s2.8-2,4.6-1.9c18.3,1,34.6-5,44.8-16.6c9.1-10.4,12.6-24.4,9.7-39.5
	c-0.1-0.5-0.1-1-0.1-1.5c-3.8-20.5-23.3-36.1-45.1-36.1c-0.2,0-0.5,0-0.7,0H13.8c-1.2,0.2-2.2,1.2-2.2,2.4L11.6,122.8L11.6,122.8z
	 M171,90.1c-2.8,0-5.6-0.2-8.3-0.5c-2.9-0.3-5.1-2.8-5.1-5.7V32.4c0-3.2,2.6-5.8,5.8-5.8h10.3C191.5,26,201.2,39.4,203,53
	c2,15.1-5.3,32.5-23.1,36.4c-0.2,0-0.4,0.1-0.6,0.1C176.6,89.9,173.8,90.1,171,90.1z M178.7,83.9L178.7,83.9L178.7,83.9z
	 M169.2,78.6c2.9,0.1,5.7,0,8.6-0.3c10.8-2.6,15.2-13.8,13.9-23.7c-1.1-8.2-6.3-16.8-17.6-16.4c-0.1,0-0.1,0-0.2,0h-4.6L169.2,78.6
	L169.2,78.6z"/>
<path style="fill:#FFFFFF;" d="M83.3,116c0.8,0.7,2,0.7,2.8,0c0,0,25.2-23,36.5-36.1c9.6-9.3,9.8-24.6,0.5-34.2
	c-10.5-11.1-29.4-7.2-38.6,3.7c-9.9-12.1-31-13.5-39.7-3.3c-8,9.3-6.4,23.6,1.3,33.1c6.4,9,32.3,32.3,37.3,36.7"/>
</svg>
