<?xml version="1.0" encoding="utf-8"?>
<!-- Generator: Adobe Illustrator 27.9.3, SVG Export Plug-In . SVG Version: 9.03 Build 53313)  -->
<svg version="1.1" xmlns="http://www.w3.org/2000/svg" xmlns:xlink="http://www.w3.org/1999/xlink" x="0px" y="0px"
	 viewBox="0 0 134.7 107.2" style="enable-background:new 0 0 134.7 107.2;" xml:space="preserve">
<rect x="31.5" y="38" transform="matrix(-0.7071 0.7071 -0.7071 -0.7071 132.3826 46.4561)" width="50.2" height="25.3"/>
<g>
	<path d="M106.8,17.5l-6.7-6.7l-6.5,6.5c0.5,1.8,0.1,3.9-1.3,5.3c-2.1,2.1-5.5,2.1-7.6,0c-2.1-2.1-2.1-5.5,0-7.6
		c1.4-1.4,3.5-1.9,5.3-1.3l6.5-6.5l-6.7-6.7l-31.9,0L0,58.2l49,49l57.8-57.8V17.5z M47.8,86L21.2,59.5l44.2-44.2L92,41.8L47.8,86z"
		/>
</g>
<path d="M117.9,84.1c0.2-16.9,6-30.5,10.6-41.4c3.6-8.5,6.7-15.8,6.1-22.3c-0.8-8.4-7-16.3-15-19.2
	c-4.6-1.7-13.6-3.1-23,6c0,0,0,0,0,0.1l3.5,3.5c0,0,0,0,0,0c5.5-5.3,11.8-7.1,17.8-4.9c6.3,2.3,11.2,8.5,11.8,15.1
	c0.5,5.2-2.2,11.7-5.7,19.9c-4.8,11.3-10.8,25.3-11,43.2c0,0.7,0.3,1.3,0.7,1.8c0.4,0.4,1,0.7,1.7,0.7
	C116.7,86.6,117.8,85.5,117.9,84.1z"/>
</svg>
