<?xml version="1.0" encoding="utf-8"?>
<!-- Generator: Adobe Illustrator 27.9.0, SVG Export Plug-In . SVG Version: 6.00 Build 0)  -->
<svg version="1.1" xmlns="http://www.w3.org/2000/svg" xmlns:xlink="http://www.w3.org/1999/xlink" x="0px" y="0px"
	 viewBox="0 0 352 263" style="enable-background:new 0 0 352 263;" xml:space="preserve">
<g>
	<path style="fill:#FFFFFF;" d="M321.5,61h-291C13.66,61,0,47.34,0,30.5l0,0C0,13.66,13.66,0,30.5,0h291
		C338.34,0,352,13.66,352,30.5l0,0C352,47.34,338.34,61,321.5,61z"/>
</g>
<g>
	<path style="fill:#FFFFFF;" d="M291.5,263h-231C43.66,263,30,249.34,30,232.5l0,0c0-16.84,13.66-30.5,30.5-30.5h231
		c16.84,0,30.5,13.66,30.5,30.5l0,0C322,249.34,308.34,263,291.5,263z"/>
</g>
<g>
	<path style="fill:#FFFFFF;" d="M251.5,162h-151C83.66,162,70,148.34,70,131.5l0,0c0-16.84,13.66-30.5,30.5-30.5h151
		c16.84,0,30.5,13.66,30.5,30.5l0,0C282,148.34,268.34,162,251.5,162z"/>
</g>
</svg>
