<?xml version="1.0" encoding="utf-8"?>
<!-- Generator: Adobe Illustrator 27.9.0, SVG Export Plug-In . SVG Version: 6.00 Build 0)  -->
<svg version="1.1" xmlns="http://www.w3.org/2000/svg" xmlns:xlink="http://www.w3.org/1999/xlink" x="0px" y="0px"
	 viewBox="0 0 364.1 263.42" style="enable-background:new 0 0 364.1 263.42;" xml:space="preserve">
<rect y="0.42" transform="matrix(-1 -1.224647e-16 1.224647e-16 -1 364 263.8481)" style="opacity:0;fill:#FFFFFF;" width="364" height="263"/>
<g>
	<path style="fill:#FFFFFF;" d="M132.5,61h201c16.84,0,30.5-13.66,30.5-30.5l0,0C364,13.66,350.34,0,333.5,0h-201
		C115.66,0,102,13.66,102,30.5l0,0C102,47.34,115.66,61,132.5,61z"/>
</g>
<g>
	<path style="fill:#FFFFFF;" d="M30.5,162h303c16.84,0,30.5-13.66,30.5-30.5l0,0c0-16.84-13.66-30.5-30.5-30.5h-303
		C13.66,101,0,114.66,0,131.5l0,0C0,148.34,13.66,162,30.5,162z"/>
</g>
<g>
	<path style="fill:#FFFFFF;" d="M172.5,263h161c16.84,0,30.5-13.66,30.5-30.5l0,0c0-16.84-13.66-30.5-30.5-30.5h-161
		c-16.84,0-30.5,13.66-30.5,30.5l0,0C142,249.34,155.66,263,172.5,263z"/>
</g>
</svg>
