<?xml version="1.0" encoding="utf-8"?>
<!-- Generator: Adobe Illustrator 27.9.0, SVG Export Plug-In . SVG Version: 6.00 Build 0)  -->
<svg version="1.1" id="Layer_1" xmlns="http://www.w3.org/2000/svg" xmlns:xlink="http://www.w3.org/1999/xlink" x="0px" y="0px"
	 viewBox="0 0 352 263" style="enable-background:new 0 0 352 263;" xml:space="preserve">
<g>
	<path style="fill:#FFFFFF;" d="M321.5,61h-291C13.66,61,0,47.34,0,30.5v0C0,13.66,13.66,0,30.5,0h291C338.34,0,352,13.66,352,30.5
		v0C352,47.34,338.34,61,321.5,61z"/>
</g>
<g>
	<path style="fill:#FFFFFF;" d="M321.5,263h-291C13.66,263,0,249.34,0,232.5v0C0,215.66,13.66,202,30.5,202h291
		c16.84,0,30.5,13.66,30.5,30.5v0C352,249.34,338.34,263,321.5,263z"/>
</g>
<g>
	<path style="fill:#FFFFFF;" d="M301.5,162h-251C33.66,162,20,148.34,20,131.5v0c0-16.84,13.66-30.5,30.5-30.5h251
		c16.84,0,30.5,13.66,30.5,30.5v0C332,148.34,318.34,162,301.5,162z"/>
</g>
</svg>
