<?xml version="1.0" encoding="utf-8"?>
<!-- Generator: Adobe Illustrator 27.9.0, SVG Export Plug-In . SVG Version: 6.00 Build 0)  -->
<svg version="1.1" xmlns="http://www.w3.org/2000/svg" xmlns:xlink="http://www.w3.org/1999/xlink" x="0px" y="0px"
	 viewBox="0 0 364.1 263.42" style="enable-background:new 0 0 364.1 263.42;" xml:space="preserve">
<rect y="0.42" style="opacity:0;fill:#FFFFFF;" width="364" height="263"/>
<g>
	<path style="fill:#FFFFFF;" d="M231.5,61h-201C13.66,61,0,47.34,0,30.5l0,0C0,13.66,13.66,0,30.5,0h201
		C248.34,0,262,13.66,262,30.5l0,0C262,47.34,248.34,61,231.5,61z"/>
</g>
<g>
	<path style="fill:#FFFFFF;" d="M333.5,162h-303C13.66,162,0,148.34,0,131.5l0,0C0,114.66,13.66,101,30.5,101h303
		c16.84,0,30.5,13.66,30.5,30.5l0,0C364,148.34,350.34,162,333.5,162z"/>
</g>
<g>
	<path style="fill:#FFFFFF;" d="M191.5,263h-161C13.66,263,0,249.34,0,232.5l0,0C0,215.66,13.66,202,30.5,202h161
		c16.84,0,30.5,13.66,30.5,30.5l0,0C222,249.34,208.34,263,191.5,263z"/>
</g>
</svg>
