<?xml version="1.0" encoding="utf-8"?>
<!-- Generator: Adobe Illustrator 27.9.0, SVG Export Plug-In . SVG Version: 6.00 Build 0)  -->
<svg version="1.1" xmlns="http://www.w3.org/2000/svg" xmlns:xlink="http://www.w3.org/1999/xlink" x="0px" y="0px"
	 viewBox="0 0 364 263" style="enable-background:new 0 0 364 263;" xml:space="preserve">
<g>
	<path style="fill:#FFFFFF;" d="M333.5,61h-91C225.66,61,212,47.34,212,30.5l0,0C212,13.66,225.66,0,242.5,0h91
		C350.34,0,364,13.66,364,30.5l0,0C364,47.34,350.34,61,333.5,61z"/>
</g>
<g>
	<path style="fill:#FFFFFF;" d="M333.5,162h-61c-16.84,0-30.5-13.66-30.5-30.5l0,0c0-16.84,13.66-30.5,30.5-30.5h61
		c16.84,0,30.5,13.66,30.5,30.5l0,0C364,148.34,350.34,162,333.5,162z"/>
</g>
<g>
	<path style="fill:#FFFFFF;" d="M211.5,263h-61c-16.84,0-30.5-13.66-30.5-30.5l0,0c0-16.84,13.66-30.5,30.5-30.5h61
		c16.84,0,30.5,13.66,30.5,30.5l0,0C242,249.34,228.34,263,211.5,263z"/>
</g>
<g>
	<path style="fill:#FFFFFF;" d="M333.5,263h-31c-16.84,0-30.5-13.66-30.5-30.5l0,0c0-16.84,13.66-30.5,30.5-30.5h31
		c16.84,0,30.5,13.66,30.5,30.5l0,0C364,249.34,350.34,263,333.5,263z"/>
</g>
<g>
	<path style="fill:#FFFFFF;" d="M181.5,162h-151C13.66,162,0,148.34,0,131.5l0,0C0,114.66,13.66,101,30.5,101h151
		c16.84,0,30.5,13.66,30.5,30.5l0,0C212,148.34,198.34,162,181.5,162z"/>
</g>
</svg>
