<?xml version="1.0" encoding="utf-8"?>
<!-- Generator: Adobe Illustrator 27.9.0, SVG Export Plug-In . SVG Version: 6.00 Build 0)  -->
<svg version="1.1" xmlns="http://www.w3.org/2000/svg" xmlns:xlink="http://www.w3.org/1999/xlink" x="0px" y="0px"
	 viewBox="0 0 426 263" style="enable-background:new 0 0 426 263;" xml:space="preserve">
<g>
	<path style="fill:#FFFFFF;" d="M91.5,61h-61C13.66,61,0,47.34,0,30.5v0C0,13.66,13.66,0,30.5,0h61C108.34,0,122,13.66,122,30.5v0
		C122,47.34,108.34,61,91.5,61z"/>
</g>
<g>
	<path style="fill:#FFFFFF;" d="M91.5,162h-61C13.66,162,0,148.34,0,131.5v0C0,114.66,13.66,101,30.5,101h61
		c16.84,0,30.5,13.66,30.5,30.5v0C122,148.34,108.34,162,91.5,162z"/>
</g>
<g>
	<path style="fill:#FFFFFF;" d="M91.5,263h-61C13.66,263,0,249.34,0,232.5v0C0,215.66,13.66,202,30.5,202h61
		c16.84,0,30.5,13.66,30.5,30.5v0C122,249.34,108.34,263,91.5,263z"/>
</g>
<g>
	<path style="fill:#FFFFFF;" d="M243.5,61h-61C165.66,61,152,47.34,152,30.5v0C152,13.66,165.66,0,182.5,0h61
		C260.34,0,274,13.66,274,30.5v0C274,47.34,260.34,61,243.5,61z"/>
</g>
<g>
	<path style="fill:#FFFFFF;" d="M243.5,162h-61c-16.84,0-30.5-13.66-30.5-30.5v0c0-16.84,13.66-30.5,30.5-30.5h61
		c16.84,0,30.5,13.66,30.5,30.5v0C274,148.34,260.34,162,243.5,162z"/>
</g>
<g>
	<path style="fill:#FFFFFF;" d="M243.5,263h-61c-16.84,0-30.5-13.66-30.5-30.5v0c0-16.84,13.66-30.5,30.5-30.5h61
		c16.84,0,30.5,13.66,30.5,30.5v0C274,249.34,260.34,263,243.5,263z"/>
</g>
<g>
	<path style="fill:#FFFFFF;" d="M395.5,61h-61C317.66,61,304,47.34,304,30.5v0C304,13.66,317.66,0,334.5,0h61
		C412.34,0,426,13.66,426,30.5v0C426,47.34,412.34,61,395.5,61z"/>
</g>
<g>
	<path style="fill:#FFFFFF;" d="M395.5,162h-61c-16.84,0-30.5-13.66-30.5-30.5v0c0-16.84,13.66-30.5,30.5-30.5h61
		c16.84,0,30.5,13.66,30.5,30.5v0C426,148.34,412.34,162,395.5,162z"/>
</g>
<g>
	<path style="fill:#FFFFFF;" d="M395.5,263h-61c-16.84,0-30.5-13.66-30.5-30.5v0c0-16.84,13.66-30.5,30.5-30.5h61
		c16.84,0,30.5,13.66,30.5,30.5v0C426,249.34,412.34,263,395.5,263z"/>
</g>
</svg>
