<?xml version="1.0" encoding="utf-8"?>
<!-- Generator: Adobe Illustrator 27.9.0, SVG Export Plug-In . SVG Version: 6.00 Build 0)  -->
<svg version="1.1" xmlns="http://www.w3.org/2000/svg" xmlns:xlink="http://www.w3.org/1999/xlink" x="0px" y="0px"
	 viewBox="0 0 354 263" style="enable-background:new 0 0 354 263;" xml:space="preserve">
<g>
	<path style="fill:#FFFFFF;" d="M131.5,61h-101C13.66,61,0,47.34,0,30.5v0C0,13.66,13.66,0,30.5,0h101C148.34,0,162,13.66,162,30.5
		v0C162,47.34,148.34,61,131.5,61z"/>
</g>
<g>
	<path style="fill:#FFFFFF;" d="M131.5,162h-101C13.66,162,0,148.34,0,131.5v0C0,114.66,13.66,101,30.5,101h101
		c16.84,0,30.5,13.66,30.5,30.5v0C162,148.34,148.34,162,131.5,162z"/>
</g>
<g>
	<path style="fill:#FFFFFF;" d="M131.5,263h-101C13.66,263,0,249.34,0,232.5v0C0,215.66,13.66,202,30.5,202h101
		c16.84,0,30.5,13.66,30.5,30.5v0C162,249.34,148.34,263,131.5,263z"/>
</g>
<g>
	<path style="fill:#FFFFFF;" d="M323.5,61h-101C205.66,61,192,47.34,192,30.5v0C192,13.66,205.66,0,222.5,0h101
		C340.34,0,354,13.66,354,30.5v0C354,47.34,340.34,61,323.5,61z"/>
</g>
<g>
	<path style="fill:#FFFFFF;" d="M323.5,162h-101c-16.84,0-30.5-13.66-30.5-30.5v0c0-16.84,13.66-30.5,30.5-30.5h101
		c16.84,0,30.5,13.66,30.5,30.5v0C354,148.34,340.34,162,323.5,162z"/>
</g>
<g>
	<path style="fill:#FFFFFF;" d="M323.5,263h-101c-16.84,0-30.5-13.66-30.5-30.5v0c0-16.84,13.66-30.5,30.5-30.5h101
		c16.84,0,30.5,13.66,30.5,30.5v0C354,249.34,340.34,263,323.5,263z"/>
</g>
</svg>
