<?xml version="1.0" encoding="utf-8"?>
<!-- Generator: Adobe Illustrator 27.9.0, SVG Export Plug-In . SVG Version: 6.00 Build 0)  -->
<svg version="1.1" xmlns="http://www.w3.org/2000/svg" xmlns:xlink="http://www.w3.org/1999/xlink" x="0px" y="0px"
	 viewBox="0 0 364 263" style="enable-background:new 0 0 364 263;" xml:space="preserve">
<g>
	<path style="fill:#FFFFFF;" d="M121.5,61h-91C13.66,61,0,47.34,0,30.5v0C0,13.66,13.66,0,30.5,0h91C138.34,0,152,13.66,152,30.5v0
		C152,47.34,138.34,61,121.5,61z"/>
</g>
<g>
	<path style="fill:#FFFFFF;" d="M333.5,162h-61c-16.84,0-30.5-13.66-30.5-30.5v0c0-16.84,13.66-30.5,30.5-30.5h61
		c16.84,0,30.5,13.66,30.5,30.5v0C364,148.34,350.34,162,333.5,162z"/>
</g>
<g>
	<path style="fill:#FFFFFF;" d="M91.5,263h-61C13.66,263,0,249.34,0,232.5v0C0,215.66,13.66,202,30.5,202h61
		c16.84,0,30.5,13.66,30.5,30.5v0C122,249.34,108.34,263,91.5,263z"/>
</g>
<g>
	<path style="fill:#FFFFFF;" d="M202.5,263h-31c-16.84,0-30.5-13.66-30.5-30.5v0c0-16.84,13.66-30.5,30.5-30.5h31
		c16.84,0,30.5,13.66,30.5,30.5v0C233,249.34,219.34,263,202.5,263z"/>
</g>
<g>
	<path style="fill:#FFFFFF;" d="M333.5,263h-51c-16.84,0-30.5-13.66-30.5-30.5v0c0-16.84,13.66-30.5,30.5-30.5h51
		c16.84,0,30.5,13.66,30.5,30.5v0C364,249.34,350.34,263,333.5,263z"/>
</g>
<g>
	<path style="fill:#FFFFFF;" d="M333.5,61h-121C195.66,61,182,47.34,182,30.5v0C182,13.66,195.66,0,212.5,0h121
		C350.34,0,364,13.66,364,30.5v0C364,47.34,350.34,61,333.5,61z"/>
</g>
<g>
	<path style="fill:#FFFFFF;" d="M181.5,162h-151C13.66,162,0,148.34,0,131.5v0C0,114.66,13.66,101,30.5,101h151
		c16.84,0,30.5,13.66,30.5,30.5v0C212,148.34,198.34,162,181.5,162z"/>
</g>
</svg>
