<?xml version="1.0" encoding="UTF-8"?>
<svg  xmlns="http://www.w3.org/2000/svg" version="1.1" viewBox="0 0 202 212.7">
  <path d="M201.5,16.2c0,15.7,1.4,30.7-.3,45.3-2.7,22.1-20.9,38.3-43.2,40.7-2.7.3-3.9,1.2-5.1,3.6-7.4,15.6-19.4,26.1-36,31-3.1.9-4.6,2.2-4.1,5.4,0,.2,0,.3,0,.5-1.1,8.1.2,14.2,9.4,17.5,7,2.6,11.7,9,15.6,16.5h-73.5c4.1-7.7,9.2-14.3,16.9-17.2,7.4-2.8,8.7-7.2,8.4-14.2-.2-5.1-1.1-7.6-6.6-9.3-15.5-4.9-26.7-15.3-33.7-30.1-1.1-2.3-2.2-3.4-5-3.7C18.8,99.4.2,78.6,0,52.7c0-11.8,0-23.7,0-36.3,7.5,0,14.7,0,22,0s14.3,0,21.9,0V0h114.1v16.2h43.4ZM22,38.4c-3,23.3,3.9,38.1,21.8,41.5v-41.5h-21.8ZM158.4,79.9c19.3-3.6,25-21.3,21.5-41.5h-21.5v41.5Z"/>
  <path d="M157.1,189v23.7H45.4v-23.7h111.8Z"/>
</svg>
