<?xml version="1.0" encoding="utf-8"?>
<!-- Generator: Adobe Illustrator 26.2.1, SVG Export Plug-In . SVG Version: 6.00 Build 0)  -->
<svg version="1.1" id="Layer_1" xmlns="http://www.w3.org/2000/svg" xmlns:xlink="http://www.w3.org/1999/xlink" x="0px" y="0px"
	 viewBox="0 0 306.3 259.5" style="enable-background:new 0 0 306.3 259.5;" xml:space="preserve">
<style type="text/css">
	.st0{fill:#ffffff;}
</style>
<path class="st0" d="M180,197.7v28.1c0,7.5-6.1,13.7-13.7,13.7H33.7c-7.5,0-13.7-6.1-13.7-13.7V33.7C20,26.1,26.1,20,33.7,20h132.6
	c7.5,0,13.7,6.1,13.7,13.7v28.1h20V33.7C200,15.1,184.9,0,166.3,0H33.7C15.1,0,0,15.1,0,33.7v192.1c0,18.6,15.1,33.7,33.7,33.7
	h132.6c18.6,0,33.7-15.1,33.7-33.7v-28.1H180z"/>
<polygon class="st0" points="135.4,103.3 135.4,39.4 45.1,129.7 135.4,220.1 135.4,156.2 306.3,156.2 306.3,103.3 "/>
</svg>
