<?xml version="1.0" encoding="UTF-8"?>
<svg id="Layer_1" xmlns="http://www.w3.org/2000/svg" version="1.1" viewBox="0 0 246.3 224.1">
  <!-- Generator: Adobe Illustrator 29.4.0, SVG Export Plug-In . SVG Version: 2.1.0 Build 152)  -->
  <defs>
    <style>
      .st0 {
        fill: #fff;
      }
    </style>
  </defs>
  <path class="st0" d="M70.2,118.8c0-36.6,29.8-66.4,66.4-66.4s24,3.4,34.2,9.5c10.2-6.1,22-9.5,34.3-9.5s2.3,0,3.4,0C206.1,23.2,181.6,0,151.6,0s-37,9.9-47.2,25C94,9.9,76.7,0,57.1,0,25.6,0,0,25.6,0,57.1s96.1,145.4,104.3,145.4,3.2-1.5,6.4-4.1c-40.5-50.1-40.5-72.3-40.5-79.6Z"/>
  <path class="st0" d="M205,77.4c-14.2,0-26.8,7.2-34.2,18.1-7.5-10.9-20.1-18.1-34.3-18.1-22.8,0-41.4,18.5-41.4,41.4s69.6,105.3,75.6,105.3,75.6-73.4,75.6-105.3-18.5-41.4-41.3-41.4Z"/>
</svg>