<?xml version="1.0" encoding="utf-8"?>
<!-- Generator: Adobe Illustrator 27.5.0, SVG Export Plug-In . SVG Version: 6.00 Build 0)  -->
<svg version="1.1" xmlns="http://www.w3.org/2000/svg" xmlns:xlink="http://www.w3.org/1999/xlink" x="0px" y="0px"
	 width="730.8px" height="516.9px" viewBox="0 0 730.8 516.9" style="enable-background:new 0 0 730.8 516.9;" xml:space="preserve"
	>
<path style="fill:#FFFFFF;" d="M661.9,137.8H253.8c-38.1,0-68.9-30.9-68.9-68.9l0,0c0-38.1,30.9-68.9,68.9-68.9h408.1
	c38.1,0,68.9,30.9,68.9,68.9l0,0C730.8,107,700,137.8,661.9,137.8z"/>
<circle style="fill:#FFFFFF;" cx="68.9" cy="68.9" r="68.9"/>
<path style="fill:#FFFFFF;" d="M661.9,327.4H253.8c-38.1,0-68.9-30.9-68.9-68.9l0,0c0-38.1,30.9-68.9,68.9-68.9h408.1
	c38.1,0,68.9,30.9,68.9,68.9l0,0C730.8,296.5,700,327.4,661.9,327.4z"/>
<circle style="fill:#FFFFFF;" cx="68.9" cy="258.4" r="68.9"/>
<path style="fill:#FFFFFF;" d="M661.9,516.9H253.8c-38.1,0-68.9-30.9-68.9-68.9l0,0c0-38.1,30.9-68.9,68.9-68.9h408.1
	c38.1,0,68.9,30.9,68.9,68.9l0,0C730.8,486,700,516.9,661.9,516.9z"/>
<circle style="fill:#FFFFFF;" cx="68.9" cy="448" r="68.9"/>
</svg>
