<?xml version="1.0" encoding="utf-8"?>
<!-- Generator: Adobe Illustrator 27.5.0, SVG Export Plug-In . SVG Version: 6.00 Build 0)  -->
<svg version="1.1" xmlns="http://www.w3.org/2000/svg" xmlns:xlink="http://www.w3.org/1999/xlink" x="0px" y="0px"
	 width="921.3px" height="671.4px" viewBox="0 0 921.3 671.4" style="enable-background:new 0 0 921.3 671.4;" xml:space="preserve"
	>
<circle style="fill:#FFFFFF;" cx="460.6" cy="338.3" r="141.7"/>
<path style="fill:#FFFFFF;" d="M764.3,671.4c-9,0-17.9-3.4-24.8-10.1c-14-13.7-14.2-36.1-0.5-50.1
	c71.8-73.3,111.4-170.2,111.4-272.8c0-105.2-41.3-203.8-116.2-277.6c-13.9-13.7-14.1-36.2-0.4-50.1c13.7-13.9,36.2-14.1,50.1-0.4
	c43,42.4,76.8,91.9,100.4,147.2c24.5,57.3,36.9,118.1,36.9,180.9c0,121.3-46.8,235.8-131.7,322.4
	C782.7,667.8,773.5,671.4,764.3,671.4z"/>
<path style="fill:#FFFFFF;" d="M157,671.4c-9.2,0-18.4-3.5-25.3-10.6C46.8,574.1,0,459.6,0,338.3c0-62.8,12.4-123.6,36.9-180.9
	C60.5,102.1,94.3,52.6,137.3,10.2c13.9-13.7,36.4-13.6,50.1,0.4C201.1,24.5,201,47,187,60.7C112.1,134.5,70.9,233.1,70.9,338.3
	c0,102.6,39.6,199.5,111.4,272.8c13.7,14,13.5,36.4-0.5,50.1C174.9,668,165.9,671.4,157,671.4z"/>
<path style="fill:#FFFFFF;" d="M664.4,570.8c-8.9,0-17.8-3.3-24.6-10c-14.1-13.6-14.4-36-0.8-50.1c45-46.5,69.7-107.7,69.7-172.4
	c0-67.1-26.4-130-74.3-177c-14-13.7-14.2-36.1-0.5-50.1S670,97,684,110.7c29.9,29.4,53.4,63.7,69.9,102.1
	c17,39.7,25.7,82,25.7,125.5c0,83.2-31.8,161.9-89.7,221.7C682.9,567.2,673.7,570.8,664.4,570.8z"/>
<path style="fill:#FFFFFF;" d="M256.9,570.8c-9.3,0-18.5-3.6-25.5-10.8c-57.8-59.8-89.7-138.5-89.7-221.7
	c0-43.6,8.6-85.8,25.7-125.5c16.4-38.4,40-72.7,69.9-102.1c14-13.7,36.4-13.5,50.1,0.5s13.5,36.4-0.5,50.1
	c-47.9,47-74.3,109.9-74.3,177c0,64.7,24.8,125.9,69.7,172.4c13.6,14.1,13.2,36.5-0.8,50.1C274.6,567.5,265.7,570.8,256.9,570.8z"/>
</svg>
