<?xml version="1.0" encoding="utf-8"?>
<!-- Generator: Adobe Illustrator 27.5.0, SVG Export Plug-In . SVG Version: 6.00 Build 0)  -->
<svg version="1.1" xmlns="http://www.w3.org/2000/svg" xmlns:xlink="http://www.w3.org/1999/xlink" x="0px" y="0px"
	 width="396px" height="577.3px" viewBox="0 0 396 577.3" style="enable-background:new 0 0 396 577.3;" xml:space="preserve">
<path style="fill-rule:evenodd;clip-rule:evenodd;fill:#FFFFFF;" d="M316.4,222.1v39.5h19.7c32.7,0,59.2,26.5,59.2,59.2v197.3
	c0,32.7-26.5,59.2-59.2,59.2H59.9c-32.7,0-59.2-26.5-59.2-59.2V320.8c0-32.7,26.5-59.2,59.2-59.2h19.7v-39.5
	c0-65.4,53-118.4,118.4-118.4S316.4,156.7,316.4,222.1z M276.9,261.6H119.1v-39.5c0-43.6,35.3-78.9,78.9-78.9s78.9,35.3,78.9,78.9
	V261.6z M198,360.2c-32.7,0-59.2,26.5-59.2,59.2s26.5,59.2,59.2,59.2s59.2-26.5,59.2-59.2S230.7,360.2,198,360.2z"/>
</svg>
