<?xml version="1.0" encoding="utf-8"?>
<!-- Generator: Adobe Illustrator 26.0.2, SVG Export Plug-In . SVG Version: 6.00 Build 0)  -->
<svg version="1.1" id="Layer_1" xmlns="http://www.w3.org/2000/svg" xmlns:xlink="http://www.w3.org/1999/xlink" x="0px" y="0px"
	 viewBox="0 0 396 577.3" style="enable-background:new 0 0 396 577.3;" xml:space="preserve">
<style type="text/css">
	.st0{fill:none;}
	.st1{fill-rule:evenodd;clip-rule:evenodd;fill:#FFFFFF;}
</style>
<rect y="103.7" class="st0" width="396" height="473.6"/>
<g>
	<path class="st1" d="M316.4,222.1v39.5h19.7c32.7,0,59.2,26.5,59.2,59.2v197.3c0,32.7-26.5,59.2-59.2,59.2H59.9
		c-32.7,0-59.2-26.5-59.2-59.2V320.8c0-32.7,26.5-59.2,59.2-59.2h19.7v-39.5c0-65.4,53-118.4,118.4-118.4S316.4,156.7,316.4,222.1z
		 M276.9,261.6H119.1v-39.5c0-43.6,35.3-78.9,78.9-78.9s78.9,35.3,78.9,78.9V261.6z M198,360.2c-32.7,0-59.2,26.5-59.2,59.2
		s26.5,59.2,59.2,59.2s59.2-26.5,59.2-59.2S230.7,360.2,198,360.2z"/>
</g>
</svg>
