<?xml version="1.0" encoding="UTF-8"?>
<svg id="Layer_1" xmlns="http://www.w3.org/2000/svg" width="535.33" height="533.33" version="1.1" xmlns:xlink="http://www.w3.org/1999/xlink" viewBox="0 0 535.33 533.33">
  <!-- Generator: Adobe Illustrator 30.0.0, SVG Export Plug-In . SVG Version: 2.1.1 Build 123)  -->
  <defs>
    <style>
      .st0 {
        fill: #fff;
      }

      .st1 {
        fill: #ef3939;
      }

      .st2 {
        fill: url(#linear-gradient);
      }
    </style>
    <linearGradient id="linear-gradient" x1="-52.14" y1="441.01" x2="164.22" y2="64.92" gradientTransform="translate(228.72 611.25) scale(1.18 -1.17)" gradientUnits="userSpaceOnUse">
      <stop offset="0" stop-color="#000" stop-opacity=".2"/>
      <stop offset=".79" stop-color="#000" stop-opacity=".05"/>
    </linearGradient>
  </defs>
  <path class="st1" d="M267.67,533.33c117.25,0,182.4,0,225.09-42.45,42.57-42.45,42.57-107.37,42.57-224.27s0-181.82-42.57-224.27C450.07,0,384.92,0,267.67,0S85.26,0,42.57,42.45C0,84.91,0,149.83,0,266.73s0,181.82,42.57,224.27c42.69,42.34,107.84,42.34,225.09,42.34h0Z"/>
  <path class="st2" d="M441.72,168.06c-25.64-44.81-68.56-79.74-122.54-94.2-107.14-28.58-217.21,34.69-245.91,141.36-14.47,53.63-5.53,108.08,20.58,152.53.35.59.71,1.29,1.18,1.88l94.32,162.88c15.64.47,32.58.59,50.8.59h26.58c52.1,0,93.97,0,128.19-3.76,42.69-4.7,73.27-15.17,96.91-38.69,34.46-34.34,41.04-83.5,42.34-163.12-55.04-95.02-92.32-159.35-92.44-159.47h0Z"/>
  <path class="st0" d="M408.56,125.6c-78.21-78.09-205.1-78.09-283.43,0-78.21,78.09-78.21,204.63,0,282.6,78.21,78.09,205.1,78.09,283.43,0s78.32-204.63,0-282.6ZM396.56,217.45c-33.05,57.27-66.09,114.55-99.14,171.94-6.12,10.7-15.05,17.05-27.28,17.99-13.64.94-24.46-4.82-31.4-16.58-20.93-35.87-41.63-71.97-62.33-107.96-12.58-21.87-25.28-43.75-37.87-65.74-12.7-22.11,1.65-49.04,27.05-50.33,13.41-.71,23.76,5.53,30.58,17.17,9.29,15.88,18.46,31.99,27.75,47.98,6.7,11.53,13.17,23.17,19.99,34.46,9.88,16.58,24.46,25.87,43.87,27.05,27.4,1.65,52.92-18.23,56.21-47.28.24-2.12.35-4.35.47-5.41-.12-9.41-1.88-17.41-5.64-24.81-10.23-20.46.71-43.4,22.93-48.34,18.11-4,36.93,9.29,39.28,27.64,1.18,7.88-.47,15.29-4.47,22.23h0Z"/>
</svg>