<?xml version="1.0" encoding="UTF-8"?>
<svg id="Layer_1" xmlns="http://www.w3.org/2000/svg" width="336.02" height="362.28" version="1.1" viewBox="0 0 336.02 362.28">
  <!-- Generator: Adobe Illustrator 30.0.0, SVG Export Plug-In . SVG Version: 2.1.1 Build 123)  -->
  <defs>
    <style>
      .st0 {
        fill: #ea212d;
      }
    </style>
  </defs>
  <path class="st0" d="M168.06,32c54.08,0,65.08,75.47,65.08,143.99,0,63.48-6.12,148.46-64.42,148.46s-65.84-85.81-65.84-149.28c0-68.52,11.09-143.16,65.18-143.16h0ZM264.48,28.48C237.94,10.13,205.1,0,168.06,0c-33.88,0-64.24,8.47-89.48,23.94C29.94,53.44,0,108.66,0,179.41c0,95.7,67.19,182.87,168,182.87s168.02-87.16,168.02-182.87c0-67.27-27.06-120.5-71.53-150.93"/>
</svg>