<?xml version="1.0" encoding="UTF-8"?>
<svg id="Layer_1" xmlns="http://www.w3.org/2000/svg" width="508.68" height="510.73" version="1.1" xmlns:xlink="http://www.w3.org/1999/xlink" viewBox="0 0 508.68 510.73">
  <!-- Generator: Adobe Illustrator 30.0.0, SVG Export Plug-In . SVG Version: 2.1.1 Build 123)  -->
  <defs>
    <style>
      .st0 {
        fill: #ff5150;
      }

      .st1 {
        fill: url(#linear-gradient);
        stroke: #cdcdcd;
        stroke-linecap: round;
        stroke-linejoin: round;
        stroke-width: .75px;
      }

      .st2 {
        fill: #f4f2f3;
      }

      .st3 {
        fill: url(#radial-gradient);
      }

      .st4 {
        opacity: .53;
      }

      .st4, .st5, .st6 {
        isolation: isolate;
      }

      .st7 {
        fill: #f1f1f1;
      }

      .st5 {
        opacity: .24;
      }

      .st6 {
        opacity: .41;
      }
    </style>
    <linearGradient id="linear-gradient" x1="413.54" y1="210.37" x2="413.54" y2="388.59" gradientTransform="translate(-924.28 1107.88) scale(2.85 -2.85)" gradientUnits="userSpaceOnUse">
      <stop offset="0" stop-color="#bdbdbd"/>
      <stop offset="1" stop-color="#fff"/>
    </linearGradient>
    <radialGradient id="radial-gradient" cx="427.87" cy="302.6" fx="427.87" fy="302.6" r="82.13" gradientTransform="translate(-1067.74 1155.96) scale(3.09 -3.09)" gradientUnits="userSpaceOnUse">
      <stop offset="0" stop-color="#06c2e7"/>
      <stop offset=".25" stop-color="#0db8ec"/>
      <stop offset=".5" stop-color="#12aef1"/>
      <stop offset=".75" stop-color="#1f86f9"/>
      <stop offset="1" stop-color="#107ddd"/>
    </radialGradient>
  </defs>
  <path class="st4" d="M499,275.14c0,130.11-109.53,235.58-244.65,235.58h0c-135.12,0-244.65-105.47-244.65-235.58S119.24,39.56,254.35,39.56c135.12,0,244.65,105.47,244.65,235.58h0Z"/>
  <path class="st1" d="M508.31,254.34c0,140.26-113.7,253.96-253.96,253.96-140.26,0-253.96-113.7-253.96-253.96S114.08.38,254.34.38c140.26,0,253.96,113.7,253.96,253.96Z"/>
  <path class="st3" d="M488.41,254.34c0,129.27-104.79,234.06-234.06,234.06h0c-129.27,0-234.06-104.79-234.06-234.06S125.07,20.28,254.34,20.28c129.27,0,234.06,104.79,234.06,234.06h0Z"/>
  <path class="st2" d="M254.34,32.48c-1.88,0-3.41,1.52-3.41,3.4v39.38c0,1.88,1.52,3.41,3.4,3.41,0,0,.01,0,.02,0,1.88,0,3.41-1.52,3.41-3.4h0v-39.38c0-1.88-1.52-3.41-3.4-3.41,0,0,0,0-.01,0h0ZM232.02,33.89c-.23-.02-.46-.02-.69,0-1.87.19-3.23,1.86-3.04,3.73,0,0,0,0,0,.01l1.72,16.47c.19,1.87,1.86,3.23,3.73,3.04,0,0,0,0,.01,0,1.87-.19,3.23-1.86,3.04-3.73,0,0,0-.01,0-.02l-1.72-16.47c-.16-1.61-1.44-2.89-3.06-3.04h0ZM276.82,33.91c-1.61.16-2.89,1.43-3.06,3.04l-1.73,16.47c-.2,1.87,1.15,3.55,3.02,3.75,0,0,0,0,.01,0,1.87.2,3.55-1.15,3.75-3.02,0,0,0-.01,0-.02l1.73-16.47c.2-1.87-1.15-3.55-3.02-3.75,0,0-.01,0-.02,0-.23-.02-.46-.02-.69,0h0ZM209.08,37.22c-1.88,0-3.4,1.53-3.4,3.41,0,.24.03.47.08.7l8.15,38.51c.39,1.84,2.19,3.02,4.03,2.63,0,0,0,0,.01,0,1.84-.39,3.02-2.19,2.64-4.03,0,0,0,0,0-.01l-8.15-38.51c-.33-1.59-1.74-2.72-3.36-2.71h0ZM299.75,37.25c-1.62-.01-3.03,1.12-3.36,2.7l-8.18,38.5c-.39,1.84.78,3.65,2.61,4.04,0,0,0,0,.01,0,1.84.39,3.65-.78,4.04-2.61,0,0,0,0,0-.01l8.18-38.5c.39-1.84-.78-3.65-2.61-4.04-.23-.05-.47-.08-.7-.08h0ZM187.2,43.39c-.46-.04-.91.01-1.35.16-1.79.58-2.77,2.5-2.2,4.29,0,0,0,0,0,.01l5.12,15.75c.58,1.79,2.5,2.77,4.29,2.2,0,0,0,0,.01,0,1.79-.58,2.77-2.5,2.2-4.29,0,0,0-.01,0-.02l-5.12-15.75c-.42-1.31-1.58-2.23-2.95-2.35h0ZM321.52,43.4c-1.37.12-2.53,1.04-2.95,2.35l-5.12,15.75c-.59,1.79.39,3.71,2.18,4.3,0,0,0,0,.01,0,1.79.59,3.71-.39,4.3-2.18,0,0,0,0,0-.01l5.12-15.75c.59-1.79-.39-3.71-2.18-4.3,0,0,0,0-.01,0-.43-.14-.89-.19-1.35-.16h0ZM165.55,51.31c-.46,0-.91.11-1.32.3-1.72.76-2.5,2.77-1.74,4.49,0,0,0,0,0,.01l15.99,35.97c.76,1.72,2.77,2.5,4.49,1.74,0,0,0,0,.01,0,1.72-.76,2.5-2.77,1.74-4.49,0,0,0,0,0-.01l-15.99-35.97c-.55-1.26-1.81-2.06-3.18-2.03h0ZM343.4,51.43c-1.37-.03-2.63.77-3.18,2.03l-16.04,35.95c-.77,1.72,0,3.73,1.71,4.5,0,0,0,0,.01,0,1.72.77,3.73,0,4.5-1.71,0,0,0,0,0-.01l16.04-35.95c.77-1.72,0-3.73-1.71-4.5,0,0,0,0-.01,0-.42-.19-.87-.29-1.32-.3ZM145.46,61.94c-.68-.05-1.36.11-1.94.45-1.63.94-2.19,3.02-1.26,4.65,0,0,0,0,0,.01l8.28,14.34c.94,1.63,3.02,2.19,4.65,1.26,0,0,0,0,.01,0,1.63-.94,2.19-3.02,1.26-4.65,0,0,0,0,0-.01l-8.28-14.34c-.57-.98-1.58-1.62-2.72-1.7h0ZM363.22,61.94c-1.13.08-2.15.72-2.72,1.7l-8.28,14.34c-.94,1.63-.39,3.71,1.24,4.65,0,0,0,0,.01,0,1.63.94,3.71.39,4.65-1.24,0,0,0,0,0-.01l8.28-14.34c.94-1.63.39-3.71-1.24-4.65,0,0,0,0-.01,0-.59-.34-1.27-.5-1.95-.45ZM125.96,74.11c-.68.02-1.34.25-1.89.65-1.52,1.1-1.87,3.23-.77,4.75,0,0,0,0,0,.01l23.11,31.86c1.1,1.52,3.23,1.87,4.76.77,0,0,0,0,.01,0,1.52-1.1,1.87-3.23.77-4.75,0,0,0,0,0-.01l-23.11-31.86c-.66-.92-1.74-1.45-2.88-1.41h0ZM382.97,74.28c-1.13-.04-2.21.49-2.88,1.41l-23.16,31.83c-1.11,1.52-.78,3.65.74,4.76,0,0,0,0,.01,0,1.52,1.11,3.65.78,4.76-.74,0,0,0,0,0-.01l23.16-31.83c1.11-1.52.78-3.65-.74-4.76,0,0,0,0-.01,0-.55-.4-1.21-.63-1.89-.66ZM108.52,88.73c-.9-.05-1.79.27-2.46.88-1.4,1.26-1.52,3.41-.26,4.81,0,0,0,0,0,.01l11.08,12.31c1.25,1.4,3.41,1.52,4.81.26,0,0,0,0,.01-.01,1.4-1.26,1.52-3.41.26-4.81,0,0,0,0,0-.01l-11.08-12.31c-.6-.67-1.45-1.08-2.36-1.13h0ZM400.19,88.76c-.9.05-1.75.45-2.36,1.13l-11.08,12.3c-1.26,1.39-1.16,3.55.24,4.81,0,0,0,0,.01.01,1.39,1.26,3.55,1.15,4.81-.24,0,0,0,0,.01-.01l11.08-12.3c1.26-1.4,1.15-3.55-.24-4.81,0,0,0,0,0,0-.67-.61-1.56-.92-2.46-.88h0ZM91.81,104.78c-.9.05-1.75.45-2.36,1.13-1.26,1.39-1.15,3.55.24,4.81,0,0,0,0,.01.01l29.26,26.34c1.39,1.26,3.55,1.15,4.81-.24,0,0,0,0,0-.01,1.26-1.39,1.15-3.55-.24-4.81,0,0,0,0-.01-.01l-29.26-26.34c-.67-.61-1.56-.92-2.46-.88h0ZM416.98,104.9c-.91-.05-1.79.26-2.46.87l-29.27,26.31c-1.4,1.25-1.52,3.41-.27,4.81,0,0,0,0,0,.01,1.26,1.4,3.41,1.52,4.81.27,0,0,0,0,.01,0l29.27-26.31c1.4-1.25,1.52-3.41.27-4.81,0,0,0,0,0-.01-.6-.68-1.45-1.08-2.36-1.13h0ZM77.91,122.65c-1.13-.04-2.21.49-2.88,1.41-1.11,1.52-.78,3.65.74,4.76,0,0,0,0,.01.01l13.39,9.73c1.52,1.11,3.65.78,4.76-.74,0,0,0,0,.01-.01,1.11-1.52.78-3.65-.74-4.76,0,0,0,0-.01,0l-13.4-9.73c-.55-.4-1.21-.63-1.89-.65ZM430.86,122.78c-.68.02-1.34.25-1.89.65l-13.4,9.72c-1.53,1.1-1.87,3.23-.77,4.76,0,0,0,0,0,.01,1.1,1.52,3.23,1.87,4.75.77,0,0,0,0,.01,0l13.4-9.72c1.52-1.1,1.87-3.23.77-4.75,0,0,0,0,0-.01-.66-.92-1.74-1.45-2.88-1.41h0ZM64.92,141.72c-1.13.08-2.15.72-2.72,1.7-.94,1.63-.39,3.71,1.24,4.65,0,0,0,0,.01,0l34.09,19.68c1.63.94,3.71.39,4.65-1.24,0,0,0,0,0-.01.94-1.63.39-3.71-1.24-4.65,0,0,0,0-.01,0l-34.09-19.68c-.59-.34-1.27-.5-1.95-.45h0ZM443.76,141.72c-.68-.05-1.36.11-1.95.45l-34.09,19.68c-1.63.94-2.19,3.02-1.26,4.65,0,0,0,0,0,.01.94,1.63,3.02,2.19,4.65,1.26,0,0,0,0,.01,0l34.09-19.68c1.63-.94,2.19-3.02,1.26-4.65,0,0,0,0,0-.01-.57-.98-1.58-1.62-2.72-1.7h0ZM55.1,162.03c-1.37-.03-2.63.77-3.18,2.02-.77,1.72,0,3.73,1.71,4.5,0,0,0,0,.01,0l15.12,6.75c1.72.77,3.73,0,4.5-1.71,0,0,0,0,0-.01.77-1.72,0-3.73-1.71-4.5,0,0,0,0-.01,0l-15.12-6.75c-.42-.19-.87-.29-1.32-.3h0ZM453.65,162.17c-.46,0-.91.11-1.33.3l-15.13,6.73c-1.72.76-2.5,2.77-1.74,4.49,0,0,0,0,0,.01.76,1.72,2.77,2.5,4.5,1.74,0,0,0,0,.01,0l15.13-6.73c1.72-.76,2.5-2.77,1.74-4.49,0,0,0,0,0-.01-.55-1.25-1.81-2.05-3.18-2.03h0ZM46.35,183.27c-1.37.11-2.53,1.04-2.95,2.34-.59,1.79.39,3.71,2.17,4.3,0,0,0,0,.01,0l37.43,12.2c1.79.59,3.71-.39,4.3-2.17,0,0,0,0,0-.01.59-1.79-.39-3.71-2.17-4.3,0,0,0,0-.01,0l-37.43-12.2c-.43-.14-.89-.2-1.35-.16h0ZM462.38,183.42c-.46-.04-.91.01-1.35.16l-37.43,12.17c-1.79.58-2.77,2.5-2.19,4.29,0,0,0,0,0,.01.58,1.79,2.5,2.77,4.29,2.19,0,0,0,0,.01,0l37.43-12.17c1.79-.58,2.77-2.5,2.2-4.29,0,0,0,0,0-.01-.42-1.31-1.59-2.23-2.95-2.35h0ZM40.9,205.56c-1.62-.01-3.03,1.12-3.36,2.71-.39,1.84.78,3.65,2.61,4.04,0,0,0,0,.01,0l16.2,3.44c1.84.39,3.65-.78,4.04-2.61,0,0,0,0,0-.01.39-1.84-.78-3.65-2.61-4.04,0,0,0,0-.01,0l-16.2-3.44c-.23-.05-.46-.07-.69-.07h0ZM467.79,205.59c-.23,0-.46.03-.69.07l-16.2,3.44c-1.84.39-3.02,2.19-2.63,4.03,0,0,0,0,0,.01.39,1.84,2.19,3.02,4.03,2.63,0,0,0,0,.01,0l16.2-3.44c1.84-.39,3.02-2.19,2.63-4.03h0c-.33-1.6-1.74-2.73-3.36-2.72h0ZM36.77,227.98c-1.61.16-2.89,1.43-3.06,3.04-.2,1.87,1.15,3.55,3.02,3.75,0,0,.01,0,.02,0l39.14,4.14c1.87.2,3.55-1.15,3.75-3.02,0,0,0-.01,0-.02.2-1.87-1.15-3.55-3.02-3.75,0,0-.01,0-.02,0l-39.14-4.14c-.23-.02-.46-.02-.69,0h0ZM471.95,228.28c-.23-.02-.46-.02-.69,0l-39.15,4.09c-1.87.19-3.23,1.86-3.04,3.73,0,0,0,0,0,.01.19,1.87,1.86,3.23,3.73,3.04,0,0,.01,0,.02,0l39.15-4.09c1.87-.19,3.23-1.86,3.04-3.73,0,0,0,0,0-.01-.16-1.61-1.44-2.89-3.05-3.04h0ZM36.11,250.94c-1.88,0-3.41,1.52-3.41,3.4,0,0,0,.01,0,.02,0,1.88,1.52,3.41,3.4,3.41,0,0,0,0,.01,0h16.56c1.88,0,3.41-1.52,3.41-3.4,0,0,0,0,0-.01,0-1.88-1.52-3.41-3.4-3.41,0,0,0,0-.01,0h-16.56ZM456.02,250.94c-1.88,0-3.41,1.52-3.41,3.4v.02c0,1.88,1.52,3.41,3.4,3.41,0,0,0,0,.01,0h16.56c1.88,0,3.41-1.52,3.41-3.4h0c0-1.9-1.52-3.42-3.4-3.43,0,0-.01,0-.02,0h-16.56ZM76.56,269.54c-.23-.02-.46-.02-.69,0l-39.15,4.09c-1.87.19-3.23,1.86-3.04,3.73,0,0,0,0,0,.01.19,1.87,1.86,3.23,3.73,3.04,0,0,0,0,.01,0l39.15-4.09c1.87-.19,3.23-1.86,3.04-3.73,0,0,0,0,0-.01-.16-1.61-1.44-2.89-3.06-3.04h0ZM432.1,269.78c-1.61.16-2.89,1.43-3.06,3.04-.2,1.87,1.15,3.55,3.02,3.75,0,0,0,0,.01,0l39.14,4.14c1.87.2,3.55-1.15,3.75-3.02,0,0,0-.01,0-.02.2-1.87-1.15-3.55-3.02-3.75,0,0,0,0-.01,0l-39.14-4.14c-.23-.02-.46-.03-.69,0h0ZM57.05,292.83c-.23,0-.46.03-.69.07l-16.2,3.44c-1.84.39-3.02,2.19-2.63,4.03,0,0,0,0,0,.01.39,1.84,2.19,3.02,4.03,2.63,0,0,0,0,.01,0l16.2-3.44c1.84-.39,3.02-2.19,2.63-4.03,0,0,0,0,0-.01-.33-1.59-1.74-2.72-3.36-2.71h0ZM451.63,292.87c-1.62-.01-3.03,1.12-3.36,2.7-.4,1.84.77,3.65,2.61,4.04,0,0,.01,0,.02,0l16.2,3.44c1.84.4,3.65-.77,4.04-2.61,0,0,0-.01,0-.02.4-1.84-.78-3.65-2.61-4.05,0,0,0,0-.01,0l-16.2-3.44c-.23-.05-.46-.07-.69-.07h0ZM84.32,306.31c-.46-.04-.91.01-1.35.16l-37.43,12.17c-1.79.58-2.77,2.5-2.19,4.29,0,0,0,0,0,.01.58,1.79,2.5,2.77,4.29,2.2,0,0,0,0,.01,0l37.43-12.17c1.79-.58,2.77-2.5,2.2-4.29,0,0,0,0,0-.01-.42-1.31-1.59-2.23-2.95-2.35h0ZM424.32,306.43c-1.37.11-2.53,1.04-2.95,2.34-.59,1.79.39,3.71,2.17,4.3,0,0,0,0,.01,0l37.43,12.2c1.79.59,3.71-.39,4.3-2.17,0,0,0,0,0-.01.59-1.79-.39-3.71-2.17-4.3,0,0,0,0-.01,0l-37.43-12.2c-.43-.14-.89-.2-1.35-.16ZM70.04,332.96c-.46,0-.91.11-1.32.3l-15.13,6.73c-1.72.76-2.5,2.77-1.73,4.49,0,0,0,0,0,.01.76,1.72,2.77,2.5,4.49,1.74,0,0,0,0,.01,0l15.13-6.73c1.72-.76,2.5-2.77,1.73-4.49,0,0,0,0,0-.01-.56-1.25-1.81-2.05-3.18-2.03h0ZM438.59,333.09c-1.37-.03-2.63.77-3.18,2.02-.77,1.72,0,3.73,1.71,4.5,0,0,0,0,.01,0l15.12,6.75c1.72.77,3.73,0,4.5-1.71,0,0,0-.01,0-.02.77-1.72,0-3.73-1.71-4.5h-.01s-15.12-6.75-15.12-6.75c-.42-.19-.87-.29-1.32-.3h0ZM99.49,340.48c-.68-.05-1.36.11-1.95.45l-34.09,19.68c-1.63.94-2.19,3.02-1.26,4.65,0,0,0,0,0,.01.94,1.63,3.02,2.19,4.65,1.26,0,0,0,0,.01,0l34.09-19.68c1.63-.94,2.19-3.02,1.25-4.65,0,0,0,0,0-.01-.56-.98-1.58-1.62-2.72-1.7h0ZM409.19,340.48c-1.13.08-2.15.72-2.72,1.7-.94,1.63-.39,3.71,1.24,4.66,0,0,0,0,.01,0l34.09,19.68c1.63.94,3.71.39,4.66-1.24,0,0,0,0,0-.01.94-1.63.39-3.71-1.24-4.65,0,0,0,0-.01,0l-34.09-19.68c-.59-.34-1.27-.5-1.94-.45h0ZM90.99,369.37c-.68.02-1.34.25-1.89.65l-13.4,9.72c-1.52,1.1-1.87,3.23-.77,4.75,0,0,0,0,0,.01,1.1,1.52,3.23,1.87,4.75.77,0,0,0,0,.01,0l13.4-9.72c1.52-1.1,1.87-3.23.77-4.75,0,0,0,0,0-.01-.66-.92-1.74-1.45-2.88-1.41h0ZM417.61,369.48c-1.13-.04-2.21.49-2.88,1.41-1.11,1.52-.78,3.65.74,4.76,0,0,0,0,.01,0l13.39,9.73c1.52,1.11,3.65.78,4.76-.74,0,0,0,0,0-.01,1.11-1.52.78-3.65-.74-4.76h-.01s-13.39-9.74-13.39-9.74c-.55-.4-1.21-.63-1.89-.65h0ZM121.34,370.66c-.9-.05-1.79.26-2.46.87l-29.27,26.31c-1.4,1.25-1.52,3.41-.27,4.81,0,0,0,0,0,.01,1.25,1.4,3.41,1.52,4.81.27,0,0,0,0,.01,0l29.27-26.31c1.4-1.25,1.52-3.41.27-4.81,0,0,0,0,0-.01-.6-.68-1.45-1.08-2.36-1.13ZM387.26,370.75c-.9.05-1.75.45-2.36,1.13-1.26,1.39-1.15,3.55.24,4.81,0,0,0,0,.01.01l29.26,26.34c1.4,1.26,3.55,1.15,4.81-.24,0,0,0,0,0,0,1.26-1.39,1.15-3.55-.24-4.81,0,0,0,0-.01,0l-29.26-26.34c-.67-.61-1.56-.92-2.46-.87h0ZM149.11,395.75c-1.13-.04-2.22.49-2.88,1.41l-23.16,31.83c-1.11,1.52-.78,3.65.74,4.76,0,0,0,0,.01,0,1.52,1.11,3.65.78,4.76-.74,0,0,0,0,0-.01l23.16-31.83c1.11-1.52.78-3.65-.74-4.76,0,0,0,0-.01,0-.55-.4-1.21-.63-1.89-.65h0ZM359.38,395.9c-.68.02-1.34.25-1.89.65-1.52,1.1-1.87,3.23-.77,4.75,0,0,0,0,0,.01l23.11,31.86c1.1,1.52,3.23,1.87,4.75.77,0,0,0,0,.01,0,1.52-1.1,1.87-3.23.77-4.75,0,0,0,0,0-.01l-23.11-31.86c-.66-.92-1.74-1.45-2.88-1.41h0ZM119.22,400.81c-.9.05-1.75.45-2.36,1.13l-11.08,12.31c-1.26,1.4-1.15,3.55.24,4.81,0,0,0,0,.01,0,1.39,1.26,3.55,1.15,4.81-.24,0,0,0,0,.01-.01l11.08-12.3c1.26-1.4,1.15-3.55-.24-4.81,0,0,0,0,0,0-.67-.61-1.56-.92-2.46-.87h0ZM389.44,400.83c-.9-.05-1.79.27-2.46.87-1.4,1.26-1.52,3.41-.26,4.81,0,0,0,0,0,.01l11.08,12.31c1.25,1.4,3.41,1.52,4.81.26,0,0,0,0,.01-.01,1.4-1.26,1.52-3.41.26-4.81,0,0,0,0-.01-.01l-11.08-12.31c-.6-.68-1.45-1.08-2.36-1.13h0ZM181.45,414.48c-1.37-.03-2.63.77-3.18,2.02l-16.04,35.95c-.77,1.72,0,3.73,1.71,4.5,0,0,0,0,.01,0,1.72.77,3.73,0,4.5-1.71,0,0,0,0,0-.01l16.04-35.95c.77-1.72,0-3.73-1.71-4.5,0,0,0,0-.01,0-.42-.19-.87-.29-1.32-.3ZM327.02,414.58c-.46,0-.91.11-1.33.3-1.72.76-2.5,2.77-1.74,4.49,0,0,0,0,0,.01l15.99,35.97c.76,1.72,2.77,2.5,4.49,1.74,0,0,0,0,.01,0,1.72-.76,2.5-2.77,1.74-4.49,0,0,0,0,0-.01l-15.99-35.97c-.55-1.25-1.81-2.05-3.18-2.03h0ZM153.27,425.59c-1.13.08-2.15.72-2.72,1.7l-8.28,14.34c-.94,1.63-.39,3.71,1.24,4.65,0,0,0,0,.01,0,1.63.94,3.71.39,4.65-1.24,0,0,0,0,0-.01l8.28-14.34c.94-1.63.39-3.71-1.24-4.65,0,0,0,0-.01,0-.59-.34-1.27-.5-1.95-.45h0ZM355.42,425.59c-.68-.05-1.36.11-1.94.45-1.63.94-2.19,3.02-1.26,4.65,0,0,0,0,0,.01l8.28,14.34c.94,1.63,3.02,2.19,4.65,1.26,0,0,0,0,.01,0,1.63-.94,2.19-3.02,1.26-4.65,0,0,0,0,0-.01l-8.28-14.34c-.57-.98-1.58-1.62-2.72-1.7ZM217.15,426.11c-1.62-.01-3.03,1.12-3.36,2.7l-8.18,38.5c-.39,1.84.78,3.65,2.61,4.04,0,0,0,0,.01,0,1.84.4,3.65-.77,4.04-2.61,0,0,0-.01,0-.02l8.18-38.5c.39-1.84-.78-3.65-2.61-4.04-.23-.05-.47-.08-.71-.08h0ZM291.41,426.13c-1.88,0-3.4,1.53-3.39,3.41,0,.24.03.47.08.7l8.15,38.51c.39,1.84,2.19,3.02,4.03,2.64,0,0,.01,0,.02,0,1.84-.39,3.02-2.19,2.64-4.03,0,0,0-.01,0-.02l-8.15-38.51c-.33-1.59-1.74-2.72-3.36-2.71h0ZM254.34,430.01c-1.88,0-3.41,1.52-3.41,3.4v39.38c0,1.88,1.52,3.41,3.4,3.41h.02c1.88,0,3.41-1.52,3.41-3.4h0v-39.38c0-1.88-1.52-3.41-3.4-3.41h-.02ZM191.7,442.73c-1.37.12-2.53,1.04-2.95,2.35l-5.12,15.75c-.59,1.79.39,3.71,2.18,4.3,0,0,.01,0,.02,0,1.79.58,3.71-.39,4.3-2.18,0,0,0,0,0-.01l5.12-15.75c.59-1.79-.39-3.71-2.18-4.3,0,0,0,0-.01,0-.43-.14-.89-.2-1.35-.16h0ZM316.96,442.74c-.46-.04-.91.01-1.35.16-1.79.58-2.77,2.5-2.2,4.29,0,0,0,0,0,.01l5.12,15.75c.58,1.79,2.5,2.77,4.29,2.2,0,0,.01,0,.02,0,1.79-.58,2.77-2.5,2.2-4.29,0,0,0,0,0-.01l-5.12-15.75c-.42-1.31-1.58-2.23-2.95-2.35h0ZM232.92,451.51c-1.61.16-2.89,1.43-3.06,3.04l-1.73,16.47c-.2,1.87,1.15,3.55,3.02,3.75,0,0,.01,0,.02,0,1.87.2,3.55-1.15,3.75-3.02,0,0,0-.01,0-.02l1.73-16.47c.2-1.87-1.15-3.55-3.02-3.75,0,0-.01,0-.02,0-.23-.02-.46-.03-.69,0h0ZM275.63,451.53c-.23-.02-.46-.02-.69,0-1.87.19-3.23,1.86-3.04,3.73,0,0,0,0,0,.01l1.72,16.47c.19,1.87,1.86,3.23,3.73,3.04,0,0,.01,0,.02,0,1.87-.19,3.23-1.86,3.04-3.73,0,0,0-.01,0-.02l-1.72-16.47c-.16-1.61-1.44-2.89-3.06-3.04h0Z"/>
  <path class="st6" d="M414.28,117.84l-186.71,108.48-118.05,185.84,172.7-127.91,132.06-166.41Z"/>
  <path class="st0" d="M281.1,282.36l-53.52-56.04,189.84-127.71-136.33,183.75Z"/>
  <path class="st7" d="M281.1,282.36l-53.52-56.04-136.33,183.75,189.84-127.71Z"/>
  <path class="st5" d="M91.26,410.07l189.84-127.71,136.33-183.75L91.26,410.07Z"/>
</svg>