<?xml version="1.0" encoding="UTF-8"?>
<svg id="Layer_1" xmlns="http://www.w3.org/2000/svg" width="516.34" height="533.33" version="1.1" xmlns:xlink="http://www.w3.org/1999/xlink" viewBox="0 0 516.34 533.33">
  <!-- Generator: Adobe Illustrator 30.0.0, SVG Export Plug-In . SVG Version: 2.1.1 Build 123)  -->
  <defs>
    <style>
      .st0 {
        fill: url(#linear-gradient1);
      }

      .st1 {
        fill: url(#radial-gradient);
      }

      .st2 {
        fill: url(#radial-gradient5);
      }

      .st3 {
        fill: url(#radial-gradient1);
      }

      .st4 {
        fill: url(#radial-gradient7);
      }

      .st5 {
        fill: url(#radial-gradient8);
      }

      .st6 {
        fill: url(#radial-gradient6);
      }

      .st7 {
        fill: url(#radial-gradient2);
      }

      .st8 {
        fill: url(#radial-gradient4);
      }

      .st9 {
        fill: url(#radial-gradient3);
      }

      .st10 {
        fill: url(#radial-gradient9);
      }

      .st11 {
        fill: url(#linear-gradient);
      }
    </style>
    <linearGradient id="linear-gradient" x1="179.52" y1="372.46" x2="115.18" y2="310.39" gradientTransform="translate(-733.92 2566.69) scale(6.67 -6.67)" gradientUnits="userSpaceOnUse">
      <stop offset=".05" stop-color="#fff44f"/>
      <stop offset=".11" stop-color="#ffe847"/>
      <stop offset=".23" stop-color="#ffc830"/>
      <stop offset=".37" stop-color="#ff980e"/>
      <stop offset=".4" stop-color="#ff8b16"/>
      <stop offset=".46" stop-color="#ff672a"/>
      <stop offset=".53" stop-color="#ff3647"/>
      <stop offset=".7" stop-color="#e31587"/>
    </linearGradient>
    <radialGradient id="radial-gradient" cx="-7798.44" cy="8899.97" fx="-7798.44" fy="8899.97" r="80.8" gradientTransform="translate(52454.69 59416.81) scale(6.67 -6.67)" gradientUnits="userSpaceOnUse">
      <stop offset=".13" stop-color="#ffbd4f"/>
      <stop offset=".19" stop-color="#ffac31"/>
      <stop offset=".25" stop-color="#ff9d17"/>
      <stop offset=".28" stop-color="#ff980e"/>
      <stop offset=".4" stop-color="#ff563b"/>
      <stop offset=".47" stop-color="#ff3750"/>
      <stop offset=".71" stop-color="#f5156c"/>
      <stop offset=".78" stop-color="#eb0878"/>
      <stop offset=".86" stop-color="#e50080"/>
    </radialGradient>
    <radialGradient id="radial-gradient1" cx="-7827.97" cy="8866.94" fx="-7827.97" fy="8866.94" r="80.8" gradientTransform="translate(52454.69 59416.81) scale(6.67 -6.67)" gradientUnits="userSpaceOnUse">
      <stop offset=".3" stop-color="#960e18"/>
      <stop offset=".35" stop-color="#b11927" stop-opacity=".74"/>
      <stop offset=".43" stop-color="#db293d" stop-opacity=".34"/>
      <stop offset=".5" stop-color="#f5334b" stop-opacity=".09"/>
      <stop offset=".53" stop-color="#ff3750" stop-opacity="0"/>
    </radialGradient>
    <radialGradient id="radial-gradient2" cx="-7818.23" cy="8918.31" fx="-7818.23" fy="8918.31" r="58.53" gradientTransform="translate(52454.69 59416.81) scale(6.67 -6.67)" gradientUnits="userSpaceOnUse">
      <stop offset=".13" stop-color="#fff44f"/>
      <stop offset=".25" stop-color="#ffdc3e"/>
      <stop offset=".51" stop-color="#ff9d12"/>
      <stop offset=".53" stop-color="#ff980e"/>
    </radialGradient>
    <radialGradient id="radial-gradient3" cx="-7836.91" cy="8845.83" fx="-7836.91" fy="8845.83" r="38.47" gradientTransform="translate(52454.69 59416.81) scale(6.67 -6.67)" gradientUnits="userSpaceOnUse">
      <stop offset=".35" stop-color="#3a8ee6"/>
      <stop offset=".47" stop-color="#5c79f0"/>
      <stop offset=".67" stop-color="#9059ff"/>
      <stop offset="1" stop-color="#c139e6"/>
    </radialGradient>
    <radialGradient id="radial-gradient4" cx="-7813.86" cy="8884.1" fx="-7813.86" fy="8884.1" r="20.4" gradientTransform="translate(67225.1 55417.04) rotate(-13.59) scale(6.67 -7.81)" gradientUnits="userSpaceOnUse">
      <stop offset=".21" stop-color="#9059ff" stop-opacity="0"/>
      <stop offset=".28" stop-color="#8c4ff3" stop-opacity=".06"/>
      <stop offset=".75" stop-color="#7716a8" stop-opacity=".45"/>
      <stop offset=".97" stop-color="#6e008b" stop-opacity=".6"/>
    </radialGradient>
    <radialGradient id="radial-gradient5" cx="-7828.99" cy="8903.28" fx="-7828.99" fy="8903.28" r="27.68" gradientTransform="translate(52454.69 59416.81) scale(6.67 -6.67)" gradientUnits="userSpaceOnUse">
      <stop offset="0" stop-color="#ffe226"/>
      <stop offset=".12" stop-color="#ffdb27"/>
      <stop offset=".29" stop-color="#ffc82a"/>
      <stop offset=".5" stop-color="#ffa930"/>
      <stop offset=".73" stop-color="#ff7e37"/>
      <stop offset=".79" stop-color="#ff7139"/>
    </radialGradient>
    <radialGradient id="radial-gradient6" cx="-7807.23" cy="8920.83" fx="-7807.23" fy="8920.83" r="118.08" gradientTransform="translate(52454.69 59416.81) scale(6.67 -6.67)" gradientUnits="userSpaceOnUse">
      <stop offset=".11" stop-color="#fff44f"/>
      <stop offset=".46" stop-color="#ff980e"/>
      <stop offset=".62" stop-color="#ff5634"/>
      <stop offset=".72" stop-color="#ff3647"/>
      <stop offset=".9" stop-color="#e31587"/>
    </radialGradient>
    <radialGradient id="radial-gradient7" cx="-7795.03" cy="8751.64" fx="-7795.03" fy="8751.64" r="86.5" gradientTransform="translate(-32337.17 55719.64) rotate(83.98) scale(6.67 -4.38)" gradientUnits="userSpaceOnUse">
      <stop offset="0" stop-color="#fff44f"/>
      <stop offset=".06" stop-color="#ffe847"/>
      <stop offset=".17" stop-color="#ffc830"/>
      <stop offset=".3" stop-color="#ff980e"/>
      <stop offset=".36" stop-color="#ff8b16"/>
      <stop offset=".46" stop-color="#ff672a"/>
      <stop offset=".57" stop-color="#ff3647"/>
      <stop offset=".74" stop-color="#e31587"/>
    </radialGradient>
    <radialGradient id="radial-gradient8" cx="-7829.64" cy="8893.02" fx="-7829.64" fy="8893.02" r="73.72" gradientTransform="translate(52454.69 59416.81) scale(6.67 -6.67)" gradientUnits="userSpaceOnUse">
      <stop offset=".14" stop-color="#fff44f"/>
      <stop offset=".48" stop-color="#ff980e"/>
      <stop offset=".59" stop-color="#ff5634"/>
      <stop offset=".66" stop-color="#ff3647"/>
      <stop offset=".9" stop-color="#e31587"/>
    </radialGradient>
    <radialGradient id="radial-gradient9" cx="-7810.18" cy="8888.71" fx="-7810.18" fy="8888.71" r="80.69" gradientTransform="translate(52454.69 59416.81) scale(6.67 -6.67)" gradientUnits="userSpaceOnUse">
      <stop offset=".09" stop-color="#fff44f"/>
      <stop offset=".23" stop-color="#ffe141"/>
      <stop offset=".51" stop-color="#ffaf1e"/>
      <stop offset=".63" stop-color="#ff980e"/>
    </radialGradient>
    <linearGradient id="linear-gradient1" x1="178.75" y1="372.79" x2="124.01" y2="318.05" gradientTransform="translate(-733.92 2566.69) scale(6.67 -6.67)" gradientUnits="userSpaceOnUse">
      <stop offset=".17" stop-color="#fff44f" stop-opacity=".8"/>
      <stop offset=".27" stop-color="#fff44f" stop-opacity=".63"/>
      <stop offset=".49" stop-color="#fff44f" stop-opacity=".22"/>
      <stop offset=".6" stop-color="#fff44f" stop-opacity="0"/>
    </linearGradient>
  </defs>
  <path class="st11" d="M497.65,178.92c-11.23-27.02-34.01-56.2-51.85-65.43,12.73,24.64,21.56,51.11,26.18,78.46l.05.43c-29.23-72.86-78.79-102.24-119.26-166.22-2.05-3.23-4.1-6.48-6.09-9.9-1.14-1.95-2.05-3.71-2.85-5.34-1.68-3.25-2.97-6.69-3.85-10.24,0-.34-.25-.63-.59-.67-.16-.04-.33-.04-.49,0-.03,0-.09.06-.13.07s-.13.07-.19.1l.1-.17c-64.93,38.02-86.96,108.39-88.98,143.59-25.93,1.78-50.72,11.34-71.14,27.42-2.13-1.8-4.36-3.49-6.67-5.06-5.89-20.62-6.14-42.43-.73-63.18-23.84,11.55-45.03,27.93-62.22,48.09h-.12c-10.24-12.99-9.52-55.8-8.94-64.75-3.03,1.22-5.92,2.75-8.63,4.58-9.04,6.45-17.5,13.7-25.26,21.64-8.85,8.97-16.93,18.67-24.16,28.99v.04-.05c-16.62,23.56-28.41,50.18-34.68,78.32l-.35,1.71c-.49,2.27-2.24,13.67-2.54,16.14,0,.19-.04.37-.06.57-2.26,11.76-3.66,23.67-4.2,35.63v1.33c.12,142.77,115.96,258.4,258.73,258.27,125.73-.11,233.14-90.66,254.51-214.56.43-3.33.79-6.64,1.17-10,5.32-44-.44-88.64-16.77-129.85h0ZM199.72,381.26c1.21.58,2.34,1.21,3.58,1.76l.18.11c-1.25-.6-2.51-1.22-3.76-1.87h0ZM472.03,192.45v-.25l.05.27-.05-.03Z"/>
  <path class="st1" d="M497.65,178.92c-11.23-27.02-34.01-56.2-51.85-65.43,12.73,24.64,21.56,51.11,26.18,78.46v.25l.05.27c19.92,57.01,17.04,119.52-8.04,174.46-29.63,63.57-101.34,128.72-213.58,125.55-121.28-3.43-228.09-93.43-248.06-211.31-3.63-18.59,0-28.01,1.83-43.12-2.49,11.73-3.88,23.68-4.16,35.67v1.33c.12,142.77,115.96,258.4,258.73,258.27,125.73-.11,233.14-90.66,254.51-214.56.43-3.33.79-6.64,1.17-10,5.32-44-.44-88.64-16.77-129.85h0Z"/>
  <path class="st3" d="M497.65,178.92c-11.23-27.02-34.01-56.2-51.85-65.43,12.73,24.64,21.56,51.11,26.18,78.46v.25l.05.27c19.92,57.01,17.04,119.52-8.04,174.46-29.63,63.57-101.34,128.72-213.58,125.55-121.28-3.43-228.09-93.43-248.06-211.31-3.63-18.59,0-28.01,1.83-43.12-2.49,11.73-3.88,23.68-4.16,35.67v1.33c.12,142.77,115.96,258.4,258.73,258.27,125.73-.11,233.14-90.66,254.51-214.56.43-3.33.79-6.64,1.17-10,5.32-44-.44-88.64-16.77-129.85h0Z"/>
  <path class="st7" d="M372.03,209.31c.56.39,1.08.79,1.61,1.18-6.49-11.51-14.58-22.05-24.01-31.31C269.29,98.82,328.58,4.95,338.57.18l.1-.15c-64.93,38.02-86.96,108.39-88.98,143.59,3.01-.21,6-.46,9.08-.46,46.9.09,90.14,25.34,113.26,66.14h0Z"/>
  <path class="st9" d="M258.94,225.35c-.43,6.43-23.14,28.61-31.09,28.61-73.5,0-85.44,44.47-85.44,44.47,3.25,37.44,29.35,68.28,60.89,84.59,1.44.75,2.9,1.42,4.36,2.08,2.53,1.12,5.06,2.16,7.59,3.11,10.82,3.83,22.16,6.02,33.63,6.49,128.83,6.04,153.79-154.06,60.82-200.52,21.93-2.85,44.14,2.54,62.33,15.13-23.12-40.8-66.36-66.05-113.26-66.14-3.07,0-6.07.25-9.08.46-25.93,1.78-50.72,11.34-71.14,27.42,3.94,3.33,8.39,7.79,17.76,17.03,17.54,17.28,62.53,35.18,62.63,37.28Z"/>
  <path class="st8" d="M258.94,225.35c-.43,6.43-23.14,28.61-31.09,28.61-73.5,0-85.44,44.47-85.44,44.47,3.25,37.44,29.35,68.28,60.89,84.59,1.44.75,2.9,1.42,4.36,2.08,2.53,1.12,5.06,2.16,7.59,3.11,10.82,3.83,22.16,6.02,33.63,6.49,128.83,6.04,153.79-154.06,60.82-200.52,21.93-2.85,44.14,2.54,62.33,15.13-23.12-40.8-66.36-66.05-113.26-66.14-3.07,0-6.07.25-9.08.46-25.93,1.78-50.72,11.34-71.14,27.42,3.94,3.33,8.39,7.79,17.76,17.03,17.54,17.28,62.53,35.18,62.63,37.28Z"/>
  <path class="st2" d="M166.5,162.45c2.09,1.33,3.82,2.49,5.34,3.54-5.89-20.62-6.14-42.43-.73-63.18-23.84,11.55-45.03,27.93-62.22,48.09,1.26-.03,38.76-.71,57.61,11.55Z"/>
  <path class="st6" d="M2.36,281.18c19.95,117.88,126.78,207.87,248.06,211.31,112.25,3.17,183.96-61.99,213.58-125.55,25.08-54.94,27.97-117.45,8.04-174.46v-.25c0-.19-.04-.31,0-.25l.05.43c9.17,59.87-21.28,117.88-68.89,157.1l-.15.33c-92.76,75.54-181.53,45.58-199.5,33.35-1.25-.6-2.51-1.22-3.76-1.87-54.08-25.85-76.42-75.12-71.64-117.38-26.23.39-50.22-14.71-61.23-38.52,28.87-17.68,64.84-19.13,95.03-3.81,30.61,13.9,65.45,15.27,97.05,3.81-.1-2.1-45.09-20.01-62.63-37.28-9.37-9.24-13.82-13.69-17.76-17.03-2.13-1.8-4.36-3.49-6.67-5.06-1.53-1.05-3.26-2.18-5.34-3.54-18.85-12.26-56.35-11.58-57.59-11.55h-.12c-10.24-12.99-9.52-55.8-8.94-64.75-3.03,1.22-5.92,2.75-8.63,4.58-9.04,6.45-17.5,13.7-25.26,21.64-8.88,8.95-17,18.62-24.26,28.93v.04-.05c-16.62,23.56-28.41,50.18-34.68,78.32-.13.53-9.31,40.68-4.78,61.5h0Z"/>
  <path class="st4" d="M349.64,179.17c9.44,9.27,17.52,19.82,24.01,31.35,1.42,1.07,2.75,2.14,3.87,3.17,58.6,54.02,27.9,130.39,25.61,135.82,47.61-39.22,78.03-97.23,68.89-157.1-29.24-72.9-78.8-102.28-119.28-166.25-2.05-3.23-4.1-6.48-6.09-9.9-1.14-1.95-2.05-3.71-2.85-5.34-1.68-3.25-2.97-6.69-3.85-10.24,0-.34-.25-.63-.59-.67-.16-.04-.33-.04-.49,0-.03,0-.09.06-.13.07s-.13.07-.19.1c-10,4.74-69.28,98.61,11.07,178.97h0Z"/>
  <path class="st5" d="M377.49,213.66c-1.13-1.03-2.45-2.1-3.87-3.17-.53-.39-1.05-.79-1.61-1.18-18.18-12.59-40.39-17.99-62.33-15.13,92.97,46.49,68.03,206.57-60.82,200.52-11.47-.47-22.81-2.66-33.63-6.49-2.53-.95-5.06-1.98-7.59-3.11-1.46-.67-2.92-1.33-4.36-2.08l.18.11c17.97,12.27,106.71,42.23,199.5-33.35l.15-.33c2.31-5.4,33.02-81.79-25.61-135.79Z"/>
  <path class="st10" d="M142.42,298.42s11.93-44.47,85.44-44.47c7.94,0,30.68-22.18,31.09-28.61-31.61,11.45-66.44,10.08-97.05-3.81-30.19-15.31-66.17-13.87-95.03,3.81,11.01,23.81,35,38.9,61.23,38.52-4.79,42.26,17.55,91.54,71.64,117.38,1.21.58,2.34,1.21,3.58,1.76-31.57-16.31-57.63-47.15-60.89-84.59h0Z"/>
  <path class="st0" d="M497.65,178.92c-11.23-27.02-34.01-56.2-51.85-65.43,12.73,24.64,21.56,51.11,26.18,78.46l.05.43c-29.23-72.86-78.79-102.24-119.26-166.22-2.05-3.23-4.1-6.48-6.09-9.9-1.14-1.95-2.05-3.71-2.85-5.34-1.68-3.25-2.97-6.69-3.85-10.24,0-.34-.25-.63-.59-.67-.16-.04-.33-.04-.49,0-.03,0-.09.06-.13.07s-.13.07-.19.1l.1-.17c-64.93,38.02-86.96,108.39-88.98,143.59,3.01-.21,6-.46,9.08-.46,46.9.09,90.14,25.34,113.26,66.14-18.18-12.59-40.39-17.99-62.33-15.13,92.97,46.49,68.03,206.57-60.82,200.52-11.47-.47-22.81-2.66-33.63-6.49-2.53-.95-5.06-1.98-7.59-3.11-1.46-.67-2.92-1.33-4.36-2.08l.18.11c-1.25-.6-2.51-1.22-3.76-1.87,1.21.58,2.34,1.21,3.58,1.76-31.57-16.31-57.63-47.15-60.89-84.59,0,0,11.93-44.47,85.44-44.47,7.94,0,30.68-22.18,31.09-28.61-.1-2.1-45.09-20.01-62.63-37.28-9.37-9.24-13.82-13.69-17.76-17.03-2.13-1.8-4.36-3.49-6.67-5.06-5.89-20.62-6.14-42.43-.73-63.18-23.84,11.55-45.03,27.93-62.22,48.09h-.12c-10.24-12.99-9.52-55.8-8.94-64.75-3.03,1.22-5.92,2.75-8.63,4.58-9.04,6.45-17.5,13.7-25.26,21.64-8.85,8.97-16.93,18.67-24.16,28.99v.04-.05c-16.62,23.56-28.41,50.18-34.68,78.32l-.35,1.71c-.49,2.27-2.67,13.83-2.98,16.31,0,.19,0-.19,0,0-1.99,11.92-3.27,23.96-3.81,36.03v1.33c.12,142.77,115.96,258.4,258.73,258.27,125.73-.11,233.14-90.66,254.51-214.56.43-3.33.79-6.64,1.17-10,5.32-44-.44-88.64-16.77-129.85h0ZM472,192.2l.05.27-.05-.27Z"/>
</svg>