<?xml version="1.0" encoding="UTF-8"?>
<svg id="Layer_1" xmlns="http://www.w3.org/2000/svg" width="241.56" height="283.47" version="1.1" xmlns:xlink="http://www.w3.org/1999/xlink" viewBox="0 0 241.56 283.47">
  <!-- Generator: Adobe Illustrator 30.0.0, SVG Export Plug-In . SVG Version: 2.1.1 Build 123)  -->
  <defs>
    <style>
      .st0 {
        fill: #fff;
      }

      .st1 {
        fill: url(#linear-gradient1);
      }

      .st2 {
        fill: url(#linear-gradient);
      }
    </style>
    <linearGradient id="linear-gradient" x1="155.87" y1="279.58" x2="277.63" y2="279.58" gradientTransform="translate(-309.23 792.61) scale(1.98 -2.33)" gradientUnits="userSpaceOnUse">
      <stop offset="0" stop-color="#f50"/>
      <stop offset=".41" stop-color="#f50"/>
      <stop offset=".58" stop-color="#ff2000"/>
      <stop offset="1" stop-color="#ff2000"/>
    </linearGradient>
    <linearGradient id="linear-gradient1" x1="286.37" y1="461.84" x2="332.47" y2="461.84" gradientTransform="translate(-1193.06 527.14) scale(4.25 -1.09)" gradientUnits="userSpaceOnUse">
      <stop offset="0" stop-color="#ff452a"/>
      <stop offset="1" stop-color="#ff2000"/>
    </linearGradient>
  </defs>
  <path class="st2" d="M232.96,67.91l6.66-16.33s-8.38-9.03-18.7-19.34c-10.32-10.32-32.02-4.3-32.02-4.3L164.19,0h-87.04l-24.71,28.15s-21.71-6.02-32.02,4.3S1.72,51.79,1.72,51.79l6.66,16.33L0,92.2s24.93,94.13,27.72,105.74c5.8,22.57,9.67,31.38,26,42.98,16.33,11.61,45.78,31.38,50.72,34.39,4.73,3.01,10.96,8.17,16.33,8.17s11.39-5.16,16.33-8.17c4.73-3.01,34.39-23,50.72-34.39s20.2-20.2,26-42.98c3.01-11.61,27.72-105.74,27.72-105.74l-8.6-24.28Z"/>
  <path class="st0" d="M182.03,45.99s31.81,38.47,31.81,46.85-4.08,10.32-8.17,14.61-21.71,23-23.85,25.36c-2.36,2.36-6.88,6.02-4.3,12.68,2.79,6.45,6.88,14.83,2.36,23.43-4.51,8.38-12.25,14.18-17.19,13.11-4.94-.86-16.76-7.09-21.06-9.89-4.3-2.79-17.84-13.97-17.84-18.27s14.18-12.03,16.76-13.75,14.4-8.6,14.61-11.18c.21-2.58.21-3.44-3.44-10.1-3.44-6.66-9.89-15.47-8.81-21.28s11.18-8.81,18.48-11.61c7.31-2.79,21.28-7.95,23-8.81s1.29-1.5-4.08-2.15c-5.37-.43-20.2-2.58-27.08-.64s-18.27,4.73-19.34,6.23c-.86,1.5-1.72,1.5-.86,6.88.86,5.16,6.02,30.52,6.45,35.03s1.5,7.52-3.44,8.6c-4.73,1.07-12.89,3.01-15.69,3.01s-10.96-1.93-15.69-3.01-3.87-4.08-3.44-8.6,5.37-29.66,6.45-35.03c.86-5.16.21-5.37-.86-6.88-.86-1.5-12.46-4.3-19.34-6.23s-21.71,0-27.08.64c-5.37.43-5.8,1.29-4.08,2.15,1.72.86,15.69,6.02,23,8.81s17.41,5.8,18.48,11.61-5.16,14.61-8.81,21.28c-3.44,6.66-3.65,7.31-3.44,10.1.21,2.58,12.03,9.46,14.61,11.18s16.76,9.46,16.76,13.75-13.54,15.47-17.84,18.27-15.9,8.81-21.06,9.89c-4.94.86-12.68-4.73-17.19-13.11s-.43-16.76,2.36-23.43c2.79-6.45-1.93-10.1-4.3-12.68-1.72-2.58-19.13-21.28-23.21-25.36-4.08-4.3-7.95-6.45-7.95-14.61s31.81-46.85,31.81-46.85c0,0,26.86,5.16,30.52,5.16s11.39-3.01,18.7-5.37,12.03-2.36,12.03-2.36c0,0,4.73,0,12.03,2.36s15.04,5.37,18.7,5.37,30.52-5.16,30.52-5.16Z"/>
  <path class="st0" d="M158.17,193.2c1.93,1.29.86,3.65-1.07,4.73-1.72,1.29-26,19.99-28.15,22.14-2.36,2.15-5.8,5.37-8.17,5.37s-5.8-3.44-8.17-5.37c-2.36-2.15-26.43-20.85-28.15-22.14-1.72-1.29-3.01-3.65-1.07-4.73,1.93-1.29,8.17-4.3,16.55-8.81,8.6-4.51,19.13-8.17,20.85-8.17s12.25,3.65,20.85,8.17c8.38,4.51,14.4,7.74,16.55,8.81Z"/>
  <path class="st1" d="M188.91,28.15L164.19,0h-87.04l-24.71,28.15s-21.71-6.02-32.02,4.3c0,0,29.01-2.58,38.9,13.54,0,0,26.86,5.16,30.52,5.16s11.39-3.01,18.7-5.37,12.03-2.36,12.03-2.36c0,0,4.73,0,12.03,2.36,7.31,2.36,15.04,5.37,18.7,5.37s30.52-5.16,30.52-5.16c9.89-16.12,38.9-13.54,38.9-13.54-10.1-10.32-31.81-4.3-31.81-4.3"/>
</svg>