<?xml version="1.0" encoding="utf-8"?>
<!-- Generator: Adobe Illustrator 27.5.0, SVG Export Plug-In . SVG Version: 6.00 Build 0)  -->
<svg version="1.1" xmlns="http://www.w3.org/2000/svg" xmlns:xlink="http://www.w3.org/1999/xlink" x="0px" y="0px"
	 width="36px" height="28.8px" viewBox="0 0 36 28.8" style="enable-background:new 0 0 36 28.8;" xml:space="preserve">
<path style="fill:#FFFFFF;" d="M29.5,4.8h-4.4v4.8h4.4c1,0,1.7,0.7,1.7,1.7v10.9c0,1-0.7,1.7-1.7,1.7h-23c-1,0-1.7-0.7-1.7-1.7V11.3
	c0-1,0.7-1.7,1.7-1.7h3v4.8L22,7.2L9.5,0v4.8h-3C2.8,4.8,0,7.6,0,11.3v10.9c0,3.7,2.9,6.5,6.5,6.5h23c3.7,0,6.5-2.9,6.5-6.5V11.3
	C36,7.6,33.2,4.8,29.5,4.8z"/>
</svg>
