<?xml version="1.0" encoding="utf-8"?>
<!-- Generator: Adobe Illustrator 27.9.1, SVG Export Plug-In . SVG Version: 6.00 Build 0)  -->
<svg version="1.1" xmlns="http://www.w3.org/2000/svg" xmlns:xlink="http://www.w3.org/1999/xlink" x="0px" y="0px"
	 viewBox="0 0 82.1 133.6" style="enable-background:new 0 0 82.1 133.6;" xml:space="preserve">
<g>
	<path d="M44.9,0.2C24.5-1.9,6,10.4,1.3,29.3c-3.5,14,0.5,26.8,6.7,39.3c5.7,11.5,14.4,21.5,17.1,34.5
		c0.5,2.2,2.2,3.4,4.4,3.4c2,0,3.7-1.2,4-3.2c0.9-7.1,5.4-12.3,8.7-18.2c3.7-4.7,7.4-9.3,11-14.1c4.8-6.5,9.5-13.2,12.3-20.9
		c7.6-21.2-8.5-37.3-27.3-35c-10.5,0.7-19,7.4-22.2,17.7c-3,9.6,0.6,24.7,7.2,30.1c6.3,5.1,14.8,3.4,18.7-3.7c2.7-5,3-10.5,3-16
		c0-2.9-1.5-5-4.4-4.9c-2.9,0.1-4.4,2.1-4.3,5c0,3.2,0,6.3-0.9,9.4c-0.6,1.9-1.3,3.9-3.7,4.2c-2.3,0.2-3.7-1.3-4.6-3.2
		C21,42.3,21.4,27.3,38,23.3c18.9-0.8,25.1,14.1,17,28.6c-4.1,7.4-9.7,13.7-14,20.9c-4.6,4.4-7.1,10.5-11.8,15.3
		c-5.3-10.5-12.1-19.8-16.5-30.4c-4.1-10-5.9-20.2-1.4-30.4C17.7,12.8,29.9,8,44.9,8.7c1.3,0.3,2.6,0.6,3.9,0.9
		c16.2,3.8,24.7,14.8,24.3,31.5c-0.3,10.2-4.9,18.8-10.4,27c-8.2,12.2-15.1,24.9-16.8,39.7c-4.8,0-9.7,0.1-14.5,0
		c-2.9,0-4.9,1-5.3,4.1c-1.3,10.4,3.3,15.2,13.9,14.6c2.6,0.1,5.3,0.3,7.8,0.1c2.3-0.2,4-1.8,4-4.2c0-2.4-1.6-4.1-4-4.3
		c-2.6-0.2-5.2,0-7.8,0.1c-1.1-0.5-2.6,0.5-3.8-1.3c3.8-0.2,7.2-0.4,10.7-0.5c5.9,0.4,7.7-0.6,7.8-5.4c0.4-11.2,4.6-20.9,10.4-30.2
		c5-8,10.5-15.7,13.8-24.7C89.3,28.6,73.5,2.8,44.9,0.2z"/>
	<path d="M42.2,128.5c-2-0.2-4-0.2-5.9,0c-1.2,0.1-3-0.8-3.3,1.1c-0.3,1.7,1.1,2.7,2.6,3.2c1.2,0.4,2.6,0.5,3.9,0.8
		c1.2-0.2,2.3-0.4,3.4-0.6c1.7-0.4,3.4-1.4,3.1-3.3C45.5,127.6,43.5,128.7,42.2,128.5z"/>
	<path d="M37.3,36.7c0.7,0.2,1.4-0.9,1-1.8c-0.8-2.1-0.6-4.8-3-5.9c-1-0.4-1.3,0.7-1.4,1.9
		C35.1,32.6,34.4,35.8,37.3,36.7z"/>
	<path d="M52.6,35.7c-2.1,0.7-4.5,1.1-5.7,3.3c-0.4,0.8,0.5,1.8,1.3,1.5c2.2-0.9,4.8-1.2,6.1-3.4
		C54.2,35.8,53.5,35.4,52.6,35.7z"/>
	<path d="M28.7,49.4c1.8-1.4,4.9-1,5.9-3.7c0.3-0.8-0.8-1.4-1.7-1.1c-2.1,0.7-4.6,1-5.8,3.2
		C26.7,48.8,27.7,49.2,28.7,49.4z"/>
	<path d="M33,41c0.8,0.2,1.6-0.3,1.6-1.6c-1.6-1.9-4.1-2.2-6.5-2.6c-0.9-0.1-1.7,0.7-1.2,1.6C28.3,40.4,30.8,40.6,33,41
		z"/>
	<path d="M47,45.1c1,2.5,3.7,2.4,5.8,3.2c1.1,0.4,2.4-0.5,1.8-1.5c-1.2-2.2-3.9-2.1-5.7-3C47.7,43.8,46.7,44.1,47,45.1z
		"/>
	<path d="M45.7,28.9c-2.9,0.9-2.5,3.8-3.4,6c-0.3,0.8,0.4,1.5,1.6,1.7c1.9-1.4,2.1-3.8,2.8-5.9
		C47.1,29.8,46.6,28.6,45.7,28.9z"/>
</g>
</svg>
