<?xml version="1.0" encoding="utf-8"?>
<!-- Generator: Adobe Illustrator 27.5.0, SVG Export Plug-In . SVG Version: 6.00 Build 0)  -->
<svg version="1.1" xmlns="http://www.w3.org/2000/svg" xmlns:xlink="http://www.w3.org/1999/xlink" x="0px" y="0px"
	 width="316.7px" height="154.9px" viewBox="0 0 316.7 154.9" style="enable-background:new 0 0 316.7 154.9;" xml:space="preserve"
	>
<path style="fill:#FFFFFF;" d="M182.7,65.5l34.7-34.7c5.7-5.7,5.7-14.8,0-20.5l0,0c-5.7-5.7-14.8-5.7-20.5,0L162.2,45
	c-5.7,5.7-5.7,14.8,0,20.5l0,0C167.9,71.1,177.1,71.1,182.7,65.5z"/>
<path style="fill:#FFFFFF;" d="M93.3,113.8L93.3,113.8L30.8,51.3c-5.7-5.7-14.8-5.7-20.5,0l0,0c-5.7,5.7-5.7,14.8,0,20.5l72.8,72.8
	c5.7,5.7,14.8,5.7,20.5,0l9.9-9.9c5.7-5.7,5.7-14.8,0-20.5l-0.4-0.4C107.6,108.4,98.8,108.4,93.3,113.8z"/>
<path style="fill:#FFFFFF;" d="M182.3,113.8l-62.6-62.6c-5.7-5.7-14.8-5.7-20.5,0l0,0c-5.7,5.7-5.7,14.8,0,20.5l72.8,72.8
	c5.7,5.7,14.8,5.7,20.5,0L306.4,30.8c5.7-5.7,5.7-14.8,0-20.5l0,0c-5.7-5.7-14.8-5.7-20.5,0L182.3,113.8z"/>
</svg>
