<svg xmlns="http://www.w3.org/2000/svg" width="76" height="26" fill="none" viewBox="0 0 76 26">
  <path fill-rule="evenodd" clip-rule="evenodd" d="M27.822 9.51c-1.712-1.557-3.79-2.335-6.233-2.335-3.837-.028-4.743.897-5.658 1.813a.39.39 0 01-.575-.027c-.762-.902-1.644-1.786-4.648-1.786-4.51 0-4.536 2.461-4.521.804a.399.399 0 00-.4-.403H.867a.402.402 0 00-.402.402V25.25c0 .222.18.402.402.402h7.23c.222 0 .402-.18.402-.402v-8.903c0-.023.002-.045.003-.066.036-.397-.099-2.377 1.653-2.377s1.657 1.958 1.657 2.41v8.936c0 .222.18.402.402.402h6.728c.222 0 .402-.18.402-.402v-8.936c0-.402-.1-2.41 1.656-2.41 1.758 0 1.657 1.908 1.657 2.41v8.938c0 .222.18.4.402.4h6.93c.221 0 .4-.18.4-.402V15.09c0-2.18-.855-4.04-2.567-5.58zm17.563 10.286a.308.308 0 00-.423-.225c-1.757.736-3.398 1.103-4.923 1.103-1.053 0-1.902-.179-2.547-.538-.554-.327-.975-.822-1.265-1.483-.077-.176.043-.37.234-.395l10.191-1.325a.272.272 0 00.242-.23 6.02 6.02 0 00.035-.73c0-1.65-.31-3.133-.933-4.449a7.108 7.108 0 00-2.835-3.158c-1.244-.79-2.75-1.184-4.52-1.184-1.771 0-3.518.383-5.025 1.148a8.927 8.927 0 00-3.16 2.64.304.304 0 00-.032.304c.493 1.14.87 2.737.87 5.345v6.104c0 .081.033.16.091.215a9.705 9.705 0 002.195 1.576c1.555.79 3.326 1.184 5.311 1.184 2.568 0 4.934-.458 7.1-1.375a.3.3 0 00.176-.332l-.782-4.195zm-9.56-5.177c.075-.854.331-1.563.769-2.126.502-.646 1.184-.969 2.046-.969 1.336 0 2.216.653 2.64 1.96a.29.29 0 01-.22.368l-4.878 1.07a.29.29 0 01-.357-.303zM75.578.8l-6.965 1.022a.304.304 0 00-.259.3v7.493c0 .338-.572.466-.764.187a5.015 5.015 0 00-1.676-1.554c-1.077-.646-2.201-.969-3.373-.969-1.651 0-3.146.395-4.486 1.184a8.527 8.527 0 00-3.194 3.194c-.765 1.364-1.148 2.954-1.148 4.773 0 1.818.383 3.433 1.148 4.844.79 1.412 1.854 2.524 3.194 3.337 1.34.79 2.835 1.185 4.486 1.185 1.435 0 2.631-.311 3.588-.933a6.099 6.099 0 001.627-1.567c.188-.261.67-.136.67.186v1.723c0 .167.135.304.303.304h6.893a.304.304 0 00.304-.304V1.1a.303.303 0 00-.348-.3zm-8.193 18.285a3.422 3.422 0 01-2.512 1.04c-.98 0-1.89-.346-2.584-1.04-.693-.694-1.04-1.543-1.04-2.548 0-1.004.347-1.854 1.04-2.548.694-.693 1.555-1.04 2.584-1.04 1.029 0 1.818.335 2.512 1.005.694.645 1.04 1.483 1.04 2.511 0 1.03-.346 1.902-1.04 2.62z" fill="#fff"></path>
  <path fill-rule="evenodd" clip-rule="evenodd" d="M54.106 21.605l-.001-.003-.002-.003a10.619 10.619 0 01-1.275-5.062c0-1.06.14-2.076.422-3.044a.306.306 0 00.012-.087V1.1a.304.304 0 00-.348-.3L45.95 1.822a.304.304 0 00-.26.3v7.21c0 .068.024.136.067.19a8.4 8.4 0 011.002 1.643c.697 1.477 1.035 3.119 1.035 4.905 0 .44-.022.865-.104 1.193l-.127.508a.304.304 0 01-.256.228l-1.041.135a.304.304 0 00-.26.357l.889 4.764a.29.29 0 00.046.112c.124.183.257.358.4.526 1.124 1.268 2.703 1.902 4.737 1.902 1.544 0 2.973-.247 4.286-.739.216-.08.255-.365.08-.516-.942-.82-1.723-1.8-2.338-2.935z" fill="#fff"></path>
</svg>