<?xml version="1.0" encoding="utf-8"?>
<!-- Generator: Adobe Illustrator 27.6.1, SVG Export Plug-In . SVG Version: 6.00 Build 0)  -->
<svg version="1.1" xmlns="http://www.w3.org/2000/svg" xmlns:xlink="http://www.w3.org/1999/xlink" x="0px" y="0px"
	 width="489.3px" height="252.9px" viewBox="0 0 489.3 252.9" style="enable-background:new 0 0 489.3 252.9;" xml:space="preserve"
	>
<path style="fill:#FFFFFF;" d="M478.9,108.5l-109-62.9c-13.9-8-31.2,2-31.2,18v34.6h-83.2L165.9,0L28.9,0C13.5,0,0.4,12.1,0,27.5
	c-0.4,16,12.4,29.1,28.3,29.1h112.5l63.7,69.8l-63.7,69.8H28.9c-15.4,0-28.5,12.1-28.9,27.5c-0.4,16,12.4,29.1,28.3,29.1h137.5
	l89.6-98.1h83.2v34.6c0,16,17.3,26,31.2,18l109-62.9C492.8,136.5,492.8,116.5,478.9,108.5z"/>
</svg>
