<?xml version="1.0" encoding="utf-8"?>
<!-- Generator: Adobe Illustrator 27.6.1, SVG Export Plug-In . SVG Version: 6.00 Build 0)  -->
<svg version="1.1" xmlns="http://www.w3.org/2000/svg" xmlns:xlink="http://www.w3.org/1999/xlink" x="0px" y="0px"
	 width="383.9px" height="473.7px" viewBox="0 0 383.9 473.7" style="enable-background:new 0 0 383.9 473.7;" xml:space="preserve"
	>
<g>
	<path style="fill:#FFFFFF;" d="M377,378.5l-68-68c17-25.2,27-55.5,27-88.1c-0.1-5.4-3.1-10.3-7.8-13c-4.7-2.7-10.4-2.7-15.1,0
		s-7.6,7.6-7.8,13c0,24.1-6.8,46.7-18.5,65.9l-24.3-24.3c5.1-11.4,7.9-24,7.9-37.4V91.9c0-41.1-41.1-91.9-91.9-91.9
		c-49.6,0-90,39.2-91.8,88.2l-47-47c-2.3-2.3-4.9-4-7.7-5.1c-2.8-1.1-5.8-1.7-8.8-1.7c-6,0-11.9,2.3-16.5,6.8
		c-1.1,1.1-2.1,2.4-3,3.7c-5.1,7.8-5.1,17.9,0,25.6c0.9,1.3,1.8,2.5,3,3.7l337.3,337.3c4.5,4.5,10.5,6.8,16.5,6.8c3,0,6-0.6,8.8-1.7
		c0.7-0.3,1.4-0.6,2.1-1c1.4-0.7,2.6-1.6,3.9-2.6c0.6-0.5,1.2-1,1.8-1.6l0,0C386.1,402.4,386.1,387.6,377,378.5z"/>
	<path style="fill:#FFFFFF;" d="M267.9,450.3l-5-5c-2.3-1.4-4.9-2.3-7.7-2.4h-61.3v-63.7c0.9-0.1,1.8-0.2,2.7-0.3l-30.2-30.2
		C106,343.1,57.9,295,52.2,234.6l-24.7-24.7c-0.7,0.5-1.4,1.1-2,1.7c-2.9,2.9-4.5,6.8-4.5,10.8c0,81.7,62.5,149.1,142.3,156.8v63.7
		H102c-4.1-0.1-8.1,1.5-11.1,4.4c-3,2.9-4.6,6.8-4.6,11c0,4.1,1.7,8.1,4.6,11c3,2.9,7,4.5,11.1,4.4h153.2c5.4-0.1,10.3-3.1,13-7.8
		c2.7-4.7,2.7-10.4,0-15.1C268.1,450.6,268,450.5,267.9,450.3z"/>
</g>
</svg>
