<?xml version="1.0" encoding="utf-8"?>
<!-- Generator: Adobe Illustrator 27.5.0, SVG Export Plug-In . SVG Version: 6.00 Build 0)  -->
<svg version="1.1" xmlns="http://www.w3.org/2000/svg" xmlns:xlink="http://www.w3.org/1999/xlink" x="0px" y="0px"
	 width="315.2px" height="473.6px" viewBox="0 0 315.2 473.6" style="enable-background:new 0 0 315.2 473.6;" xml:space="preserve"
	>
<g>
	<path style="fill:#FFFFFF;" d="M157.6,0c50.8,0,91.9,50.8,91.9,91.9v134.8c0,50.8-41.2,91.9-91.9,91.9s-91.9-50.8-91.9-91.9V91.9
		C65.6,41.2,106.8,0,157.6,0L157.6,0z"/>
</g>
<g>
	<path style="fill:#FFFFFF;" d="M15.3,207.1c-4.1,0-8,1.6-10.8,4.5c-2.9,2.9-4.5,6.8-4.5,10.8c0,81.7,62.5,149.1,142.3,156.8v63.7
		H81c-4.1-0.1-8.1,1.5-11.1,4.4s-4.6,6.8-4.6,11c0,4.1,1.7,8.1,4.6,11c3,2.9,7,4.5,11.1,4.4h153.2c5.4-0.1,10.3-3.1,13-7.8
		c2.7-4.7,2.7-10.4,0-15.1s-7.6-7.6-13-7.8h-61.3v-63.7c79.7-7.7,142.2-75.1,142.2-156.8c-0.1-5.4-3.1-10.3-7.8-13
		c-4.7-2.7-10.4-2.7-15.1,0s-7.6,7.6-7.8,13c0,70-56.9,126.9-126.9,126.9S30.6,292.5,30.6,222.5c0-4.1-1.6-8-4.5-10.8
		C23.3,208.7,19.4,207.1,15.3,207.1L15.3,207.1z"/>
</g>
</svg>
