<?xml version="1.0" encoding="UTF-8"?>
<svg xmlns="http://www.w3.org/2000/svg" version="1.1" viewBox="0 0 164.1 164.3">
	<path d="M78.3,0c2.4,0,4.8,0,7.2,0,7.6.8,15.6,1.4,22.7,4.5,15.5,10.9,22.3,38.6,2.9,49,18.4-3.8,21.3-27.5,13.2-41.7,0,0,.1,0,.2,0,3.1,1.9,6.1,4,8.9,6.3.2.1.3.4.3.6,3.9,15.2-4.7,36.3-22.8,35,.2,0,.2.1.3.2,16.8,5.6,30.9-12,30.9-27.7,0,0,.2.1.2.2,2.2,2.8,5.4,5.5,6.6,8.7-3.9,15.7-22.9,29.1-38,19,.3.4.3.5.5.7,13.2,13.7,35.6,3.8,43.1-11.2.1.2.2.3.2.4,1.2,2.7,2.4,5.4,3.7,8,.2.4.1.7-.2,1-11.2,14.4-37.9,20-47.7,1.3,1.9,12.4,15.8,18.8,27.3,17.4,8.7-.7,16.8-4.9,23.4-10.5,0,.1.1.2.1.3.5,2.3,1,4.6,1.5,6.9.3,1.2-1.1,1.4-1.8,2-17,12.3-51,10.1-51-16.1,0,0,0,0,0,0,0,0,0,.2-.1.2-5.5,16.8,12.1,30.9,27.7,30.8,6.8.1,13.8-1.2,20-4,2-.9,3.8-1.9,5.8-2.9.2,0,.4-.3.5,0v7.2c0,.7-.1,1.4-.2,2.1-9.5,5.8-22.4,7.4-33.4,4.8-16.4-3.3-31-22.8-20.6-38.5-.2.2-.4.3-.5.4-15.2,14.5-2.3,39,14.9,45.1,12,5.1,25.6,4.2,37.9.3,0,.2,0,.3,0,.4-1,2.7-2.6,13.4-5.5,13.5-1.8,0-3.6.3-5.4.4-16,.5-33-4.1-44-16.3-11.8-11.8-14.3-35.6,2.5-44.1-.2,0-.4,0-.5,0-20.2,4.9-20.8,31.9-10,46.1,11.5,16.9,31.9,24.7,51.4,27.3,0,0,0,.2-.1.2-2.6,3.9-5.5,7.6-8.7,11-.2.2-.4.2-.7.1-25.9-9.4-55.5-29.2-54.8-59.9.1-12.4,9.4-26,22.8-25.4.3,0,.5,0,.9,0-13.7-5.2-27.2,6.8-30.1,19.8-2.4,9.1-1,18.9,2.7,27.4,9.5,22,31.2,35.2,52.3,44.3-.2.1-.2.2-.3.3-3,2.5-6.2,4.8-9.5,6.9-21.5-11.4-43.5-28.1-52-52-3.5-10.1-4-21.5.1-31.6,5.2-14.1,23-24.8,36.8-15.6h0c-9.3-10.8-26.3-8.3-35.9.8-11.5,10.3-15.1,27-12.3,41.7,4.7,26.6,24.5,46.8,43.1,64.9.1.1.3.2.5.3,0,0-.1.1-.2.2-.2,0-.3.1-.5.2-5.5,1.6-11.1,2.6-16.8,3-.8,0-1.5.1-2.3.2h-7.2c-1.7-.6-6,.2-6.9-1.2,0-.1,0-.3-.1-.4-11.3-27.1-26.6-55.7-19.8-85.9,3.4-15.8,14.4-31.1,30.7-35.1,10.6-2.8,23.3,1,28.2,11.4-2.7-15.4-21.2-20.7-34.5-16.3-13.9,4.1-24.6,15.6-30.8,28.3-12.7,26.2-9,56.1-10.2,84.3-.2-.1-.4-.2-.5-.3-9.3-6.9-18.2-15.6-23.3-26,5.8-13.9,10.3-28.2,15.8-42.2,7.3-18.5,18.8-36.9,36.9-46.4,16.6-10,47.7-5.3,46.9,18.5.1,0,.2-.2.2-.3,5.5-16.9-12.4-31.1-28.2-30.8-14.2-.3-27.7,6.6-37.7,16.3C24.2,57.8,16.8,86,5,111c-2.7-7.4-4.5-15.1-5-22.9.6-2.2,2.4-4,3.4-6.1,14-23.7,27.8-50.4,53.6-63,11.2-5.5,24.5-7.6,36.4-3.4,15,4.5,27.2,23.1,17.4,37.5h.2c12.5-11,7-31-5.3-40-8.7-6.9-20.2-9.7-31.2-8.9-25.3,1.6-45.9,18.6-63.1,35.8C25,16.5,51.2,1.2,78.3,0Z"/>
</svg>
