<?xml version="1.0" encoding="utf-8"?>
<!-- Generator: Adobe Illustrator 27.8.1, SVG Export Plug-In . SVG Version: 6.00 Build 0)  -->
<svg version="1.1" xmlns="http://www.w3.org/2000/svg" xmlns:xlink="http://www.w3.org/1999/xlink" x="0px" y="0px"
	 viewBox="0 0 84 84" style="enable-background:new 0 0 84 84;" xml:space="preserve">
<circle cx="42" cy="42" r="6.9"/>
<path d="M83.1,40.3l-14-10.5c-1.4-1.1-3.4-0.1-3.4,1.7v3.6h-9.1c-1.2,0-2.1,1-2.1,2.1v9.5c0,1.2,1,2.1,2.1,2.1h9.1v3.7
	c0,1.8,2,2.8,3.4,1.7l14-10.5C84.3,42.9,84.3,41.2,83.1,40.3z"/>
<path d="M40.3,0.9l-10.5,14c-1.1,1.4-0.1,3.4,1.7,3.4h3.6v9.1c0,1.2,1,2.1,2.1,2.1h9.5c1.2,0,2.1-1,2.1-2.1v-9.1h3.7
	c1.8,0,2.8-2,1.7-3.4l-10.5-14C42.9-0.3,41.2-0.3,40.3,0.9z"/>
<path d="M0.9,43.7l14,10.5c1.4,1.1,3.4,0.1,3.4-1.7v-3.6h9.1c1.2,0,2.1-1,2.1-2.1v-9.5c0-1.2-1-2.1-2.1-2.1h-9.1v-3.7
	c0-1.8-2-2.8-3.4-1.7l-14,10.5C-0.3,41.1-0.3,42.8,0.9,43.7z"/>
<path d="M43.7,83.1l10.5-14c1.1-1.4,0.1-3.4-1.7-3.4h-3.6v-9.1c0-1.2-1-2.1-2.1-2.1h-9.5c-1.2,0-2.1,1-2.1,2.1v9.1h-3.7
	c-1.8,0-2.8,2-1.7,3.4l10.5,14C41.1,84.3,42.8,84.3,43.7,83.1z"/>
</svg>
