<?xml version="1.0" encoding="utf-8"?>
<!-- Generator: Adobe Illustrator 27.5.0, SVG Export Plug-In . SVG Version: 6.00 Build 0)  -->
<svg version="1.1" xmlns="http://www.w3.org/2000/svg" xmlns:xlink="http://www.w3.org/1999/xlink" x="0px" y="0px"
	 width="432.4px" height="449.5px" viewBox="0 0 432.4 449.5" style="enable-background:new 0 0 432.4 449.5;" xml:space="preserve"
	>
<path style="fill:#FFFFFF;" d="M87.6,449.5c48.3,0,88.1-36.5,88.1-81V163.9l188.5-14.2v120.8c-6.6-1.4-13.3-2.4-19.9-2.4
	c-48.3,0-88.1,36.5-88.1,81s39.3,81,88.1,81s88.1-36.5,88.1-81V33.7c0-9.5-3.8-18.5-10.9-24.6c-7.1-6.6-16.1-9.5-25.6-9L139.2,19
	C121.7,20.4,108,35.1,108,52.6v237.3c-6.6-1.4-13.3-2.4-19.9-2.4C39.3,287.5,0,324,0,368.5S39.3,449.5,87.6,449.5L87.6,449.5z"/>
</svg>
