<?xml version="1.0" encoding="utf-8"?>
<!-- Generator: Adobe Illustrator 27.5.0, SVG Export Plug-In . SVG Version: 6.00 Build 0)  -->
<svg version="1.1" xmlns="http://www.w3.org/2000/svg" xmlns:xlink="http://www.w3.org/1999/xlink" x="0px" y="0px"
	 width="283.6px" height="230.4px" viewBox="0 0 283.6 230.4" style="enable-background:new 0 0 283.6 230.4;" xml:space="preserve"
	>
<path style="fill:#FFFFFF;" d="M135.4,1.2c-4.3-1.9-9-1.4-12.3,0.9L49.3,58.9H35.5C16.1,58.9,0,75,0,94.5v47.4
	c0,19.4,16.1,35.5,35.5,35.5h14.2l73.9,51.1c3.6,2.5,8.4,2.4,12.3,0.5c3.8-1.9,6.2-6.2,6.2-10.4v-207C142.1,7.3,139.7,3.1,135.4,1.2
	L135.4,1.2z"/>
<path style="fill:#FFFFFF;" d="M233,118.2l34-34c4.6-4.6,4.6-12.2,0-16.8l0,0c-4.6-4.6-12.2-4.6-16.8,0l-34,34l-34-34
	c-4.6-4.6-12.2-4.6-16.8,0s-4.6,12.2,0,16.8l34,34l-34,34c-4.6,4.6-4.6,12.2,0,16.8s12.2,4.6,16.8,0l34-34l34,34
	c4.6,4.6,12.2,4.6,16.8,0l0,0c4.6-4.6,4.6-12.2,0-16.8L233,118.2z"/>
</svg>
