<?xml version="1.0" encoding="utf-8"?>
<!-- Generator: Adobe Illustrator 27.5.0, SVG Export Plug-In . SVG Version: 6.00 Build 0)  -->
<svg version="1.1" xmlns="http://www.w3.org/2000/svg" xmlns:xlink="http://www.w3.org/1999/xlink" x="0px" y="0px"
	 width="691.9px" height="620.2px" viewBox="0 0 691.9 620.2" style="enable-background:new 0 0 691.9 620.2;" xml:space="preserve"
	>
<path style="fill:#FFFFFF;" d="M186.3,84.2C80.3,103.9,0,196.9,0,308.7l0,0c0,69.7,31.3,132.2,80.5,174L10.9,616.5l163.8-85.8
	c17.2,4.1,35.2,6.4,53.7,6.4h149.4L186.3,84.2z"/>
<path style="fill:#FFFFFF;" d="M463.5,80.3H367l185.5,438.8c81.9-34.7,139.4-115.8,139.4-210.4l0,0
	C691.9,182.5,589.6,80.3,463.5,80.3z"/>
<rect x="348.8" y="-16.3" transform="matrix(0.9211 -0.3894 0.3894 0.9211 -91.3096 169.7479)" style="fill:#FFFFFF;" width="48.5" height="652.9"/>
</svg>
