<?xml version="1.0" encoding="utf-8"?>
<!-- Generator: Adobe Illustrator 27.9.0, SVG Export Plug-In . SVG Version: 6.00 Build 0)  -->
<svg version="1.1" xmlns="http://www.w3.org/2000/svg" xmlns:xlink="http://www.w3.org/1999/xlink" x="0px" y="0px"
	 viewBox="0 0 432.4 469.7" style="enable-background:new 0 0 432.4 469.7;" xml:space="preserve">
<g>
	<path d="M229.5,28.1l-90.3,6.6C121.7,36.2,108,50.9,108,68.4v237.3c-6.6-1.4-13.3-2.4-19.9-2.4
		c-48.8,0-88.1,36.5-88.1,81c0,35,24.3,65,58.1,76.3L229.5,28.1z"/>
	<path d="M425.1,28.6l-60.9,153.8v103.9c-6.6-1.4-13.3-2.4-19.9-2.4c-7.3,0-14.5,0.8-21.3,2.4l-50,126.1
		c16,20.2,41.9,33.4,71.3,33.4c48.8,0,88.1-36.5,88.1-81V49.5C432.4,41.8,429.9,34.4,425.1,28.6z"/>
</g>
<path d="M147.2,468.2L147.2,468.2c-10.8-4.3-16.1-16.5-11.8-27.3L304.9,13.3c4.3-10.8,16.5-16.1,27.3-11.8l0,0
	c10.8,4.3,16.1,16.5,11.8,27.3L174.4,456.4C170.2,467.2,158,472.5,147.2,468.2z"/>
</svg>
