<?xml version="1.0" encoding="utf-8"?>
<!-- Generator: Adobe Illustrator 27.5.0, SVG Export Plug-In . SVG Version: 6.00 Build 0)  -->
<svg version="1.1" xmlns="http://www.w3.org/2000/svg" xmlns:xlink="http://www.w3.org/1999/xlink" x="0px" y="0px"
	 width="227.3px" height="289.9px" viewBox="0 0 227.3 289.9" style="enable-background:new 0 0 227.3 289.9;" xml:space="preserve"
	>
<path style="fill-rule:evenodd;clip-rule:evenodd;fill:#FFFFFF;" d="M92.3,31.1c-36.8,9.5-63.9,42.8-63.9,82.6v56.8
	c0,5.2-4.3,9.5-9.5,9.5c-10.5,0-19,8.5-19,18.9c0,10.5,8.5,18.9,19,18.9h189.3c10.5,0,19-8.5,19-18.9c0-10.5-8.5-18.9-19-18.9
	c-5.2,0-9.5-4.2-9.5-9.5v-56.8c0-39.7-27.2-73.1-63.9-82.6v-9.8C135,9.5,125.4,0,113.7,0S92.4,9.5,92.4,21.3L92.3,31.1z"/>
<path style="fill-rule:evenodd;clip-rule:evenodd;fill:#FFFFFF;" d="M67,243.2h93.4c0,25.8-20.9,46.7-46.7,46.7S67,269,67,243.2
	L67,243.2z"/>
</svg>
