<?xml version="1.0" encoding="utf-8"?>
<!-- Generator: Adobe Illustrator 26.0.3, SVG Export Plug-In . SVG Version: 6.00 Build 0)  -->
<svg version="1.1" id="Layer_1" xmlns="http://www.w3.org/2000/svg" xmlns:xlink="http://www.w3.org/1999/xlink" x="0px" y="0px"
	 viewBox="0 0 208.4 265.7" style="enable-background:new 0 0 208.4 265.7;" xml:space="preserve">
<style type="text/css">
	.st0{fill-rule:evenodd;clip-rule:evenodd;fill:#FFFFFF;}
</style>
<path class="st0" d="M40.1,265.7c-5.7,0-9.5-1.7-11.6-5.2c-2.1-3.4-2.6-8-1.7-13.6l8.8-47.5H25.3c-11.6,0-17.3-4.9-17.3-14.7
	c0-9.8,5.8-14.7,17.3-14.7h16.2l15.1-77H33.1c-11.5,0-17.3-5-17.3-15.1c0-9.6,5.8-14.4,17.3-14.4h28.7l9.6-47.9
	C73.6,5.2,79.8,0,89.8,0c5.2,0,8.9,1.7,11.2,5c2.3,3.3,2.9,7.9,1.7,13.8l-8.8,44.6h46.4l9.6-47.9C152.1,5.2,158.2,0,168.3,0
	c5.2,0,8.9,1.7,11.2,5c2.3,3.3,2.9,7.9,1.7,13.8l-8.8,44.6h10.7c11.5,0,17.3,4.8,17.3,14.4c0,10.1-5.8,15.1-17.3,15.1h-16.2
	l-15.1,77h23.6c11.5,0,17.3,4.9,17.3,14.7c0,9.8-5.8,14.7-17.3,14.7h-28.7l-10.3,50.9c-2.2,10.3-8.2,15.5-18.1,15.5
	c-5.2,0-8.9-1.7-11.2-5c-2.3-3.3-3-7.9-2-13.8l9.6-47.5H68.1l-9.9,50.9C55.9,260.5,49.9,265.7,40.1,265.7z M73.6,169.9h46.1l15.1-77
	H88.7L73.6,169.9z"/>
</svg>
