<?xml version="1.0" encoding="utf-8"?>
<!-- Generator: Adobe Illustrator 27.5.0, SVG Export Plug-In . SVG Version: 6.00 Build 0)  -->
<svg version="1.1" xmlns="http://www.w3.org/2000/svg" xmlns:xlink="http://www.w3.org/1999/xlink" x="0px" y="0px"
	 width="400px" height="400px" viewBox="0 0 400 400" style="enable-background:new 0 0 400 400;" xml:space="preserve">
<path style="fill:#FFFFFF;" d="M200,0C89.5,0,0,89.5,0,200s89.5,200,200,200s200-89.5,200-200S310.5,0,200,0z M366.4,279.6
	c2.2-8.4,3.1-16.9,2.8-25.5c-1.3-35.5-27.9-65.7-63.1-71.6c-39.4-6.6-77.6,19.2-85.8,58.2c-3.9,18.8-1.1,36.6,8.4,53.3
	c0.9,1.6,0.9,2.7-0.2,4.2c-19.4,27.4-45.7,43.4-79.1,46.8c-32.2,3.3-60.6-6-84.9-27.5c-4.8-4.3-9-9.3-13.4-14
	c0.1-0.1,0.2-0.2,0.3-0.3c5.6,4.3,10.8,9.1,16.8,12.7c44.8,27.2,104.3,2.9,114.6-50.5c7.8-40.4-19.6-80.1-60.2-87.4
	c-4.4-0.8-8.9-0.8-13.4-1.4c-1-0.1-2.2-0.8-2.6-1.6c-15.2-29.7-17.2-60.3-4.8-91.3c11.8-29.3,33-49.5,62.6-60.9
	c3.3-1.3,6.9-1.7,10.3-2.6c0.1,0.2,0.1,0.4,0.2,0.6c-1.7,0.8-3.4,1.5-5,2.3c-29.2,14.2-45.8,44.5-42,76.7
	c4.7,40.1,40.8,69.5,81,65.7c24.3-2.3,43.1-13.9,56.5-34.1c1.2-1.9,2.4-2.7,4.8-2.6c50.5,1.6,93.5,38.5,102.9,88.2
	c3.5,18.2,2.6,36.1-2.8,53.8C369.5,274,367.9,276.8,366.4,279.6z"/>
</svg>
