<?xml version="1.0" encoding="utf-8"?>
<!-- Generator: Adobe Illustrator 27.5.0, SVG Export Plug-In . SVG Version: 6.00 Build 0)  -->
<svg version="1.1" xmlns="http://www.w3.org/2000/svg" xmlns:xlink="http://www.w3.org/1999/xlink" x="0px" y="0px"
	 width="49.7px" height="49.6px" viewBox="0 0 49.7 49.6" style="enable-background:new 0 0 49.7 49.6;" xml:space="preserve">
<path style="fill:#FFFFFF;" d="M5.3,41.1c-1.1-1.9-1.6-3.7-1.6-5.7c0-2.7,1-5.1,2.9-7.1c0.8-0.9,1.7-1.7,2.7-2.6
	c-0.4-0.3-0.7-0.6-1-0.9c-0.9-1-0.9-2.5,0-3.4s2.4-1,3.4-0.1c0.9,0.9,1.8,1.8,2.7,2.7c0.1,0.1,0.3,0.3,0.6,0.5
	c0.2-0.2,0.3-0.5,0.5-0.7c1.4-1.5,2.9-2.9,4.4-4.4c0.9-0.9,2.2-1,3-0.1c0.9,0.9,0.9,2.1-0.1,3.1c-1.5,1.5-3,3-4.6,4.6
	c-0.1,0.1-0.2,0.3-0.4,0.4c0.1,0.1,0.2,0.2,0.3,0.3c1.3,1.4,2.7,2.7,4.1,4.2c0.4-0.5,0.8-0.9,1.2-1.3c1.2-1.3,2.5-2.5,3.7-3.7
	c0.5-0.5,1.1-0.8,1.9-0.7c0.8,0.1,1.4,0.6,1.7,1.4c0.3,0.8,0.1,1.6-0.6,2.2c-1.5,1.5-3,3-4.6,4.6c-0.1,0.1-0.3,0.2-0.5,0.4
	c1.1,1.1,2.2,2.1,3.2,3.1c0.8,0.8,0.9,1.9,0.5,2.8c-0.4,0.9-1.4,1.5-2.4,1.3c-0.5-0.1-1-0.4-1.5-0.7c-0.3-0.2-0.6-0.6-0.9-0.9
	c-0.8,0.9-1.6,1.7-2.4,2.5c-1.4,1.4-3.1,2.4-5.1,2.8c-2.5,0.6-5,0.2-7.3-1c-0.4-0.2-0.6-0.2-0.9,0.2c-1.3,1.4-2.7,2.7-4.1,4.1
	c-1.4,1.4-3.6,0.8-4.1-1c-0.2-0.9,0-1.7,0.7-2.4c1.3-1.3,2.7-2.7,4-4C4.9,41.3,5.1,41.2,5.3,41.1z"/>
<path style="fill:#FFFFFF;" d="M40.4,24c0.3,0.3,0.6,0.5,0.9,0.8c1,1,1,2.5,0.1,3.5c-1,1-2.5,1-3.5-0.1c-5-5-10.1-10.1-15.1-15.1
	c-0.4-0.4-0.9-0.8-1.3-1.3c-1-1-1-2.5,0-3.5c1-0.9,2.5-0.9,3.5,0c0.3,0.3,0.5,0.6,0.8,1c0.9-1,1.8-1.9,2.7-2.7
	c1.5-1.5,3.3-2.4,5.4-2.7c2.5-0.4,4.8,0,7,1.2c0.1,0,0.2,0.1,0.4,0.2c0.2-0.2,0.4-0.5,0.7-0.7c1-1.4,2.2-2.6,3.5-3.9
	c0.8-0.8,1.8-0.9,2.8-0.5c0.9,0.4,1.5,1.4,1.4,2.4c-0.1,0.7-0.4,1.2-0.9,1.7c-1.3,1.3-2.7,2.7-4,4c-0.3,0.3-0.3,0.4-0.1,0.8
	c2.2,4.1,1.5,9-1.7,12.4C42.2,22.3,41.3,23,40.4,24z"/>
</svg>
