<?xml version="1.0" encoding="utf-8"?>
<!-- Generator: Adobe Illustrator 27.5.0, SVG Export Plug-In . SVG Version: 6.00 Build 0)  -->
<svg version="1.1" xmlns="http://www.w3.org/2000/svg" xmlns:xlink="http://www.w3.org/1999/xlink" x="0px" y="0px"
	 width="49.7px" height="49.6px" viewBox="0 0 49.7 49.6" style="enable-background:new 0 0 49.7 49.6;" xml:space="preserve">
<path style="fill:#FFFFFF;" d="M44,9.1c0.5-0.5,0.8-1,0.9-1.7c0.1-1-0.5-1.9-1.4-2.4s-2-0.3-2.8,0.5C39.4,6.7,38.2,8,37,9.2
	c-0.2,0.2-0.5,0.5-0.7,0.7c-0.3,0.1-0.3,0-0.4,0c-2.2-1.2-4.5-1.6-7-1.2C26.8,9,25,9.9,23.5,11.4c-0.9,0.9-1.7,1.8-2.7,2.7
	c-0.3-0.4-0.6-0.7-0.8-1c-1-1-2.5-1-3.5,0c-1,0.9-1,2.5,0,3.5c0.2,0.2,0.3,0.3,0.5,0.5c-0.2-0.2-0.4-0.4-0.6-0.6
	c-1-0.9-2.5-0.9-3.4,0.1c-0.9,0.9-0.9,2.4,0,3.4c0.3,0.3,0.6,0.6,1,0.9c-0.9,0.9-1.8,1.7-2.7,2.6c-1.9,2-2.9,4.4-2.9,7.1
	c0,2,0.5,3.8,1.6,5.7c-0.1,0.1-0.3,0.2-0.5,0.3c-1.3,1.3-2.7,2.6-4,4C5,41.3,4.7,42.1,4.9,43c0.5,1.8,2.7,2.4,4.1,1
	c1.4-1.3,2.7-2.7,4.1-4.1c0.3-0.3,0.5-0.4,0.9-0.2c2.3,1.2,4.7,1.6,7.3,1c2-0.4,3.7-1.4,5.1-2.8c0.8-0.8,1.6-1.6,2.4-2.5
	c0.3,0.4,0.6,0.7,0.9,0.9c0.4,0.3,0.9,0.6,1.5,0.7c1,0.2,2-0.4,2.4-1.3c0.4-0.9,0.3-1.9-0.3-2.7c1.1,0.9,2.4,0.9,3.3-0.1
	c1-1,0.9-2.5-0.1-3.5c-0.3-0.3-0.6-0.5-0.9-0.8c0.9-0.9,1.8-1.7,2.5-2.5c3.3-3.3,4-8.3,1.7-12.4c-0.2-0.3-0.1-0.5,0.1-0.8
	C41.3,11.8,42.6,10.5,44,9.1z"/>
</svg>
