<?xml version="1.0" encoding="UTF-8"?>
<svg id="Layer_1" xmlns="http://www.w3.org/2000/svg" version="1.1" viewBox="0 0 49.7 49.6">
  <!-- Generator: Adobe Illustrator 30.3.0, SVG Export Plug-In . SVG Version: 2.1.3 Build 182)  -->
  <path d="M14.4544,15.909c-.5471.0545-1.074.2911-1.4786.7406-.9.9-.9,2.4,0,3.4.3.3.6.6,1,.9-.9.9-1.8,1.7-2.7,2.6-1.9,2-2.9,4.4-2.9,7.1,0,2,.5,3.8,1.6,5.7-.1.1-.3.2-.5.3-1.3,1.3-2.7,2.6-4,4-.5.7-.8,1.5-.6,2.4.5,1.8,2.7,2.4,4.1,1,1.4-1.3,2.7-2.7,4.1-4.1.3-.3.5-.4.9-.2,2.3,1.2,4.7,1.6,7.3,1,2-.4,3.7-1.4,5.1-2.8.8-.8,1.6-1.6,2.4-2.5.3.4.6.7.9.9.4.3.9.6,1.5.7,1,.2,2-.4,2.4-1.3.0803-.1807.1257-.3671.1656-.5535L14.4544,15.909Z" style="fill: #fff;"/>
  <path d="M43.4759,5.0495c-.9-.5-2-.3-2.8.5-1.3,1.2-2.5,2.5-3.7,3.7l-.7.7c-.3.1-.3,0-.4,0-2.2-1.2-4.5-1.6-7-1.2-2.1.3-3.9,1.2-5.4,2.7-.9.9-1.7,1.8-2.7,2.7-.3-.4-.6-.7-.8-1-1-1-2.5-1-3.5,0-.3391.3052-.5536.6936-.6627,1.1091l19.4234,19.4235c.4882-.0676.9517-.3018,1.3393-.7325,1-1,.9-2.5-.1-3.5-.3-.3-.6-.5-.9-.8.9-.9,1.8-1.7,2.5-2.5,3.3-3.3,4-8.3,1.7-12.4-.2-.3-.1-.5.1-.8,1.4-1.1,2.7-2.4,4.1-3.8.5-.5.8-1,.9-1.7.1-1-.5-1.9-1.4-2.4Z" style="fill: #fff;"/>
</svg>