<?xml version="1.0" encoding="UTF-8"?>
<svg id="Layer_1" xmlns="http://www.w3.org/2000/svg" version="1.1" viewBox="0 0 64 64">
  <!-- Generator: Adobe Illustrator 30.3.0, SVG Export Plug-In . SVG Version: 2.1.3 Build 182)  -->
  <path d="M35.259,21.5592h-1.0245c-2.1196,0-3.9786,1.4144-4.5439,3.4572l-3.769,13.6186c-.5404,1.9527.9284,3.8832,2.9545,3.8832h1.6192c1.785,0,3.3506-1.1911,3.8267-2.9115l3.9124-14.1369c.5442-1.9665-.935-3.9107-2.9754-3.9107Z" style="fill: #fff;"/>
  <path d="M48.9954,0H15.0046C6.7178,0,0,6.7178,0,15.0046v33.9907c0,8.2868,6.7178,15.0046,15.0046,15.0046h33.9907c8.2868,0,15.0046-6.7178,15.0046-15.0046V15.0046c0-8.2869-6.7178-15.0046-15.0046-15.0046ZM53.8553,20.8249l-4.6263,20.4578c-1.2372,5.4713-6.0988,9.3561-11.7082,9.3561h-21.5047c-3.8619,0-6.7256-3.5837-5.8738-7.3504l4.6524-20.5731c1.237-5.4701,6.0975-9.3541,11.7057-9.3541h21.3906c3.9214,0,6.8293,3.6389,5.9644,7.4637Z" style="fill: #fff;"/>
</svg>