<?xml version="1.0" encoding="utf-8"?>
<!-- Generator: Adobe Illustrator 27.5.0, SVG Export Plug-In . SVG Version: 6.00 Build 0)  -->
<svg version="1.1" xmlns="http://www.w3.org/2000/svg" xmlns:xlink="http://www.w3.org/1999/xlink" x="0px" y="0px"
	 width="308px" height="331.4px" viewBox="0 0 308 331.4" style="enable-background:new 0 0 308 331.4;" xml:space="preserve">
<path style="fill-rule:evenodd;clip-rule:evenodd;fill:#FFFFFF;" d="M239.2,213h21.4c5.2,0,7.3,3.7,4.7,8.2L203.7,328
	c-2.6,4.5-6.8,4.5-9.4,0l-61.6-106.8c-2.6-4.5-0.5-8.2,4.7-8.2h21.4c5.2,0,9.4-4.3,9.4-9.5v-47.3c0-5.3,4.2-9.5,9.5-9.5h42.6
	c5.3,0,9.5,4.3,9.5,9.5v47.3C229.8,208.8,234,213,239.2,213L239.2,213z"/>
<path style="fill-rule:evenodd;clip-rule:evenodd;fill:#FFFFFF;" d="M68.8,118.3H47.4c-5.2,0-7.3-3.7-4.7-8.2L104.3,3.4
	c2.6-4.5,6.8-4.5,9.4,0l61.6,106.8c2.6,4.5,0.5,8.2-4.7,8.2h-21.4c-5.2,0-9.4,4.2-9.4,9.5v47.3c0,5.2-4.2,9.5-9.5,9.5H87.7
	c-5.3,0-9.5-4.3-9.5-9.5v-47.3C78.2,122.6,74,118.3,68.8,118.3L68.8,118.3z"/>
</svg>
