<?xml version="1.0" encoding="utf-8"?>
<!-- Generator: Adobe Illustrator 27.5.0, SVG Export Plug-In . SVG Version: 6.00 Build 0)  -->
<svg version="1.1" xmlns="http://www.w3.org/2000/svg" xmlns:xlink="http://www.w3.org/1999/xlink" x="0px" y="0px"
	 width="315.7px" height="315.7px" viewBox="0 0 315.7 315.7" style="enable-background:new 0 0 315.7 315.7;" xml:space="preserve"
	>
<path style="fill:#FFFFFF;" d="M236.8,78.9V0H0v236.8h78.9v78.9h236.8V78.9C315.7,78.9,236.8,78.9,236.8,78.9z M19.7,217.1V19.7H217
	v59.2H78.9V217L19.7,217.1z M217.1,197.3l-0.4-0.4L197,216.6l0.4,0.4h-28.9l48.6-48.6V197.3z M98.7,118.4l0.4,0.4l19.7-19.7
	l-0.4-0.4h28.9l-48.6,48.6L98.7,118.4z M98.7,175L175,98.7h28.2L98.7,203.3V175z M217.1,112.6v28.1l-76.4,76.4h-28.1L217.1,112.6z
	 M296,296H98.7v-59.2h138.1V98.7H296V296z"/>
</svg>
