<?xml version="1.0" encoding="utf-8"?>
<!-- Generator: Adobe Illustrator 27.5.0, SVG Export Plug-In . SVG Version: 6.00 Build 0)  -->
<svg version="1.1" xmlns="http://www.w3.org/2000/svg" xmlns:xlink="http://www.w3.org/1999/xlink" x="0px" y="0px"
	 width="178px" height="178px" viewBox="0 0 178 178" style="enable-background:new 0 0 178 178;" xml:space="preserve">
<g>
	<path style="fill:#FFFFFF;" d="M24,106c2,7,5,14,9,21l-11,11c-5,5-5,8-1,12l11,11c4,4,8,4,12-1l12-12c6,3,12,6,18,7v14c0,7,2,9,8,9
		h16c6,0,8-2,8-9v-14c6-2,12-4,18-7l12,12c5,5,8,5,12,1l11-11c4-4,4-7-1-12l-12-12c4-6,7-13,9-21h15c6,0,8-2,8-9V82c0-7-2-9-8-9h-15
		c-2-6-4-12-7-18l11-11c5-5,5-8,1-12l-10-10c-4-4-8-4-12,1l-10,10c-6-4-13-7-21-9V9c0-7-2-9-8-9H83c-6,0-8,2-8,9v14c-7,2-14,5-21,9
		L44,22c-6-5-9-5-14,0L19,33c-4,4-4,7,1,12l11,11c-3,6-6,12-7,18H8c-6,0-8,2-8,9v14c0,7,2,9,8,9H24z M64,90c0-15,12-26,26-26
		c15,0,26,12,26,26s-12,26-26,26C75,116,64,105,64,90z"/>
</g>
</svg>
