<?xml version="1.0" encoding="UTF-8"?>
<svg id="Layer_1" xmlns="http://www.w3.org/2000/svg" version="1.1" viewBox="0 0 38.0854 36.788">
  <!-- Generator: Adobe Illustrator 30.6.0, SVG Export Plug-In . SVG Version: 2.1.4 Build 109)  -->
  <path d="M16.2426,22.2714c-2.5646-2.564-3.8683-5.7418-4.5065-7.8979L0,36.788l23.7762-10.1219c-2.1398-.6743-5.1112-1.9718-7.5336-4.3947Z" style="fill: #fff;"/>
  <path d="M22.3559,16.1573c3.7823,3.7823,4.4986,9.1984,4.4986,9.1984,0,0-5.416-.7163-9.1984-4.4986s-4.4986-9.1984-4.4986-9.1984c0,0,5.416.7163,9.1984,4.4986Z" style="fill: #fff;"/>
  <path d="M22.5063,7.8933l-1.1933-1.3472c-.1688-.1906-.4412-.2508-.6746-.1492l-1.65.7186c-.522.2273-1.0299-.3461-.7412-.8369l.9126-1.5512c.1291-.2195.1022-.4971-.0666-.6877l-1.1933-1.3473c-.3775-.4262.0109-1.0865.5669-.9636l1.7573.3885c.2486.055.5044-.0564.6335-.2759l.9126-1.5512c.2887-.4907,1.0367-.3253,1.0916.2414l.1735,1.7913c.0245.2534.2095.4622.4581.5172l1.7573.3885c.5559.1229.6298.8854.1078,1.1127l-1.6501.7186c-.2334.1017-.3749.3421-.3503.5955l.1735,1.7914c.0549.5667-.6475.8726-1.025.4463Z" style="fill: #fff;"/>
  <path d="M35.2187,12.2935l.0612,2.2623c.0051.19.0931.3684.2407.4882l1.7572,1.4261c.4695.3811.2116,1.1406-.3929,1.1569l-2.2623.0612c-.19.0051-.3684.0931-.4882.2407l-1.4261,1.7572c-.3811.4695-1.1406.2116-1.1569-.3929l-.0612-2.2623c-.0051-.19-.0931-.3684-.2407-.4882l-1.7572-1.4261c-.4695-.3811-.2116-1.1406.3929-1.1569l2.2623-.0612c.19-.0051.3684-.0931.4882-.2407l1.4261-1.7572c.3811-.4695,1.1406-.2116,1.1569.3929Z" style="fill: #fff;"/>
  <path d="M22.1019,14.3644c-.1055-.0144-.2105-.0464-.3111-.0966-.4947-.2462-.6949-.8466-.4492-1.3409.4527-.9077.9653-1.9363,1.7131-2.8107.9015-1.055,2.0376-1.7189,3.1972-1.8686,1.0703-.1377,2.0727.1589,2.9566.4207.6925.2051,1.3466.3957,1.9545.3759.9797-.0367,1.9357-.7315,2.2729-1.6519.1366-.3737.196-.8101.2599-1.272.0662-.4788.1335-.9738.2932-1.4808.4169-1.325,1.4188-2.459,2.6818-3.0342.5011-.2279,1.0949-.0067,1.3242.4951.2292.5028.0076,1.0955-.4957,1.3246-.7544.3438-1.3533,1.0221-1.6031,1.814-.1082.346-.1625.7378-.219,1.1529-.0754.5466-.1523,1.1117-.3637,1.6876-.6138,1.6782-2.2905,2.8963-4.0756,2.9632-.9341.0345-1.7793-.2146-2.5969-.457-.7626-.226-1.4845-.4396-2.1328-.3549-.6671.0861-1.3542.507-1.9334,1.1851-.5883.6872-1.0224,1.5595-1.4428,2.4031-.1965.3936-.617.6015-1.0302.5452Z" style="fill: #fff;"/>
</svg>