<?xml version="1.0" encoding="utf-8"?>
<!-- Generator: Adobe Illustrator 27.5.0, SVG Export Plug-In . SVG Version: 6.00 Build 0)  -->
<svg version="1.1" xmlns="http://www.w3.org/2000/svg" xmlns:xlink="http://www.w3.org/1999/xlink" x="0px" y="0px"
	 width="244.3px" height="244.5px" viewBox="0 0 244.3 244.5" style="enable-background:new 0 0 244.3 244.5;" xml:space="preserve"
	>
<path style="fill:#FFFFFF;" d="M122.1,0c0.4,0.1,0.7,0.2,1.1,0.3c29.9,10,59.7,19.9,89.6,29.9c0.8,0.3,1.2,0.7,1.5,1.5
	c9.9,29.9,19.9,59.7,29.8,89.6c0.2,0.7,0.2,1.5,0,2.2c-9.9,29.8-19.8,59.6-29.7,89.4c-0.3,1-0.8,1.4-1.8,1.8
	c-29.8,9.9-59.6,19.8-89.4,29.7c-0.7,0.2-1.6,0.2-2.3,0c-29.7-9.9-59.5-19.8-89.2-29.7c-1-0.3-1.5-0.8-1.9-1.8
	C20,183,10.1,153.3,0.2,123.5c-0.2-0.7-0.2-1.7,0-2.4c9.8-29.7,19.7-59.3,29.6-89c0.4-1.2,1-1.7,2.1-2.1c29.7-9.8,59.3-19.7,89-29.6
	C121.3,0.3,121.7,0.1,122.1,0z M101.6,183.1c30.5-30.5,61-61,91.4-91.4c-10-10-20.1-20.1-30.3-30.3c-20.2,20.2-40.5,40.5-61.1,61.1
	c-10.2-10.2-20.4-20.4-30.3-30.3c-10.1,10.1-20.2,20.2-30.3,30.3C61.1,142.7,81.5,163,101.6,183.1z"/>
</svg>
