<?xml version="1.0" encoding="utf-8"?>
<!-- Generator: Adobe Illustrator 27.5.0, SVG Export Plug-In . SVG Version: 6.00 Build 0)  -->
<svg version="1.1" xmlns="http://www.w3.org/2000/svg" xmlns:xlink="http://www.w3.org/1999/xlink" x="0px" y="0px"
	 width="30px" height="30px" viewBox="0 0 30 30" style="enable-background:new 0 0 30 30;" xml:space="preserve">
<path style="fill-rule:evenodd;clip-rule:evenodd;fill:#FFFFFF;opacity:0.68;" d="M24.8,9.8c-0.3-0.4-0.7-0.7-1.2-0.9
	c0.3-2.1,0-3.5-1.1-4.8c-1.3-1.4-3.5-2-6.4-2H7.6C7,2,6.5,2.4,6.4,3L2.9,25.2C2.8,25.6,3.2,26,3.6,26h5.2l-0.4,2.3
	C8.4,28.7,8.7,29,9.1,29h4.4c0.5,0,1-0.4,1-0.9l0-0.2l0.8-5.2l0.1-0.3c0.1-0.5,0.5-0.9,1-0.9h0.7c4.2,0,7.6-1.7,8.5-6.7
	C26,12.7,25.8,11,24.8,9.8z"/>
<path style="fill-rule:evenodd;clip-rule:evenodd;fill:#FFFFFF;opacity:0.7;" d="M23.6,8.9c0.3-2.1,0-3.5-1.1-4.8
	c-1.3-1.4-3.5-2-6.4-2H7.6C7,2,6.5,2.4,6.4,3L2.9,25.2C2.8,25.6,3.2,26,3.6,26h5.2l1.3-8.3l0,0.3c0.1-0.6,0.6-1,1.2-1h2.5
	c4.8,0,8.6-2,9.7-7.7C23.5,9.2,23.5,9,23.6,8.9"/>
<path style="fill-rule:evenodd;clip-rule:evenodd;fill:#FFFFFF;" d="M11.5,8.9c0.1-0.4,0.3-0.6,0.6-0.8C12.2,8,12.4,8,12.6,8h6.6
	c0.8,0,1.5,0.1,2.2,0.2c0.2,0,0.4,0.1,0.6,0.1c0.2,0,0.4,0.1,0.5,0.1c0.1,0,0.2,0.1,0.2,0.1c0.3,0.1,0.6,0.2,0.9,0.4
	c0.3-2.1,0-3.5-1.1-4.8c-1.3-1.4-3.5-2-6.4-2H7.6C7,2,6.5,2.4,6.4,3L2.9,25.2C2.8,25.6,3.2,26,3.6,26h5.2L11.5,8.9"/>
</svg>
