<?xml version="1.0" encoding="utf-8"?>
<!-- Generator: Adobe Illustrator 27.9.1, SVG Export Plug-In . SVG Version: 6.00 Build 0)  -->
<svg version="1.1" xmlns="http://www.w3.org/2000/svg" xmlns:xlink="http://www.w3.org/1999/xlink" x="0px" y="0px"
	 viewBox="0 0 20.9 27.5" style="enable-background:new 0 0 20.9 27.5;" xml:space="preserve">
<polygon points="2.5,21.3 0.8,18.8 18.2,6.3 20,8.7 "/>
<path d="M10.2,1.6C9.1,0.5,7.7,0,5.9,0C4.1,0,2.7,0.6,1.6,1.7C0.5,2.8,0,4.3,0,6.1c0,1.8,0.5,3.3,1.6,4.4
	c1.1,1.1,2.5,1.7,4.3,1.7c1.8,0,3.2-0.6,4.3-1.7c1.1-1.1,1.6-2.6,1.6-4.4C11.8,4.2,11.2,2.7,10.2,1.6z M7.7,8.3
	c-0.5,0.6-1,0.8-1.8,0.8c-0.8,0-1.4-0.3-1.8-0.8C3.6,7.7,3.4,7,3.4,6.1c0-0.9,0.2-1.7,0.7-2.2C4.5,3.3,5.1,3,5.9,3
	c0.7,0,1.3,0.3,1.8,0.8s0.7,1.3,0.7,2.2C8.4,7,8.1,7.7,7.7,8.3z"/>
<path d="M19.3,17c-1.1-1.1-2.5-1.7-4.3-1.7c-1.8,0-3.2,0.6-4.3,1.7c-1.1,1.1-1.6,2.6-1.6,4.4c0,1.8,0.5,3.3,1.6,4.4
	c1.1,1.1,2.5,1.7,4.3,1.7c1.8,0,3.2-0.6,4.3-1.7c1.1-1.1,1.6-2.6,1.6-4.4C20.9,19.6,20.4,18.1,19.3,17z M16.8,23.6
	c-0.5,0.6-1,0.8-1.8,0.8c-0.8,0-1.4-0.3-1.8-0.8c-0.5-0.6-0.7-1.3-0.7-2.2c0-0.9,0.2-1.6,0.7-2.2c0.5-0.6,1.1-0.8,1.8-0.8
	c0.7,0,1.3,0.3,1.8,0.8c0.5,0.6,0.7,1.3,0.7,2.2C17.5,22.3,17.3,23,16.8,23.6z"/>
</svg>
