<?xml version="1.0" encoding="utf-8"?>
<!-- Generator: Adobe Illustrator 27.9.0, SVG Export Plug-In . SVG Version: 6.00 Build 0)  -->
<svg version="1.1" xmlns="http://www.w3.org/2000/svg" xmlns:xlink="http://www.w3.org/1999/xlink" x="0px" y="0px"
	 viewBox="0 0 236.9 236.4" style="enable-background:new 0 0 236.9 236.4;" xml:space="preserve">
<path style="fill:#FFFFFF;" d="M235.3,26.3c-7-26.2-40-35-59.7-16.3c-5.7,5.4-11.2,11-16.6,16.6c-5.2,5.4-11,6.9-18.1,4.1
	c-7.7-3-13.9-1-17.9,5.3c-3.7,5.8-2.7,12.6,2.8,18.1c3.2,3.3,6.7,6.3,10.7,10.1c-2.2,1.8-3.7,2.9-5,4.2
	C98,101.5,64.6,134.5,31.2,167.6c-12.3,12.2-20,26.8-23.6,43.8c-0.9,4.2-3.3,8.2-5.6,12c-2.5,4-2.9,7.9,0,10.9
	c2.9,3,6.8,2.7,10.9,0.2c3.7-2.3,7.8-4.8,12-5.6C42,225.2,56.6,217.4,69,205c33.1-33.3,66.4-66.5,99.7-99.8c1.3-1.3,2.6-2.5,4.3-4.2
	c3.5,3.6,6.8,7.1,10.2,10.5c3.4,3.4,7.4,5,12.2,4.3c9.4-1.5,14.3-10.2,10.7-19.7c-2.8-7.3-1.5-13.1,4.2-18.5
	c5.8-5.3,11.2-11,16.6-16.6C236.7,51.2,238.7,38.9,235.3,26.3z M164.7,97.1c-23.4,23.4-30.5,29.4-54,52.7c-1.1,1.1-3.2,1.9-4.8,1.9
	c-13.7,0.1-27.3,0.1-41,0.1c-0.7,0-1.4-0.3-1.6-0.3c31.9-31.9,47.4-46.3,79-77.8c7.3,7.3,14.9,14.9,22.7,22.7
	C165,96.5,164.9,96.8,164.7,97.1z"/>
</svg>
