<?xml version="1.0" encoding="utf-8"?>
<!-- Generator: Adobe Illustrator 27.5.0, SVG Export Plug-In . SVG Version: 6.00 Build 0)  -->
<svg version="1.1" xmlns="http://www.w3.org/2000/svg" xmlns:xlink="http://www.w3.org/1999/xlink" x="0px" y="0px"
	 width="197.1px" height="152.9px" viewBox="0 0 197.1 152.9" style="enable-background:new 0 0 197.1 152.9;" xml:space="preserve"
	>
<path style="fill:#FFFFFF;" d="M9.2,86C-3,86-3,66.9,9.2,66.9c3.9-0.2,6.8-0.8,8.8-1.8s3.7-2.6,5.1-4.8s2.4-5.1,2.9-8.5
	c0.4-2.5,0.6-7,0.6-13.3C26.6,28.2,27.1,21,28,17c1-4.1,2.7-7.3,5.2-9.8s6.1-4.4,10.9-5.8c3.2-1,8.3-1.4,15.3-1.4h4.2v19
	c-5.9,0-9.7,0.3-11.3,1s-2.9,1.7-3.7,3c-0.8,1.4-1.2,3.7-1.2,7s-0.2,9.7-0.7,19c-0.3,5.3-1,9.5-2.1,12.8s-2.5,6-4.2,8.1
	s-4.4,4.3-7.9,6.6c3.1,1.8,5.7,3.9,7.7,6.3s3.5,5.3,4.6,8.8c1.1,3.4,1.8,8.1,2.1,13.8c0.4,8.8,0.6,14.4,0.6,16.9
	c0,3.5,0.4,5.9,1.3,7.3s2.1,2.4,3.9,3.1c1.7,0.7,5.4,1.1,11.2,1.1v19.1h-4.2c-7.2,0-12.6-0.6-16.5-1.7c-3.8-1.1-7-3-9.7-5.7
	c-2.6-2.7-4.4-5.9-5.3-9.8c-0.9-3.9-1.4-10-1.4-18.4c0-9.8-0.4-16.1-1.3-19C24.2,94,22.4,91,20,89.1C17.7,87.3,14.1,86.3,9.2,86z"/>
<path style="fill:#FFFFFF;" d="M76.4,76.5L76.4,76.5c0-12.6,10.2-22.7,22.7-22.7l0,0c12.6,0,22.7,10.2,22.7,22.7l0,0
	c0,12.6-10.2,22.7-22.7,22.7l0,0C86.5,99.2,76.4,89,76.4,76.5z"/>
<path style="fill:#FFFFFF;" d="M177,89.1c-2.4,1.8-4.1,4.9-5.3,9.1c-0.8,2.9-1.3,9.3-1.3,19c0,8.4-0.5,14.5-1.4,18.4
	s-2.7,7.2-5.3,9.8c-2.6,2.7-5.8,4.5-9.7,5.7c-3.8,1.1-9.3,1.7-16.5,1.7h-4.2v-19.1c5.7,0,9.4-0.4,11.2-1.1s3-1.8,3.9-3.1
	s1.3-3.8,1.3-7.3c0-2.4,0.2-8.1,0.6-16.9c0.3-5.8,1-10.4,2.1-13.8s2.6-6.4,4.6-8.8s4.6-4.5,7.7-6.3c-3.6-2.3-6.2-4.5-7.9-6.6
	s-3.1-4.8-4.2-8.1c-1.1-3.3-1.8-7.5-2.1-12.8c-0.5-9.3-0.7-15.7-0.7-19s-0.4-5.6-1.2-7s-2-2.4-3.7-3s-5.4-1-11.3-1V0h4.2
	c6.9,0,12,0.5,15.3,1.4c4.8,1.4,8.4,3.4,10.9,5.8c2.5,2.5,4.2,5.7,5.2,9.8s1.4,11.2,1.4,21.5c0,6.3,0.2,10.7,0.6,13.3
	c0.5,3.4,1.5,6.2,2.9,8.5s3.1,3.9,5.1,4.8c2,1,4.9,1.5,8.8,1.8c12.2,0,12.2,19.1,0,19.1C183,86.3,179.4,87.3,177,89.1z"/>
</svg>
