<?xml version="1.0" encoding="utf-8"?>
<!-- Generator: Adobe Illustrator 27.5.0, SVG Export Plug-In . SVG Version: 6.00 Build 0)  -->
<svg version="1.1" xmlns="http://www.w3.org/2000/svg" xmlns:xlink="http://www.w3.org/1999/xlink" x="0px" y="0px"
	 width="257.5px" height="279.5px" viewBox="0 0 257.5 279.5" style="enable-background:new 0 0 257.5 279.5;" xml:space="preserve"
	>
<path style="fill:#FFFFFF;" d="M60,279H0V30C0,13.4,13.4,0,30,0l0,0c16.6,0,30,13.4,30,30V279z"/>
<path style="fill:#FFFFFF;" d="M158.5,279.5h-60v-79c0-16.6,13.4-30,30-30l0,0c16.6,0,30,13.4,30,30V279.5z"/>
<path style="fill:#FFFFFF;" d="M257.5,279.5h-60v-145c0-16.6,13.4-30,30-30l0,0c16.6,0,30,13.4,30,30V279.5z"/>
</svg>
