<?xml version="1.0" encoding="utf-8"?>
<!-- Generator: Adobe Illustrator 27.6.1, SVG Export Plug-In . SVG Version: 6.00 Build 0)  -->
<svg version="1.1" id="Layer_1" xmlns="http://www.w3.org/2000/svg" xmlns:xlink="http://www.w3.org/1999/xlink" x="0px" y="0px"
	 width="86.5px" height="72.5px" viewBox="0 0 86.5 72.5" style="enable-background:new 0 0 86.5 72.5;" xml:space="preserve">
<path style="fill:#FFFFFF;fill-opacity:0.3;" d="M73.7,45.4l-1.2-20.9c-1,0.6-2.2,0.9-3.5,0.9c-4,0-7.2-3.2-7.2-7.2
	c0-0.2,0-0.5,0-0.7L53.4,15l-14.5-4.4c-1.2,2.2-3.6,3.8-6.3,3.8c-1,0-2-0.2-2.9-0.6L12.5,37.9c1.1,1.3,1.9,3,1.9,4.8
	c0,0.7-0.1,1.4-0.3,2.1l28.1,15.8c1.3-1.5,3.3-2.5,5.4-2.5c2.4,0,4.5,1.2,5.8,3l18.8-9.7c-0.1-0.5-0.2-1-0.2-1.6
	C72.1,48.2,72.7,46.7,73.7,45.4z"/>
<path style="fill:#FFFFFF;" d="M79.3,42.7l-2,0.4l-2.2-20.3c1-1.2,1.1-2.9,1.1-4.6c0-4-3.2-7.2-7.2-7.2c-2.7,0-5.1,1.5-6.3,3.8
	l-23-7c0-0.2,0-0.5,0-0.7c0-4-3.2-7.2-7.2-7.2c-4,0-7.2,3.2-7.2,7.2c0,1.9,0.7,3.6,2,4.9L10.2,36.2c-0.9-0.4-2-0.7-3-0.7
	c-4,0-7.2,3.2-7.2,7.2s3.2,7.2,7.2,7.2c2.2,0,4.2-1,5.5-2.6l28.1,15.8c-0.2,0.7-0.3,1.4-0.3,2.2c0,4,3.2,7.2,7.2,7.2
	c4,0,7.2-3.2,7.2-7.2c0-0.5-0.1-1.1-0.2-1.6L73.4,54c1.3,1.8,3.4,3,5.8,3c4,0,7.2-3.2,7.2-7.2C86.5,45.9,83.2,42.7,79.3,42.7z
	 M53.4,61.1c-1.3-1.8-3.4-3-5.8-3c-2.2,0-4.1,1-5.4,2.5L14,44.8c0.2-0.7,0.3-1.4,0.3-2.1c0-1.8-0.7-3.5-1.9-4.8l17.1-24.2
	c0.9,0.4,1.9,0.6,2.9,0.6c2.7,0,5.1-1.5,6.3-3.8l23,7c0,0.2,0,0.5,0,0.7c0,4,3.2,7.2,7.2,7.2c1.3,0,2.4-0.3,3.5-0.9l1.2,20.9
	c-1,1.2-1.6,2.8-1.6,4.5c0,0.5,0.1,1.1,0.2,1.6L53.4,61.1z"/>
</svg>
