<?xml version="1.0" encoding="utf-8"?>
<!-- Generator: Adobe Illustrator 27.9.0, SVG Export Plug-In . SVG Version: 6.00 Build 0)  -->
<svg version="1.1" xmlns="http://www.w3.org/2000/svg" xmlns:xlink="http://www.w3.org/1999/xlink" x="0px" y="0px"
	 viewBox="0 0 86.4 72.6" style="enable-background:new 0 0 86.4 72.6;" xml:space="preserve">
<polygon style="fill:#FFFFFF; opacity:.3" points="47.7,63.1 76.7,48.8 67.5,20 33.2,9.7 10.2,42 "/>
<path style="fill:#FFFFFF;" d="M79.1,42.6c-0.1,0-0.2,0-0.2,0l-5.8-18.2c2-1.3,3.2-3.5,3.2-6.1c0-4-3.3-7.3-7.3-7.3
	c-2.6,0-4.8,1.3-6.1,3.4l-23.2-7c0-0.1,0-0.1,0-0.2c0-4-3.3-7.3-7.3-7.3c-4,0-7.3,3.3-7.3,7.3c0,1.7,0.6,3.3,1.6,4.6L9.7,35.7
	c-0.8-0.3-1.6-0.4-2.4-0.4c-4,0-7.3,3.3-7.3,7.3s3.3,7.3,7.3,7.3c2,0,3.8-0.8,5.1-2.1l28.2,15.9c-0.1,0.5-0.2,1.1-0.2,1.7
	c0,4,3.3,7.3,7.3,7.3c4,0,7.3-3.3,7.3-7.3c0-0.4,0-0.9-0.1-1.3l18.9-9.3c1.3,1.5,3.3,2.4,5.4,2.4c4,0,7.3-3.3,7.3-7.3
	S83.1,42.6,79.1,42.6z M53,60.4C51.7,59,49.8,58,47.6,58c-2,0-3.8,0.8-5.1,2.1L14.4,44.3c0.1-0.5,0.2-1.1,0.2-1.7
	c0-1.7-0.6-3.3-1.6-4.5l17.1-23.9c0.7,0.3,1.5,0.4,2.4,0.4c2.5,0,4.8-1.3,6.1-3.3l23.3,7c0,0,0,0.1,0,0.1c0,4,3.3,7.3,7.3,7.3
	c0.1,0,0.2,0,0.2,0l5.8,18.2c-2,1.3-3.2,3.5-3.2,6.1c0,0.4,0,0.9,0.1,1.3L53,60.4z"/>
</svg>
