<?xml version="1.0" encoding="utf-8"?>
<!-- Generator: Adobe Illustrator 27.6.1, SVG Export Plug-In . SVG Version: 6.00 Build 0)  -->
<svg version="1.1" xmlns="http://www.w3.org/2000/svg" xmlns:xlink="http://www.w3.org/1999/xlink" x="0px" y="0px"
	 width="248.6px" height="258.8px" viewBox="0 0 248.6 258.8" style="enable-background:new 0 0 248.6 258.8;" xml:space="preserve"
	>
<path style="fill:#FFFFFF;" d="M242.8,145.5c-7.7-9.3-7.7-22.9,0-32.2v0c11.8-14.3,4.8-35.9-13.2-40.5h0c-11.7-3-19.7-13.9-18.9-26
	v0c1.2-18.5-17.3-31.9-34.5-25.1l0,0c-11.3,4.5-24.1,0.3-30.6-9.9v0c-9.9-15.6-32.7-15.6-42.6,0l0,0C96.5,22,83.7,26.1,72.4,21.7
	l0,0c-17.2-6.8-35.7,6.6-34.5,25.1v0c0.8,12.1-7.2,23-18.9,26h0C1.1,77.4-6,99,5.8,113.3v0c7.7,9.3,7.7,22.9,0,32.2v0
	C-6,159.7,1.1,181.4,19,186l0,0c11.7,3,19.7,13.9,18.9,26v0c-1.2,18.5,17.3,31.9,34.5,25.1h0c11.3-4.5,24.1-0.3,30.6,9.9h0
	c9.9,15.6,32.7,15.6,42.6,0c6.5-10.2,19.3-14.4,30.6-9.9h0c17.2,6.8,35.7-6.6,34.5-25.1v0c-0.8-12.1,7.2-23,18.9-26l0,0
	C247.6,181.4,254.6,159.7,242.8,145.5L242.8,145.5z M124.3,220c-50,0-90.6-40.6-90.6-90.6s40.6-90.6,90.6-90.6s90.6,40.6,90.6,90.6
	S174.4,220,124.3,220z"/>
<path style="fill:#FFFFFF;" d="M124.3,48.8c-44.5,0-80.6,36.1-80.6,80.6c0,44.5,36.1,80.6,80.6,80.6c44.5,0,80.6-36.1,80.6-80.6
	C204.9,84.9,168.8,48.8,124.3,48.8z M168.5,124.5l-15.8,15.4c-1.3,1.3-2,3.2-1.7,5.1l3.7,21.7c0.8,4.7-4.1,8.2-8.3,6L127,162.4
	c-1.7-0.9-3.7-0.9-5.3,0l-19.5,10.2c-4.2,2.2-9.1-1.4-8.3-6l3.7-21.7c0.3-1.9-0.3-3.8-1.7-5.1l-15.8-15.4c-3.4-3.3-1.5-9.1,3.2-9.8
	l21.8-3.2c1.9-0.3,3.5-1.4,4.3-3.1l9.7-19.7c2.1-4.3,8.2-4.3,10.3,0l9.7,19.7c0.8,1.7,2.4,2.9,4.3,3.1l21.8,3.1
	C170,115.4,171.9,121.2,168.5,124.5z"/>
</svg>
