<?xml version="1.0" encoding="utf-8"?>
<!-- Generator: Adobe Illustrator 27.5.0, SVG Export Plug-In . SVG Version: 6.00 Build 0)  -->
<svg version="1.1" xmlns="http://www.w3.org/2000/svg" xmlns:xlink="http://www.w3.org/1999/xlink" x="0px" y="0px"
	 width="59.8px" height="64.2px" viewBox="0 0 59.8 64.2" style="enable-background:new 0 0 59.8 64.2;" xml:space="preserve">
<path style="fill:#FFFFFF;" d="M51.8,0v21.4c0,2-1.2,3.8-3,4.5L24,36v-4.5c6.9-1.8,12-8,12-15.5c0-8.8-7.2-16-16-16S4,7.2,4,16
	c0,7.5,5.1,13.7,12,15.5v7.8l-8,3.3c-4.9,2-8,6.7-8,11.9v9.3h8v-9.3c0-2,1.2-3.8,3-4.5l21-8.5v22.8h8V38.1l11.7-4.8
	c4.9-2,8-6.7,8-11.9V0H51.8z M12,16c0-4.4,3.6-8,8-8s8,3.6,8,8s-3.6,8-8,8S12,20.4,12,16z"/>
</svg>
