<?xml version="1.0" encoding="utf-8"?>
<!-- Generator: Adobe Illustrator 27.9.1, SVG Export Plug-In . SVG Version: 6.00 Build 0)  -->
<svg version="1.1" xmlns="http://www.w3.org/2000/svg" xmlns:xlink="http://www.w3.org/1999/xlink" x="0px" y="0px"
	 viewBox="0 0 425.4 513.4" style="enable-background:new 0 0 425.4 513.4;" xml:space="preserve">
<path d="M354.4,0H70.9C31.7,0,0,31.7,0,70.9v283.5c0,39.1,31.7,70.9,70.9,70.9h53.7l88.1,88.1l88.1-88.1h53.7
	c39.1,0,70.9-31.7,70.9-70.9V70.9C425.3,31.7,393.6,0,354.4,0z M377.1,342.4c0,19.2-15.5,34.7-34.7,34.7h-46.3h-15.4l-68.1,68.1
	l-68.1-68.1h-12.6h-49c-19.2,0-34.7-15.5-34.7-34.7V82.9c0-19.2,15.5-34.7,34.7-34.7h259.5c19.2,0,34.7,15.5,34.7,34.7V342.4z"/>
<g>
	<g>
		<path d="M216.7,267.6c-14.2,0-25.3-12.6-23.3-26.7c2.6-18.2,10.3-26.2,32.4-43.5c20.6-16.4,25.6-23.3,25.6-36.3
			c0-20.2-16.4-34.4-39.3-34.4c-22.3,0-35.8,8.5-41,25.8c-3,9.9-11.6,16.9-21.9,16.9h-2c-16,0-27.7-15.8-22.4-30.9
			c12.4-35.3,44.7-56.6,88.8-56.6c53.1,0,88.6,30.9,88.6,77.1c0,17.6-5,31.7-15.3,44.7c-7.3,8.4-10.7,11.8-30.9,27.1
			c-7.4,5.8-11.9,11.7-14,19.7c-2.7,10.1-12.1,16.9-22.6,16.9H216.7z M220.9,341.6h-6.4c-13,0-23.5-10.5-23.5-23.5v-6.4
			c0-13,10.5-23.5,23.5-23.5h6.4c13,0,23.5,10.5,23.5,23.5v6.4C244.4,331.1,233.9,341.6,220.9,341.6z"/>
	</g>
</g>
</svg>
