<?xml version="1.0" encoding="UTF-8"?>
<svg xmlns="http://www.w3.org/2000/svg" version="1.1" viewBox="0 0 5.2 8.4">
  <defs>
    <style>
      .cls-1 {
        fill: #fff;
      }
    </style>
  </defs>
  <!-- Generator: Adobe Illustrator 28.6.0, SVG Export Plug-In . SVG Version: 1.2.0 Build 709)  -->
  <g>
    <g id="Layer_1">
      <path class="cls-1" d="M3.7,5.3H1.5v-.4c0-.5,0-.8.2-1.1s.3-.4.6-.5l.4-.2c.3-.1.5-.3.5-.6s0-.3-.1-.4-.2-.1-.4-.1c-.4,0-.6.3-.6.8H0c0-.7.2-1.3.5-1.7.2-.3.6-.6.9-.8s.8-.3,1.2-.3c.7,0,1.4.2,1.9.7s.8,1.1.8,1.8-.4,1.5-1.1,1.9-.4.2-.4.3,0,.3,0,.6Z"/>
      <circle class="cls-1" cx="2.6" cy="7" r="1.4"/>
    </g>
  </g>
</svg>