<?xml version="1.0" encoding="UTF-8"?>
<svg id="Layer_1" xmlns="http://www.w3.org/2000/svg" width="83.03" height="93.27" version="1.1" viewBox="0 0 83.03 93.27">
  <!-- Generator: Adobe Illustrator 30.0.0, SVG Export Plug-In . SVG Version: 2.1.1 Build 123)  -->
  <defs>
    <style>
      .st0 {
        fill: #fff;
      }
    </style>
  </defs>
  <path class="st0" d="M69.83,65.1c-1.46-1.59-3.25-2.93-5.32-3.86,4.32.66,8.21,3.28,11.17,6.51,4.51-4.24,7.34-10.25,7.34-16.93,0-7.8-3.85-14.7-9.74-18.91,0,0,0-.01,0-.02-3.36-2.55-7.81-3.53-11.95-4.27,2.23-.24,4.5-.32,6.8-.2,1.84.12,3.63.32,5.4.87-.31-5.22-3.53-9.65-8.06-11.71-1.83,2.56-4.27,5.1-7.35,5.89,2.48-1.82,3.59-4.63,4.29-7.48.04-.39.07-.79.07-1.19,0-7.61-6.17-13.79-13.79-13.79-2.23,0-4.33.54-6.19,1.49-2.51,1.48-4.14,4.13-4.92,7.05-.17-2.59.41-5.29,1.74-7.58-1.55-.61-3.24-.96-5.01-.96-7.08,0-12.91,5.34-13.69,12.22,5.65.04,10.87,2.5,15.54,5.39-4.96-1.8-10.36-3.2-15.51-2.09,0,.02,0,.04,0,.05-6.38,1.21-11.21,6.8-11.21,13.54,0,.92.1,1.81.27,2.68.46,1.93,1.12,3.81,2.1,5.57,1.05,1.88,2.47,3.6,4.27,4.99-2.09-.87-4.03-2.22-5.68-3.92-1.26-1.29-2.34-2.77-3.28-4.33C2.74,38.32,0,44.24,0,50.82s2.77,12.56,7.2,16.8c1.97-3.61,4.38-7.2,7.61-9.74-2.65,3.6-3.91,7.7-4.88,11.99,0,0,0,0,0,0-.3,1.35-.47,2.75-.47,4.2,0,10.61,8.6,19.21,19.21,19.21,4.95,0,9.44-1.89,12.85-4.96.02.02.04.03.06.05,2.88-2.82,5.13-6.68,7.28-10.12-1.34,4.18-2.44,8.24-4.73,12.05,2.96,1.88,6.47,2.98,10.24,2.98,10.61,0,19.21-8.6,19.21-19.21,0-1.43-.17-2.82-.47-4.16-.88-1.72-1.95-3.36-3.28-4.8ZM25.06,61.94c-3.01,8.22-1.71,14.89,7.41,17.48-10.96,2.38-15.37-10.93-7.41-17.48ZM45.24,65.55c-1.05,1.03-2.29,1.53-3.78,1.53s-2.8-.48-3.78-1.47-1.47-2.23-1.47-3.79.5-2.75,1.54-3.79c1.03-1.04,2.25-1.55,3.71-1.55s2.7.52,3.76,1.59c1.06,1.07,1.58,2.3,1.58,3.77s-.51,2.67-1.55,3.7ZM48.04,44.22c-1.28.64-2.01,1.19-2.35,1.76-.35.59-.45,3.33-.47,4.83h-7.84v-.67c0-2.61.3-6.57.65-7.3.39-.84,1.11-1.48,2.21-1.96l1.8-.79c2.18-.96,2.64-2.41,2.64-3.46,0-.9-.33-1.7-.96-2.32-.62-.62-1.43-.96-2.32-.96-1.22,0-3.2.5-3.54,3.6h-7.17c.14-2.54.81-4.65,2.01-6.28,1-1.37,2.31-2.47,3.91-3.27,1.6-.81,3.28-1.22,4.98-1.22,3.08,0,5.6.99,7.69,3.02,2.09,2.02,3.1,4.46,3.1,7.46,0,3.63-1.41,6.1-4.32,7.56ZM57.2,55.61c7.63-2.17,10.76-11.59,3.92-16.65,4.68.33,7.58,5.74,6.23,10.12-1,4.39-5.8,7.68-10.14,6.53Z"/>
</svg>