<?xml version="1.0" encoding="UTF-8"?>
<svg id="Layer_1" xmlns="http://www.w3.org/2000/svg" width="142.13" height="116.36" version="1.1" viewBox="0 0 142.13 116.36">
  <!-- Generator: Adobe Illustrator 30.0.0, SVG Export Plug-In . SVG Version: 2.1.1 Build 123)  -->
  <defs>
    <style>
      .st0 {
        fill: #fff;
      }
    </style>
  </defs>
  <g>
    <path class="st0" d="M19.5,29.3c1.84-1.57,3.99-2.76,6.37-3.46-2-3.12-3.17-6.81-3.17-10.78,0-5.65,2.35-10.75,6.12-14.4-1.4-.43-2.89-.67-4.44-.67-8.32,0-15.06,6.74-15.06,15.06,0,6.61,4.26,12.21,10.18,14.24Z"/>
    <path class="st0" d="M25.38,110.69v-31.88h-12v-36.29c0-4.85,2-9.23,5.22-12.38h-6.22c-6.84,0-12.38,5.54-12.38,12.38v31.29h12v36.88h13.38Z"/>
  </g>
  <g>
    <path class="st0" d="M73.4,30.13h-6.47c3.21,3.15,5.22,7.53,5.22,12.38v36.29h-12v31.88h13.64v-36.88h12v-31.29c0-6.84-5.54-12.38-12.38-12.38Z"/>
    <path class="st0" d="M62.83,15.06c0,3.97-1.17,7.66-3.17,10.78,2.41.71,4.59,1.93,6.44,3.53,6.02-1.98,10.37-7.63,10.37-14.31,0-8.32-6.74-15.06-15.06-15.06-1.61,0-3.17.26-4.63.73,3.73,3.65,6.05,8.72,6.05,14.33Z"/>
  </g>
  <g>
    <circle class="st0" cx="42.77" cy="15.06" r="15.06"/>
    <path class="st0" d="M67.15,42.51c0-6.84-5.54-12.38-12.38-12.38h-24c-6.84,0-12.38,5.54-12.38,12.38v31.29h12v42.55h24.77v-42.55h12v-31.29Z"/>
  </g>
  <g>
    <circle class="st0" cx="117.75" cy="15.06" r="15.06"/>
    <path class="st0" d="M142.13,42.51c0-6.84-5.54-12.38-12.38-12.38h-24c-6.84,0-12.38,5.54-12.38,12.38v31.29h12v42.55h24.77v-42.55h12v-31.29Z"/>
  </g>
</svg>