<?xml version="1.0" encoding="UTF-8"?>
<svg id="Layer_1" xmlns="http://www.w3.org/2000/svg" version="1.1" viewBox="0 0 57.45 52.21">
  <!-- Generator: Adobe Illustrator 30.1.0, SVG Export Plug-In . SVG Version: 2.1.1 Build 136)  -->
  <path d="M43.55,7.24H14.53c-3.85,0-6.98,3.12-6.98,6.98v31.02c0,3.85,3.12,6.98,6.98,6.98h29.02c3.85,0,6.98-3.12,6.98-6.98V14.21c0-3.85-3.12-6.98-6.98-6.98ZM31.54,45.75c-.79.7-1.71,1.05-2.73,1.05s-1.99-.35-2.78-1.03c-.83-.72-1.25-1.71-1.25-2.96,0-1.11.4-2.06,1.18-2.82.77-.76,1.73-1.14,2.85-1.14s2.05.39,2.82,1.15c.76.76,1.15,1.71,1.15,2.82,0,1.22-.42,2.21-1.23,2.94ZM39.19,25.04c-.51.94-1.12,1.76-1.81,2.44-.64.63-1.77,1.66-3.43,3.15-.42.38-.76.72-1,1-.22.25-.38.47-.47.66-.1.2-.18.4-.24.59-.07.25-.18.69-.32,1.31-.33,1.83-1.52,2.85-3.34,2.85-.95,0-1.77-.32-2.43-.95-.68-.65-1.02-1.57-1.02-2.74,0-1.24.2-2.35.6-3.29.39-.92.91-1.74,1.56-2.44.59-.63,1.39-1.4,2.38-2.27.8-.7,1.42-1.27,1.8-1.64.31-.31.57-.66.79-1.04.17-.32.26-.65.26-1.02,0-.78-.28-1.42-.86-1.95-.6-.56-1.38-.83-2.38-.83-1.17,0-2.01.27-2.5.79-.59.62-1.1,1.6-1.53,2.89-.77,2.55-2.53,2.93-3.52,2.93s-1.9-.37-2.6-1.09c-.7-.71-1.05-1.52-1.05-2.4,0-1.45.46-2.91,1.37-4.36.9-1.43,2.21-2.63,3.91-3.56,1.7-.93,3.69-1.4,5.92-1.4,2.07,0,3.93.39,5.53,1.17,1.63.79,2.92,1.88,3.82,3.25.91,1.38,1.37,2.9,1.37,4.53,0,1.29-.27,2.45-.8,3.44Z"/>
  <path d="M39.32,5.24l-15.48-3.67c-3.21-.76-6.43.84-7.84,3.67h23.32Z"/>
  <path d="M52.07,8.26l-2.36-.56c1.73,1.64,2.82,3.95,2.82,6.52v22.4l4.73-19.95c.89-3.75-1.43-7.51-5.18-8.4Z"/>
  <g>
    <path d="M41.57,3.71c-1.41-2.67-4.46-4.21-7.57-3.57l-4.02.83,11.59,2.74Z"/>
    <path d="M5.55,14.21c0-4.7,3.63-8.57,8.24-8.95.14-.37.3-.72.48-1.06l-8.71,1.79C1.8,6.77-.63,10.46.14,14.23l5.41,26.29V14.21Z"/>
  </g>
</svg>