<?xml version="1.0" encoding="UTF-8"?>
<svg id="Layer_1" xmlns="http://www.w3.org/2000/svg" version="1.1" viewBox="0 0 84.8723 53.38">
  <!-- Generator: Adobe Illustrator 30.1.0, SVG Export Plug-In . SVG Version: 2.1.1 Build 136)  -->
  <path d="M75.2823,53.38H9.6c-5.3,0-9.6-4.31-9.6-9.61V9.6C0,4.31,4.31,0,9.6,0h65.6723c5.3,0,9.6,4.31,9.6,9.6v34.17c0,5.3-4.31,9.61-9.6,9.61h.01ZM9.6,5.1c-2.49,0-4.51,2.02-4.51,4.51v34.17c0,2.49,2.02,4.51,4.51,4.51h65.6723c2.49,0,4.51-2.02,4.51-4.51V9.6c0-2.49-2.02-4.51-4.51-4.51H9.6v.01Z" style="fill: #fff;"/>
  <g>
    <path d="M26.8871,43.27c-1.1,0-2.06-.71-2.41-1.71-1.76,1.15-3.61,1.71-5.58,1.71-4.58,0-7.78-3.23-7.78-7.86,0-8.62,9.55-8.83,13.07-8.84v-.09c0-3.8-1.7-4.12-3.29-4.12-2.05,0-3.09.73-3.99,2.8-.56,1.29-2.06,1.88-3.35,1.32-1.29-.56-1.88-2.06-1.32-3.35,1.71-3.95,4.55-5.86,8.67-5.86,5.25,0,8.39,3.44,8.39,9.21v9.04c0,1.5.04,3.7.14,4.99.11,1.4-.93,2.63-2.33,2.75h-.21l-.01.01ZM24.1871,31.67c-7.97.05-7.97,2.36-7.97,3.74,0,1.26.47,2.76,2.69,2.76,1.79,0,3.49-1.03,5.29-3.23v-3.28l-.01.01Z" style="fill: #fff;"/>
    <path d="M43.8771,43.27c-1.81,0-3.5-.48-5-1.39-.42.82-1.28,1.39-2.27,1.39-1.41,0-2.55-1.14-2.55-2.55V12.66c0-1.41,1.14-2.55,2.55-2.55s2.55,1.14,2.55,2.55v5.86c1.7-.97,3.38-1.25,4.76-1.25,4.67,0,9.67,3.4,9.67,12.94,0,8.05-3.72,13.06-9.7,13.06h-.01ZM39.1571,34.93c1.23,2.16,2.82,3.25,4.72,3.25,4.16,0,4.61-5.57,4.61-7.96s-.45-7.85-4.57-7.85c-1.21,0-2.98.34-4.76,3.2v9.36Z" style="fill: #fff;"/>
    <path d="M65.3471,43.27c-6.22,0-10.08-4.89-10.08-12.76s3.94-13.24,10.04-13.24c3.74,0,6.82,2.07,8.24,5.54.53,1.3-.1,2.79-1.4,3.32-1.31.53-2.79-.1-3.32-1.4-.36-.88-1.3-2.37-3.52-2.37-3.65,0-4.95,4.21-4.95,8.15,0,2.86.65,7.66,4.98,7.66,1.69,0,2.62-.61,3.67-2.43.71-1.22,2.27-1.63,3.48-.92,1.22.71,1.63,2.27.92,3.48-1.24,2.13-3.43,4.96-8.08,4.96l.02.01Z" style="fill: #fff;"/>
  </g>
</svg>