<?xml version="1.0" encoding="UTF-8"?>
<svg id="Layer_1" xmlns="http://www.w3.org/2000/svg" width="83.02" height="93.27" version="1.1" viewBox="0 0 83.02 93.27">
  <!-- Generator: Adobe Illustrator 30.0.0, SVG Export Plug-In . SVG Version: 2.1.1 Build 123)  -->
  <defs>
    <style>
      .st0 {
        fill: #fff;
      }
    </style>
  </defs>
  <path class="st0" d="M73.28,31.9v-.02c-3.36-2.55-7.81-3.53-11.95-4.27,2.23-.24,4.5-.32,6.8-.2,1.84.12,3.63.32,5.4.87-.31-5.22-3.53-9.65-8.06-11.71-1.83,2.56-4.27,5.1-7.35,5.89,2.48-1.82,3.59-4.63,4.29-7.48.04-.39.07-.79.07-1.19,0-7.61-6.17-13.79-13.79-13.79-2.23,0-4.33.54-6.19,1.49-2.51,1.48-4.14,4.13-4.92,7.05-.17-2.59.41-5.29,1.74-7.58-1.55-.61-3.24-.96-5.01-.96-7.08,0-12.91,5.34-13.69,12.22,5.65.04,10.87,2.5,15.54,5.39-4.96-1.8-10.36-3.2-15.51-2.09v.05c-6.38,1.21-11.21,6.8-11.21,13.54,0,.92.1,1.81.27,2.68.46,1.93,1.12,3.81,2.1,5.57,1.05,1.88,2.47,3.6,4.27,4.99-2.09-.87-4.03-2.22-5.68-3.92-1.26-1.29-2.34-2.77-3.28-4.33C2.74,38.31,0,44.23,0,50.81s2.77,12.56,7.2,16.8c1.97-3.61,4.38-7.2,7.61-9.74-2.65,3.6-3.91,7.7-4.88,11.99-.3,1.35-.47,2.75-.47,4.2,0,10.61,8.6,19.21,19.21,19.21,4.95,0,9.44-1.89,12.85-4.96.02.02,4.08-3.1,4.08-3.1,0,0,.65,1.18-1.47,5.08,2.96,1.88,6.47,2.98,10.24,2.98,10.61,0,19.21-8.6,19.21-19.21,0-1.43-.17-2.82-.47-4.16-.88-1.72-1.95-3.36-3.28-4.8h0c-1.46-1.6-3.25-2.94-5.32-3.87,4.32.66,8.21,3.28,11.17,6.51,4.51-4.24,7.34-10.25,7.34-16.93,0-7.8-3.85-14.7-9.74-18.91ZM25.06,61.93c-3.01,8.22-1.71,14.89,7.41,17.48-10.96,2.38-15.37-10.93-7.41-17.48ZM47.23,77.25l-.02.02c-1.62,1.59-3.53,2.36-5.83,2.36s-4.31-.74-5.83-2.27-2.27-3.44-2.27-5.84.77-4.24,2.37-5.84c1.59-1.6,3.47-2.39,5.72-2.39s4.16.8,5.79,2.45c1.63,1.65,2.43,3.54,2.43,5.81s-.79,4.11-2.39,5.7ZM51.57,47.12h-.03c-1.97.99-3.1,1.83-3.62,2.71-.54.91-.69,5.13-.72,7.44h-12.08v-1.03c0-4.02.46-10.12,1-11.25.6-1.29,1.71-2.28,3.41-3.02l2.77-1.22c3.36-1.48,4.07-3.71,4.07-5.33,0-1.39-.51-2.62-1.48-3.58-.96-.96-2.2-1.48-3.58-1.48-1.88,0-4.93.77-5.46,5.55h-11.05c.22-3.91,1.25-7.17,3.1-9.68,1.54-2.11,3.56-3.81,6.03-5.04,2.47-1.25,5.05-1.88,7.67-1.88,4.75,0,8.63,1.53,11.85,4.65,3.22,3.11,4.78,6.87,4.78,11.5,0,5.59-2.17,9.4-6.66,11.65ZM67.35,49.07c-1,4.39-5.8,7.68-10.14,6.53h-.01c7.63-2.17,10.76-11.59,3.92-16.65,4.68.33,7.58,5.74,6.23,10.12Z"/>
</svg>