<?xml version="1.0" encoding="UTF-8"?>
<svg id="Layer_1" xmlns="http://www.w3.org/2000/svg" version="1.1" viewBox="0 0 121.73 128.44">
  <!-- Generator: Adobe Illustrator 30.1.0, SVG Export Plug-In . SVG Version: 2.1.1 Build 136)  -->
  <defs>
    <style>
      .st0 {
        fill: #fff;
      }
    </style>
  </defs>
  <path class="st0" d="M105.29,42.71h-26.27v-26.27c0-9.07-7.38-16.45-16.45-16.45H16.45C7.38,0,0,7.38,0,16.45v37.62c0,8.04,5.81,14.76,13.45,16.17v10.48c0,2.03,1.21,3.85,3.09,4.63.62.26,1.28.38,1.92.38,1.3,0,2.58-.51,3.54-1.47l13.74-13.74h6.97v26.27c0,8.04,5.81,14.76,13.45,16.17v10.48c0,2.03,1.21,3.85,3.09,4.63.62.26,1.28.38,1.92.38,1.3,0,2.58-.51,3.54-1.47l13.74-13.74h26.83c9.07,0,16.45-7.38,16.45-16.45v-37.62c0-9.07-7.38-16.45-16.45-16.45ZM42.71,59.16v5.35h-9.45l-13.81,13.81v-13.81h-3c-5.76,0-10.45-4.69-10.45-10.45V16.45c0-5.76,4.69-10.45,10.45-10.45h46.13c5.76,0,10.45,4.69,10.45,10.45v26.27h-13.86c-9.07,0-16.45,7.38-16.45,16.45ZM115.73,96.78c0,5.76-4.69,10.45-10.45,10.45h-29.32l-13.81,13.81v-13.81h-3c-5.76,0-10.45-4.69-10.45-10.45v-37.62c0-5.76,4.69-10.45,10.45-10.45h46.13c5.76,0,10.45,4.69,10.45,10.45v37.62Z"/>
  <path class="st0" d="M88.7,74.17c4.63-5.96,9.03-11.95,12.9-18.84-7.38,2.51-14.48,7.22-20.55,13.22-7.22-4.56-15.16-7.65-22.92-8.5,5.25,5.91,10.83,10.82,16.63,15.64-6.43,8.42-10.87,18.27-11.92,27.84,7.56-6.71,13.47-13.96,19.66-21.52,7.67,6.04,15.01,11.86,23.82,16.8-3.09-9.11-9.54-17.79-17.62-24.64Z"/>
  <path class="st0" d="M59.56,42.83c-3.09-4.39-7.08-8.75-11.31-12.34,4.63-5.96,9.03-11.95,12.9-18.84-7.38,2.51-14.48,7.22-20.55,13.22-7.22-4.56-15.16-7.65-22.92-8.5,5.25,5.91,10.83,10.82,16.63,15.64-6.43,8.42-10.87,18.27-11.92,27.84,7.56-6.71,13.47-13.96,19.66-21.52,2.9,2.28,5.76,4.54,8.66,6.72l8.85-2.22Z"/>
</svg>