<?xml version="1.0" encoding="UTF-8"?>
<svg id="Layer_1" xmlns="http://www.w3.org/2000/svg" width="142.13" height="116.36" version="1.1" viewBox="0 0 142.13 116.36">
  <!-- Generator: Adobe Illustrator 30.0.0, SVG Export Plug-In . SVG Version: 2.1.1 Build 123)  -->
  <defs>
    <style>
      .st0 {
        fill: #fff;
      }
    </style>
  </defs>
  <circle class="st0" cx="117.75" cy="15.06" r="15.06"/>
  <circle class="st0" cx="71.07" cy="15.06" r="15.06"/>
  <path class="st0" d="M95.45,42.51c0-6.84-5.54-12.38-12.38-12.38h-24c-6.84,0-12.38,5.54-12.38,12.38v31.29h12v42.55h24.77v-42.55h12v-31.29Z"/>
  <circle class="st0" cx="24.38" cy="15.06" r="15.06"/>
  <path class="st0" d="M129.75,30.13h-24c-3.09,0-5.9,1.14-8.07,3,1.74,2.71,2.77,5.92,2.77,9.38v31.29h4.92v42.55h24.77v-42.55h12v-31.29c0-6.84-5.54-12.38-12.38-12.38Z"/>
  <path class="st0" d="M41.68,42.51c0-3.46,1.03-6.67,2.77-9.38-2.17-1.87-4.98-3-8.07-3H12.38c-6.84,0-12.38,5.54-12.38,12.38v31.29h12v42.55h24.77v-42.55h4.92v-31.29Z"/>
</svg>