<?xml version="1.0" encoding="UTF-8"?>
<svg xmlns="http://www.w3.org/2000/svg" version="1.1" viewBox="0 0 5.8 4.6">
  <defs>
    <style>
      .cls-1 {
        fill: #fff;
      }
    </style>
  </defs>
  <!-- Generator: Adobe Illustrator 28.6.0, SVG Export Plug-In . SVG Version: 1.2.0 Build 709)  -->
  <g>
    <g id="Layer_1">
      <path class="cls-1" d="M2,0c.1,0,.3,0,.4.1s.2.2.2.3,0,.1-.1.2c-.3.3-.4.5-.5.6s-.1.3-.1.5,0,.2.2.3c.3.2.4.4.5.6s.2.4.2.6c0,.4-.1.7-.4,1s-.6.4-.9.4-.8-.2-1-.5c-.2-.3-.4-.6-.4-1C0,2.2.5,1.2,1.4.3c.2-.2.4-.3.7-.3Z"/>
      <path class="cls-1" d="M5.1,0c.1,0,.3,0,.4.1s.2.2.2.3,0,.1-.1.2c-.2.3-.4.5-.5.6s-.1.3-.1.5,0,.2.2.3c.3.2.4.4.5.6s.2.4.2.6c0,.4-.1.7-.4,1s-.6.4-.9.4-.8-.2-1-.5c-.2-.3-.4-.6-.4-1,0-.9.5-1.9,1.4-2.8.2-.2.4-.3.7-.3Z"/>
    </g>
  </g>
</svg>