<?xml version="1.0" encoding="utf-8"?>
<!-- Generator: Adobe Illustrator 27.5.0, SVG Export Plug-In . SVG Version: 6.00 Build 0)  -->
<svg version="1.1" xmlns="http://www.w3.org/2000/svg" xmlns:xlink="http://www.w3.org/1999/xlink" x="0px" y="0px"
	 width="27px" height="27px" viewBox="0 0 27 27" style="enable-background:new 0 0 27 27;" xml:space="preserve">
<path style="fill:#FFFFFF;" d="M10.1,23.6c0-0.5,0-1,0-1.6c0-0.1,0-0.2,0-0.3c0.1-0.2,0-0.3-0.1-0.5c-1.3-2.2-2.7-4.3-4-6.5
	c-0.1-0.2-0.3-0.3-0.5-0.4c-1.8-0.8-3.6-0.6-5.2,0.5C0.2,15,0.1,15,0.1,15.1C0,15,0,14.9,0,14.8c0-0.9,0-1.9,0.1-2.8
	c0.2-1.7,0.7-3.3,1.5-4.8c1.5-2.8,3.6-4.7,6.4-6c1.4-0.6,2.8-1,4.4-1.1c3-0.3,5.7,0.4,8.2,1.9c2,1.2,3.6,2.9,4.7,4.9
	c0.9,1.5,1.4,3.1,1.6,4.9C27,12.9,27,13.9,27,15c0,0,0,0.1-0.1,0.1c0,0-0.1,0-0.2,0c-0.5-0.4-1.1-0.7-1.7-0.9
	c-1.4-0.4-2.7-0.3-4,0.5l-0.1,0.1c-1.4,2.2-2.7,4.4-4.1,6.6c0,0.1,0,0.1,0,0.2s0,0.3,0,0.4c0,1.1,0,2.2,0,3.3c0,0.8-0.5,1.5-1.3,1.7
	c-0.2,0-0.3,0.1-0.5,0.1c-1.1,0-2.2,0-3.2,0c-0.8,0-1.5-0.5-1.7-1.3c0-0.2-0.1-0.3-0.1-0.5C10.1,24.7,10.1,24.2,10.1,23.6z
	 M3.8,10.5c0.5,0.1,1,0.1,1.4,0.2c0.5,0.1,0.9,0.3,1.4,0.4c0.1,0,0.1,0,0.2,0c0.3-0.1,0.6-0.3,0.9-0.4c2.7-1.1,5.4-1.5,8.3-1
	c1.5,0.2,2.8,0.7,4.2,1.4c0.1,0.1,0.2,0.1,0.3,0c0.6-0.3,1.2-0.4,1.8-0.5c0.3,0,0.6-0.1,0.9-0.1c-1.1-3.7-4.7-7.1-9.7-7.1
	C8.6,3.4,4.9,6.8,3.8,10.5z M9.4,13.7c0,0.1,0.1,0.1,0.1,0.2c1.3,2.1,2.5,4.2,3.8,6.2c0.1,0.2,0.2,0.2,0.4,0
	c1.2-1.9,2.4-3.9,3.6-5.8c0.1-0.2,0.2-0.4,0.3-0.6C14.9,12.7,12.1,12.7,9.4,13.7z"/>
</svg>
