<?xml version="1.0" encoding="utf-8"?>
<!-- Generator: Adobe Illustrator 27.9.0, SVG Export Plug-In . SVG Version: 6.00 Build 0)  -->
<svg version="1.1" xmlns="http://www.w3.org/2000/svg" xmlns:xlink="http://www.w3.org/1999/xlink" x="0px" y="0px"
	 viewBox="0 0 318 362.1" style="enable-background:new 0 0 318 362.1;" xml:space="preserve">
<path style="fill-rule:evenodd;clip-rule:evenodd;fill:#FFFFFF;" d="M311.7,0l6.2,124.9c0.1,1.2,0.1,2.4,0.1,3.6
	c-0.1,0.2-0.1,0.4,0,0.5l-2.9,9.8c-0.1,0.3-0.3,0.5-0.5,0.8c-1.3,2-2.9,3.8-4.8,5.3c-0.1,0.1-0.2,0.2-0.4,0.3
	c-2.4,1.9-5,3.3-7.9,4.1c-0.3,0-0.6,0-0.8,0.1c-0.3,0-0.6,0-0.8,0.1c-1.3,0.3-2.8,0.4-4.2,0.4l-116.3,5.6l-2.2-44.9l74.7-3.6
	c-0.9-0.9-1.8-1.8-2.7-2.6c-25-22.7-54.3-33.3-88-31.6l-0.1,0.1c-33.7,1.6-61.9,14.9-84.5,40C54,137.7,43.4,167,45,200.7
	c1.6,33.6,14.9,61.8,40,84.5c25,22.6,54.3,33.1,88,31.7l0.1,0c33.7-1.7,61.8-14.9,84.4-39.9c2.1-2.4,4.2-4.9,6.2-7.4l13.9-17.6
	l35.1,28l-13.9,17.5c-2.7,3.4-5.3,6.6-8.2,9.7c-31,34.1-69.5,52.3-115.6,54.6l-0.1,0.1C129,364,89,349.5,54.8,318.6l-0.1-0.1
	C20.6,287.6,2.3,249.1,0.1,203l0.1-0.1c-2.1-46.1,12.3-86.1,43.3-120.2S113,30.4,159,28.1c42-2,78.8,9.7,110.9,35.1l-3-60.9L311.7,0
	z"/>
</svg>
