<?xml version="1.0" encoding="utf-8"?>
<!-- Generator: Adobe Illustrator 27.9.1, SVG Export Plug-In . SVG Version: 6.00 Build 0)  -->
<svg version="1.1" xmlns="http://www.w3.org/2000/svg" xmlns:xlink="http://www.w3.org/1999/xlink" x="0px" y="0px"
	 viewBox="0 0 158.5 166.7" style="enable-background:new 0 0 158.5 166.7;" xml:space="preserve">
<path d="M98.6,0c29.2,0,52.7,23.5,52.7,52.7s-23.5,52.7-52.7,52.7S45.9,81.9,45.9,52.7S69.6,0,98.6,0z M98.6,92.6
	c22.2,0,40.1-17.9,40.1-40.1s-17.9-39.9-40.1-39.9S58.5,30.5,58.5,52.7S76.6,92.6,98.6,92.6z"/>
<path d="M98.6,38.6c-7.8,0-14.1,6.3-14.1,14.1H71.5c0-15.1,12.1-27.2,27.2-27.2C98.6,25.5,98.6,38.6,98.6,38.6z"/>
<path d="M0,104.3c4.1-1.8,8.3-3.5,12.4-5.2c10.6-4.3,21.9-3.7,33-1.1c14.9,3.5,29.7,7.4,44.5,10.9
	c3.5,0.9,7.3,0.9,10.8,1.9c4.8,1.4,5.4,4.3,1.7,7.5c-5.9,5-12.7,7.8-20.7,6.6c-4.4-0.7-8.8-1.8-13.3-2.1c-4-0.3-8,0.9-9.2,5.3
	c-1.2,4.5,2.8,5.8,5.9,7.4c0.7,0.4,1.5,0.7,2.3,1c15.7,5.7,31.5,8.2,47.7,1.8c3.9-1.5,7.9-2.9,12-3.5c8.3-1.2,16.8-2.1,25.2-2.5
	c2.1-0.1,4.2,2,6.4,3c-1.2,2-2,4.8-3.8,5.9c-6.8,4.5-13.9,8.4-20.8,12.7c-22.5,13.9-47,15.1-71.8,9.4c-15.4-3.5-30.4-8.7-45.3-13.6
	c-5.7-1.9-11.2-2.4-16.7-1.3V104.3z"/>
</svg>
