<?xml version="1.0" encoding="UTF-8"?>
<svg id="Layer_1" xmlns="http://www.w3.org/2000/svg" version="1.1" viewBox="0 0 105.4 82.8">
  <!-- Generator: Adobe Illustrator 30.1.0, SVG Export Plug-In . SVG Version: 2.1.1 Build 136)  -->
  <path d="M33.5,47v-11.7c1.1-.6,2.3-1.2,3.4-1.7h10v-2.9c1.9-.3,3.9-.4,5.9-.4h26.3l-16.4-16.4,9.9-9.9,32.8,32.8-32.9,32.9-9.9-9.9,16.4-16.4h-26.3c-14.5,0-26.3,11.8-26.3,26.3v13.1h-13.1v-13.1c0-8.4,2.7-16.3,7.2-22.7,0,0,13,0,13,0Z" style="fill: #fff;"/>
  <polygon points="0 13.4 13.4 13.4 13.4 0 26.5 0 26.5 13.4 40 13.4 40 26.6 26.5 26.6 26.5 40 13.4 40 13.4 26.6 0 26.6 0 13.4" style="fill: #fff;"/>
</svg>