<?xml version="1.0" encoding="utf-8"?>
<!-- Generator: Adobe Illustrator 27.5.0, SVG Export Plug-In . SVG Version: 6.00 Build 0)  -->
<svg version="1.1" xmlns="http://www.w3.org/2000/svg" xmlns:xlink="http://www.w3.org/1999/xlink" x="0px" y="0px"
	 width="92.4px" height="101.2px" viewBox="0 0 92.4 101.2" style="enable-background:new 0 0 92.4 101.2;" xml:space="preserve">
<path style="fill:#FFFFFF;" d="M40.7,25.8H24.2l13.7-13.7c2.8-2.8,2.8-7.3,0-10c-2.8-2.8-7.3-2.8-10,0L2.1,27.9l0,0l0,0
	c-0.2,0.2-0.3,0.3-0.5,0.5l0,0c0,0.1-0.1,0.1-0.1,0.2l0,0c-0.1,0.1-0.2,0.2-0.2,0.3l0,0c0,0.1-0.1,0.1-0.1,0.2c0,0,0,0,0,0.1
	c-0.1,0.1-0.1,0.2-0.2,0.3l0,0c0,0.1-0.1,0.2-0.1,0.3l0,0c0,0.1-0.1,0.2-0.1,0.3l0,0c0,0.1-0.1,0.2-0.1,0.3c0,0.1-0.1,0.2-0.1,0.3
	l0,0c0,0.1,0,0.2-0.1,0.3c0,0.1-0.1,0.2-0.1,0.3l0,0c0,0.1,0,0.2,0,0.3l0,0c0,0.1,0,0.2,0,0.3l0,0c0,0.1,0,0.2,0,0.3s0,0.2,0,0.4
	c0,0.1,0,0.2,0,0.3s0,0.3,0,0.4l0,0c0,0.1,0,0.2,0,0.3s0,0.2,0,0.3l0,0c0,0.1,0.1,0.2,0.1,0.3s0,0.2,0.1,0.3l0,0
	c0,0.1,0.1,0.2,0.1,0.3s0.1,0.2,0.1,0.3l0,0c0,0.1,0.1,0.2,0.1,0.3S1,35.6,1,35.7l0,0c-0.1,0.6,0,0.7,0,0.8c0.1,0.1,0.1,0.2,0.2,0.3
	l0,0c0.1,0.1,0.1,0.2,0.2,0.3s0.1,0.2,0.2,0.2l0,0c0.1,0.1,0.2,0.3,0.4,0.4l0.1,0.1l25.8,25.9c1.4,1.4,3.2,2.1,5,2.1
	c1.8,0,3.6-0.7,5-2.1c2.8-2.8,2.8-7.2,0-10L24.2,40h16.5c20.7,0,37.6,16.9,37.6,37.6v16.5c0,3.9,3.2,7.1,7.1,7.1s7.1-3.2,7.1-7.1
	V77.6C92.5,49,69.3,25.8,40.7,25.8z"/>
</svg>
