<?xml version="1.0" encoding="UTF-8"?>
<svg id="Layer_1" xmlns="http://www.w3.org/2000/svg" version="1.1" viewBox="0 0 105.4 82.8">
  <!-- Generator: Adobe Illustrator 29.4.0, SVG Export Plug-In . SVG Version: 2.1.0 Build 152)  -->
  <defs>
    <style>
      .st0 {
        fill: #fff;
      }
    </style>
  </defs>
  <path class="st0" d="M71.9,47v-11.7c-1.1-.6-2.3-1.2-3.4-1.7h-10v-2.9c-1.9-.3-3.9-.4-5.9-.4h-26.3l16.4-16.4-9.9-9.9L0,36.8l32.9,32.9,9.9-9.9-16.4-16.4h26.3c14.5,0,26.3,11.8,26.3,26.3v13.1h13.1v-13.1c0-8.4-2.7-16.3-7.2-22.7h-13Z"/>
  <polygon class="st0" points="105.4 13.4 92 13.4 92 0 78.9 0 78.9 13.4 65.4 13.4 65.4 26.6 78.9 26.6 78.9 40 92 40 92 26.6 105.4 26.6 105.4 13.4"/>
</svg>