<?xml version="1.0" encoding="utf-8"?>
<!-- Generator: Adobe Illustrator 27.5.0, SVG Export Plug-In . SVG Version: 6.00 Build 0)  -->
<svg version="1.1" xmlns="http://www.w3.org/2000/svg" xmlns:xlink="http://www.w3.org/1999/xlink" x="0px" y="0px"
	 width="481.9px" height="507.3px" viewBox="0 0 481.9 507.3" style="enable-background:new 0 0 481.9 507.3;" xml:space="preserve"
	>
<path style="fill:#FFFFFF;" d="M413.1,0H68.8C30.8,0,0,30.8,0,68.8v272.6c0,38,30.8,68.8,68.8,68.8H135c3,0,5.9,1.2,8,3.3l90.5,90.5
	c4.4,4.4,11.6,4.4,16,0l90.5-90.5c2.1-2.1,5-3.3,8-3.3h65.2c38,0,68.8-30.8,68.8-68.8V68.8C481.9,30.8,451.1,0,413.1,0z
	 M414.9,334.9c0,4-3.3,7.3-7.3,7.3H319c-1.9,0-3.8,0.8-5.2,2.1l-67.2,67.2c-2.9,2.9-7.5,2.9-10.3,0l-67.2-67.2
	c-1.4-1.4-3.2-2.1-5.2-2.1H75.3c-4,0-7.3-3.3-7.3-7.3V71.7c0-4,3.3-7.3,7.3-7.3h332.2c4,0,7.3,3.3,7.3,7.3v263.2H414.9z"/>
<path style="fill:#FFFFFF;" d="M199.8,237.4h-55.6c-4.3,0-7.7-3.5-7.7-7.7v-55.6c0-4.3,3.5-7.7,7.7-7.7h55.6c4.3,0,7.7,3.5,7.7,7.7
	v55.6C207.5,233.9,204.1,237.4,199.8,237.4z"/>
<path style="fill:#FFFFFF;" d="M337.7,237.4h-55.6c-4.3,0-7.7-3.5-7.7-7.7v-55.6c0-4.3,3.5-7.7,7.7-7.7h55.6c4.3,0,7.7,3.5,7.7,7.7
	v55.6C345.5,233.9,342,237.4,337.7,237.4z"/>
</svg>
