<?xml version="1.0" encoding="utf-8"?>
<!-- Generator: Adobe Illustrator 27.8.1, SVG Export Plug-In . SVG Version: 6.00 Build 0)  -->
<svg version="1.1" xmlns="http://www.w3.org/2000/svg" xmlns:xlink="http://www.w3.org/1999/xlink" x="0px" y="0px"
	 viewBox="0 0 75.1 69.4" style="enable-background:new 0 0 75.1 69.4;" xml:space="preserve">
<path d="M50.7,50.8c-3.8,3.1-8.4,4.8-13.3,4.8c-7.9,0-15-4.3-18.6-11.3l3-1.5c1.6-0.8,1.6-3,0-3.8L6.3,31
	c-1.2-0.7-2.8,0-3.1,1.5L0,49.7c-0.4,1.7,1.4,3.1,3,2.3l3.4-1.7c5.9,11.8,17.8,19.1,31,19.1c8,0,15.9-2.8,22-7.9
	c2.9-2.4,3.4-6.8,0.9-9.7C58,48.8,53.7,48.4,50.7,50.8z"/>
<path d="M72,17.5l-3.5,1.7C62.6,7.4,50.7,0,37.5,0c-8,0-15.9,2.8-22,7.9c-2.9,2.4-3.4,6.8-0.9,9.7
	c2.4,2.9,6.8,3.4,9.7,0.9c3.8-3.1,8.4-4.8,13.3-4.8c7.9,0,15.1,4.4,18.6,11.5l-2.9,1.4c-1.6,0.8-1.6,3,0,3.8l15.6,7.9
	c1.2,0.7,2.8,0,3.1-1.5l3.2-17.2C75.4,18.1,73.7,16.7,72,17.5z"/>
</svg>
