<?xml version="1.0" encoding="utf-8"?>
<!-- Generator: Adobe Illustrator 27.9.4, SVG Export Plug-In . SVG Version: 9.03 Build 54784)  -->
<svg version="1.1" xmlns="http://www.w3.org/2000/svg" xmlns:xlink="http://www.w3.org/1999/xlink" x="0px" y="0px"
	 viewBox="0 0 155.7 155.7" style="enable-background:new 0 0 155.7 155.7;" xml:space="preserve">
<path d="M135.5,0H20.2C9,0,0,9,0,20.2v115.3c0,11.2,9,20.2,20.2,20.2h115.3c11.2,0,20.2-9,20.2-20.2V20.2
	C155.7,9,146.6,0,135.5,0z M20.2,15.9h115.3c2.4,0,4.3,1.9,4.3,4.3v26.4H15.9V20.2C15.9,17.8,17.8,15.9,20.2,15.9z M139.8,62.5v30.7
	H15.9V62.5H139.8z M135.5,139.8H20.2c-2.4,0-4.3-1.9-4.3-4.3v-26.4h123.9v26.4C139.8,137.8,137.8,139.8,135.5,139.8z"/>
</svg>
