<?xml version="1.0" encoding="UTF-8"?>
<svg xmlns="http://www.w3.org/2000/svg" version="1.1" viewBox="0 0 295 295">
  <path d="M147.5,0C66,0,0,66,0,147.5s66,147.5,147.5,147.5,147.5-66,147.5-147.5S229,0,147.5,0ZM147.5,267.5c-66.3,0-120-53.7-120-120S81.2,27.5,147.5,27.5s120,53.7,120,120-53.7,120-120,120Z"/>
  <path d="M181.5,242.4c-6.1,0-11.8-3.8-14.1-9.8-3.2-8.7-13-12.4-21.3-12.1-7.1.2-15.7,3.3-18.2,11.4-2.5,7.9-10.9,12.3-18.8,9.9-7.9-2.5-12.3-10.9-9.9-18.8,6-19.2,24-31.9,46.1-32.5,22.8-.6,43,12.2,50.2,31.7,2.9,7.8-1.1,16.4-8.9,19.3-1.7.6-3.5.9-5.2.9Z"/>
  <path d="M65.9,183c-6.4,0-12.3-4.1-14.3-10.4-2.5-7.9,1.8-16.3,9.7-18.9l40.4-12.9c7.9-2.5,16.3,1.8,18.9,9.7,2.5,7.9-1.8,16.3-9.7,18.9l-40.4,12.9c-1.5.5-3.1.7-4.6.7Z"/>
  <path d="M229.1,182.4c-1.4,0-2.8-.2-4.1-.6l-40.8-11.7c-8-2.3-12.6-10.6-10.3-18.5s10.6-12.6,18.5-10.3l40.8,11.7c8,2.3,12.6,10.6,10.3,18.5-1.9,6.6-7.9,10.9-14.4,10.9Z"/>
</svg>
