<?xml version="1.0" encoding="UTF-8"?>
<svg xmlns="http://www.w3.org/2000/svg" version="1.1" viewBox="0 0 76.6 68.7">
  <defs>
    <style>
      .cls-1 {
        fill: #fff;
      }
    </style>
  </defs>
  <!-- Generator: Adobe Illustrator 28.6.0, SVG Export Plug-In . SVG Version: 1.2.0 Build 709)  -->
  <g>
    <g id="Layer_1">
      <path class="cls-1" d="M31.3,6.6c-8.2-1-16.5-.9-24.7,0-1.3.2-2.5.2-2.9-1.4-.4-1.7.3-2.7,2.1-3,4-.7,7.9-1.7,11.9-2.2,5.2-.6,10.2.7,15.1,2.2,1.6.5,2.3,1.3,2,2.9-.3,1.6-1.5,1.7-2.8,1.5-.3,0-.5,0-.8,0Z"/>
      <path class="cls-1" d="M70.6,6.4c-6.4,0-12.8-.2-19.2-.2-2.4,0-4.7.4-7.1.6-1.3.1-2.3,0-2.6-1.5-.2-1.3.1-2.4,1.6-2.8C48.2,1,53.2-.5,58.4.1c4.3.5,8.6,1.5,12.9,2.3,1.6.3,1.9,1.6,1.5,2.8-.3.8-1.2,1.3-1.9,1.9-.1-.3-.2-.5-.3-.8Z"/>
      <path class="cls-1" d="M76.5,25.5c0-2.4-.8-4.5-2.3-6.3-2.6-3.2-6-4.7-10.1-4.7-17.2,0-34.5,0-51.7,0-.8,0-1.6,0-2.4.1C4.4,15.3-.1,20.9,0,25.9c.3,10.3.4,20.7,0,31-.2,6.3,6.3,11.9,11.9,11.8,8.7-.1,17.4,0,26.2,0,9.1,0,18.1,0,27.2,0,5.6,0,11.4-5.7,11.3-11.3-.3-10.6-.1-21.2,0-31.8ZM20.6,33.6c-5.7,0-10.2,2.4-14.2,6.6.1-7.6,6.2-12.9,14.3-12.8,8,0,14.1,5.4,14.1,12.8-4-4.1-8.5-6.5-14.2-6.5ZM23.9,57.6c4.7.7,9.6,2.1,14.5,2.1,4.9,0,9.7-1.4,14.3-2.1-5.3,8.2-22.8,8.3-28.8,0ZM41.8,39.9c-.3-6.7,5.6-12.2,13.4-12.5,8.4-.3,14.7,4.9,15,12.7-10.8-8.7-16.7-8.7-28.4-.1Z"/>
    </g>
  </g>
</svg>