<?xml version="1.0" encoding="utf-8"?>
<!-- Generator: Adobe Illustrator 27.5.0, SVG Export Plug-In . SVG Version: 6.00 Build 0)  -->
<svg version="1.1" xmlns="http://www.w3.org/2000/svg" xmlns:xlink="http://www.w3.org/1999/xlink" x="0px" y="0px"
	 width="49.1px" height="49.1px" viewBox="0 0 49.1 49.1" style="enable-background:new 0 0 49.1 49.1;" xml:space="preserve">
<rect x="28.1" y="7.8" style="fill:#FFFFFF;" width="6" height="8.1"/>
<path style="fill:#FFFFFF;" d="M42.6,0h-3H9.5h-3C2.9,0,0,2.9,0,6.5v36C0,46.1,2.9,49,6.5,49h3h30.1h3c3.6,0,6.5-2.9,6.5-6.5v-36
	C49.1,2.9,46.1,0,42.6,0z M24.5,37.8c-3.9,0-7.1-3.2-7.1-7.1s3.2-7.1,7.1-7.1s7.1,3.2,7.1,7.1S28.5,37.8,24.5,37.8z M39.6,19.4H9.5
	V4.8h30.1V19.4z"/>
</svg>
