<?xml version="1.0" encoding="utf-8"?>
<!-- Generator: Adobe Illustrator 27.8.1, SVG Export Plug-In . SVG Version: 6.00 Build 0)  -->
<svg version="1.1" xmlns="http://www.w3.org/2000/svg" xmlns:xlink="http://www.w3.org/1999/xlink" x="0px" y="0px"
	 viewBox="0 0 72 71.9" style="enable-background:new 0 0 72 71.9;" xml:space="preserve">
<path d="M21,65.8l-2.5-2.5l44.8-44.8l2.6,2.6c1.2,1.2,3.4,0.5,3.6-1.2L72,2.4C72.2,1,71-0.2,69.6,0L52.2,2.5
	c-1.7,0.2-2.5,2.4-1.2,3.6l2.5,2.5L8.7,53.5l-2.6-2.6c-1.2-1.2-3.4-0.5-3.6,1.2L0,69.5c-0.2,1.4,1,2.6,2.4,2.4l17.4-2.5
	C21.6,69.1,22.3,67,21,65.8z"/>
</svg>
