<?xml version="1.0" encoding="UTF-8"?>
<svg id="Layer_1" xmlns="http://www.w3.org/2000/svg" version="1.1" viewBox="0 0 249.3 249.3">
  <!-- Generator: Adobe Illustrator 29.2.0, SVG Export Plug-In . SVG Version: 2.1.0 Build 108)  -->
  <defs>
    <style>
      .st0 {
        fill-rule: evenodd;
      }
    </style>
  </defs>
  <path d="M10.5,83.4c-5.8,0-10.5-4.7-10.5-10.5V10.5C0,4.7,4.7,0,10.5,0h62.4c5.8,0,10.5,4.7,10.5,10.5s-4.7,10.5-10.5,10.5H21v51.9c0,5.8-4.7,10.5-10.5,10.5Z"/>
  <path d="M238.8,83.4c-5.8,0-10.5-4.7-10.5-10.5V21h-51.9c-5.8,0-10.5-4.7-10.5-10.5s4.7-10.5,10.5-10.5h62.4c5.8,0,10.5,4.7,10.5,10.5v62.4c0,5.8-4.7,10.5-10.5,10.5Z"/>
  <path d="M72.9,249.3H10.5c-5.8,0-10.5-4.7-10.5-10.5v-62.4c0-5.8,4.7-10.5,10.5-10.5s10.5,4.7,10.5,10.5v51.9h51.9c5.8,0,10.5,4.7,10.5,10.5s-4.7,10.5-10.5,10.5Z"/>
  <path d="M238.8,249.3h-62.4c-5.8,0-10.5-4.7-10.5-10.5s4.7-10.5,10.5-10.5h51.9v-51.9c0-5.8,4.7-10.5,10.5-10.5s10.5,4.7,10.5,10.5v62.4c0,5.8-4.7,10.5-10.5,10.5Z"/>
  <path class="st0" d="M206.1,53.7H43.1c-5.8,0-10.5,4.7-10.5,10.5v120.8c0,5.8,4.7,10.5,10.5,10.5h163c5.8,0,10.5-4.7,10.5-10.5v-120.8c0-5.8-4.7-10.5-10.5-10.5ZM195.6,74.7v48.9l-29-25.3-47.5,54.1-37.4-32.5-28.1,47.4v-92.6h142Z"/>
</svg>