<?xml version="1.0" encoding="utf-8"?>
<!-- Generator: Adobe Illustrator 27.5.0, SVG Export Plug-In . SVG Version: 6.00 Build 0)  -->
<svg version="1.1" xmlns="http://www.w3.org/2000/svg" xmlns:xlink="http://www.w3.org/1999/xlink" x="0px" y="0px"
	 width="437.6px" height="437.5px" viewBox="0 0 437.6 437.5" style="enable-background:new 0 0 437.6 437.5;" xml:space="preserve"
	>
<path style="fill:#FFFFFF;" d="M437.6,409.8c0.3-13.7-10.9-22.3-19.7-31.2c-29-29-58-58-87-87C411.1,184.4,348.1,25.9,216.2,3
	C74.2-23.6-42.6,121.2,14.5,254.1c43.3,108,184.4,147.1,277,76.6c28.1,28.1,56.3,56.3,84.4,84.4c9.8,9.3,18.9,22.8,33.9,22.5
	C424.5,437.8,438,424.6,437.6,409.8z M232.6,301.1c-90.5,37.8-188.8-37.3-176.3-134.5C70.1,62.2,199.1,17.9,273.5,92.8l0,0
	C337.8,155.8,315.5,266.8,232.6,301.1z"/>
</svg>
