<?xml version="1.0" encoding="utf-8"?>
<!-- Generator: Adobe Illustrator 27.9.4, SVG Export Plug-In . SVG Version: 9.03 Build 54784)  -->
<svg version="1.1" xmlns="http://www.w3.org/2000/svg" xmlns:xlink="http://www.w3.org/1999/xlink" x="0px" y="0px"
	 viewBox="0 0 223.4 222.7" style="enable-background:new 0 0 223.4 222.7;" xml:space="preserve">
<path d="M74.8,137.5c-21.3,23.2-49.2,17.5-63.2,2.9c-15.7-16.5-15.5-42.4,0.6-58.6c14.1-14.3,41.6-19.4,62.4,3.3
	c1.1-0.5,2.3-1,3.4-1.6c19.5-10.2,38.9-20.5,58.4-30.6c2.6-1.4,3.9-2.4,3.4-5.9c-2.8-22.7,13.2-43.6,35-46.5
	c23-3.1,44.2,12.1,47.6,34.2C226.2,58,211,79.4,187.6,83c-14.7,2.3-27.2-2.7-37.7-13.6c-3.5,1.8-7.1,3.7-10.6,5.5
	c-17.4,9.1-34.7,18.3-52.2,27.4c-2.6,1.4-3.4,2.9-3.9,6c-1.3,8.5,3,12,9.9,15.4c17.3,8.5,34.2,17.8,51.6,26.9
	c7.6-8.4,16.6-14.1,27.8-15.5c17.8-2.3,32.3,3.9,42.5,18.5c10.1,14.5,11,30.3,2.6,45.8c-8.5,15.7-22.2,23.7-40.1,23.2
	c-26.1-0.6-45.6-23.5-42.3-49.4c0.3-2.7-0.1-4.2-2.7-5.5C113.3,157.9,94.2,147.7,74.8,137.5z M179.1,201.9
	c12.8-0.1,23.2-10.6,23-23.3c-0.1-12.7-10.7-23.1-23.4-23c-12.7,0.1-23.2,10.8-23.1,23.4C155.8,191.6,166.4,202,179.1,201.9z
	 M62.5,111.2c-0.1-11.5-9.6-20.9-21.1-20.7c-11.3,0.2-20.5,9.6-20.5,20.8c0,11.5,9.5,21,20.9,21C53.3,132.3,62.6,122.8,62.5,111.2z
	 M181.3,62.5c11.4,0,20.7-9.2,20.8-20.6c0.1-11.5-9.4-21-21-21c-11.5,0.1-20.6,9.2-20.7,20.7C160.4,53.3,169.6,62.5,181.3,62.5z"/>
</svg>
