<?xml version="1.0" encoding="UTF-8"?>
<svg xmlns="http://www.w3.org/2000/svg" version="1.1" viewBox="0 0 16 16">
  <defs>
    <style>
      .cls-1, .cls-2 {
        fill: #fff;
      }

      .cls-2 {
        fill-rule: evenodd;
      }
    </style>
  </defs>
  <!-- Generator: Adobe Illustrator 28.6.0, SVG Export Plug-In . SVG Version: 1.2.0 Build 709)  -->
  <g>
    <g id="Layer_1">
      <path class="cls-1" d="M12,5h2v2h2v2h-2v2h-2v-2h-2v-2h2v-2Z"/>
      <path class="cls-2" d="M7.3,9c-1.5,0-1.2-.5-1.3-1.1,2.1-.6,3.4-2.8,2.8-4.9-.4-1.8-2-3-3.8-3S1,1.8,1,4s1.2,3.4,3,3.9c-.1.7-.7,1.1-1.3,1.1-1.5,0-2.7,1.2-2.7,2.7v4.3h2v-4.3c0-.4.3-.7.7-.7.9,0,1.7-.3,2.3-1,.6.6,1.5,1,2.3,1s.7.3.7.7v4.3h2v-4.3c0-1.5-1.2-2.7-2.7-2.7ZM3,4c0-1.1.9-2,2-2s2,.9,2,2-.9,2-2,2-2-.9-2-2Z"/>
    </g>
  </g>
</svg>