<?xml version="1.0" encoding="utf-8"?>
<!-- Generator: Adobe Illustrator 27.5.0, SVG Export Plug-In . SVG Version: 6.00 Build 0)  -->
<svg version="1.1" xmlns="http://www.w3.org/2000/svg" xmlns:xlink="http://www.w3.org/1999/xlink" x="0px" y="0px"
	 width="397.8px" height="434px" viewBox="0 0 397.8 434" style="enable-background:new 0 0 397.8 434;" xml:space="preserve">
<path style="fill:#FFFFFF;" d="M198.4,434c-3,0-6-0.6-8.7-2c-6.9-3.3-169.4-84.8-188.4-212C-1.3,202.2,0.7,99,1.1,78.5
	c0.1-4.1,1.4-8,3.9-11.3c2.4-3.3,5.8-5.7,9.6-7L192.2,1c4-1.4,8.4-1.4,12.5,0l177.6,59.2l0,0c3.8,1.3,7.1,3.6,9.5,6.8
	c2.4,3.2,3.8,7,4,11c2.8,47.3,2.7,94.8-0.2,142.1c-19,127.1-181.6,208.7-188.4,212.1C204.4,433.5,201.5,434.1,198.4,434L198.4,434z
	 M40.3,93.2c-0.9,48.6-1.4,111.2,0,120.9C53.9,305.6,166,373.9,198.4,391.9c32.4-18,144.5-86.3,158.1-177.9
	c2.6-40.2,2.7-80.6,0.4-120.8L198.5,40.5L40.3,93.2z"/>
<path style="fill:#FFFFFF;" d="M198.9,244.1L198.9,244.1c-10.9,0-19.7-8.8-19.7-19.7V100.8c0-10.9,8.8-19.7,19.7-19.7l0,0
	c10.9,0,19.7,8.8,19.7,19.7v123.6C218.6,235.3,209.8,244.1,198.9,244.1z"/>
<path style="fill:#FFFFFF;" d="M198.9,331.3L198.9,331.3c-17.3,0-31.3-14-31.3-31.3l0,0c0-17.3,14-31.3,31.3-31.3l0,0
	c17.3,0,31.3,14,31.3,31.3l0,0C230.2,317.3,216.2,331.3,198.9,331.3z"/>
</svg>
