<?xml version="1.0" encoding="utf-8"?>
<!-- Generator: Adobe Illustrator 27.5.0, SVG Export Plug-In . SVG Version: 6.00 Build 0)  -->
<svg version="1.1" xmlns="http://www.w3.org/2000/svg" xmlns:xlink="http://www.w3.org/1999/xlink" x="0px" y="0px"
	 width="237.5px" height="271.4px" viewBox="0 0 237.5 271.4" style="enable-background:new 0 0 237.5 271.4;" xml:space="preserve"
	>
<path style="fill-rule:evenodd;clip-rule:evenodd;fill:#FFFFFF;" d="M34,33c27.3-2.8,53.6-12.3,76.6-27.6l8.2-5.4l8.2,5.4
	c23,15.3,49.3,24.8,76.6,27.6c5.8,0.6,11.6,0.9,17.5,0.9h16.5l-8.4,95.7c-4.1,46.7-29.4,88.9-68.6,114.5l-41.8,27.3L77,244.2
	c-39.2-25.6-64.5-67.8-68.6-114.5L0,33.9h16.5C22.4,33.9,28.2,33.6,34,33z M36.9,66.8l5.2,59.8c3.2,36.3,22.9,69.1,53.4,89.1
	l6.2,4.1V49.1C81.3,58.6,59.4,64.6,36.9,66.8z M135.7,49.1v170.7l6.2-4.1c30.5-19.9,50.2-52.8,53.4-89.1l5.2-59.8
	C178.1,64.6,156.2,58.6,135.7,49.1z"/>
</svg>
