<?xml version="1.0" encoding="utf-8"?>
<!-- Generator: Adobe Illustrator 27.2.0, SVG Export Plug-In . SVG Version: 6.00 Build 0)  -->
<svg version="1.1" id="Layer_1" xmlns="http://www.w3.org/2000/svg" xmlns:xlink="http://www.w3.org/1999/xlink" x="0px" y="0px"
	 width="35px" height="40px" viewBox="0 0 35 40" style="enable-background:new 0 0 35 40;" xml:space="preserve">
<style type="text/css">
	.st0{fill-rule:evenodd;clip-rule:evenodd;fill:#BB3C3C;}
</style>
<g>
	<path class="st0" d="M5,4.9c4-0.4,7.9-1.8,11.3-4.1L17.5,0l1.2,0.8C22.1,3.1,26,4.4,30,4.9C30.8,5,31.7,5,32.6,5H35l-1.2,14.1
		C33.2,26,29.4,32.2,23.7,36l-6.2,4l-6.2-4C5.6,32.2,1.8,26,1.2,19.1L0,5h2.4C3.3,5,4.2,5,5,4.9z M5.4,9.8l0.8,8.8
		c0.5,5.4,3.4,10.2,7.9,13.1l0.9,0.6V7.2C12,8.6,8.8,9.5,5.4,9.8z M20,7.2v25.2l0.9-0.6c4.5-2.9,7.4-7.8,7.9-13.1l0.8-8.8
		C26.2,9.5,23,8.6,20,7.2z"/>
</g>
</svg>
