<?xml version="1.0" encoding="utf-8"?>
<!-- Generator: Adobe Illustrator 27.5.0, SVG Export Plug-In . SVG Version: 6.00 Build 0)  -->
<svg version="1.1" xmlns="http://www.w3.org/2000/svg" xmlns:xlink="http://www.w3.org/1999/xlink" x="0px" y="0px"
	 width="449.9px" height="391.7px" viewBox="0 0 449.9 391.7" style="enable-background:new 0 0 449.9 391.7;" xml:space="preserve"
	>
<path style="fill:#FFFFFF;" d="M388.5,0c-0.1,0-0.2,0.1-0.3,0.1C314.3,41.5,234.1,66.3,149.7,74v151.8
	c84.3,7.7,164.5,32.5,238.5,73.9c0.1,0.1,0.3,0.2,0.6,0c0.3-0.2,0.3-0.3,0.3-0.5V0.6c0-0.2,0-0.3-0.3-0.5C388.7,0,388.6,0,388.5,0
	L388.5,0z"/>
<path style="fill:#FFFFFF;" d="M60.2,75.3c-7.5,0-13.5,6.1-13.5,13.5V211c0,5.5,3.3,10.2,8,12.3c1.7,0.7,2.2,0.9,4.6,1.1
	c0.3,0,66.4,0,66.4,0V75.3H60.2z"/>
<path style="fill:#FFFFFF;" d="M413.2,105.1v89.7c20.9-4.2,36.7-22.7,36.7-44.8S434.1,109.3,413.2,105.1L413.2,105.1z"/>
<path style="fill:#FFFFFF;" d="M7.1,108.5c-3.9,0-7.1,3.2-7.1,7.1v68.5c0,3.9,3.2,7.1,7.1,7.1h15.4v-82.8L7.1,108.5L7.1,108.5z"/>
<path style="fill:#FFFFFF;" d="M71.8,248.5l51.8,142.9c0,0.1,0.2,0.2,0.3,0.2H180c0.1,0,0.2,0,0.3-0.1s0.1-0.2,0-0.3l-51.7-142.6
	L71.8,248.5L71.8,248.5z"/>
</svg>
