<?xml version="1.0" encoding="utf-8"?>
<!-- Generator: Adobe Illustrator 27.5.0, SVG Export Plug-In . SVG Version: 6.00 Build 0)  -->
<svg version="1.1" xmlns="http://www.w3.org/2000/svg" xmlns:xlink="http://www.w3.org/1999/xlink" x="0px" y="0px"
	 width="293.6px" height="350.8px" viewBox="0 0 293.6 350.8" style="enable-background:new 0 0 293.6 350.8;" xml:space="preserve"
	>
<path style="fill:#FFFFFF;" d="M146.8,232.1c15.1,0,29.5-6,40.2-16.6c10.7-10.7,16.6-25.1,16.6-40.2c0-15.1-6-29.5-16.6-40.2
	c-10.7-10.7-25.1-16.6-40.2-16.6c-15.1,0-29.5,6-40.2,16.6S90,160.1,90,175.2c0,15.1,6,29.5,16.6,40.2
	C117.3,226.1,131.7,232.1,146.8,232.1z M146.8,156.3c5,0,9.8,2,13.4,5.5c3.6,3.6,5.6,8.4,5.6,13.4s-2,9.8-5.6,13.4
	c-3.6,3.6-8.4,5.6-13.4,5.6s-9.8-2-13.4-5.6c-3.6-3.6-5.5-8.4-5.5-13.4s2-9.8,5.5-13.4C137,158.3,141.8,156.3,146.8,156.3z"/>
<path style="fill:#FFFFFF;" d="M146.8,303.1c74.1,0,119.2-60.6,135.2-86.6c7.6-12.4,11.6-26.7,11.6-41.2c0-14.6-4-28.8-11.6-41.2
	c-9.5-15.6-21-29.9-34.1-42.6l21.2-21.1l0,0c4.8-4.8,6.7-11.8,4.9-18.3c-1.8-6.5-6.9-11.6-13.4-13.4c-6.5-1.8-13.5,0.1-18.3,4.9
	L217.8,68c-15.9-9.8-33.6-16.2-52.1-18.9v-30c0-5-2-9.8-5.6-13.4C156.6,2,151.8,0,146.8,0s-9.8,2-13.4,5.5
	c-3.6,3.6-5.5,8.4-5.5,13.4v29.8c-18.5,2.7-36.2,9.1-52.1,18.9L51.3,43.2l0,0c-4.8-4.8-11.8-6.7-18.3-4.9s-11.6,6.9-13.4,13.4
	s0.1,13.5,4.9,18.3l21.1,21.2c-13.1,12.8-24.5,27.1-34,42.6C4,146.2,0,160.5,0,175.1s4,28.8,11.6,41.2
	C27.6,242.5,72.7,303.1,146.8,303.1L146.8,303.1z M43.9,153.8C57.2,132,92.2,85.2,146.8,85.2s89.6,46.8,102.9,68.5
	c4,6.5,6.1,13.9,6.1,21.5s-2.1,15-6.1,21.5c-13.3,21.7-48.3,68.5-102.9,68.5s-89.6-46.8-102.9-68.5c-4-6.4-6.1-13.9-6.1-21.5
	C37.9,167.6,40,160.2,43.9,153.8z"/>
</svg>
