<?xml version="1.0" encoding="UTF-8"?>
<svg  xmlns="http://www.w3.org/2000/svg" version="1.1" viewBox="0 0 255 225.2">
  <path d="M89.4,112.6c-8.9-13.9-17.5-27.7-26.5-41.3-4.9-7.5-12.4-10.9-21.2-11.2-8-.2-16,0-24,0-9.7,0-16.7-6.3-17.6-15.5-.8-8.8,4.9-17.4,14.2-18,15.7-1.1,31.7-2.4,47,2.8,13.4,4.5,23.8,13.1,31.4,25,19.4,30.5,39,60.8,58.2,91.4,6.8,10.9,16.4,14.9,29.5,13.6,0-6,.1-11.9,0-17.8-.2-5.3,1.4-9.6,6.3-12.1,4.9-2.5,9.2-1.1,13.5,2,16.3,11.8,32.7,23.5,49,35.3,7.6,5.5,7.7,14.1,0,19.6-16.7,12.2-33.5,24.1-50.3,36.2-3.8,2.7-8,3.3-12.2,1.2-4.5-2.3-6.3-6.1-6.3-11,0-6.1,0-12.3,0-18.3-6.8-.8-13.3-1.2-19.6-2.4-16-3.2-28.2-12.2-37.2-25.6-4.7-7.1-9.2-14.2-14.2-22-5.8,9.1-11.4,17.7-16.9,26.4-7.4,11.6-17.4,20.3-30.5,24.5-6.2,2-12.9,3.2-19.5,3.6-8.5.6-17,.2-25.5.1C7.5,198.9,0,191.5,0,182c0-9.5,7.4-17,17.2-17.1,8.2,0,16.3,0,24.5,0,8.8,0,16.1-3.4,20.9-10.7,9.2-13.7,17.9-27.7,26.8-41.6Z"/>
  <path d="M180.5,31.5c0-6.5.1-12.5,0-18.5-.1-5.1,1.6-9.2,6.2-11.6,4.7-2.5,8.9-1.3,13,1.6,16.3,11.8,32.7,23.5,49,35.3,8.4,6.1,8.3,14.4-.2,20.5-16.1,11.6-32.2,23.1-48.2,34.7-4.3,3.1-8.8,4.7-13.9,1.9-4.8-2.7-6.1-7.1-5.9-12.3.2-5.6,0-11.3,0-17.1-11.9-1.5-21.9,1-28,11.4-5.2,8.8-17.2,9.2-21.9-.6-.5-1-1.2-2-1.9-3-7.4-11.5-7.1-14.2,2.6-24.1,11.5-11.6,25.3-18.2,41.8-18.4,2.3,0,4.6,0,7.4,0Z"/>
</svg>
