<?xml version="1.0" encoding="utf-8"?>
<!-- Generator: Adobe Illustrator 27.5.0, SVG Export Plug-In . SVG Version: 6.00 Build 0)  -->
<svg version="1.1" xmlns="http://www.w3.org/2000/svg" xmlns:xlink="http://www.w3.org/1999/xlink" x="0px" y="0px"
	 width="198.6px" height="195px" viewBox="0 0 198.6 195" style="enable-background:new 0 0 198.6 195;" xml:space="preserve">
<rect x="87.5" y="40" style="fill:#FFFFFF;" width="20" height="67"/>
<path style="fill:#FFFFFF;" d="M198.6,24.6L182.4,8.4l-18.1,18.1C146.8,10.1,123.3,0,97.5,0C43.7,0,0,43.7,0,97.5S43.7,195,97.5,195
	S195,151.3,195,97.5c0-19.7-5.8-38-15.9-53.4L198.6,24.6z M97.5,177C53.6,177,18,141.4,18,97.5S53.6,18,97.5,18S177,53.6,177,97.5
	S141.4,177,97.5,177z"/>
</svg>
