<?xml version="1.0" encoding="UTF-8"?>
<svg id="Layer_1" xmlns="http://www.w3.org/2000/svg" version="1.1" viewBox="0 0 43.42 45.55">
  <!-- Generator: Adobe Illustrator 30.1.0, SVG Export Plug-In . SVG Version: 2.1.1 Build 136)  -->
  <path d="M35.77,0H7.65l-.47,10.54h4.57l1.1-6.14h5.62c.07,4.16.08,8.29.08,11.48v1.4c0,3.43-.01,7.45-.08,11.53l-4.96.53v3.82h16.4v-3.82l-4.95-.53c-.08-4.18-.09-8.33-.09-11.53v-1.4c0-3.42.01-7.42.08-11.48h5.62l1.1,6.14h4.57l-.47-10.54Z"/>
  <g>
    <rect y="39.36" width="6.2" height="6.2"/>
    <rect x="12.39" y="39.36" width="6.2" height="6.2"/>
    <rect x="24.84" y="39.36" width="6.2" height="6.2"/>
    <rect x="24.84" y="39.36" width="6.2" height="6.2"/>
    <rect x="37.23" y="39.36" width="6.2" height="6.2"/>
  </g>
</svg>