<?xml version="1.0" encoding="utf-8"?>
<!-- Generator: Adobe Illustrator 27.9.1, SVG Export Plug-In . SVG Version: 6.00 Build 0)  -->
<svg version="1.1" xmlns="http://www.w3.org/2000/svg" xmlns:xlink="http://www.w3.org/1999/xlink" x="0px" y="0px"
	 viewBox="0 0 69.9 67.8" style="enable-background:new 0 0 69.9 67.8;" xml:space="preserve">
<path d="M46.2,67.8L46.2,67.8c-2.7,0-4.9-2.2-4.9-4.9V4.9c0-2.7,2.2-4.9,4.9-4.9h0c2.7,0,4.9,2.2,4.9,4.9v57.9
	C51.2,65.6,49,67.8,46.2,67.8z"/>
<polygon points="51.2,24.2 51.2,43.6 69.9,33.9 "/>
<path d="M23.7,0L23.7,0c2.7,0,4.9,2.2,4.9,4.9l0,57.9c0,2.7-2.2,4.9-4.9,4.9h0c-2.7,0-4.9-2.2-4.9-4.9l0-57.9
	C18.7,2.2,20.9,0,23.7,0z"/>
<polygon points="18.7,43.6 18.7,24.2 0,33.9 "/>
</svg>
