<?xml version="1.0" encoding="UTF-8"?>
<svg xmlns="http://www.w3.org/2000/svg" version="1.1" viewBox="0 0 55.4 33.7">
  <defs>
    <style>
      .cls-1 {
        fill: #fff;
      }
    </style>
  </defs>
  <!-- Generator: Adobe Illustrator 28.6.0, SVG Export Plug-In . SVG Version: 1.2.0 Build 709)  -->
  <g>
    <g id="Layer_1">
      <path class="cls-1" d="M52.4,12.7V1.8C52.4.8,51.6,0,50.6,0h0C49.6,0,48.8.8,48.8,1.8v9.6c-.2,0-.3,0-.5,0h-10.8c-3.4,0-6.2,2.4-6.9,5.5h-5.7c-.7-3.2-3.5-5.6-6.9-5.6H7.1c-.2,0-.3,0-.4,0V1.8C6.7.8,5.8,0,4.8,0s-1.8.8-1.8,1.8v10.8C1.2,13.9,0,16,0,18.4v5.7C0,29.4,4.3,33.7,9.6,33.7h5.9c5.3,0,9.6-4.3,9.6-9.6v-3.6h5.3v3.7c0,5.3,4.3,9.6,9.6,9.6h5.9c5.3,0,9.6-4.3,9.6-9.6v-5.7c0-2.4-1.2-4.5-3-5.8ZM22.9,18.3c0,.4-.4.7-.7.9-.3.2-.8.3-1.2.2-.3,0-.7-.4-.9-.7-.1-.3-.3-.5-.5-.8-.2-.2-.4-.5-.7-.7-.3-.2-.6-.4-.9-.5-.1,0-.2,0-.4-.1-.8-.2-1.2-1-1-1.8,0-.4.4-.7.7-.9.3-.2.8-.3,1.2-.2,1.8.5,3.4,1.8,4.2,3.5.2.4.2.7.2,1.2ZM53.2,18.3c0,.4-.4.7-.7.9-.3.2-.8.3-1.2.2-.3,0-.7-.4-.9-.7-.1-.3-.3-.5-.5-.8-.2-.2-.4-.5-.7-.7-.3-.2-.6-.4-.9-.5-.1,0-.2,0-.4-.1-.8-.2-1.2-1-1-1.8,0-.4.4-.7.7-.9.3-.2.8-.3,1.2-.2,1.8.5,3.4,1.8,4.2,3.5.2.4.2.7.2,1.2Z"/>
    </g>
  </g>
</svg>