<?xml version="1.0" encoding="UTF-8"?>
<svg xmlns="http://www.w3.org/2000/svg" version="1.1" viewBox="0 0 55.5 22.5">
	<path d="M52.5,1.4h-.1c-1.1-.8-2.3-1.3-3.6-1.3h-11.3c-3.4,0-6.2,2.4-6.9,5.5h-5.7c-.7-3.2-3.5-5.6-6.9-5.6H6.7c-1.4.2-2.6.6-3.7,1.3C1.2,2.6,0,4.7,0,7.1v5.7c0,5.3,4.3,9.6,9.6,9.6h5.9c5.3,0,9.6-4.3,9.6-9.6v-3.6h5.3v3.7c0,5.3,4.3,9.6,9.6,9.6h5.9c5.3,0,9.6-4.3,9.6-9.6v-5.7c0-2.4-1.2-4.5-3-5.8ZM9.6,20.5c-.1,0-.3,0-.4,0l-7.2-7.2c0-.1,0-.3,0-.4v-2.8l10.4,10.4h-2.8ZM15.5,20.5h-1.1L2,8.1v-.9l.2-1.2c.1-.5.3-.9.5-1.3l15.3,15.3c-.8.3-1.6.4-2.5.4ZM23.1,12.7L12.4,2h4.6s6.1,6.1,6.1,6.1v4.6ZM40,20.5c-.1,0-.3,0-.4,0l-7.2-7.2c0-.1,0-.3,0-.4v-2.8l10.4,10.4h-2.8ZM45.9,20.5h-1.1l-12.4-12.4v-.9l.2-1.2c.1-.5.3-.9.5-1.3l15.3,15.3c-.8.3-1.6.4-2.5.4ZM53.4,12.7l-10.7-10.7h4.6s6.1,6.1,6.1,6.1v4.6Z"/>
</svg>
