<?xml version="1.0" encoding="utf-8"?>
<!-- Generator: Adobe Illustrator 27.5.0, SVG Export Plug-In . SVG Version: 6.00 Build 0)  -->
<svg version="1.1" xmlns="http://www.w3.org/2000/svg" xmlns:xlink="http://www.w3.org/1999/xlink" x="0px" y="0px"
	 width="378.9px" height="378.9px" viewBox="0 0 378.9 378.9" style="enable-background:new 0 0 378.9 378.9;" xml:space="preserve"
	>
<g>
	<path style="fill:#FFFFFF;" d="M35.1,210.7L92,186.2l56.8,24.5l-5.7-61.6l40.9-46.5L123.5,89L92,35.8L60.4,89L0,102.6l40.9,46.5
		L35.1,210.7z"/>
	<path style="fill:#FFFFFF;" d="M319.4,52.4L288.4,0l-31.1,52.4l-59.4,13.4l40.2,45.7l-5.7,60.7l55.9-24.1l55.9,24.1l-5.7-60.7
		l40.2-45.7L319.4,52.4z"/>
	<path style="fill:#FFFFFF;" d="M211.3,186.9l-34.7,58.4l-66.3,14.9l44.9,51l-6.3,67.6l62.4-26.9l62.4,26.9l-6.3-67.6l44.9-51
		L246,245.3L211.3,186.9z"/>
</g>
</svg>
