<?xml version="1.0" encoding="utf-8"?>
<!-- Generator: Adobe Illustrator 27.9.1, SVG Export Plug-In . SVG Version: 6.00 Build 0)  -->
<svg version="1.1" xmlns="http://www.w3.org/2000/svg" xmlns:xlink="http://www.w3.org/1999/xlink" x="0px" y="0px"
	 viewBox="0 0 196.4 174.5" style="enable-background:new 0 0 196.4 174.5;" xml:space="preserve">
<path d="M112.2,174.4c-14.6,0-29.1,0-43.7,0c-4.2,0-8.5,0-12.4-1.7c-7.5-3.3-12-9-12.9-17.3c-0.3-3.2-0.4-6.4-0.4-9.5
	c0-19.7,0-39.5,0.2-59.2c0-6.3,0.1-12.6,2.3-18.5c4.9-13.2,14.1-21.6,28.1-24c6.1-1,12.3-1.2,18.5-1.3c19.6-0.1,39.2-0.1,58.9,0.1
	c4.9,0,9.8,0.4,14.6,1.1c16.1,2.3,28.7,15.6,30.1,31.8c0.6,7,0.9,14.1,0.9,21.1c0.1,12.3,0,24.7-0.3,37c-0.1,6.4-0.6,12.8-3.5,18.6
	c-5.9,11.8-15.2,19.3-28.6,20.9c-6.5,0.7-13,0.8-19.6,0.9C133.7,174.5,122.9,174.4,112.2,174.4C112.2,174.4,112.2,174.4,112.2,174.4
	z M141.5,119.5c0,3.6,0,7.2,0,10.7c0,6.4,4.6,11.1,10.8,11.2c6.1,0.1,11-4.5,11.1-10.7c0.1-7.4,0.1-14.9,0-22.3
	c-0.1-6.1-5.3-10.9-11.2-10.8c-6.1,0.2-10.8,5-10.8,11.3C141.5,112.5,141.5,116,141.5,119.5z M97.7,119.5
	C97.7,119.5,97.7,119.5,97.7,119.5c0,3.7,0,7.4,0,11.1c0,4.1,1.8,7.2,5.3,9.3c7.3,4.4,16.4-0.7,16.6-9.3c0.1-7.3,0-14.7,0-22
	c0-0.8-0.1-1.6-0.3-2.4c-1.2-5.4-6.3-9.1-11.7-8.6c-5.6,0.5-9.8,5-9.9,10.6C97.6,112,97.7,115.8,97.7,119.5z"/>
<path d="M11,81.1c-6.8,0-11.8-5.7-10.9-12.6c2.1-16.1,8.9-29.9,19.5-42c9.9-11.2,22-19.1,36.2-23.7
	c4.1-1.3,8.5-2.2,12.8-2.8c5.4-0.8,10,2.2,11.9,7.1c1.7,4.5,0.1,9.9-4,12.6c-1.6,1-3.5,1.7-5.3,2c-16.8,2.6-29.8,11.2-39.5,24.9
	c-5.4,7.6-8.7,16-9.9,25.3C21.1,77.3,16.3,81.2,11,81.1z"/>
</svg>
