<?xml version="1.0" encoding="UTF-8"?>
<svg id="Layer_2" xmlns="http://www.w3.org/2000/svg" version="1.1" viewBox="0 0 17.5252 29.3683">
  <!-- Generator: Adobe Illustrator 30.3.0, SVG Export Plug-In . SVG Version: 2.1.3 Build 182)  -->
  <circle cx="5.9291" cy="19.9565" r="1.2168"/>
  <ellipse cx="14.9562" cy="19.9565" rx=".9868" ry="1.2168"/>
  <path d="M8.7626,11.9291c-.137,0-.273.0041-.4084.0103.1462-.2425.077-.4317-.2451-.4746.3846-4.3746.3145-5.912-.0666-10.6269C7.5911.0358,6.9689-.2092,6.1506.1843c-1.1759.7737-2.0154,1.9472-2.7194,3.2815-.0781.148.0297.3258.1971.3221l2.4148-.2886c.2173-.0048.3714.405.3731.6223.2662,3.7022.3758,4.0986.1406,7.4569-.484.0506-.6267.37-.6113.8137-3.4569,1.1677-5.9455,4.4218-5.9455,8.2564,0,4.8157,3.9231,8.7196,8.7626,8.7196s8.7626-3.9039,8.7626-8.7196-3.9231-8.7196-8.7626-8.7196ZM1.161,22.5569c-.3013-1.6757-.2266-3.1715.4186-4.5336.1064-.2246.3344-.3671.5828-.3671h13.6821c.2651,0,.5041.1625.6009.4093.5403,1.3783.6115,2.8596.3058,4.4235l-15.5902.068Z"/>
</svg>