<?xml version="1.0" encoding="utf-8"?>
<!-- Generator: Adobe Illustrator 28.3.0, SVG Export Plug-In . SVG Version: 6.00 Build 0)  -->
<svg version="1.1" xmlns="http://www.w3.org/2000/svg" xmlns:xlink="http://www.w3.org/1999/xlink" x="0px" y="0px"
	 viewBox="0 0 55.8 60.8" style="enable-background:new 0 0 55.8 60.8;" xml:space="preserve">
<path style="fill:#FFFFFF;" d="M36.9,6.2l-0.4,2.1c7.8,2.8,13.9,9.3,16.2,17.3L51,26.1L50,27.5l-0.2,1.9l0.6,1.6l-1,0.3L48.1,33
	l-0.7,2.1l0.5,0.9L46.5,37l-1.8,2.2l-2.5-0.5l-2.2,1l-1.6,1.1L36,39.4l-2.8-0.1L30.7,41l-2-8.3l0.6-2.3h0l0.5-0.3l0.9-3l-0.3-1.2
	l1.8,1.8l0.6,6.3l1.1-7.2L31,20.5l0,0l1.6-15.2L27.8,0l-4.8,5.2l1.6,15.2l-2.9,6.3l1.1,7.2l0.6-6.3l1.8-1.8L25,27.2l0.9,3l0.5,0.3h0
	l0.6,2.2L25,40.7l-1.2-1.5l-2.7-1.4l-3.4,0.8l-2.8,2.1l-1.4-2.4l-3-1.7l-2.4-0.2l-0.7-3.3l-2.3-1.5l0.5-1.6L6,28.5l-0.5-2l-2.2-1.5
	c2.4-7.8,8.4-14,16-16.7l-0.4-2C7.9,10,0,20.4,0,32.7c0,15.5,12.5,28.1,27.9,28.1s27.9-12.6,27.9-28.1C55.8,20.4,47.9,9.9,36.9,6.2z
	"/>
</svg>
