<?xml version="1.0" encoding="UTF-8"?>
<svg xmlns="http://www.w3.org/2000/svg" version="1.1" viewBox="0 0 18.1 25.9">
  <g>
    <g>
      <path style="fill:#FFFFFF;" d="M17.7,8.1l-1-1h0L10,.4c-.5-.5-1.4-.5-1.9,0h0s0,0,0,0L.4,8.1c-.5.5-.5,1.4,0,1.9s0,0,0,0,0,0,0,0l7.7,7.7c.5.5,1.4.5,1.9,0s0,0,0,0,0,0,0,0l2.2-2.2-1.9-1.9-1.2,1.2-5.8-5.8,5.8-5.8,5.8,5.8-1.4,1.4,1.9,1.9,2.4-2.4c.5-.5.5-1.4,0-1.9Z"/>
      <path style="fill:#ffffff; opacity:0.5;" d="M17.7,16h0s-1-1-1-1l-5.8-5.8-1-1c-.5-.5-1.4-.5-1.9,0l-1,1h0l-1.2,1.2,1.9,1.9,1.2-1.2,5.8,5.8-5.8,5.8-5.7-5.7,1.4-1.4-1.9-1.9L.4,16s0,0,0,0h0c-.5.5-.5,1.4,0,1.9l7.7,7.7c.5.5,1.4.5,1.9,0l1-1h0l5.8-5.8h0s1-.9,1-.9c.5-.5.5-1.4,0-1.9Z"/>
    </g>
  </g>
</svg>