<?xml version="1.0" encoding="utf-8"?>
<!-- Generator: Adobe Illustrator 27.5.0, SVG Export Plug-In . SVG Version: 6.00 Build 0)  -->
<svg version="1.1" xmlns="http://www.w3.org/2000/svg" xmlns:xlink="http://www.w3.org/1999/xlink" x="0px" y="0px"
	 width="445.2px" height="426.2px" viewBox="0 0 445.2 426.2" style="enable-background:new 0 0 445.2 426.2;" xml:space="preserve"
	>
<path style="fill:#FFFFFF;" d="M247.5,16l47.2,95.6c4,8.2,11.8,13.9,20.9,15.2L421,142c22.7,3.3,31.8,31.3,15.4,47.3L360,263.7
	c-6.5,6.4-9.5,15.5-8,24.5l18,105c3.9,22.7-19.9,39.9-40.2,29.2l-94.3-49.6c-8.1-4.2-17.7-4.2-25.8,0l-94.3,49.6
	c-20.3,10.7-44.1-6.6-40.2-29.2l18-105c1.5-9-1.4-18.2-8-24.5L8.9,189.3c-16.5-16-7.4-44,15.4-47.3l105.4-15.3
	c9-1.3,16.8-7,20.9-15.2L197.8,16C207.9-4.7,237.3-4.7,247.5,16z"/>
</svg>
