<?xml version="1.0" encoding="UTF-8"?>
<svg xmlns="http://www.w3.org/2000/svg" version="1.1" viewBox="0 0 123.3 70.6">
	<path d="M77,38.1c-7.1-2.8-9.2,0-13.2.4-5.6.5-9.3-1.9-13.2-1.6-7.3.7-14.8,7.7-16.4,14.8-.5,2.1-.9,15.6-.5,17.2,0,.2.7,1.2,1,1.3,6.9-.2,50.7.8,53.3.2.2,0,1.2-1,1.3-1.1.3-.7.3-13.4.2-14.9-.7-6.9-6.2-13.7-12.5-16.2Z"/>
	<path d="M74.1,26.8C83.5,15.6,74.7-.9,60.4,0c-13.2.9-19.6,16.9-11.1,26.9,6.5,7.7,18.5,7.5,24.9-.2Z"/>
	<path d="M39.2,36.6c.3-1.1-2.5-2.8-3.4-3.2-6-3-8.4-.8-11.2-.4-5.3.8-7.7-1.4-10.5-1.2-5.7.4-11.6,5.6-13.2,11-.7,2.2-1.2,14.5-.4,16,.3.5,1.1.9,1.7,1,1.3.2,24.6.3,25.8-.2,1.6-.7,1.2-5.4,1.5-7.1,1.8-10.5,9.6-14.9,9.8-15.8Z"/>
	<path d="M31.7,23.5c6.6-8.6-.4-20.4-11-19.4-4.9.5-9.6,4.7-10.4,9.6-2.3,12.9,13.7,19.8,21.4,9.8Z"/>
	<path d="M123.2,45.6c-.4-3.8-3.1-8.1-6.1-10.4-6.8-5.3-11.2-2.4-13.5-2.1-5.2.8-7.4-1.5-11.1-1.2-1.7.1-9.4,2.8-8.7,5,.3.9,8.2,5.2,10,15.4.7,4.2-.5,7,2,7.5,1.2.2,24.2.3,25.4,0,.3,0,1.6-1,1.7-1.3.2-.6.3-11.5.2-12.8Z"/>
	<path d="M93.5,25.5c5.2,4.3,12.9,3.4,17.1-1.8,6.8-8.6-.2-20.6-10.8-19.6-10.5,1-14.4,14.8-6.3,21.4Z"/>
</svg>
