<?xml version="1.0" encoding="utf-8"?>
<!-- Generator: Adobe Illustrator 27.5.0, SVG Export Plug-In . SVG Version: 6.00 Build 0)  -->
<svg version="1.1" xmlns="http://www.w3.org/2000/svg" xmlns:xlink="http://www.w3.org/1999/xlink" x="0px" y="0px"
	 width="211.8px" height="108.9px" viewBox="0 0 211.8 108.9" style="enable-background:new 0 0 211.8 108.9;" xml:space="preserve"
	>
<g>
	<g>
		<circle style="fill:#FFFFFF;" cx="168.8" cy="63.7" r="26.8"/>
		<path style="fill:#FFFFFF;" d="M166.7,20.1l-3.4,11.4c-0.4,1.4,0.6,2.7,2,2.7h6.8c1.4,0,2.4-1.4,2-2.7l-3.4-11.4
			C170.2,18.1,167.3,18.1,166.7,20.1z"/>
		<path style="fill:#FFFFFF;" d="M141.5,29.6l4,11.2c0.5,1.3,2.1,1.8,3.2,1l5.5-4c1.1-0.8,1.2-2.5,0-3.4l-9.4-7.3
			C143.1,25.9,140.8,27.6,141.5,29.6z"/>
		<path style="fill:#FFFFFF;" d="M126.6,52.2l9.8,6.7c1.2,0.8,2.8,0.3,3.2-1.1l2.1-6.4c0.4-1.3-0.5-2.7-2-2.8l-11.9-0.3
			C125.8,48.3,124.9,51,126.6,52.2z"/>
		<path style="fill:#FFFFFF;" d="M127.9,79.2l11.9-0.3c1.4,0,2.4-1.4,2-2.8l-2.1-6.4c-0.4-1.3-2-1.9-3.2-1.1l-9.8,6.7
			C124.9,76.5,125.8,79.2,127.9,79.2z"/>
		<path style="fill:#FFFFFF;" d="M144.7,100.2l9.4-7.3c1.1-0.9,1.1-2.6,0-3.4l-5.5-4c-1.1-0.8-2.8-0.3-3.2,1l-4,11.2
			C140.8,99.8,143.1,101.5,144.7,100.2z"/>
		<path style="fill:#FFFFFF;" d="M170.8,107.4l3.4-11.4c0.4-1.4-0.6-2.7-2-2.7h-6.8c-1.4,0-2.4,1.4-2,2.7l3.4,11.4
			C167.3,109.4,170.2,109.4,170.8,107.4z"/>
		<path style="fill:#FFFFFF;" d="M196.1,97.9l-4-11.2c-0.5-1.3-2.1-1.8-3.2-1l-5.5,4c-1.1,0.8-1.2,2.5,0,3.4l9.4,7.3
			C194.4,101.5,196.8,99.8,196.1,97.9z"/>
		<path style="fill:#FFFFFF;" d="M210.9,75.3l-9.8-6.7c-1.2-0.8-2.8-0.3-3.2,1.1l-2.1,6.4c-0.4,1.3,0.5,2.7,2,2.8l11.9,0.3
			C211.8,79.2,212.6,76.5,210.9,75.3z"/>
		<path style="fill:#FFFFFF;" d="M209.6,48.3l-11.9,0.3c-1.4,0-2.4,1.4-2,2.8l2.1,6.4c0.4,1.3,2,1.9,3.2,1.1l9.8-6.7
			C212.6,51,211.8,48.3,209.6,48.3z"/>
		<path style="fill:#FFFFFF;" d="M192.8,27.2l-9.4,7.3c-1.1,0.9-1.1,2.6,0,3.4l5.5,4c1.1,0.8,2.8,0.3,3.2-1l4-11.2
			C196.8,27.6,194.4,25.9,192.8,27.2z"/>
	</g>
	<g>
		<path style="fill:#FFFFFF;" d="M65.6,37c0-15.5,7.8-29.1,19.2-36C82.2,0.3,79.5,0,76.7,0c-20.4,0-37,16.5-37,37s16.5,37,37,37
			c2.8,0,5.5-0.3,8.1-0.9C73.4,66,65.6,52.5,65.6,37z"/>
		<polygon style="fill:#FFFFFF;" points="26.8,2.6 31.8,0 30.8,5.5 34.8,9.4 29.3,10.2 26.8,15.2 24.4,10.2 18.9,9.4 22.9,5.5 
			21.9,0 		"/>
		<polygon style="fill:#FFFFFF;" points="26.3,50 39.7,54.2 28.3,62.3 28.5,76.3 17.2,67.9 3.9,72.5 8.4,59.1 0,47.9 14,48.1 
			22.2,36.6 		"/>
		<polygon style="fill:#FFFFFF;" points="93.7,25.5 103.1,24.1 98.6,32.4 102.8,40.9 93.5,39.1 86.7,45.8 85.5,36.4 77.1,32 
			85.7,28 87.2,18.6 		"/>
	</g>
</g>
<path style="fill:#FFFFFF;" d="M86.7,96.9L86.7,96.9c-2.5-1.3-3.5-4.3-2.3-6.8l38.3-75.8c1.3-2.5,4.3-3.5,6.8-2.3l0,0
	c2.5,1.3,3.5,4.3,2.3,6.8L93.5,94.6C92.2,97.2,89.2,98.2,86.7,96.9z"/>
</svg>
