<?xml version="1.0" encoding="utf-8"?>
<!-- Generator: Adobe Illustrator 27.5.0, SVG Export Plug-In . SVG Version: 6.00 Build 0)  -->
<svg version="1.1" xmlns="http://www.w3.org/2000/svg" xmlns:xlink="http://www.w3.org/1999/xlink" x="0px" y="0px"
	 width="449.9px" height="254.8px" viewBox="0 0 449.9 254.8" style="enable-background:new 0 0 449.9 254.8;" xml:space="preserve"
	>
<path style="fill:#FFFFFF;" d="M440,84.8c5.7-1.4,9.9-6.6,9.9-12.3V30.8c0-17.1-13.7-30.8-30.8-30.8H313.5v43.6h-25.6V0H30.8
	C13.7,0,0,13.7,0,30.8V224c0,8.5,3.3,16.1,9,21.8s13.3,9,21.8,9h256.7v-43.6H313v43.6h105.6c17.1,0,30.8-13.7,30.8-30.8v-41.7
	c0-6.2-4.3-11.4-9.9-12.3c-19.9-4.7-33.6-21.8-33.6-42.6C406.3,107,420.1,89.5,440,84.8L440,84.8z M224.9,109.3l-40.8,30.3
	c-1.9,1.2-3.1,4.3-1.9,6.2l15.5,48.2c1.9,5.6-4.3,9.9-8.7,6.2l-41.4-29.7c-1.9-1.2-4.9-1.2-6.8,0l-41.4,29.7
	c-4.3,3.1-10.5-1.2-8.7-6.2l15.5-48.2c0.6-2.5,0-4.9-1.9-6.2l-40.8-30.3c-4.3-3.1-2.5-10.5,3.1-10.5l50.7-0.6c2.5,0,4.9-1.9,5.6-3.7
	L139,46.2c1.9-5.6,9.3-5.6,11.1,0l16.1,48.2c0.6,2.5,3.1,3.7,5.6,3.7l50.7,0.6C226.8,98.8,229.3,105.6,224.9,109.3L224.9,109.3z
	 M313,149.7h-25.6v-46.9H313V149.7z"/>
</svg>
