<?xml version="1.0" encoding="UTF-8"?>
<svg xmlns="http://www.w3.org/2000/svg" version="1.1" viewBox="0 0 38 32.3">
  <defs>
    <style>
      .cls-1 {
        fill: #fdb720;
      }

      .cls-2 {
        fill: #fec727;
      }

      .cls-3 {
        fill: #fef8ec;
      }

      .cls-4 {
        fill: #f67f03;
      }

      .cls-5 {
        fill: #f8e231;
      }

      .cls-6 {
        fill: #fbf8ba;
      }

      .cls-7 {
        fill: #fc8501;
      }
    </style>
  </defs>
  <!-- Generator: Adobe Illustrator 28.6.0, SVG Export Plug-In . SVG Version: 1.2.0 Build 709)  -->
  <g>
    <g>
      <polygon class="cls-6" points="17.3 0 5.5 5.4 10.9 7.8 19.3 7.8 30.4 1.6 17.3 0"/>
      <polygon class="cls-5" points="38 8.5 30.4 1.6 19.3 7.8 38 8.5"/>
      <polygon class="cls-1" points="16.4 22 38 8.5 19.3 7.8 15.7 14.9 16.4 22"/>
      <polygon class="cls-2" points="0 14.3 16.4 22 15.7 14.9 10.9 7.8 5.5 5.4 0 14.3"/>
      <polygon class="cls-3" points="19.3 7.8 15.7 14.9 10.9 7.8 19.3 7.8"/>
      <polygon class="cls-4" points="0 14.3 21.6 32.3 16.4 22 0 14.3"/>
      <polygon class="cls-7" points="38 8.5 21.6 32.3 16.4 22 38 8.5"/>
    </g>
  </g>
</svg>
