<?xml version="1.0" encoding="utf-8"?>
<!-- Generator: Adobe Illustrator 28.1.0, SVG Export Plug-In . SVG Version: 6.00 Build 0)  -->
<svg version="1.1" xmlns="http://www.w3.org/2000/svg" xmlns:xlink="http://www.w3.org/1999/xlink" x="0px" y="0px"
	 viewBox="0 0 49.9 50" style="enable-background:new 0 0 49.9 50;" xml:space="preserve">
<path style="fill:#FFFFFF;" d="M25,50C11.3,50,0,38.8,0,25.1C0,11.2,11.1,0,25,0c13.7,0,25,11.2,25,24.9C49.9,38.8,38.8,50,25,50z
	 M25.8,9.5c0,0.1,0,0.3,0,0.4c0,7.1-0.1,14.1,0,21.2c0,2.2-1.4,3.9-3.1,4.6c-2,0.8-3.8,0.5-5.3-1c-1.5-1.4-1.9-3.2-1.2-5.1
	c0.7-2,2.2-3,4.3-3.2c0.3,0,0.5,0,0.8,0c0,0,0-0.1,0-0.1c0-1.4,0-2.9,0-4.3c0-0.2-0.1-0.3-0.3-0.2c-0.6,0-1.3,0-1.9,0.1
	c-6.9,1.1-10.3,9.4-6,15c2.5,3.3,6.7,4.7,10.7,3.4c3.9-1.3,6.5-4.9,6.5-9.1c0-4.1,0-8.1,0-12.2c0-0.2,0-0.3,0-0.6
	c0.1,0.2,0.2,0.3,0.3,0.4c1.8,2.3,4.2,3.4,7.1,3.3c0.3,0,0.4-0.1,0.4-0.4c0-1.5,0-3,0-4.5c0-0.1,0-0.2,0-0.3
	c-4.4-0.7-6.9-3.2-7.7-7.5C28.7,9.5,27.3,9.5,25.8,9.5z"/>
</svg>
