<?xml version="1.0" encoding="UTF-8"?>
<svg xmlns="http://www.w3.org/2000/svg" version="1.1" viewBox="0 0 23.9 24">
	<path d="M13.7,10.3h0s2.6.4,2.6.4c.8,0,1.5,0,1.9-.5.2-.2.3-.4.3-.7v-.2s0,0,0-.1c0-.8-.6-1.3-1.6-1.7l-8.5-2.6c-.2,0-.4-.1-.6-.2,0,0,0,0,0,0-.6,0-1.2,0-1.7.4-.5.4-.8.9-.9,1.5,0,.6,0,1.2.4,1.7,0,.1.2.2.3.3.2.2.5.3.8.5.1,0,.2,0,.3,0,0,0,0,0,0,0l2.6.4c0,0,0,.1,0,.2v8.3c0,1.1.9,2,2,2s2-.9,2-2v-7.9ZM8.4,0h7.2c2.7,0,3.8.2,5,.9,1.1.6,1.9,1.4,2.5,2.5.6,1.2.9,2.4.9,5.1v7.2c0,2.7-.2,3.8-.9,5.1-.6,1.1-1.4,1.9-2.5,2.5-1.2.6-2.4.9-5,.9h-7.2c-2.7,0-3.8-.2-5-.9-1.1-.6-1.9-1.4-2.5-2.5-.6-1.2-.9-2.4-.9-5.1v-7.2c0-2.7.2-3.8.9-5.1.6-1.1,1.4-1.9,2.5-2.5,1.2-.6,2.4-.9,5-.9ZM19,5.4c0-.4-.1-.7-.4-1-.3-.3-.6-.4-1-.4-.4,0-.7.1-1,.4-.3.3-.4.6-.4,1s.1.7.4,1c.3.3.6.4,1,.4s.7-.1,1-.4c.3-.3.4-.6.4-1Z"/>
</svg>
