<?xml version="1.0" encoding="utf-8"?>
<!-- Generator: Adobe Illustrator 27.5.0, SVG Export Plug-In . SVG Version: 6.00 Build 0)  -->
<svg version="1.1" xmlns="http://www.w3.org/2000/svg" xmlns:xlink="http://www.w3.org/1999/xlink" x="0px" y="0px"
	 width="385.5px" height="428.2px" viewBox="0 0 385.5 428.2" style="enable-background:new 0 0 385.5 428.2;" xml:space="preserve"
	>
<path style="fill-rule:evenodd;clip-rule:evenodd;fill:#FFFFFF;" d="M346.2,118.4l7.5-9c7.5-9.5,6.6-22.7-2.4-30.3l-25.1-20.4
	c-9-7.6-22.2-6.2-29.8,2.8l-6.6,8.1c-24.2-14.6-51.7-23.6-81.5-26V32.2h27c9,0,16.1-7.1,16.1-16.1S244.3,0,235.3,0h-85.7
	c-9,0-16.1,7.1-16.1,16.1s7.1,16.1,16.1,16.1h27v11.4C77.7,51.6,0,134.5,0,235.4c0,106.5,86.2,192.7,192.7,192.8
	c106.6,0,192.8-86.2,192.8-192.8C385.5,191.3,370.8,150.6,346.2,118.4z M192.8,395.8c-88.5,0-160.5-71.9-160.5-160.5
	c0-88.5,71.9-160.5,160.5-160.5c88.5,0,160.5,72,160.5,160.5S281.3,395.8,192.8,395.8z"/>
<path style="fill-rule:evenodd;clip-rule:evenodd;fill:#FFFFFF;" d="M277.1,288.1l-44.5-44.5c0.6-2.7,0.8-5.4,0.8-8.3
	c0-22.5-18.2-40.7-40.7-40.7S152,212.8,152,235.3s18.2,40.7,40.7,40.7c2.8,0,5.6-0.3,8.3-0.8l44.5,44.5c8.7,8.7,22.9,8.7,31.6,0
	S285.9,296.8,277.1,288.1z"/>
</svg>
