<?xml version="1.0" encoding="utf-8"?>
<!-- Generator: Adobe Illustrator 27.9.2, SVG Export Plug-In . SVG Version: 6.00 Build 0)  -->
<svg version="1.1" xmlns="http://www.w3.org/2000/svg" xmlns:xlink="http://www.w3.org/1999/xlink" x="0px" y="0px"
	 viewBox="0 0 441.1 178.8" style="enable-background:new 0 0 441.1 178.8;" xml:space="preserve">
<g>
	<path d="M122.6,111.7h-7.1V38.8c0-1.2-1-2.2-2.2-2.2L75.5,47.8c-1.7,0.4-2.2,2-2.2,3.3v21.6c0,1.2,1,2.2,2.2,2.2l6.7-2
		v38.7h-7.1c-1.2,0-2.2,1-2.2,2.2v22.7c0,1.2,1,2.2,2.2,2.2h47.4c1.2,0,2.2-1,2.2-2.2v-22.7C124.8,112.7,123.8,111.7,122.6,111.7z"
		/>
</g>
<g>
	<path d="M98.8,33.2c9.2,0,16.6-7.4,16.6-16.6C115.4,7.4,108,0,98.8,0S82.2,7.4,82.2,16.6S89.7,33.2,98.8,33.2z"/>
</g>
<g>
	<path d="M59.7,36.5H42.3c0-0.6,0-1.2,0-1.8V12.3c0,0,0.6-6.3-6.2-4c-6.7,2.3-22.2,6.8-22.2,6.8s-3.6,0.5-3.6,5.2
		c0,3.9,0.1,6.2,0.1,16.2H2.2c-1.2,0-2.2,1-2.2,2.2v22.7c0,1.2,1,2.2,2.2,2.2h8.3c0,12.1,0,28,0,49.4c0,0-2,40,48.5,20.3
		c0,0,2.5-1.4,2.8-3.6v-21.9c0,0,0-3.4-3.1-1.8c0,0-16.5,7.5-16.5-3.2c0-8.6,0-9.1,0-39.1h17.3c1.2,0,2.2-1,2.2-2.2V38.8
		C61.9,37.5,60.9,36.5,59.7,36.5z"/>
</g>
<g>
	<path d="M184.3,36.5c-5.4,0-10.6,1.1-15.4,3.1v-1c0-1.2-1-2.2-2.2-2.2h-38.2c-1.2,0-2.2,1-2.2,2.2v22.7
		c0,1.2,1,2.2,2.2,2.2h7.3v88h-7.3c-1.2,0-2.2,1-2.2,2.2v22.7c0,1.2,1,2.2,2.2,2.2H176c1.2,0,2.2-1,2.2-2.2v-22.7
		c0-1.2-1-2.2-2.2-2.2h-7.1v-15.9c4.8,2,10,3.1,15.4,3.1c24.7,0,44.7-22.9,44.7-51.2S209,36.5,184.3,36.5z M184.8,112.3
		c-8.9,0-16-11.1-15.9-24.7S176.1,63,185,63.1s16,11.1,15.9,24.7S193.6,112.4,184.8,112.3z"/>
</g>
<path d="M441.1,93.6c-3,2.3-6,4.5-9.2,6.7c-9.1,6.2-18.7,11.8-28.6,16.6c-8.5,4.1-17.4,7.6-27.2,9.7c-1,0.2-2,0.4-3,0.6
	c-0.1,0-0.5,0.1-0.7,0.1c-0.4,0-0.7,0.1-1.1,0.1c-2,0.2-4.1,0.3-6.1,0.1c-0.1,0-0.7-0.1-0.9-0.1c-0.3-0.1-0.6-0.1-0.9-0.2
	c-0.8-0.2-1.5-0.4-2.2-0.7c0.7,0.2-1.2-0.6-1.5-0.8c-0.1-0.1-0.3-0.2-0.5-0.3c0.1,0.1-0.7-0.5-0.9-0.7c-0.2-0.2-1.1-1.2-1.2-1.3
	c-0.2-0.4-0.5-0.7-0.7-1.1c8.2-5.7,15.8-12.4,22.7-19.6c8-8.3,15.4-17.6,20.6-27.9c5.1-10.1,9-23.9,0.6-33.4
	c-8.6-9.8-22.7-2.8-30.6,3.9c-7.9,6.6-13.5,15.6-17.8,24.9c-4.1,8.9-7.3,18.3-8.9,28.1c-1,6.2-1.6,12.8-0.6,19.1
	c-3.5,2.1-7.1,4-10.9,5.6c-4.2,1.9-9.7,3.5-14.7,4.3c0.3-0.1-1.2,0.1-1.2,0.1c-0.6,0.1-1.2,0.1-1.8,0.1c-1.1,0.1-2.3,0.1-3.4,0
	c-0.3,0-0.6,0-1-0.1c0.3,0-0.7-0.1-0.9-0.1c-0.9-0.2-1.8-0.4-2.6-0.7c0.5,0.2-1.2-0.6-1.6-0.8c-0.2-0.1-0.3-0.2-0.5-0.3
	s-0.5-0.3-0.6-0.4c-0.5-0.4-1-0.9-1.4-1.4c-0.1-0.1-0.2-0.3-0.3-0.4c-0.3-0.4-0.5-0.8-0.8-1.3c9.2-6.2,17.6-13.6,25-21.8
	c9.1-10.1,17.4-21.9,22.4-34.7c4.1-10.4,3-23.6-8.6-28.1c-5.2-2-11.1-0.4-15.9,1.7c-6.6,2.8-12.1,8.3-16.6,13.8
	c-5.8,7.1-9.9,15.4-13.3,23.9c-3.6,9.1-6.1,18.7-6.9,28.4c-0.3,3.8-0.3,7.8,0.2,11.6c-4.4,2.6-9,5-13.7,7c-0.3,0.1-1.5,0.6-1.9,0.8
	c-0.6,0.2-1.2,0.5-1.8,0.7c-0.5,0.2-1.1,0.4-1.6,0.6c-1.1,0.3-2.2,0.6-3.4,0.9c-0.5,0.1-1.1,0.2-1.6,0.3c-0.1,0-0.7,0.1-1,0.2
	c-1.8,0.2-3.6,0.2-5.4,0.1c0,0-0.1,0-0.1,0c-0.4-0.1-0.8-0.2-1.1-0.2c-0.5-0.1-1-0.3-1.5-0.5c0.2,0-1.2-0.6-1.5-0.8
	c-0.3-0.2-0.6-0.4-0.9-0.6c-0.1-0.1-0.1-0.1-0.2-0.2c-0.5-0.5-1-1-1.5-1.5c0,0-0.1-0.1-0.1-0.1c-0.2-0.2-0.3-0.4-0.5-0.7
	c-0.4-0.6-0.8-1.2-1.1-1.9c-0.1-0.1-0.1-0.3-0.2-0.4c-0.1-0.2-0.3-0.8-0.4-1c0-0.1-0.1-0.2-0.1-0.3c15.1-9.5,27.9-22.4,37.3-37.8
	c6.4-10.5,14-24.9,7.7-37.1c-5.7-11.1-19.9-8.5-28.5-2.9c-15.9,10.3-23.8,29-27.8,46.8c-1.6,7.4-3,16.6-2.1,25.2
	c-2.7,1.4-5.5,2.7-8.3,3.9c-2.9,1.3-3.6,5.5-2.1,8c1.8,3,5.1,3.4,8,2.1c1.8-0.8,3.5-1.6,5.3-2.5c1.4,3.1,3.3,6,6,8.3
	c7.7,7,18.6,6.6,28.1,3.8c6.8-2.1,13.4-5.3,19.7-8.9c0.3,0.4,0.5,0.8,0.8,1.2c5.5,8,14.7,10.4,24,9.6c10.9-0.9,21.3-5.2,30.8-10.6
	c4,6.3,10.3,9.9,18.2,10.6c8.8,0.9,18.2-1.8,26.4-4.6c17.8-6.1,34.7-15.4,50-26.4L441.1,93.6L441.1,93.6z M246.5,98.5
	c0-0.1,0.1-0.4,0.1-0.7c0.1-0.4,0.1-0.8,0.2-1.2c0.1-1,0.3-2,0.5-3c0.4-2.1,0.9-4.3,1.4-6.4c1-4,2.3-7.9,3.8-11.7
	c0.3-0.8,0.6-1.5,0.9-2.2c0,0,0.7-1.6,0.9-1.9c0.8-1.7,1.6-3.4,2.5-5c0.8-1.4,1.6-2.7,2.5-4c0.2-0.3,0.5-0.7,0.7-1
	c0,0.1,0.9-1.2,0.9-1.1c0.9-1,1.8-2,2.7-3c4-4.3,8.8-8,14.1-9.1c0,0,0.1,0,0.1,0c0.1,0,0.2,0,0.4,0c0.5,0,1,0,1.5,0h0
	c0.1,0,0.2,0,0.3,0.1c0.2,0,0.5,0.1,0.7,0.2c-0.4-0.1,0.5,0.2,0.7,0.4c0,0,0.1,0,0.1,0.1s0,0,0.1,0.1c0.1,0.1,0.4,0.4,0.5,0.6
	c0.1,0.2,0.2,0.4,0.4,0.6c0,0.1,0.3,0.7,0.4,0.9c0.2,0.5,0.3,1,0.4,1.5c0,0,0,0.1,0,0.1c0,0.1,0,0.2,0,0.5c0,0.6,0,1.2,0,1.8
	c0,2.5-0.9,5.3-2,8.1c-2.5,6.7-6.7,13.2-10.8,19.1c-3.8,5.4-8.2,10.3-13,14.9c-3.6,3.4-7.5,6.5-11.5,9.3
	C246,103.7,246.2,101.1,246.5,98.5z M298.5,107.2c0-1.1,0.1-2.1,0.2-3.2c0-0.4,0.1-0.8,0.1-1.2c0,0.1,0.2-1.4,0.2-1.6
	c0.7-4.7,1.9-9.3,3.4-13.9c2.7-8.5,5.8-15.7,11-23.6c0.5-0.8,1-1.5,1.6-2.2c0-0.1,0.1-0.1,0.1-0.2c0.5-0.7,1-1.3,1.6-1.9
	c2.4-2.8,5-5.4,8-7.5c2.3-1.6,4.3-2.7,6.5-3.3c0.5-0.2,1.1-0.3,1.7-0.4c0.1,0,0.1,0,0.2,0c0.1,0,0.2,0,0.4,0c0.5,0,1,0,1.5,0
	c0.1,0,0.1,0,0.2,0c0.1,0,0.3,0.1,0.5,0.2c0.1,0,0.5,0.2,0.7,0.2c0.2,0.1,0.4,0.2,0.6,0.4c0,0,0.1,0.1,0.2,0.2
	c0.1,0.1,0.4,0.4,0.5,0.6c0.1,0.2,0.3,0.5,0.4,0.7c0,0,0,0.1,0.1,0.1c0,0.1,0,0.1,0.1,0.2c0.2,0.5,0.3,1,0.4,1.5
	c0,0.1,0,0.2,0.1,0.3c0,0.3,0,0.5,0.1,0.8c0.3,5.2-2.5,10.9-5.3,16c-8.7,15.9-20.9,29.4-35,39.9
	C298.5,108.5,298.5,107.8,298.5,107.2z M353.8,106.7c0.1-1.1,0.2-2.1,0.3-3.2c0-0.1,0.1-0.8,0.1-1c0.1-0.4,0.1-0.8,0.2-1.2
	c0.4-2.4,0.9-4.8,1.5-7.2c1.1-4.7,2.6-9.3,4.4-13.7c0.2-0.5,0.4-1.1,0.6-1.6c0.1-0.2,0.1-0.2,0.1-0.3s0.1-0.2,0.1-0.3
	c0.4-1,0.9-2,1.4-3c1-2.1,2-4.1,3.2-6.2c1-1.7,2-3.4,3.1-5c0.5-0.8,1-1.5,1.6-2.2c0-0.1,0.1-0.1,0.1-0.2c0.7-0.9,1.5-1.8,2.3-2.7
	c3.9-4.5,9-8.8,14.2-10.2c0.1,0,0.9-0.2,1-0.2c0.3,0,0.7,0,1,0c0.1,0,0.6,0,0.8,0.1c0.3,0.1,0.5,0.1,0.8,0.2c0,0,0,0,0.1,0
	c0,0,0.1,0,0.1,0.1c0.1,0.1,0.5,0.3,0.7,0.4c0.2,0.2,0.4,0.3,0.5,0.5c0,0,0,0,0,0c0.1,0.2,0.3,0.4,0.4,0.6c0.1,0.1,0.3,0.6,0.4,0.8
	c0.1,0.3,0.2,0.7,0.3,1c0.1,0.5,0.2,0.9,0.3,1.4c-0.1-0.8,0,0.8,0,1c0.1,2.9-0.4,5-1.3,8c-1.5,5-4.1,9.6-6.9,13.9
	c-6.3,9.9-14.4,18.6-23.2,26.5c-2.7,2.4-5.4,4.7-8.3,6.8C353.7,108.7,353.7,107.7,353.8,106.7z"/>
</svg>
