<?xml version="1.0" encoding="utf-8"?>
<!-- Generator: Adobe Illustrator 27.5.0, SVG Export Plug-In . SVG Version: 6.00 Build 0)  -->
<svg version="1.1" xmlns="http://www.w3.org/2000/svg" xmlns:xlink="http://www.w3.org/1999/xlink" x="0px" y="0px"
	 width="56.1px" height="49px" viewBox="0 0 56.1 49" style="enable-background:new 0 0 56.1 49;" xml:space="preserve">
<path style="fill:#FFFFFF;" d="M46.2,49c-3.6,0-6.6-3-6.6-6.6v-1h-5v1c0,3.6-3,6.6-6.6,6.6s-6.6-3-6.6-6.6v-1h-5.1v1
	c0,3.6-3,6.6-6.6,6.6s-6.6-3-6.6-6.6v-1H0v-23h7.1V0h7.1v18.4H29V5.5h-3.9V0h31v41.4h-3.4v1C52.8,46,49.8,49,46.2,49z M5.5,35.9
	h45.1v-12H5.5V35.9z M34.5,18.4h16.1V5.5H34.5V18.4z"/>
</svg>
