<?xml version="1.0" encoding="utf-8"?>
<!-- Generator: Adobe Illustrator 27.5.0, SVG Export Plug-In . SVG Version: 6.00 Build 0)  -->
<svg version="1.1" xmlns="http://www.w3.org/2000/svg" xmlns:xlink="http://www.w3.org/1999/xlink" x="0px" y="0px"
	 width="30.1px" height="30.1px" viewBox="0 0 30.1 30.1" style="enable-background:new 0 0 30.1 30.1;" xml:space="preserve">
<path style="fill:#FFFFFF;" d="M0,26.3c0-2.1,1.7-3.8,3.8-3.8s3.8,1.7,3.8,3.8s-1.7,3.8-3.8,3.8H0V26.3z"/>
<path style="fill:#FFFFFF;" d="M21.6,0l8.5,8.5l-1.4,1.4c1.3,0.8,1.7,2.5,0.9,3.9c-0.8,1.3-2.5,1.7-3.9,0.9
	c-0.4-0.2-0.7-0.6-0.9-0.9L23,15.6c1.3,0.8,1.7,2.5,0.9,3.9c-0.8,1.3-2.5,1.7-3.9,0.9c-0.4-0.2-0.7-0.6-0.9-0.9l-1.8,1.8
	c1.3,0.8,1.7,2.5,0.9,3.9c-0.8,1.3-2.5,1.7-3.9,0.9c-0.4-0.2-0.7-0.6-0.9-0.9L13,25.6l-2.8-2.8L24.4,8.5l-2.8-2.8l-14.1,14l-6.6-6.6
	l7.5-7.5l3.8,3.8l2.9-2.9l-3.3-3.3l2.7-2.7l3.3,3.3L21.6,0z"/>
</svg>
