<?xml version="1.0" encoding="utf-8"?>
<!-- Generator: Adobe Illustrator 27.5.0, SVG Export Plug-In . SVG Version: 6.00 Build 0)  -->
<svg version="1.1" xmlns="http://www.w3.org/2000/svg" xmlns:xlink="http://www.w3.org/1999/xlink" x="0px" y="0px"
	 width="464.1px" height="438.9px" viewBox="0 0 464.1 438.9" style="enable-background:new 0 0 464.1 438.9;" xml:space="preserve"
	>
<path style="fill-rule:evenodd;clip-rule:evenodd;fill:#FFFFFF;" d="M173.9,237.6V218c-10.6-7.3-20.7-15.7-30.2-25.7
	c-26.8,25.7-52.6,42.5-55.4,44.2l-2.2,1.7l-15.1-24l2.2-1.1c0.6-0.6,26.8-17.3,53.1-43.1c-24-35.8-33.5-71.6-34.1-72.7l-0.6-2.8
	l27.4-7.3l0.6,2.8c0,0.6,7.8,29.1,26.3,58.7c19-22.9,29.6-44.7,32.4-64.9h-114V53.1h62.6V36.3h29.6v16.8h62.6v30.8h-12.3
	c-3.4,28.5-17.9,57.6-43.6,87.8c3.9,3.9,7.3,7.3,10.6,10.6v-14c0-10.6,8.4-18.5,18.5-18.5h82.2V4.5c0-2.2-2.2-4.5-4.5-4.5H5
	C2.2,0,0,2.2,0,4.5v265c0,2.8,2.2,5,5,5h168.9V237.6L173.9,237.6z"/>
<path style="fill-rule:evenodd;clip-rule:evenodd;fill:#FFFFFF;" d="M325.4,245.5h-0.6c-2.2,10.1-5,22.9-7.8,33l-10,35.7h37.5
	l-10.6-35.8C331,268.4,328.2,255.5,325.4,245.5L325.4,245.5z"/>
<path style="fill-rule:evenodd;clip-rule:evenodd;fill:#FFFFFF;" d="M459.6,164.4h-265c-2.8,0-4.5,2.2-4.5,4.5v265.6
	c0,2.2,1.7,4.5,4.5,4.5h265c2.8,0,4.5-2.2,4.5-4.5V168.9C464.1,166.6,462.4,164.4,459.6,164.4z M363.4,386.4L350,342.8h-48.6
	l-11.7,43.6H250L301.4,217h50.3l52.6,169.4H363.4z"/>
<path style="fill:#FFFFFF;" d="M297.5,6.2h86.1c20.7,0,38,16.8,38,38v42.5h17.9L425,114.1l-14.5,26.8L396,114.1l-15.1-27.4h17.9
	V44.2c0-8.4-6.7-15.1-15.1-15.1h-86.1L297.5,6.2L297.5,6.2z"/>
<path style="fill:#FFFFFF;" d="M170.5,427.8H71c-21.2,0-38.6-17.3-38.6-38v-42.5H14.5l15.1-27.4l14.5-27.4l29.1,54.8H55.9v42.5
	c0,8.4,6.7,15.1,15.1,15.1h99.5V427.8L170.5,427.8z"/>
</svg>
