<?xml version="1.0" encoding="utf-8"?>
<!-- Generator: Adobe Illustrator 26.0.2, SVG Export Plug-In . SVG Version: 6.00 Build 0)  -->
<svg version="1.1" id="Layer_1" xmlns="http://www.w3.org/2000/svg" xmlns:xlink="http://www.w3.org/1999/xlink" x="0px" y="0px"
	 viewBox="0 0 10.3 16" style="enable-background:new 0 0 10.3 16;" xml:space="preserve">
<style type="text/css">
	.st0{fill:#9147ff;}
</style>
<path class="st0" d="M8.7,5.4V13c0,0.8-0.6,1.4-1.4,1.4h0C6.6,14.4,6,13.8,6,13V5.4H4.4V13c0,0.8-0.6,1.4-1.4,1.4h0
	c-0.8,0-1.4-0.6-1.4-1.4V5.4H0v9v0C0,15.3,0.7,16,1.6,16h0h2.8H6h2.8h0c0.9,0,1.6-0.7,1.6-1.6v0v-9H8.7z"/>
<polygon class="st0" points="7.3,1.6 7.3,0 3,0 3,1.6 0,1.6 0,3.6 10.3,3.6 10.3,1.6 "/>
</svg>
