<?xml version="1.0" encoding="utf-8"?>
<!-- Generator: Adobe Illustrator 27.5.0, SVG Export Plug-In . SVG Version: 6.00 Build 0)  -->
<svg version="1.1" xmlns="http://www.w3.org/2000/svg" xmlns:xlink="http://www.w3.org/1999/xlink" x="0px" y="0px"
	 width="283.6px" height="230.4px" viewBox="0 0 283.6 230.4" style="enable-background:new 0 0 283.6 230.4;" xml:space="preserve"
	>
<path style="fill:#FFFFFF;" d="M135.4,1.2c-4.3-1.9-9-1.4-12.3,0.9L49.3,58.9H35.5C16.1,58.9,0,75,0,94.5v47.4
	c0,19.4,16.1,35.5,35.5,35.5h14.2l73.9,51.1c3.6,2.5,8.4,2.4,12.3,0.5c3.8-1.9,6.2-6.2,6.2-10.4v-207C142.1,7.3,139.7,3.1,135.4,1.2
	L135.4,1.2z"/>
<path style="fill:#FFFFFF;" d="M201.3,118.1c0-21.3-11.4-41.2-29.8-51.6c-5.7-3.3-12.8-1.4-16.1,4.3c-3.3,5.7-1.4,12.8,4.3,16.1
	c23.6,12.3,23.6,49.3,0,61.6c-5.7,3.3-7.6,10.4-4.3,16.1c3.4,5.7,10.3,7.8,16.1,4.7C189.9,159.3,201.3,139.4,201.3,118.1
	L201.3,118.1z"/>
<path style="fill:#FFFFFF;" d="M202.7,37.6c-5.2-3.8-12.8-2.8-16.6,2.4s-2.8,12.8,2.4,16.6c40.6,29.1,40.6,94.1,0,123.1
	c-5.2,3.8-6.2,11.4-2.4,16.6c3.8,5.5,11.5,6.1,16.6,2.4c25.1-18.9,40.3-49.3,40.3-80.5C242.9,86.9,227.8,56.6,202.7,37.6L202.7,37.6
	z"/>
<path style="fill:#FFFFFF;" d="M232.5,8.7c-5.2-4.3-12.3-3.3-16.6,1.4c-4.3,5.2-3.3,12.3,1.4,16.6c57,44.8,57,138,0,182.8
	c-5.2,4.3-5.7,11.8-1.4,16.6c4.3,5.1,11.6,5.7,16.6,1.4C300.7,174.8,300.6,61.8,232.5,8.7L232.5,8.7z"/>
</svg>
