<?xml version="1.0" encoding="UTF-8"?>
<svg id="Layer_1" xmlns="http://www.w3.org/2000/svg" version="1.1" viewBox="0 0 339.0224 322.4719">
  <!-- Generator: Adobe Illustrator 30.3.0, SVG Export Plug-In . SVG Version: 2.1.3 Build 182)  -->
  <rect x="155.5726" y="233.4255" width="23.6919" height="13.9724" style="fill: #fff;"/>
  <path d="M315.1428,176.5379h-183.2592c-13.1883,0-23.8796,13.8666-23.8796,30.9718v83.9904c0,17.1052,10.6913,30.9718,23.8796,30.9718h183.2592c13.1883,0,23.8796-13.8666,23.8796-30.9718v-83.9904c0-17.1052-10.6913-30.9718-23.8796-30.9718h0ZM202.9774,289.315h-23.713v-23.2782h-23.6919v23.2782h-23.6919v-83.8344h55.2952l15.8016,18.639v65.1954h0ZM282.7641,261.3703h-47.4049v27.9448h-23.6919v-83.8344h55.2952l15.8016,18.639v37.2506ZM315.1458,289.315h-23.6919v-83.8343h23.6919v83.8343Z" style="fill: #fff;"/>
  <rect x="235.3592" y="228.7862" width="23.6919" height="13.9724" style="fill: #fff;"/>
  <path d="M88.0039,218.6638c-10.9273-.01-21.8567-.0408-32.8038-.1638-2.9,0-6.4-1.7-8.6-3.7-8.2-7.5-15.9-15.7-24.1-23.3-3.8-3.6-5.4-7.3-5.4-12.6.4-25.4.3-51,.3-76.7,0-26.3.1-52.7-.1-79,0-4.6,1.1-6.5,6.1-6.4,18.1.3,36.3.2,54.4999,0,4.3,0,5.7,1.3,5.7,5.7-.3,15.2,0,30.3-.2,45.5-.1,4.1,1.1,5.5,5.4,5.4,15.8-.2,31.7,0,47.5-.2,3.7,0,5,1.1,4.9,4.8-.1,18.5-.1,37,0,55.5,0,3.8-1.5,4.8-5.1,4.8-15.7-.2-31.3,0-47-.3-4.2-.1-5.9.9-5.8,5.5.3,10.2,0,10.2,10.4,10.2,14,0,28,.1,42-.1,3.1123-.0759,4.6662.7162,5.1918,2.9377h21.1082V38.7c0-3.5,2.8-6.3,6.3-6.3h56.4c3.5,0,6.3,2.8,6.3,6.3v36.6c0,3.5,2.8,6.3,6.3,6.3h28.3c3.5,0,6.3,2.8,6.3,6.3v52c0,3.5-2.7999,6.3-6.2999,6.3h-31.4c-1.8,0-3.2,1.4-3.2,3.2v6.1c0,.3676.0715.712.1797,1.0377h57.6202v-87.1377c0-4.3-3.5-7.8-7.8-7.8h-25.2c-4.3,0-7.9-3.5-7.9-7.9v-30.4c0-4.3-3.5-7.9-7.9-7.9h-85.3c-4.7,0-8.4,3.8-8.4,8.5l.5,33.1h-8.1c-3.7,0-6.2-1.3-8.3-4.3-11.6-16-23.5-31.9-35.2-47.9C92.8,1.6,90.1,0,86,0,59.7.1,33.3,0,7,.1,1,.1,0,1,0,7.1v181C0,192.7,1.6,196.3,5,199.6c12.4,11.9,24.6,24,36.8,36,15.4058,15.1401,30.7692,30.585,46.2039,45.874v-62.8102Z" style="fill: #fff;"/>
</svg>