<?xml version="1.0" encoding="utf-8"?>
<!-- Generator: Adobe Illustrator 27.5.0, SVG Export Plug-In . SVG Version: 6.00 Build 0)  -->
<svg version="1.1" xmlns="http://www.w3.org/2000/svg" xmlns:xlink="http://www.w3.org/1999/xlink" x="0px" y="0px"
	 width="248px" height="204px" viewBox="0 0 248 204" style="enable-background:new 0 0 248 204;" xml:space="preserve">
<path style="fill:#FFFFFF;" d="M221.9,51.3c0.1,2.2,0.1,4.3,0.1,6.5c0,66.7-50.8,143.7-143.7,143.7l0,0c-27.4,0-54.3-7.8-77.4-22.6
	c4,0.5,8,0.7,12,0.7c22.7,0,44.8-7.6,62.7-21.7C54,157.5,35,143.4,28.4,122.8c7.6,1.5,15.4,1.2,22.8-0.9
	c-23.6-4.8-40.5-25.5-40.5-49.5c0-0.2,0-0.4,0-0.6c7,3.9,14.9,6.1,22.9,6.3C11.4,63.3,4.6,33.8,18,10.7
	c25.6,31.5,63.5,50.7,104.1,52.8c-4.1-17.5,1.5-35.9,14.6-48.2C157-3.8,189-2.8,208.1,17.5c11.3-2.2,22.1-6.4,32.1-12.3
	c-3.8,11.7-11.7,21.6-22.2,27.9c10-1.2,19.8-3.9,29-8C240.4,35.3,231.8,44.1,221.9,51.3z"/>
</svg>
