<?xml version="1.0" encoding="UTF-8"?>
<svg id="Layer_1" xmlns="http://www.w3.org/2000/svg" version="1.1" viewBox="0 0 339.0224 322.4719">
  <!-- Generator: Adobe Illustrator 30.3.0, SVG Export Plug-In . SVG Version: 2.1.3 Build 182)  -->
  <path d="M144.4,159.8077h17.6V38.7c0-3.5,2.8-6.3,6.3-6.3h56.4c3.5,0,6.3,2.8,6.3,6.3v36.6c0,3.5,2.8,6.3,6.3,6.3h28.3c3.5,0,6.3,2.8,6.3,6.3v42.9689c6.1878,2.12,11.8934,5.2879,16.9,9.296v-70.765c0-4.3-3.5-7.8-7.8-7.8h-25.2c-4.3,0-7.9-3.5-7.9-7.9v-30.4c0-4.3-3.5-7.9-7.9-7.9h-85.3c-4.7,0-8.4,3.8-8.4,8.5l.5,33.1h-8.1c-3.7,0-6.2-1.3-8.3-4.3-11.6-16-23.5-31.9-35.2-47.9-2.4-3.2-5.1-4.8-9.2-4.8C59.7.1,33.3,0,7,.1,1,.1,0,1,0,7.1v181c0,4.6,1.6,8.2,5,11.5,12.4,11.9,24.6,24,36.8,36,23.2,22.8,46.3,46.3,69.7,68.9,2.2,2.2,6,3.9,9.1,3.9h23.8v-148.5923ZM141.2,133.5c0,3.8-1.5,4.8-5.1,4.8-15.7-.2-31.3,0-47-.3-4.2-.1-5.9.9-5.8,5.5.3,10.2,0,10.2,10.4,10.2,14,0,28,.1,42-.1,4.1-.1,5.5,1.3,5.4,5.5-.2,18-.2,36,0,54,.1,4.6-1.7,5.7-5.9,5.6-26.7-.1-53.3.1-80-.2-2.9,0-6.4-1.7-8.6-3.7-8.2-7.5-15.9-15.7-24.1-23.3-3.8-3.6-5.4-7.3-5.4-12.6.4-25.4.3-51,.3-76.7,0-26.3.1-52.7-.1-79,0-4.6,1.1-6.5,6.1-6.4,18.1.3,36.3.2,54.5,0,4.3,0,5.7,1.3,5.7,5.7-.3,15.2,0,30.3-.2,45.5-.1,4.1,1.1,5.5,5.4,5.4,15.8-.2,31.7,0,47.5001-.2,3.7,0,5,1.1,4.9,4.8-.1,18.5-.1,37,0,55.5Z" style="fill: #fff;"/>
  <path d="M190.0475,301.0868h117.0174c5.7668,0,10.5724-4.8056,10.5724-10.5724v-85.0599h-53.1023v-15.8586c0-8.8904-7.2085-15.8586-15.8586-15.8586s-15.8586,7.2085-15.8586,15.8586v15.8586h-42.7702v11.053c20.424,2.8834,34.6006,21.8657,31.7172,42.0494-2.4028,16.3392-15.1378,29.3144-31.7172,31.7172,0,0,0,10.8127,0,10.8127ZM168.6624,184.0694v53.3426h15.8586c8.8904,0,15.8586,7.2085,15.8586,15.8586s-7.2085,15.8586-15.8586,15.8586h-15.8586v53.3426h138.4025c15.8586,0,31.9575-15.8586,31.9575-31.9575v-106.445h-53.3426c0-17.5406-14.1766-31.9575-31.9575-31.9575h-10.5724c-17.5406,0-31.9575,14.4169-31.9575,31.9575h-42.5299Z" style="fill: #fff; fill-rule: evenodd;"/>
</svg>