<?xml version="1.0" encoding="utf-8"?>
<!-- Generator: Adobe Illustrator 27.5.0, SVG Export Plug-In . SVG Version: 6.00 Build 0)  -->
<svg version="1.1" xmlns="http://www.w3.org/2000/svg" xmlns:xlink="http://www.w3.org/1999/xlink" x="0px" y="0px"
	 width="301.7px" height="318.3px" viewBox="0 0 301.7 318.3" style="enable-background:new 0 0 301.7 318.3;" xml:space="preserve"
	>
<path style="fill:#FFFFFF;" d="M75.4,318.3c0-13.9,0-27.7,0-41.7c-25.1,0-50.2,0-75.4,0c0-0.6,0-1.1,0-1.5c0-71.4,0-142.9,0-214.3
	c0-0.7,0.2-1.5,0.5-2.2c8-19.1,16.1-38.3,24.1-57.4C25,0.3,25.4,0,26.4,0C117.7,0,209,0,300.3,0c0.4,0,0.8,0,1.4,0c0,0.6,0,1,0,1.5
	c0,63.3,0,126.7,0,190c0,0.9-0.2,1.5-0.9,2.1c-27.4,27.3-54.7,54.7-82,82c-0.7,0.7-1.4,0.9-2.3,0.9c-18.6,0-37.2,0-55.8,0
	c-1.1,0-1.9,0.3-2.6,1c-7,7.1-14.1,14.2-21.1,21.2c-6.4,6.4-12.7,12.7-19.1,19c-0.3,0.3-0.8,0.6-1.3,0.6c-13.5,0-27,0-40.5,0
	C75.9,318.4,75.7,318.3,75.4,318.3z M108.9,259.4c0.1,0.1,0.3,0.2,0.4,0.3c0.3-0.4,0.5-0.9,0.9-1.2c13.2-13.2,26.4-26.4,39.5-39.6
	c0.8-0.8,1.5-1.1,2.6-1.1c24.2,0,48.4,0,72.6,0c0.9,0,1.5-0.2,2.1-0.8c13.4-13.4,26.8-26.8,40.2-40.3c0.5-0.5,0.8-1.3,0.8-1.9
	c0-46.6,0-93.3,0-139.9c0-0.4,0-0.9,0-1.3c-69.9,0-139.7,0-209.4,0c0,61.4,0,122.8,0,184.3c16.7,0,33.4,0,50.2,0
	C108.9,231.8,108.9,245.6,108.9,259.4z"/>
<path style="fill:#FFFFFF;" d="M109,83.8c14,0,27.8,0,41.8,0c0,27.9,0,55.7,0,83.6c-13.9,0-27.8,0-41.8,0
	C109,139.6,109,111.8,109,83.8z"/>
<path style="fill:#FFFFFF;" d="M217.8,83.9c0,27.9,0,55.7,0,83.6c-13.9,0-27.8,0-41.8,0c0-27.8,0-55.6,0-83.6
	C189.9,83.9,203.8,83.9,217.8,83.9z"/>
</svg>
