<?xml version="1.0" encoding="utf-8"?>
<!-- Generator: Adobe Illustrator 27.5.0, SVG Export Plug-In . SVG Version: 6.00 Build 0)  -->
<svg version="1.1" xmlns="http://www.w3.org/2000/svg" xmlns:xlink="http://www.w3.org/1999/xlink" x="0px" y="0px"
	 width="319.5px" height="319.5px" viewBox="0 0 319.5 319.5" style="enable-background:new 0 0 319.5 319.5;" xml:space="preserve"
	>
<path style="fill:#FFFFFF;" d="M296.3,67.1h-25.2c-4.3,0-7.9-3.5-7.9-7.9V28.8c0-4.3-3.5-7.9-7.9-7.9H170c-4.7,0-8.4,3.8-8.4,8.5
	l0.5,33.1H154c-3.7,0-6.2-1.3-8.3-4.3c-11.6-16-23.5-31.9-35.2-47.9c-2.4-3.2-5.1-4.8-9.2-4.8c-26.3,0.1-52.7,0-79,0.1
	c-6,0-7,0.9-7,7c0,60.3,0,120.6,0,181c0,4.6,1.6,8.2,5,11.5c12.4,11.9,24.6,24,36.8,36c23.2,22.8,46.3,46.3,69.7,68.9
	c2.2,2.2,6,3.9,9.1,3.9h86.9c5.1-0.1,9-1.8,12.6-5.5c21.4-21.2,43.3-42.7,64.9-63.8c2.7-2.6,3.8-5.4,3.8-9.2c0-8.1,0-16.3,0-24.4
	v-0.1v-136C304.1,70.6,300.6,67.1,296.3,67.1z M156.5,83.5c-0.1,18.5-0.1,37,0,55.5c0,3.8-1.5,4.8-5.1,4.8c-15.7-0.2-31.3,0-47-0.3
	c-4.2-0.1-5.9,0.9-5.8,5.5c0.3,10.2,0,10.2,10.4,10.2c14,0,28,0.1,42-0.1c4.1-0.1,5.5,1.3,5.4,5.5c-0.2,18-0.2,36,0,54
	c0.1,4.6-1.7,5.7-5.9,5.6c-26.7-0.1-53.3,0.1-80-0.2c-2.9,0-6.4-1.7-8.6-3.7c-8.2-7.5-15.9-15.7-24.1-23.3
	c-3.8-3.6-5.4-7.3-5.4-12.6c0.4-25.4,0.3-51,0.3-76.7c0-26.3,0.1-52.7-0.1-79c0-4.6,1.1-6.5,6.1-6.4c18.1,0.3,36.3,0.2,54.5,0
	c4.3,0,5.7,1.3,5.7,5.7c-0.3,15.2,0,30.3-0.2,45.5c-0.1,4.1,1.1,5.5,5.4,5.4c15.8-0.2,31.7,0,47.5-0.2
	C155.3,78.7,156.6,79.8,156.5,83.5z M287.2,145.4c0,3.5-2.8,6.3-6.3,6.3h-31.4c-1.8,0-3.2,1.4-3.2,3.2v6.1c0,1.8,1.4,3.2,3.2,3.2
	h31.4c3.5,0,6.3,2.8,6.3,6.3v52c0,3.5-2.8,6.3-6.3,6.3h-62.4c-1.6-0.1-3.1-0.7-4.2-1.7l-34.9-31.7c-1.3-1.2-2.1-2.9-2.1-4.6V44.2
	c0-3.5,2.8-6.3,6.3-6.3H240c3.5,0,6.3,2.8,6.3,6.3v36.6c0,3.5,2.8,6.3,6.3,6.3h28.3c3.5,0,6.3,2.8,6.3,6.3L287.2,145.4L287.2,145.4z
	"/>
</svg>
