<?xml version="1.0" encoding="utf-8"?>
<!-- Generator: Adobe Illustrator 27.6.1, SVG Export Plug-In . SVG Version: 6.00 Build 0)  -->
<svg version="1.1" xmlns="http://www.w3.org/2000/svg" xmlns:xlink="http://www.w3.org/1999/xlink" x="0px" y="0px"
	 width="157px" height="157px" viewBox="0 0 157 157" style="enable-background:new 0 0 157 157;" xml:space="preserve">
<path style="opacity:0.3;fill:#FFFFFF;" d="M112.4,122.2c-13.5,0-25.9-7.5-32.1-19.5c-0.5-1-1.7-1.4-2.7-0.9
	c-0.4,0.2-0.7,0.5-0.9,0.9c-9.2,17.7-31,24.6-48.8,15.4s-24.6-31-15.4-48.8s31-24.6,48.8-15.4c6.9,3.6,12.4,9.2,15.8,16.2
	c-6.3,7.1-5.9,17.9,0.8,24.6c0.3,0.3,0.8,0.3,1.1,0c6.7-6.7,7.1-17.4,0.8-24.6c8.8-17.9,30.4-25.3,48.4-16.6
	c17.9,8.8,25.3,30.4,16.6,48.4C138.8,114.3,126.2,122.2,112.4,122.2L112.4,122.2z"/>
<path style="fill:#FFFFFF;" d="M156,33.1c-1.3-1.3-3.3-1.3-4.6,0c0,0,0,0,0,0l-5.4,5.4C123.9,1.2,75.7-11.1,38.4,11
	C27.1,17.7,17.7,27.1,11,38.4l-5.4-5.4c-1.3-1.3-3.3-1.3-4.6,0c-0.6,0.6-1,1.5-1,2.3v43.1C0,121.8,35.1,157,78.5,157
	S157,121.8,157,78.5V35.4C157,34.5,156.6,33.7,156,33.1z M112.3,122.2c-13.5,0-25.9-7.5-32.1-19.5c-0.5-1-1.7-1.4-2.7-0.9
	c-0.4,0.2-0.7,0.5-0.9,0.9c-9.2,17.7-31,24.6-48.8,15.4s-24.6-31-15.4-48.8s31-24.6,48.8-15.4c6.9,3.6,12.4,9.2,15.8,16.2
	c-6.3,7.1-5.9,17.9,0.8,24.6c0.3,0.3,0.8,0.3,1.1,0c6.7-6.7,7.1-17.4,0.8-24.6c8.8-17.9,30.4-25.3,48.4-16.6
	c17.9,8.8,25.3,30.4,16.6,48.4C138.7,114.3,126.1,122.2,112.3,122.2L112.3,122.2z"/>
<path style="fill:#FFFFFF;" d="M113.7,57.8"/>
<path style="fill:#FFFFFF;fill-opacity:0.3;" d="M43.3,57.8c8.7,0.8,15.1,8.6,14.3,17.3c-0.8,8.7-8.6,15.1-17.3,14.3
	c-8.7-0.8-15.1-8.6-14.3-17.3c0.7-7.6,6.7-13.5,14.3-14.3c-12.6,0.8-22.1,11.7-21.3,24.3c0.8,12.6,11.7,22.1,24.3,21.3
	c12.6-0.8,22.1-11.7,21.3-24.3C63.9,67.7,54.8,58.6,43.3,57.8z"/>
<path style="fill:#FFFFFF;" d="M45.3,60.6c1.4,1.1,2.3,2.9,2.3,4.7c-0.1,3.1-2.8,5.6-5.9,5.4c-3-0.1-5.3-2.5-5.4-5.4
	c0-1.8,0.8-3.4,2.2-4.6l0.3-0.3c0.9-0.6,1.5-1.6,1.6-2.6c-8.5,0.8-14.7,8.4-13.9,16.9c0.8,8.5,8.4,14.7,16.9,13.9
	c8.5-0.8,14.7-8.4,13.9-16.9c-0.7-7.4-6.5-13.2-13.9-13.9h-0.1C43.3,58.8,44.3,59.8,45.3,60.6z"/>
<path style="fill:#FFFFFF;fill-opacity:0.3;" d="M116.6,57.8c8.5,0.8,14.8,8.4,14,16.9c-0.8,8.5-8.4,14.8-16.9,14s-14.8-8.4-14-16.9
	c0.7-7.4,6.6-13.3,14-14C101,58.6,91.3,69.6,92.1,82.2s11.7,22.3,24.4,21.5c12.7-0.8,22.3-11.7,21.5-24.4
	C137.3,67.8,128.1,58.6,116.6,57.8z"/>
<path style="fill:#FFFFFF;" d="M118.6,60.6c1.4,1.1,2.3,2.9,2.3,4.7c-0.1,3.1-2.8,5.6-5.9,5.4c-3-0.1-5.3-2.5-5.4-5.4
	c0-1.8,0.8-3.4,2.2-4.6l0.3-0.3c0.9-0.8,1.6-1.5,1.6-2.6c-8.7,0.8-15.1,8.5-14.3,17.2s8.5,15.1,17.2,14.3s15.1-8.5,14.3-17.2
	c-0.7-7.6-6.7-13.6-14.3-14.3C116.7,58.8,117.6,59.8,118.6,60.6L118.6,60.6z"/>
</svg>
