<?xml version="1.0" encoding="utf-8"?>
<!-- Generator: Adobe Illustrator 27.9.2, SVG Export Plug-In . SVG Version: 6.00 Build 0)  -->
<svg version="1.1" xmlns="http://www.w3.org/2000/svg" xmlns:xlink="http://www.w3.org/1999/xlink" x="0px" y="0px"
	 viewBox="0 0 16 16" style="enable-background:new 0 0 16 16;" xml:space="preserve">
<path d="M8,14c-1.6,0-3.1-0.6-4.2-1.8C2.8,11.3,2.2,10.1,2,8.7L0.1,9c0.2,1.8,1,3.4,2.3,4.7c3.1,3.1,8.2,3.1,11.3,0
	s3.1-8.2,0-11.3s-8.2-3.1-11.3,0C2.2,2.5,2.1,2.6,2,2.7V1H0v5h5V4H3.5c2.2-2.5,6-2.7,8.5-0.5c2.3,2,2.7,5.5,0.9,8L7.7,6.3L6.3,7.7
	l5.2,5.2c0,0-0.1,0.1-0.1,0.1C10.4,13.6,9.2,14,8,14z"/>
</svg>
