<?xml version="1.0" encoding="utf-8"?>
<!-- Generator: Adobe Illustrator 27.5.0, SVG Export Plug-In . SVG Version: 6.00 Build 0)  -->
<svg version="1.1" xmlns="http://www.w3.org/2000/svg" xmlns:xlink="http://www.w3.org/1999/xlink" x="0px" y="0px"
	 width="16px" height="16px" viewBox="0 0 16 16" style="enable-background:new 0 0 16 16;" xml:space="preserve">
<path style="fill:#FFFFFF;" d="M0,0"/>
<rect x="0.1" y="7.2" transform="matrix(0.7071 -0.7071 0.7071 0.7071 -3.2637 8.0341)" style="fill:#FFFFFF;" width="15.9" height="1.5"/>
<path style="fill:#FFFFFF;" d="M2,10.6C1.7,9.8,1.5,8.9,1.5,8c0-1.3,0.4-2.5,1-3.5l2.8,2.8l2-2L4.5,2.5c1-0.6,2.2-1,3.5-1
	c0.9,0,1.8,0.2,2.6,0.5l1.1-1.1C10.6,0.3,9.3,0,8,0C3.6,0,0,3.6,0,8c0,1.3,0.3,2.6,0.9,3.7L2,10.6z"/>
<path style="fill:#FFFFFF;" d="M14,5.4c0.3,0.8,0.5,1.7,0.5,2.6c0,1.3-0.4,2.5-1,3.5l-2.8-2.8l-2,2l2.8,2.8c-1,0.6-2.2,1-3.5,1
	c-0.9,0-1.8-0.2-2.6-0.5l-1.1,1.1C5.4,15.7,6.7,16,8,16c4.4,0,8-3.6,8-8c0-1.3-0.3-2.6-0.9-3.7L14,5.4z"/>
</svg>
