<?xml version="1.0" encoding="utf-8"?>
<!-- Generator: Adobe Illustrator 27.5.0, SVG Export Plug-In . SVG Version: 6.00 Build 0)  -->
<svg version="1.1" xmlns="http://www.w3.org/2000/svg" xmlns:xlink="http://www.w3.org/1999/xlink" x="0px" y="0px"
	 width="231.7px" height="192.3px" viewBox="0 0 231.7 192.3" style="enable-background:new 0 0 231.7 192.3;" xml:space="preserve"
	>
<path style="fill:#FFFFFF;" d="M125.8,138.9l-48-42.4l25.8-52.6C93.7,25.8,87.4,14.1,83.4,6.4c-9.8-5.1-21.1-7.4-32.9-6
	C19.2,4-3.3,32.4,0.4,63.7C4.9,102,87.1,175,113.3,192.3L125.8,138.9z"/>
<path style="fill:#FFFFFF;" d="M180.4,2.2c-16.1-1.6-31.4,3.7-42.8,13.4c2.9,10.1,6.1,21.2,8.8,30.5l1.2,4.2L113.8,93l36.2,49.4
	l-22.9,48.1c30.8-23.6,100.7-90.3,104.3-125.8C234.6,33.3,211.7,5.3,180.4,2.2z"/>
</svg>
