<?xml version="1.0" encoding="utf-8"?>
<!-- Generator: Adobe Illustrator 26.0.2, SVG Export Plug-In . SVG Version: 6.00 Build 0)  -->
<svg version="1.1" id="Layer_1" xmlns="http://www.w3.org/2000/svg" xmlns:xlink="http://www.w3.org/1999/xlink" x="0px" y="0px"
	 viewBox="0 0 394.6 577.3" style="enable-background:new 0 0 394.6 577.3;" xml:space="preserve">
<style type="text/css">
	.st0{fill-rule:evenodd;clip-rule:evenodd;fill:#18181b;}
</style>
<path class="st0" d="M335.4,261.6h-11.7h-8h-39.5H118.4H78.9H59.2C26.5,261.6,0,288.1,0,320.8v197.3c0,32.7,26.5,59.2,59.2,59.2
	h276.2c32.7,0,59.2-26.5,59.2-59.2V320.8C394.6,288.1,368.1,261.6,335.4,261.6z M197.3,478.6c-32.7,0-59.2-26.5-59.2-59.2
	s26.5-59.2,59.2-59.2s59.2,26.5,59.2,59.2S230,478.6,197.3,478.6z"/>
<path class="st0" d="M253.9,3C190.2-11.6,126.6,28.2,112,91.9l-8.8,38.5l38.5,8.8l8.8-38.5c9.8-42.5,52.1-69,94.6-59.2
	c42.5,9.8,69,52.1,59.2,94.6L275.1,263l38.5,8.8L342.8,145C357.4,81.2,317.6,17.7,253.9,3z"/>
</svg>
