<?xml version="1.0" encoding="utf-8"?>
<!-- Generator: Adobe Illustrator 27.5.0, SVG Export Plug-In . SVG Version: 6.00 Build 0)  -->
<svg version="1.1" xmlns="http://www.w3.org/2000/svg" xmlns:xlink="http://www.w3.org/1999/xlink" x="0px" y="0px"
	 width="394.6px" height="577.3px" viewBox="0 0 394.6 577.3" style="enable-background:new 0 0 394.6 577.3;" xml:space="preserve"
	>
<path style="fill-rule:evenodd;clip-rule:evenodd;fill:#FFFFFF;" d="M335.4,261.6h-11.7h-7.8L342.8,145
	c14.6-63.8-25.2-127.3-88.9-142C190.2-11.6,126.6,28.2,112,91.9l-8.8,38.5l38.5,8.8l8.8-38.5c9.8-42.5,52.1-69,94.6-59.2
	s69,52.1,59.2,94.6l-28.9,125.5h-157H78.9H59.2C26.5,261.6,0,288.1,0,320.8v197.3c0,32.7,26.5,59.2,59.2,59.2h276.2
	c32.7,0,59.2-26.5,59.2-59.2V320.8C394.6,288.1,368.1,261.6,335.4,261.6z M197.3,478.6c-32.7,0-59.2-26.5-59.2-59.2
	s26.5-59.2,59.2-59.2s59.2,26.5,59.2,59.2S230,478.6,197.3,478.6z"/>
</svg>
