<?xml version="1.0" encoding="utf-8"?>
<!-- Generator: Adobe Illustrator 27.5.0, SVG Export Plug-In . SVG Version: 6.00 Build 0)  -->
<svg version="1.1" xmlns="http://www.w3.org/2000/svg" xmlns:xlink="http://www.w3.org/1999/xlink" x="0px" y="0px"
	 width="283.6px" height="230.4px" viewBox="0 0 283.6 230.4" style="enable-background:new 0 0 283.6 230.4;" xml:space="preserve"
	>
<path style="fill:#FFFFFF;" d="M135.4,1.2c-4.3-1.9-9-1.4-12.3,0.9L49.3,58.9H35.5C16.1,58.9,0,75,0,94.5v47.4
	c0,19.4,16.1,35.5,35.5,35.5h14.2l73.9,51.1c3.6,2.5,8.4,2.4,12.3,0.5c3.8-1.9,6.2-6.2,6.2-10.4v-207C142.1,7.3,139.7,3.1,135.4,1.2
	L135.4,1.2z"/>
<path style="fill:#FFFFFF;" d="M170.8,169.6c-6.4,0-11.5-5.1-11.5-11.5s5.1-11.5,11.5-11.5c17.3,0,31.4-14.1,31.4-31.4
	c0-17.3-14.1-31.4-31.4-31.4c-6.4,0-11.5-5.1-11.5-11.5s5.1-11.5,11.5-11.5c30,0,54.4,24.4,54.4,54.4
	C225.2,145.2,200.8,169.6,170.8,169.6z"/>
<path style="fill:#FFFFFF;" d="M170.8,218.8c-6.4,0-11.5-5.1-11.5-11.5s5.1-11.5,11.5-11.5c44.4,0,80.6-36.2,80.6-80.6
	c0-44.4-36.2-80.6-80.6-80.6c-6.4,0-11.5-5.1-11.5-11.5s5.1-11.5,11.5-11.5c57.1,0,103.6,46.5,103.6,103.6
	C274.4,172.3,227.9,218.8,170.8,218.8z"/>
</svg>
