<?xml version="1.0" encoding="utf-8"?>
<!-- Generator: Adobe Illustrator 27.5.0, SVG Export Plug-In . SVG Version: 6.00 Build 0)  -->
<svg version="1.1" xmlns="http://www.w3.org/2000/svg" xmlns:xlink="http://www.w3.org/1999/xlink" x="0px" y="0px"
	 width="251.3px" height="297.3px" viewBox="0 0 251.3 297.3" style="enable-background:new 0 0 251.3 297.3;" xml:space="preserve"
	>
<g>
	<path style="fill:#FFFFFF;" d="M18.2,205.5l68.9-68.9c-1.7-0.8-2.9-2.5-2.8-5v-80c-0.1-3.3,2.4-5.8,5.7-5.7
		c3.3-0.1,5.8,2.4,5.7,5.7c0,0,0,69.8,0,76.4L170,53.7v-7.9c3.7,0.1,7.3-0.9,10.5-2.6l9.7-9.7c1.7-3.2,2.7-6.8,2.6-10.5
		c0.4-12.2-10.7-23.3-22.8-23H55.7c-30,0.6-30,45.1,0,45.7v91.5C29.9,137,9,169.5,9.9,194.5C9.7,199.5,13.5,204.1,18.2,205.5z"/>
	<path style="fill:#FFFFFF;" d="M175.7,137.8l-80.3,80.3l11.7,74.4c0.6,3.2,2.5,4.8,5.7,4.8c2.9,0.2,5.3-2.4,5.7-5.2l9.1-86.3
		c5-1.2,83.7,3.4,84.7-3.4c9.3-13.3-1.6-35.6-10.6-47.5C193.8,145.1,185.2,139.4,175.7,137.8z"/>
</g>
<path style="fill:#FFFFFF;" d="M5.1,263.5L5.1,263.5c-6.8-6.8-6.8-17.9,0-24.7L221.5,22.4c6.8-6.8,17.9-6.8,24.7,0l0,0
	c6.8,6.8,6.8,17.9,0,24.7L29.8,263.5C23,270.3,11.9,270.3,5.1,263.5z"/>
</svg>
