<?xml version="1.0" encoding="UTF-8"?>
<svg xmlns="http://www.w3.org/2000/svg" version="1.1" viewBox="0 0 293.6 303.1">
  <path d="M18.9,208.4c-5,0-9.8,2-13.4,5.5-3.5,3.6-5.5,8.4-5.5,13.4v18.9c0,15.1,6,29.5,16.6,40.2s25.1,16.6,40.2,16.6h180c15.1,0,29.5-6,40.2-16.6,10.7-10.7,16.6-25.1,16.6-40.2v-18.9c0-6.8-3.6-13-9.5-16.4s-13.1-3.4-18.9,0c-5.9,3.4-9.5,9.6-9.5,16.4v18.9c0,5-2,9.8-5.6,13.4s-8.4,5.5-13.4,5.5H56.7c-5,0-9.8-2-13.4-5.5-3.6-3.6-5.5-8.4-5.5-13.4v-18.9c0-5-2-9.8-5.5-13.4-3.5-3.5-8.3-5.5-13.4-5.5h0Z" style="fill: #fff;"/>
  <path d="M147.2,213.2c5,0,9.8-2,13.4-5.5,3.6-3.6,5.5-8.4,5.5-13.4V55.3l28.4,28.4c3.2,3.3,7.4,5.4,11.9,6,4.6.5,9.2-.5,13-3,4.6-3.2,7.6-8.3,8.1-13.9s-1.5-11.1-5.5-15.1l-45.7-45.6c-7.8-7.8-18.3-12.1-29.3-12.1s-21.5,4.4-29.3,12.1l-45.7,45.6c-4,4-6,9.5-5.5,15.1s3.5,10.7,8.1,13.9c3.8,2.5,8.4,3.6,13,3,4.6-.5,8.8-2.6,11.9-6l28.4-28.4v139c0,5,2,9.9,5.6,13.4,3.8,3.5,8.6,5.5,13.7,5.5h0Z" style="fill: #fff;"/>
</svg>