<?xml version="1.0" encoding="utf-8"?>
<!-- Generator: Adobe Illustrator 27.5.0, SVG Export Plug-In . SVG Version: 6.00 Build 0)  -->
<svg version="1.1" xmlns="http://www.w3.org/2000/svg" xmlns:xlink="http://www.w3.org/1999/xlink" x="0px" y="0px"
	 width="315.7px" height="424.3px" viewBox="0 0 315.7 424.3" style="enable-background:new 0 0 315.7 424.3;" xml:space="preserve"
	>
<path style="fill:#FFFFFF;" d="M310.5,80.5L232.9,5c-3.3-3.2-7.8-5-12.5-5l0,0H15.1C6.8,0,0,6.6,0,14.7v394.9
	c0,8.1,6.8,14.7,15.1,14.7h285.5c8.3,0,15.1-6.6,15.1-14.7v-317C315.7,88.1,313.9,83.7,310.5,80.5z M267.3,211.2h-76.6v213h-65.5
	v-213H48.5c-4.6,0-7-6.2-3.9-9.6l0,0L153.9,81.9c2.1-2.3,5.7-2.5,7.8-0.2l109.4,120C274.3,205.1,271.8,211.2,267.3,211.2z"/>
</svg>
