<?xml version="1.0" encoding="utf-8"?>
<!-- Generator: Adobe Illustrator 27.5.0, SVG Export Plug-In . SVG Version: 6.00 Build 0)  -->
<svg version="1.1" xmlns="http://www.w3.org/2000/svg" xmlns:xlink="http://www.w3.org/1999/xlink" x="0px" y="0px"
	 width="414.4px" height="192.4px" viewBox="0 0 414.4 192.4" style="enable-background:new 0 0 414.4 192.4;" xml:space="preserve"
	>
<path style="fill:#FFFFFF;" d="M170.2,192.4h-74C42.9,192.4,0,149.5,0,96.2S42.9,0,96.2,0h74c12.6,0,22.2,9.6,22.2,22.2
	s-9.6,22.2-22.2,22.2h-74c-28.9,0-51.8,22.9-51.8,51.8S67.3,148,96.2,148h74c12.6,0,22.2,9.6,22.2,22.2
	C192.4,182.8,182.8,192.4,170.2,192.4z"/>
<path style="fill:#FFFFFF;" d="M318.2,192.4h-74c-12.6,0-22.2-9.6-22.2-22.2s9.6-22.2,22.2-22.2h74c28.9,0,51.8-22.9,51.8-51.8
	s-22.9-51.8-51.8-51.8h-74c-12.6,0-22.2-9.6-22.2-22.2S231.6,0,244.2,0h74c53.3,0,96.2,42.9,96.2,96.2S371.5,192.4,318.2,192.4
	L318.2,192.4z"/>
<path style="fill:#FFFFFF;" d="M281.2,118.4h-148c-12.6,0-22.2-9.6-22.2-22.2S120.6,74,133.2,74h148c12.6,0,22.2,9.6,22.2,22.2
	C303.4,108.8,293.8,118.4,281.2,118.4L281.2,118.4z"/>
</svg>
