<?xml version="1.0" encoding="utf-8"?>
<!-- Generator: Adobe Illustrator 27.5.0, SVG Export Plug-In . SVG Version: 6.00 Build 0)  -->
<svg version="1.1" xmlns="http://www.w3.org/2000/svg" xmlns:xlink="http://www.w3.org/1999/xlink" x="0px" y="0px"
	 width="386.2px" height="278.7px" viewBox="0 0 386.2 278.7" style="enable-background:new 0 0 386.2 278.7;" xml:space="preserve"
	>
<polygon style="fill:#FFFFFF;" points="386.2,179.7 304.7,202.6 253.8,146.3 180.7,166.9 129.8,110.5 56.8,131.1 0,68.2 21,49.2 
	66,99 139.1,78.5 190,134.8 263,114.3 313.9,170.6 378.5,152.4 "/>
<polygon style="fill:#FFFFFF;" points="339.8,98.7 318.5,117.4 275.1,67.9 203.2,88.4 153.8,32.2 90.5,50.2 82.7,22.9 163.3,0 
	212.6,56.2 284.6,35.7 "/>
<polygon style="fill:#FFFFFF;" points="295.4,260 274.1,278.7 230.7,229.2 158.8,249.7 109.4,193.4 46.1,211.5 38.4,184.2 
	118.9,161.3 168.3,217.5 240.2,197 "/>
</svg>
