<?xml version="1.0" encoding="utf-8"?>
<!-- Generator: Adobe Illustrator 27.5.0, SVG Export Plug-In . SVG Version: 6.00 Build 0)  -->
<svg version="1.1" xmlns="http://www.w3.org/2000/svg" xmlns:xlink="http://www.w3.org/1999/xlink" x="0px" y="0px"
	 width="423.9px" height="423.9px" viewBox="0 0 423.9 423.9" style="enable-background:new 0 0 423.9 423.9;" xml:space="preserve"
	>
<path style="fill:#FFFFFF;" d="M411.6,286.3c-2,0-3.9-1.1-5-2.9c-6-10.8-2.8-19.9-0.2-27.1c2.4-6.7,4.1-11.5,0.5-17.9
	c-3.5-6.4-8.5-7.5-15.4-9.1c-7.5-1.7-16.8-3.8-22.8-14.7c-6-10.8-2.8-19.9-0.2-27.1c2.4-6.7,4.1-11.5,0.5-17.9
	c-3.5-6.4-8.5-7.5-15.4-9.1c-7.5-1.7-16.8-3.9-22.8-14.7c-6-10.8-2.8-19.9-0.2-27.1c2.4-6.7,4.1-11.5,0.5-17.9
	c-3.5-6.4-8.5-7.5-15.4-9.1c-7.5-1.7-16.8-3.9-22.8-14.7c-6-10.8-2.8-19.9-0.2-27.1c2.4-6.7,4.1-11.5,0.5-17.9
	c-3.5-6.4-8.5-7.5-15.4-9.1c-7.5-1.7-16.8-3.9-22.8-14.7c-1.5-2.7-0.5-6.2,2.2-7.7c2.7-1.5,6.2-0.5,7.7,2.2
	c3.5,6.4,8.5,7.5,15.4,9.1c7.5,1.7,16.8,3.9,22.8,14.7c6,10.8,2.8,19.9,0.2,27.1c-2.4,6.7-4.1,11.5-0.5,17.9
	c3.5,6.4,8.5,7.5,15.4,9.1c7.5,1.7,16.8,3.9,22.8,14.7c6,10.8,2.8,19.9,0.2,27.1c-2.4,6.7-4.1,11.5-0.5,17.9
	c3.5,6.4,8.5,7.5,15.4,9.1c7.5,1.7,16.8,3.9,22.8,14.7c6,10.8,2.8,19.9,0.2,27.1c-2.4,6.7-4.1,11.5-0.5,17.9
	c3.5,6.4,8.5,7.5,15.4,9.1c7.5,1.7,16.8,3.8,22.8,14.7c6,10.8,2.8,19.9,0.2,27.1c-2.4,6.7-4.1,11.5-0.5,17.9
	c1.5,2.7,0.5,6.2-2.2,7.7C413.4,286.1,412.5,286.3,411.6,286.3z"/>
<path style="fill:#FFFFFF;" d="M418.3,195.4c-2,0-3.9-1.1-5-2.9c-5.4-9.8-3.7-17.4-2.4-23.6c1.2-5.6,2.1-9.6-1.2-15.7
	c-3.3-6-7.2-7.5-12.6-9.4c-5.9-2.1-13.3-4.8-18.7-14.6c-5.4-9.8-3.7-17.4-2.4-23.6c1.2-5.6,2.1-9.6-1.2-15.7
	c-3.3-6-7.2-7.5-12.6-9.4c-5.9-2.1-13.3-4.8-18.7-14.6c-5.4-9.8-3.7-17.4-2.4-23.6c1.2-5.6,2.1-9.6-1.2-15.7
	c-1.5-2.7-0.5-6.2,2.2-7.7c2.7-1.5,6.2-0.5,7.7,2.2c5.4,9.8,3.7,17.4,2.4,23.6c-1.2,5.6-2.1,9.6,1.2,15.7c3.3,6,7.2,7.5,12.6,9.4
	c5.9,2.1,13.3,4.8,18.7,14.6c5.4,9.8,3.7,17.4,2.4,23.6c-1.2,5.6-2.1,9.6,1.2,15.7c3.3,6,7.2,7.5,12.6,9.4
	c5.9,2.1,13.3,4.8,18.7,14.6c5.4,9.8,3.7,17.4,2.4,23.6c-1.2,5.6-2.1,9.6,1.2,15.7c1.5,2.7,0.5,6.2-2.2,7.7
	C420.1,195.2,419.2,195.4,418.3,195.4z"/>
<path style="fill:#FFFFFF;" d="M163.9,423.9c-2,0-3.9-1.1-5-2.9c-3.5-6.4-8.5-7.5-15.4-9.1c-7.5-1.7-16.8-3.9-22.8-14.7
	c-6-10.8-2.8-19.9-0.2-27.1c2.4-6.7,4.1-11.5,0.5-17.9c-3.5-6.4-8.5-7.5-15.4-9.1c-7.5-1.7-16.8-3.9-22.8-14.7
	c-6-10.8-2.8-19.9-0.2-27.1c2.4-6.7,4.1-11.5,0.5-17.9c-3.5-6.4-8.5-7.5-15.4-9.1c-7.5-1.7-16.8-3.9-22.8-14.7
	c-6-10.8-2.8-19.9-0.2-27.1c2.4-6.7,4.1-11.5,0.5-17.9c-3.5-6.4-8.5-7.5-15.4-9.1c-7.5-1.7-16.8-3.8-22.8-14.7
	c-6-10.8-2.8-19.9-0.2-27.1c2.4-6.7,4.1-11.5,0.5-17.9c-1.5-2.7-0.5-6.2,2.2-7.7c2.7-1.5,6.2-0.5,7.7,2.2c6,10.8,2.8,19.9,0.2,27.1
	c-2.4,6.7-4.1,11.5-0.5,17.9c3.5,6.4,8.5,7.5,15.4,9.1c7.5,1.7,16.8,3.8,22.8,14.7c6,10.8,2.8,19.9,0.2,27.1
	c-2.4,6.7-4.1,11.5-0.5,17.9c3.5,6.4,8.5,7.5,15.4,9.1c7.5,1.7,16.8,3.9,22.8,14.7c6,10.8,2.8,19.9,0.2,27.1
	c-2.4,6.7-4.1,11.5-0.5,17.9c3.5,6.4,8.5,7.5,15.4,9.1c7.5,1.7,16.8,3.9,22.8,14.7c6,10.8,2.8,19.9,0.2,27.1
	c-2.4,6.7-4.1,11.5-0.5,17.9c3.5,6.4,8.5,7.5,15.4,9.1c7.5,1.7,16.8,3.9,22.8,14.7c1.5,2.7,0.5,6.2-2.2,7.7
	C165.7,423.7,164.8,423.9,163.9,423.9z"/>
<path style="fill:#FFFFFF;" d="M79,405.6c-2,0-3.9-1.1-5-2.9c-5.4-9.8-3.7-17.4-2.4-23.6c1.2-5.6,2.1-9.6-1.2-15.7
	c-3.3-6-7.2-7.5-12.6-9.4c-5.9-2.1-13.3-4.8-18.7-14.6c-5.4-9.8-3.7-17.4-2.4-23.6c1.2-5.6,2.1-9.6-1.2-15.7
	c-3.3-6-7.2-7.5-12.6-9.4c-5.9-2.1-13.3-4.8-18.7-14.6c-5.4-9.8-3.7-17.4-2.4-23.6c1.2-5.6,2.1-9.6-1.2-15.7
	c-1.5-2.7-0.5-6.2,2.2-7.7c2.7-1.5,6.2-0.5,7.7,2.2c5.4,9.8,3.7,17.4,2.4,23.6c-1.2,5.6-2.1,9.6,1.2,15.7c3.3,6,7.2,7.5,12.6,9.4
	c5.9,2.1,13.3,4.8,18.7,14.6c5.4,9.8,3.7,17.4,2.4,23.6c-1.2,5.6-2.1,9.6,1.2,15.7s7.2,7.5,12.6,9.4c5.9,2.1,13.3,4.8,18.7,14.6
	c5.4,9.8,3.7,17.4,2.4,23.6c-1.2,5.6-2.1,9.6,1.2,15.7c1.5,2.7,0.5,6.2-2.2,7.7C80.8,405.4,79.9,405.6,79,405.6z"/>
<g>
	<path style="fill:#FFFFFF;" d="M39.8,123.5l154.5,280.4c3.4,6.2,11.1,8.4,17.3,5l168.4-92.8c6.2-3.4,8.4-11.1,5-17.3L230.5,18.5
		c-3.4-6.2-11.1-8.4-17.3-5L44.8,106.2C38.6,109.6,36.4,117.4,39.8,123.5z M346.3,289.3l-139.4,76.8c-4.6,2.5-10.4,0.9-13-3.7
		L74.7,146c-2.5-4.6-0.9-10.4,3.7-13l38.6-21.3c3.3-1.8,7.2-1.4,10.2,0.7c3.7,2.6,8.7,3,13,0.6l27.7-15.3c4.2-2.3,6.6-6.8,6.4-11.3
		c-0.1-3.7,1.7-7.2,4.9-9l38.6-21.3c4.6-2.5,10.4-0.9,13,3.7L350,276.4C352.6,281,350.9,286.8,346.3,289.3z"/>
	<g>
		<path style="opacity:0.35;fill:#FFFFFF;" d="M230.8,60c-1.3-2.3-3.4-3.9-5.7-4.6c-2.3-0.7-4.9-0.5-7.3,0.8l-38.6,21.3
			c-3.3,1.8-5,5.3-4.9,9c0.2,4.5-2.2,9-6.4,11.3l-27.7,15.3c-4.2,2.3-9.2,1.9-13-0.6c-3.1-2.1-7-2.5-10.2-0.7L78.4,133
			c-4.6,2.5-6.3,8.3-3.7,13l119.3,216.4c2.5,4.6,8.3,6.3,13,3.7l139.4-76.8c4.6-2.5,6.3-8.3,3.7-13L230.8,60z"/>
	</g>
</g>
</svg>
