<?xml version="1.0" encoding="utf-8"?>
<!-- Generator: Adobe Illustrator 27.5.0, SVG Export Plug-In . SVG Version: 6.00 Build 0)  -->
<svg version="1.1" xmlns="http://www.w3.org/2000/svg" xmlns:xlink="http://www.w3.org/1999/xlink" x="0px" y="0px"
	 width="370.2px" height="426.2px" viewBox="0 0 370.2 426.2" style="enable-background:new 0 0 370.2 426.2;" xml:space="preserve"
	>
<g>
	<path style="fill:#FFFFFF;" d="M194.7,206.2c-0.1-0.5-0.1-0.8-0.2-1.4l-5.8-25.1c1.2-2.6,45.5-61.8,43.2-63.5l-4.7-0.7l4.7,0.5
		c0.1-0.4,0.1-0.9,0.1-1.3l-4.7-0.3l4.7,0.1c0.2-3.6-1.1-7.2-3.4-9.9l-3.6,3.1l3.4-3.3c-1.1-1.2-2.3-2.2-3.7-3
		c-1.4-0.9-84.7-35.8-86.1-36.5L105.7,7.2c-5.7-10.9-23.2-8.7-26,3.3c-5.4,7.2,34.6,66,36.8,72.9c1.2,6.9,73.7,32.8,79.6,36.7
		c-1.4,2.8-36.8,50.3-36.3,52.6c-2.1,4.8,3.1,19.9,3.8,24.7c-1.3,0.4-99.7,26.9-100.8,27.4c-1.7,0.6-3.3,1.5-4.6,2.7l3.1,3.5
		l-3.3-3.4c-0.6,0.5-1.3,1.2-1.8,1.9l3.8,2.9l-3.9-2.7c-0.2,0.3-0.5,0.7-0.7,1l4,2.5l-4.1-2.4c-1.1,1.8-1.8,3.7-2,5.8
		c-1.2,58.4,46.6,106.6,105,106.6c7.8,0,14.2-6.4,14.2-14.2c0-7.8-6.4-14.2-14.2-14.2c-38,0-70.5-28.6-75.8-65.9l101.7-27.5
		c1.3-0.3,2.5-0.9,3.7-1.6C192.5,217,195.3,211.5,194.7,206.2L194.7,206.2z"/>
	<path style="fill:#FFFFFF;" d="M89.2,97.7c6.5-8.9-0.7-22.5-11.8-22.2c-13-0.2-16.9,20.5-35.5,25.6c-12.7,5.2-17.5-2.3-27.6-3.7
		c-13.6-0.4-19.5,18.7-8,26C34.9,142.2,71.4,124.8,89.2,97.7L89.2,97.7z"/>
	<path style="fill:#FFFFFF;" d="M243.2,236c-9.1-9.8-26.9-2.4-26.4,10.9c1.2,14.3,17.8,17.7,17.2,41.6c1.8,26.8-28.5,33.7-12.7,52.5
		C251,365.6,289,277.1,243.2,236L243.2,236z"/>
	<path style="fill:#FFFFFF;" d="M278.6,202.7c-14.3-14.2-36.1,7.5-21.9,21.9c38,36.4,38,101.8,0,138.3c-6,6-6,15.8,0,21.9
		c5.8,6,16.1,6,21.9,0C328.6,336.7,328.6,250.6,278.6,202.7L278.6,202.7z"/>
	<path style="fill:#FFFFFF;" d="M317.1,165.7c-14.3-14.2-36.1,7.4-21.9,21.9c58.3,55.9,58.3,156.3,0,212.3c-6,6-6,15.8,0,21.9
		c5.7,6,16.1,6,21.9,0C387.4,354.2,387.4,233.1,317.1,165.7L317.1,165.7z"/>
</g>
</svg>
