<?xml version="1.0" encoding="utf-8"?>
<!-- Generator: Adobe Illustrator 27.5.0, SVG Export Plug-In . SVG Version: 6.00 Build 0)  -->
<svg version="1.1" xmlns="http://www.w3.org/2000/svg" xmlns:xlink="http://www.w3.org/1999/xlink" x="0px" y="0px"
	 width="381.4px" height="122.7px" viewBox="0 0 381.4 122.7" style="enable-background:new 0 0 381.4 122.7;" xml:space="preserve"
	>
<path style="fill:#FFFFFF;" d="M381.4,84.4c-13.7,0-27.4,0-41.1,0c-1.5,0-2.6-0.4-3.8-1.2c-14.7-10.5-29.4-21.1-44.2-31.4
	c-2.7-1.4-5.8,0.3-6.1,3.3c-0.1,21.3,0,42.5,0,63.8c0,1.3,0.3,3-1.2,3.6c-0.5,0.2-1.1,0.3-1.6,0s-1-0.6-1.5-1
	C249.2,98.4,216.7,75.1,184,52c-2.4-1.7-6.1,0-6.3,3c-0.2,13.2,0,26.4-0.1,39.7c-0.1,2.8,0.4,2.9-2.4,2.8c-7,0-14.1,0-21.1,0
	c-1.9,0-1.9,0-1.9-1.9c0.1-31.2-0.2-62.4,0.1-93.6c0.2-1.6,1.6-2.3,3-1.5c32.8,23.1,65.4,46.5,98.1,69.7c1,0.7,2,1.4,3.3,1.3
	c1.9-0.1,3.4-1.2,3.9-3c0.3-0.9,0.2-65.8,0.2-66.4c0-1.4,1.5-2.4,3-1.6c38.9,27.6,77.7,55.2,116.6,82.9
	C380.7,83.4,381.3,83.6,381.4,84.4z"/>
<path style="fill:#FFFFFF;" d="M132.3,121c-0.2,1.4-1.7,2.1-2.9,1.4C121.2,115,0.5,1.1,0.1,0.7c-0.2-0.2,0-0.6,0.3-0.6
	c11.1-0.2,22.2,0,33.4-0.1C35,0,36,0.4,36.9,1.3c10.5,10,52.7,49.6,63.2,59.4c2.5,2.2,6.8,0.4,6.8-3c0.1-18.7,0-37.5,0-56.2
	c0-1.5,0.1-1.6,1.5-1.6c7.8,0,15.6-0.1,23.3,0.1c0.3,0,0.5,0.2,0.5,0.5C132.4,20.7,132.4,101,132.3,121z"/>
</svg>
