<?xml version="1.0" encoding="utf-8"?>
<!-- Generator: Adobe Illustrator 27.5.0, SVG Export Plug-In . SVG Version: 6.00 Build 0)  -->
<svg version="1.1" xmlns="http://www.w3.org/2000/svg" xmlns:xlink="http://www.w3.org/1999/xlink" x="0px" y="0px"
	 width="28.6px" height="20px" viewBox="0 0 28.6 20" style="enable-background:new 0 0 28.6 20;" xml:space="preserve">
<path style="fill:#FFFFFF;" d="M28,3.1c-0.3-1.2-1.3-2.2-2.5-2.5C23.2,0,14.3,0,14.3,0S5.4,0,3.1,0.6C1.9,0.9,0.9,1.9,0.6,3.1
	C0,5.4,0,10,0,10s0,4.6,0.6,6.9c0.3,1.2,1.3,2.2,2.5,2.5C5.4,20,14.3,20,14.3,20s8.9,0,11.2-0.6c1.2-0.3,2.2-1.3,2.5-2.5
	c0.6-2.2,0.6-6.9,0.6-6.9S28.6,5.4,28,3.1z M11.4,14.3V5.7l7.4,4.3L11.4,14.3z"/>
</svg>
