<?xml version="1.0" encoding="utf-8"?>
<!-- Generator: Adobe Illustrator 27.5.0, SVG Export Plug-In . SVG Version: 6.00 Build 0)  -->
<svg version="1.1" id="Layer_1" xmlns="http://www.w3.org/2000/svg" xmlns:xlink="http://www.w3.org/1999/xlink" x="0px" y="0px"
	 width="453.5px" height="453.5px" viewBox="0 0 453.5 453.5" style="enable-background:new 0 0 453.5 453.5;" xml:space="preserve"
	>
<style type="text/css">
	.st0{fill:#078769;}
	.st1{fill:#FFFFFF;}
</style>
<rect x="0" class="st0" width="453.5" height="453.5"/>
<g>
	<path d="M370.2,155.9h-43.6c-4.3,0-7.9-3.5-7.9-7.9v-34.3c0-4.3-3.5-7.9-7.9-7.9h-80.5c-4.7,0-8.4,3.8-8.4,8.5l0.5,41.6h-8.1
		c-3.7,0-8.3-4.3-8.3-4.3l-35.2-41.1c-2.4-3.2-5.1-4.8-9.2-4.8c-26.3,0.1-52.7,0-79,0.1c-6,0-7,0.9-7,7c0,60.3,0,113.8,0,174.2
		c0,4.6,1.6,8.2,5,11.5L187,400.6c2.2,2.2,6,3.9,9.1,3.9h36.7c4.2,0,7.9-2.8,9-6.9l2.8-10.1l9.1,13c1.7,2.5,4.6,4,7.7,4h32.4
		c5.1-0.1,9-1.8,12.6-5.5l67.7-72.2c2.7-2.6,3.8-5.4,3.8-9.2c0-8.1,0-5.1,0-13.2v-0.1V163.7C378,159.4,374.5,155.9,370.2,155.9z"/>
	<path class="st1" d="M216.7,176.9c-0.1,18.5-0.1,37,0,55.5c0,3.8-1.5,4.8-5.1,4.8c-15.7-0.2-31.3,0-47-0.3
		c-4.2-0.1-5.9,0.9-5.8,5.5c0.3,10.2,0,10.2,10.4,10.2c14,0,28,0.1,42-0.1c4.1-0.1,5.5,1.3,5.4,5.5c-0.2,18-0.2,36,0,54
		c0.1,4.6-1.7,5.7-5.9,5.6c-26.7-0.1-53.3,0.1-80-0.2c-2.9,0-6.4-1.7-8.6-3.7c-8.2-7.5-15.9-15.7-24.1-23.3
		c-3.8-3.6-5.4-7.3-5.4-12.6c0.4-25.4,0.3-51,0.3-76.7c0-26.3,0.1-45.9-0.1-72.2c0-4.6,1.1-6.5,6.1-6.4c18.1,0.3,36.3,0.2,54.5,0
		c4.3,0,5.7,1.3,5.7,5.7c-0.3,15.2,0,23.5-0.2,38.7c-0.1,4.1,1.1,5.5,5.4,5.4c15.8-0.2,31.7,0,47.5-0.2
		C215.5,172.1,216.8,173.2,216.7,176.9z"/>
	<path class="st1" d="M361.6,176.9c-0.1,18.5-0.1,37,0,55.5c0,3.8-1.5,4.8-5.1,4.8c-15.7-0.2-31.3,0-47-0.3
		c-4.2-0.1-5.9,0.9-5.8,5.5c0.3,10.2,0,10.2,10.4,10.2c14,0,28,0.1,42-0.1c4.1-0.1,5.5,1.3,5.4,5.5c-0.2,18-0.2,36,0,54
		c0.1,4.6-1.7,5.7-5.9,5.6c-26.7-0.1-53.3,0.1-80-0.2c-2.9,0-6.4-1.7-8.6-3.7c-8.2-7.5-15.9-15.7-24.1-23.3
		c-3.8-3.6-5.4-7.3-5.4-12.6c0.4-25.4,0.3-51,0.3-76.7c0-26.3,0.1-45.9-0.1-72.2c0-4.6,1.1-6.5,6.1-6.4c18.1,0.3,36.3,0.2,54.5,0
		c4.3,0,5.7,1.3,5.7,5.7c-0.3,15.2,0,23.5-0.2,38.7c-0.1,4.1,1.1,5.5,5.4,5.4c15.8-0.2,31.7,0,47.5-0.2
		C360.4,172.1,361.7,173.2,361.6,176.9z"/>
</g>
</svg>
