<?xml version="1.0" encoding="utf-8"?>
<!-- Generator: Adobe Illustrator 26.0.2, SVG Export Plug-In . SVG Version: 6.00 Build 0)  -->
<svg version="1.1" id="Layer_1" xmlns="http://www.w3.org/2000/svg" xmlns:xlink="http://www.w3.org/1999/xlink" x="0px" y="0px"
	 viewBox="0 0 1200 1200" style="enable-background:new 0 0 1200 1200;" xml:space="preserve">
<style type="text/css">
	.st0{fill:#9147FF;}
	.st1{fill:#FFFFFF;}
</style>
<rect x="-0.2" y="0.2" class="st0" width="1200" height="1200"/>
<g>
	<path d="M1107.4,523.5h-20.8c-3.6,0-6.5-2.9-6.5-6.5v-25.1c0-3.6-2.9-6.5-6.5-6.5h-68c-2.6,0-5.1,1-6.9,2.9
		c-7.7,7.6-28.1,27.8-29.4,27.8H852.9c-3.6,0-6.5,2.9-6.5,6.5v16.8c-5.8-5.7-11.7-11.4-17.6-17.1c-1.5-1.4-4-2.4-6.1-2.4
		c-8.5-0.3-17.1-0.3-25.6,0c-3.7,0.1-4.7-1.3-4.6-4.8c0.2-12.1,0.1-24.2,0.1-36.3c0-5.5-0.4-5.9-5.8-5.9c-21.2,0-42.4,0.1-63.6-0.1
		c-4.3,0-7.2,1.4-9.6,4.9c-9.2,12.8-18.6,25.6-28.1,38.2c-1.3,1.7-3.6,3.7-5.5,3.7c-14.6,0.2-29.2,0.2-43.7-0.2
		c-8.6-0.3-16.4,0.6-22.2,8c-3.1,3.9-6.7,7.4-10.1,11.1c-0.6-0.2-0.6-0.2-1.2-0.5c0-4.4-0.3-8.9,0.1-13.3c0.3-4.1-1.3-5.1-5.2-5
		c-12.5,0.2-25,0-37.6,0.1c-3.4,0-4.6-1-4.6-4.5c0.2-12.4,0.1-24.8,0.1-37.2c0-4.9-0.5-5.4-5.5-5.4c-46.5,0-93,0-139.5,0
		c-5.1,0-5.7,0.6-5.7,5.7c0,12.1,0,24.2,0.2,36.3c0.1,3.6-0.9,5.1-4.9,5c-66.5-0.1-132.9-0.1-199.4,0c-3.1,0-5.1-1-6.9-3.5
		c-9.6-13.2-19.4-26.4-29-39.6c-2-2.7-4.2-4-7.6-4c-21.7,0.1-43.5,0-65.2,0.1c-4.9,0-5.8,0.8-5.8,5.8c0,49.8,0,99.6,0,149.4
		c0,3.8,1.3,6.8,4.1,9.5c10.2,9.8,20.3,19.8,30.4,29.7c19.1,18.8,38.2,37.6,57.5,56.3c1.9,1.8,5,3.2,7.5,3.2
		c28.9,0.2,57.8,0.1,86.7,0.2c4.1,0,5.2-1.4,5-5.3c-0.3-5.7-0.1-11.4-0.1-17.9c1.5,1.2,2.4,1.7,3.2,2.4c6.3,5.7,12.8,11.3,19,17.2
		c2.7,2.6,5.5,3.6,9.2,3.6c57.5-0.1,115-0.1,172.6-0.1c6.6,0,6.6,0,6.6-6.6c0-5.8,0-11.6,0-18.7c8.2,8.1,15.4,15.3,22.8,22.3
		c1.6,1.5,4.2,2.9,6.4,2.9c27.2,0.2,54.5,0.1,81.7,0.2c3.1,0,4.1-1,4-4.1c-0.2-7,0-13.9-0.1-20.9c0.8-0.3,0.8-0.3,1.6-0.7
		c6.7,7.1,13.5,14.1,20,21.3c2.8,3.1,5.8,4.3,10.1,4.3c47.7-0.1,95.3-0.1,143,0c-0.2,0.3-0.2,0.4,0,0.4h231.7c2,0,3.6-1.6,3.6-3.6
		l-0.2-21.8c0-1.3,1.7-1.9,2.4-0.8l14.8,24.4c1.2,1.1,2.7,1.7,4.4,1.7l12.5,0.2l0.4-0.4c4.2-0.1,7.4-1.5,10.4-4.5
		c17.7-17.5,35.5-35,53.3-52.4c2.2-2.2,3.2-4.5,3.2-7.6c0-6.7,0-13.4,0-20.1l0,0V530C1113.8,526.4,1110.9,523.5,1107.4,523.5z"/>
	<g>
		<path d="M324,653.4c25.7,0,51.5-0.1,77.2,0.1c3.5,0,4.7-0.9,4.7-4.6c-0.1-37.1-0.1-74.3,0-111.4c0-3.2-0.8-4.3-4.1-4.2
			c-15.4,0.2-30.8,0.2-46.2,0c-3.4,0-4.4,0.9-4.4,4.4c0.2,17.9,0.1,35.8,0.1,53.7c0,8.4,0,8.2-8.4,8.6c-3.8,0.2-5-0.9-4.9-4.7
			c0.2-19,0.1-38,0.3-57c0-3.7-0.8-5-4.8-5c-15.1,0.2-30.3,0.2-45.4,0c-3.7-0.1-4.6,1.1-4.6,4.7c0.2,17.7,0.1,35.5,0.1,53.2
			c0,8.6,0,8.4-8.7,8.7c-3.7,0.2-4.7-1-4.6-4.6c0.2-19.3,0-38.5,0.1-57.8c0-3.3-1-4.3-4.3-4.2c-15.4,0.2-30.8,0.2-46.2,0
			c-3.4,0-4.1,1-4.1,4.2c0.1,28.5,0,57,0.2,85.4c0,2.3,1.3,5.1,2.9,6.7c6.5,6.8,13.4,13,19.9,19.8c2.9,3.1,6.1,4.1,10.2,4.1
			C273.9,653.4,298.9,653.4,324,653.4z"/>
		<path d="M791.5,586.9c0.1,2.2,0.4,3.9,0.4,5.7c0,18.8,0.1,37.7,0,56.5c0,3.2,0.9,4.4,4.2,4.4c15.4-0.1,30.8-0.1,46.2,0
			c3.2,0,4.3-1,4.3-4.3c-0.1-28.5,0-57-0.2-85.4c0-2.2-1.2-4.8-2.7-6.4c-7.2-7.4-14.6-14.6-22.1-21.6c-1.4-1.3-3.8-2.2-5.8-2.3
			c-11-0.2-22-0.2-33,0c-3.3,0.1-4.4-1-4.3-4.2c0.2-12.5,0.1-25,0.4-37.5c0.1-3.7-1-5.1-4.9-5c-14.8,0.2-29.7,0.1-44.5,0.1
			c-5.3,0-5.4,0.1-5.4,5.2c0,52.1,0,104.3-0.1,156.4c0,4,1.2,5.3,5.2,5.2c12.9-0.2,25.8,0.1,38.8-0.1c12-0.2,11,2.9,10.8-11.6
			c-0.2-17.2-0.2-34.4-0.1-51.6c0-1.1,1.3-3,2.1-3.1C784.1,586.7,787.6,586.9,791.5,586.9z"/>
		<path d="M100.4,557.1c0,21.2,0.1,42.4-0.1,63.6c0,4.4,1.3,7.5,4.4,10.4c6.8,6.3,13.1,13,19.9,19.2c1.8,1.7,4.7,3,7.1,3
			c22,0.2,44,0.1,66,0.2c3.4,0,4.9-0.9,4.8-4.7c-0.2-14.9-0.2-29.7,0-44.6c0-3.5-1.1-4.6-4.5-4.5c-11.6,0.1-23.1,0.1-34.7,0.1
			c-8.6,0-8.4,0-8.6-8.5c-0.1-3.8,1.3-4.6,4.8-4.6c12.9,0.2,25.9,0.1,38.8,0.3c3,0,4.2-0.8,4.2-4c-0.1-15.3-0.1-30.5,0-45.8
			c0-3.1-1-4-4.1-4c-13.1,0.1-26.1-0.1-39.2,0.1c-3.5,0-4.5-1.1-4.4-4.5c0.2-12.5-0.1-25,0.1-37.6c0.1-3.6-1.1-4.8-4.7-4.7
			c-15,0.1-30,0.2-45,0c-4.1-0.1-5,1.4-5,5.3C100.5,513.6,100.4,535.3,100.4,557.1z"/>
		<path d="M550.9,653.4c11,0,22-0.1,33,0.1c3.8,0.1,5-1.1,4.9-4.9c-0.2-14.3-0.1-28.6,0-42.9c0-5.9,0.2-5.9-5.8-5.9c-11,0-22,0-33,0
			c-8.5,0-8.2,0-8.7-8.3c-0.2-4.2,1.4-4.8,4.9-4.7c12.9,0.2,25.9,0.1,38.8,0.2c2.4,0,3.9-0.4,3.9-3.3c-0.1-15.4-0.2-30.8-0.1-46.2
			c0-3.2-0.9-4.3-4.2-4.2c-12.9,0.2-25.9-0.1-38.8,0.2c-3.7,0.1-4.7-1.2-4.6-4.7c0.2-12.5,0.1-25,0.3-37.6c0.1-3.5-1.1-4.5-4.5-4.5
			c-15.3,0.1-30.5,0.1-45.8,0c-3.4,0-4.5,1.2-4.5,4.6c0.2,12.4,0.2,24.8,0.2,37.2c0,31.2-0.1,62.5-0.2,93.7c0,3.1,0.7,5.5,3,7.7
			c6.9,6.5,13.7,13.1,20.3,19.9c2.6,2.7,5.3,3.9,9.1,3.8C529.7,653.3,540.3,653.4,550.9,653.4z"/>
		<path d="M656.7,599.8c0-3.5,0.3-6.1-0.1-8.7c-0.5-3.7,1.1-4.4,4.4-4.3c15.1,0.2,30.3,0.1,45.4,0.3c3.2,0,4.3-0.9,4.3-4.2
			c-0.2-15.3-0.1-30.5-0.1-45.8c0-1.2-0.2-2.3-0.3-3.3c-0.7-0.2-1-0.3-1.2-0.3c-25.9,0-51.7-0.1-77.6,0c-1.5,0-3.4,1.1-4.5,2.2
			c-4.8,4.5-9,9.8-14.3,13.7c-8.8,6.6-11.5,14.5-10.8,25.5c1.1,15.7,0,31.6,0.1,47.4c0,2.2,0.8,5.1,2.3,6.6
			c7,7.4,14.3,14.5,21.8,21.4c1.8,1.7,4.7,3,7.2,3c24.3,0.2,48.7,0.1,73,0.2c3.4,0,4.5-1,4.5-4.5c-0.2-14.9-0.2-29.7,0-44.6
			c0.1-4.1-1.4-4.8-5-4.7c-14.6,0.1-29.2,0.1-43.8,0.1C660.4,599.8,658.8,599.8,656.7,599.8z"/>
		<path d="M473.5,593.6c0-18.7-0.1-37.4,0.1-56.1c0-3.2-0.8-4.3-4.2-4.3c-15.4,0.2-30.8,0.2-46.2,0c-3.6,0-4.3,1.3-4.3,4.6
			c0.1,37,0.1,74,0,110.9c0,3.6,1,4.8,4.6,4.8c15.1-0.2,30.2-0.1,45.3,0c3.5,0,4.8-0.9,4.7-4.6C473.4,630.4,473.5,612,473.5,593.6z"
			/>
		<path d="M473.5,520c0-9.8-0.2-19.2,0.1-28.5c0.1-3.9-1.1-4.9-4.9-4.9c-13.7,0.2-27.5,0.1-41.2,0.1c-8.5,0-8.5,0-8.5,8.5
			c0,8.2,0,16.4,0,24.9C437.4,520,455.2,520,473.5,520z"/>
		<path class="st1" d="M324,653.4c-25,0-50.1-0.1-75.1,0.1c-4.1,0-7.3-1.1-10.2-4.1c-6.5-6.7-13.4-13-19.9-19.8
			c-1.6-1.7-2.9-4.5-2.9-6.7c-0.2-28.5-0.1-57-0.2-85.4c0-3.2,0.8-4.3,4.1-4.2c15.4,0.2,30.8,0.2,46.2,0c3.3,0,4.3,1,4.3,4.2
			c-0.1,19.3,0,38.5-0.1,57.8c0,3.6,0.9,4.8,4.6,4.6c8.6-0.4,8.7-0.2,8.7-8.7c0-17.7,0.1-35.5-0.1-53.2c0-3.5,0.9-4.7,4.6-4.7
			c15.1,0.2,30.3,0.2,45.4,0c4-0.1,4.8,1.3,4.8,5c-0.2,19-0.1,38-0.3,57c0,3.8,1.1,4.9,4.9,4.7c8.3-0.4,8.4-0.2,8.4-8.6
			c0-17.9,0.1-35.8-0.1-53.7c0-3.5,1-4.4,4.4-4.4c15.4,0.2,30.8,0.2,46.2,0c3.3,0,4.2,1,4.1,4.2c-0.1,37.1-0.1,74.3,0,111.4
			c0,3.7-1.3,4.6-4.7,4.6C375.4,653.4,349.7,653.4,324,653.4z"/>
		<path class="st1" d="M791.5,586.9c-3.9,0-7.4-0.2-10.9,0.1c-0.8,0.1-2.1,2-2.1,3.1c-0.1,17.2-0.2,34.4,0.1,51.6
			c0.2,14.6,1.2,11.5-10.8,11.6c-12.9,0.2-25.8-0.1-38.8,0.1c-4,0.1-5.2-1.2-5.2-5.2c0.1-52.1,0.1-104.3,0.1-156.4
			c0-5.1,0.1-5.2,5.4-5.2c14.8,0,29.7,0.1,44.5-0.1c3.9,0,5,1.4,4.9,5c-0.2,12.5-0.2,25-0.4,37.5c-0.1,3.3,1.1,4.3,4.3,4.2
			c11-0.2,22-0.2,33,0c2,0,4.3,1,5.8,2.3c7.5,7,14.9,14.2,22.1,21.6c1.5,1.6,2.7,4.2,2.7,6.4c0.2,28.5,0.1,57,0.2,85.4
			c0,3.3-1.1,4.3-4.3,4.3c-15.4-0.1-30.8-0.1-46.2,0c-3.3,0-4.2-1.2-4.2-4.4c0.1-18.8,0.1-37.7,0-56.5
			C791.8,590.8,791.6,589.1,791.5,586.9z"/>
		<path class="st1" d="M100.4,557.1c0-21.7,0.1-43.5-0.1-65.2c0-3.8,0.9-5.3,5-5.3c15,0.2,30,0.2,45,0c3.6,0,4.7,1.1,4.7,4.7
			c-0.2,12.5,0,25-0.1,37.6c0,3.4,0.9,4.5,4.4,4.5c13.1-0.2,26.1,0,39.2-0.1c3.1,0,4.1,0.9,4.1,4c-0.1,15.3-0.1,30.5,0,45.8
			c0,3.2-1.2,4-4.2,4c-12.9-0.2-25.9,0-38.8-0.3c-3.5-0.1-4.9,0.8-4.8,4.6c0.2,8.5,0,8.5,8.6,8.5c11.6,0,23.1,0.1,34.7-0.1
			c3.4,0,4.5,1.1,4.5,4.5c-0.2,14.9-0.2,29.7,0,44.6c0,3.8-1.4,4.7-4.8,4.7c-22-0.1-44,0-66-0.2c-2.4,0-5.3-1.4-7.1-3
			c-6.8-6.2-13.1-12.9-19.9-19.2c-3.2-2.9-4.5-6-4.4-10.4C100.6,599.4,100.4,578.2,100.4,557.1z"/>
		<path class="st1" d="M550.9,653.4c-10.6,0-21.2-0.1-31.8,0.1c-3.7,0.1-6.5-1.1-9.1-3.8c-6.6-6.8-13.5-13.4-20.3-19.9
			c-2.3-2.2-3-4.6-3-7.7c0.1-31.2,0.2-62.5,0.2-93.7c0-12.4,0-24.8-0.2-37.2c-0.1-3.4,1-4.6,4.5-4.6c15.3,0.1,30.5,0.1,45.8,0
			c3.4,0,4.6,1,4.5,4.5c-0.2,12.5,0,25-0.3,37.6c-0.1,3.5,0.8,4.8,4.6,4.7c12.9-0.2,25.9,0,38.8-0.2c3.3,0,4.2,1,4.2,4.2
			c-0.1,15.4,0,30.8,0.1,46.2c0,2.9-1.5,3.4-3.9,3.3c-12.9-0.1-25.9,0-38.8-0.2c-3.5-0.1-5.2,0.5-4.9,4.7c0.5,8.3,0.2,8.3,8.7,8.3
			c11,0,22,0,33,0c6,0,5.8,0,5.8,5.9c-0.1,14.3-0.2,28.6,0,42.9c0.1,3.8-1.1,5-4.9,4.9C572.9,653.3,561.9,653.4,550.9,653.4z"/>
		<path class="st1" d="M656.7,599.8c2.1,0,3.7,0,5.3,0c14.6,0,29.2,0.1,43.8-0.1c3.6,0,5.1,0.7,5,4.7c-0.3,14.9-0.2,29.7,0,44.6
			c0,3.5-1.1,4.5-4.5,4.5c-24.3-0.1-48.7,0-73-0.2c-2.4,0-5.4-1.4-7.2-3c-7.5-6.9-14.7-14-21.8-21.4c-1.5-1.5-2.2-4.4-2.3-6.6
			c-0.1-15.8,1-31.7-0.1-47.4c-0.8-11,2-18.9,10.8-25.5c5.2-3.9,9.4-9.2,14.3-13.7c1.2-1.1,3-2.2,4.5-2.2c25.9-0.1,51.7-0.1,77.6,0
			c0.3,0,0.5,0.1,1.2,0.3c0.1,1,0.3,2.2,0.3,3.3c0,15.3-0.1,30.5,0.1,45.8c0,3.3-1,4.2-4.3,4.2c-15.1-0.2-30.3-0.1-45.4-0.3
			c-3.3,0-4.9,0.7-4.4,4.3C657,593.7,656.7,596.3,656.7,599.8z"/>
		<path class="st1" d="M473.5,593.6c0,18.4-0.1,36.8,0.1,55.3c0,3.7-1.2,4.7-4.7,4.6c-15.1-0.1-30.2-0.2-45.3,0
			c-3.7,0-4.6-1.2-4.6-4.8c0.1-37,0.1-74,0-110.9c0-3.2,0.6-4.6,4.3-4.6c15.4,0.2,30.8,0.2,46.2,0c3.4,0,4.2,1.1,4.2,4.3
			C473.5,556.2,473.5,574.9,473.5,593.6z"/>
		<path class="st1" d="M473.5,520c-18.4,0-36.2,0-54.5,0c0-8.4,0-16.6,0-24.9c0-8.5,0-8.5,8.5-8.5c13.7,0,27.5,0.1,41.2-0.1
			c3.7,0,5,1,4.9,4.9C473.3,500.8,473.5,510.1,473.5,520z"/>
		<g>
			<path class="st1" d="M941.4,651.8v-20.3c0-2.9-2.3-5.2-5.2-5.2h-13.6c-2.9,0-5.2,2.3-5.2,5.2v20.3c0,2.9-2.3,5.2-5.2,5.2h-46.6
				c-2.9,0-5.2-2.3-5.2-5.2V535.3c0-2.9,2.3-5.2,5.2-5.2h98.7c1.3,0,2.5,0.5,3.5,1.3l28.9,26.3c1.1,1,1.7,2.4,1.7,3.8v90.3
				c0,2.9-2.3,5.2-5.2,5.2h-46.6C943.7,657,941.4,654.7,941.4,651.8z M941.4,590.2v-11.8h-23.9v11.8H941.4z"/>
		</g>
		<path class="st1" d="M1039.6,655.6l-28.8-26.2c-1.1-1-1.7-2.4-1.7-3.8V504.7c0-2.9,2.3-5.2,5.2-5.2h46.6c2.9,0,5.2,2.3,5.2,5.2
			v30.2c0,2.9,2.3,5.2,5.2,5.2h23.4c2.9,0,5.2,2.3,5.2,5.2v40.5c0,2.9-2.3,5.2-5.2,5.2h-25.9c-1.5,0-2.7,1.2-2.7,2.7v5
			c0,1.5,1.2,5.1,2.7,5.1h25.9c2.9,0,5.2,2.3,5.2,5.2v42.9c0,2.9-2.3,5.2-5.2,5.2h-51.5C1041.8,657,1040.6,656.5,1039.6,655.6z"/>
	</g>
</g>
</svg>
