<?xml version="1.0" encoding="UTF-8"?>
<svg id="Layer_1" xmlns="http://www.w3.org/2000/svg" version="1.1" viewBox="0 0 1200 1200">
  <!-- Generator: Adobe Illustrator 30.3.0, SVG Export Plug-In . SVG Version: 2.1.3 Build 182)  -->
  <rect x="-.2" y=".2" width="1200" height="1200" style="fill: #078769;"/>
  <g>
    <path d="M1117.4,519.7999h-34.8c-3.6,0-6.5-2.9-6.5-6.5v-33.876c0-3.6-2.9-6.5-6.5-6.5h-64c-2.6,0-5.1,1-6.9,2.9-7.7,7.6-28.1,40.2761-29.4,40.2761h-116.3999c-3.6,0-6.5,2.9-6.5,6.5v16.8c-5.8-5.7-11.7-11.4-17.6-17.1-1.5-1.4-4-2.4-6.1-2.4-8.5-.3-17.1-.3-25.6,0-3.7.1-4.7-1.3-4.6-4.8.2-12.1.1-24.2.1-36.3,0-5.5-.4-5.9-5.8-5.9-21.2,0-42.4.1-63.6-.1-4.3,0-7.2,1.4-9.6,4.9-9.2,12.8-18.6,25.6-28.1,38.2-1.3,1.7-3.6,3.7-5.5,3.7-14.6.2-29.2.2-43.7-.2-8.6-.3-16.4.6-22.2,8-3.1,3.9-6.7,7.4-10.1,11.1q-.6-.2-1.2-.5c0-4.4-.3-8.9.1-13.3.3-4.1-1.3-5.1-5.2-5-12.5.2-25,0-37.6.1-3.4,0-4.6-1-4.6-4.5.2-12.4.1-24.8.1-37.2,0-4.9-.5-5.4-5.5-5.4h-139.5c-5.1,0-5.7.6-5.7,5.7,0,12.1,0,24.2.2,36.3.1,3.6-.9,5.1-4.9,5-66.5-.1-132.9-.1-199.4,0-3.1,0-5.1-1-6.9-3.5-9.6-13.2-19.4-26.4-29-39.6-2-2.7-4.2-4-7.6-4-21.7.1-43.5,0-65.2.1-4.9,0-5.8.8-5.8,5.8v149.4c0,3.8,1.3,6.8,4.1,9.5,10.2,9.8,20.3,19.8,30.4,29.7,19.1,18.8,38.2,37.6,57.5,56.3,1.9,1.8,5,3.2,7.5,3.2,28.9.2,57.8.1,86.7.2,4.1,0,5.2-1.4,5-5.3-.3-5.7-.1-11.4-.1-17.9,1.5,1.2,2.4,1.7,3.2,2.4,6.3,5.7,12.8,11.3,19,17.2,2.7,2.6,5.5,3.6,9.2,3.6,57.5-.1,115-.1,172.6-.1q6.6,0,6.6-6.6v-18.7c8.2,8.1,15.4,15.3,22.8,22.3,1.6,1.5,4.2,2.9,6.4,2.9,27.2.2,54.5.1,81.7.2,3.1,0,4.1-1,4-4.1-.2-7,0-13.9-.1-20.9q.8-.3,1.6-.7c6.7,7.1,13.5,14.1,20,21.3,2.8,3.1,5.8,4.3,10.1,4.3,47.7-.1,95.3-.1,143,0-.2.3-.2.4,0,.4h191.7c2,0,3.6-1.6,3.6-3.6l-.2-21.8c0-1.3,1.7-1.9,2.4-.8l14.8,24.4c1.2,1.1,2.7,1.7,4.4,1.7l62.5.2.4-.4c4.2-.1,7.4-1.5,10.4-4.5,17.7-17.5,35.5-35,53.3-52.4,2.2-2.2,3.2-4.5,3.2-7.6v-20.1h0v-115.9001c-.2002-3.6-3.1002-6.5-6.6002-6.5Z"/>
    <g>
      <path d="M324,653.4c25.7,0,51.5-.1,77.2.1,3.5,0,4.7-.9,4.7-4.6-.1-37.1-.1-74.3,0-111.4,0-3.2-.8-4.3-4.1-4.2-15.4.2-30.8.2-46.2,0-3.4,0-4.4.9-4.4,4.4.2,17.9.1,35.8.1,53.7,0,8.4,0,8.2-8.4,8.6-3.8.2-5-.9-4.9-4.7.2-19,.1-38,.3-57,0-3.7-.8-5-4.8-5-15.1.2-30.3.2-45.4,0-3.7-.1-4.6,1.1-4.6,4.7.2,17.7.1,35.5.1,53.2,0,8.6,0,8.4-8.7,8.7-3.7.2-4.7-1-4.6-4.6.2-19.3,0-38.5.1-57.8,0-3.3-1-4.3-4.3-4.2-15.4.2-30.8.2-46.2,0-3.4,0-4.1,1-4.1,4.2.1,28.5,0,57,.2,85.4,0,2.3,1.3,5.1,2.9,6.7,6.5,6.8,13.4,13,19.9,19.8,2.9,3.1,6.1,4.1,10.2,4.1,24.9-.1,49.9-.1,75-.1Z"/>
      <path d="M791.5,586.9c.1,2.2.4,3.9.4,5.7,0,18.8.1,37.7,0,56.5,0,3.2.9,4.4,4.2,4.4,15.4-.1,30.8-.1,46.2,0,3.2,0,4.3-1,4.3-4.3-.1-28.5,0-57-.2-85.4,0-2.2-1.2-4.8-2.7-6.4-7.2-7.4-14.6-14.6-22.1-21.6-1.4-1.3-3.8-2.2-5.8-2.3-11-.2-22-.2-33,0-3.3.1-4.4-1-4.3-4.2.2-12.5.1-25,.4-37.5.1-3.7-1-5.1-4.9-5-14.8.2-29.7.1-44.5.1-5.3,0-5.4.1-5.4,5.2,0,52.1,0,104.3-.1,156.4,0,4,1.2,5.3,5.2,5.2,12.9-.2,25.8.1,38.8-.1,12-.2,11,2.9,10.8-11.6-.2-17.2-.2-34.4-.1-51.6,0-1.1,1.3-3,2.1-3.1,3.2999-.6002,6.7999-.4001,10.7-.4001Z"/>
      <path d="M100.4,557.1c0,21.2.1,42.4-.1,63.6,0,4.4,1.3,7.5,4.4,10.4,6.8,6.3,13.1,13,19.9,19.2,1.8,1.7,4.7,3,7.1,3,22,.2,44,.1,66,.2,3.4,0,4.9-.9,4.8-4.7-.2-14.9-.2-29.7,0-44.6,0-3.5-1.1-4.6-4.5-4.5-11.6.1-23.1.1-34.7.1-8.6,0-8.4,0-8.6-8.5-.1-3.8,1.3-4.6,4.8-4.6,12.9.2,25.9.1,38.8.3,3,0,4.2-.8,4.2-4-.1-15.3-.1-30.5,0-45.8,0-3.1-1-4-4.1-4-13.1.1-26.1-.1-39.2.1-3.5,0-4.5-1.1-4.4-4.5.2-12.5-.1-25,.1-37.6.1-3.6-1.1-4.8-4.7-4.7-15,.1-30,.2-45,0-4.1-.1-5,1.4-5,5.3.3,21.8.2,43.5.2,65.3Z"/>
      <path d="M550.9,653.4c11,0,22-.1,33,.1,3.8.1,5-1.1,4.9-4.9-.2-14.3-.1-28.6,0-42.9,0-5.9.2-5.9-5.8-5.9h-33c-8.5,0-8.2,0-8.7-8.3-.2-4.2,1.4-4.8,4.9-4.7,12.9.2,25.9.1,38.8.2,2.4,0,3.9-.4,3.9-3.3-.1-15.4-.2-30.8-.1-46.2,0-3.2-.9-4.3-4.2-4.2-12.9.2-25.9-.1-38.8.2-3.7.1-4.7-1.2-4.6-4.7.2-12.5.1-25,.3-37.6.1-3.5-1.1-4.5-4.5-4.5-15.3.1-30.5.1-45.8,0-3.4,0-4.5,1.2-4.5,4.6.2,12.4.2,24.8.2,37.2,0,31.2-.1,62.5-.2,93.7,0,3.1.7,5.5,3,7.7,6.9,6.5,13.7,13.1,20.3,19.9,2.6,2.7,5.3,3.9,9.1,3.8,10.5999-.3,21.1999-.2,31.7999-.2Z"/>
      <path d="M656.7,599.8c0-3.5.3-6.1-.1-8.7-.5-3.7,1.1-4.4,4.4-4.3,15.1.2,30.3.1,45.4.3,3.2,0,4.3-.9,4.3-4.2-.2-15.3-.1-30.5-.1-45.8,0-1.2-.2-2.3-.3-3.3-.7-.2-1-.3-1.2-.3-25.9,0-51.7-.1-77.6,0-1.5,0-3.4,1.1-4.5,2.2-4.8,4.5-9,9.8-14.3,13.7-8.8,6.6-11.5,14.5-10.8,25.5,1.1,15.7,0,31.6.1,47.4,0,2.2.8,5.1,2.3,6.6,7,7.4,14.3,14.5,21.8,21.4,1.8,1.7,4.7,3,7.2,3,24.3.2,48.7.1,73,.2,3.4,0,4.5-1,4.5-4.5-.2-14.9-.2-29.7,0-44.6.1-4.1-1.4-4.8-5-4.7-14.6.1-29.2.1-43.8.1-1.6001,0-3.2001,0-5.3001,0Z"/>
      <path d="M473.5,593.6c0-18.7-.1-37.4.1-56.1,0-3.2-.8-4.3-4.2-4.3-15.4.2-30.8.2-46.2,0-3.6,0-4.3,1.3-4.3,4.6.1,37,.1,74,0,110.9,0,3.6,1,4.8,4.6,4.8,15.1-.2,30.2-.1,45.3,0,3.5,0,4.8-.9,4.7-4.6-.1-18.5,0-36.9,0-55.3Z"/>
      <path d="M473.5,520c0-9.8-.2-19.2.1-28.5.1-3.9-1.1-4.9-4.9-4.9-13.7.2-27.5.1-41.2.1q-8.5,0-8.5,8.5v24.9c18.4-.1,36.2-.1,54.5-.1Z"/>
      <path d="M324,653.4c-25,0-50.1-.1-75.1.1-4.1,0-7.3-1.1-10.2-4.1-6.5-6.7-13.4-13-19.9-19.8-1.6-1.7-2.9-4.5-2.9-6.7-.2-28.5-.1-57-.2-85.4,0-3.2.8-4.3,4.1-4.2,15.4.2,30.8.2,46.2,0,3.3,0,4.3,1,4.3,4.2-.1,19.3,0,38.5-.1,57.8,0,3.6.9,4.8,4.6,4.6,8.6-.4,8.7-.2,8.7-8.7,0-17.7.1-35.5-.1-53.2,0-3.5.9-4.7,4.6-4.7,15.1.2,30.3.2,45.4,0,4-.1,4.8,1.3,4.8,5-.2,19-.1,38-.3,57,0,3.8,1.1,4.9,4.9,4.7,8.3-.4,8.4-.2,8.4-8.6,0-17.9.1-35.8-.1-53.7,0-3.5,1-4.4,4.4-4.4,15.4.2,30.8.2,46.2,0,3.3,0,4.2,1,4.1,4.2-.1,37.1-.1,74.3,0,111.4,0,3.7-1.3,4.6-4.7,4.6-25.7-.0999-51.4-.0999-77.1-.0999Z" style="fill: #fff;"/>
      <path d="M791.5,586.9c-3.9,0-7.4-.2-10.9.1-.8.1-2.1,2-2.1,3.1-.1,17.2-.2,34.4.1,51.6.2,14.6,1.2,11.5-10.8,11.6-12.9.2-25.8-.1-38.8.1-4,.1-5.2-1.2-5.2-5.2.1-52.1.1-104.3.1-156.4,0-5.1.1-5.2,5.4-5.2,14.8,0,29.7.1,44.5-.1,3.9,0,5,1.4,4.9,5-.2,12.5-.2,25-.4,37.5-.1,3.3,1.1,4.3,4.3,4.2,11-.2,22-.2,33,0,2,0,4.3,1,5.8,2.3,7.5,7,14.9,14.2,22.1,21.6,1.5,1.6,2.7,4.2,2.7,6.4.2,28.5.1,57,.2,85.4,0,3.3-1.1,4.3-4.3,4.3-15.4-.1-30.8-.1-46.2,0-3.3,0-4.2-1.2-4.2-4.4.1-18.8.1-37.7,0-56.5.1-1.4999-.1-3.1999-.2-5.3998Z" style="fill: #fff;"/>
      <path d="M100.4,557.1c0-21.7.1-43.5-.1-65.2,0-3.8.9-5.3,5-5.3,15,.2,30,.2,45,0,3.6,0,4.7,1.1,4.7,4.7-.2,12.5,0,25-.1,37.6,0,3.4.9,4.5,4.4,4.5,13.1-.2,26.1,0,39.2-.1,3.1,0,4.1.9,4.1,4-.1,15.3-.1,30.5,0,45.8,0,3.2-1.2,4-4.2,4-12.9-.2-25.9,0-38.8-.3-3.5-.1-4.9.8-4.8,4.6.2,8.5,0,8.5,8.6,8.5,11.6,0,23.1.1,34.7-.1,3.4,0,4.5,1.1,4.5,4.5-.2,14.9-.2,29.7,0,44.6,0,3.8-1.4,4.7-4.8,4.7-22-.1-44,0-66-.2-2.4,0-5.3-1.4-7.1-3-6.8-6.2-13.1-12.9-19.9-19.2-3.2-2.9-4.5-6-4.4-10.4.2-21.3999,0-42.5999,0-63.7Z" style="fill: #fff;"/>
      <path d="M550.9,653.4c-10.6,0-21.2-.1-31.8.1-3.7.1-6.5-1.1-9.1-3.8-6.6-6.8-13.5-13.4-20.3-19.9-2.3-2.2-3-4.6-3-7.7.1-31.2.2-62.5.2-93.7,0-12.4,0-24.8-.2-37.2-.1-3.4,1-4.6,4.5-4.6,15.3.1,30.5.1,45.8,0,3.4,0,4.6,1,4.5,4.5-.2,12.5,0,25-.3,37.6-.1,3.5.8,4.8,4.6,4.7,12.9-.2,25.9,0,38.8-.2,3.3,0,4.2,1,4.2,4.2-.1,15.4,0,30.8.1,46.2,0,2.9-1.5,3.4-3.9,3.3-12.9-.1-25.9,0-38.8-.2-3.5-.1-5.2.5-4.9,4.7.5,8.3.2,8.3,8.7,8.3h33c6,0,5.8,0,5.8,5.9-.1,14.3-.2,28.6,0,42.9.1,3.8-1.1,5-4.9,4.9-10.9999-.1-21.9999,0-32.9999,0Z" style="fill: #fff;"/>
      <path d="M656.7,599.8h5.3c14.6,0,29.2.1,43.8-.1,3.6,0,5.1.7,5,4.7-.3,14.9-.2,29.7,0,44.6,0,3.5-1.1,4.5-4.5,4.5-24.3-.1-48.7,0-73-.2-2.4,0-5.4-1.4-7.2-3-7.5-6.9-14.7-14-21.8-21.4-1.5-1.5-2.2-4.4-2.3-6.6-.1-15.8,1-31.7-.1-47.4-.8-11,2-18.9,10.8-25.5,5.2-3.9,9.4-9.2,14.3-13.7,1.2-1.1,3-2.2,4.5-2.2,25.9-.1,51.7-.1,77.6,0,.3,0,.5.1,1.2.3.1,1,.3,2.2.3,3.3,0,15.3-.1,30.5.1,45.8,0,3.3-1,4.2-4.3,4.2-15.1-.2-30.3-.1-45.4-.3-3.3,0-4.9.7-4.4,4.3.4001,2.6001.1001,5.2001.1001,8.7001Z" style="fill: #fff;"/>
      <path d="M473.5,593.6c0,18.4-.1,36.8.1,55.3,0,3.7-1.2,4.7-4.7,4.6-15.1-.1-30.2-.2-45.3,0-3.7,0-4.6-1.2-4.6-4.8.1-37,.1-74,0-110.9,0-3.2.6-4.6,4.3-4.6,15.4.2,30.8.2,46.2,0,3.4,0,4.2,1.1,4.2,4.3-.2,18.7001-.2,37.4001-.2,56.1Z" style="fill: #fff;"/>
      <path d="M473.5,520h-54.5v-24.9q0-8.5,8.5-8.5c13.7,0,27.5.1,41.2-.1,3.7,0,5,1,4.9,4.9-.3,9.4-.1,18.7-.1,28.6Z" style="fill: #fff;"/>
      <path d="M941.4,651.8v-20.3c0-2.9-2.3-5.2-5.2-5.2h-13.6c-2.9,0-5.2,2.3-5.2,5.2v20.3c0,2.9-2.3,5.2-5.2,5.2h-46.6c-2.9,0-5.2-2.3-5.2-5.2v-116.5c0-2.9,2.3-5.2,5.2-5.2h98.7c1.3,0,2.5.5,3.5,1.3l28.9,26.3c1.1,1,1.7,2.4,1.7,3.8v90.3c0,2.9-2.3,5.2-5.2,5.2h-46.6c-2.9001,0-5.2001-2.2999-5.2001-5.2ZM941.4,590.2v-11.8h-23.9v11.8h23.9Z" style="fill: #fff;"/>
    </g>
    <path d="M1009.2,557.1c0-21.7.1-43.5-.1-65.2,0-3.8.9-5.3,5-5.3,15,.2,30,.2,45,0,3.6,0,4.7,1.1,4.7,4.7-.2,12.5,0,25-.1,37.6,0,3.4.9,4.5,4.4,4.5,13.1-.2,26.1,0,39.2-.1,3.1,0,4.1.9,4.1,4-.1,15.3-.1,30.5,0,45.8,0,3.2-1.2,4-4.2,4-12.9-.2-25.9,0-38.8-.3-3.5-.1-4.9.8-4.8,4.6.2,8.5,0,8.5,8.6,8.5,11.6,0,23.1.1,34.7-.1,3.4,0,4.5,1.1,4.5,4.5-.2,14.9-.2,29.7,0,44.6,0,3.8-1.4,4.7-4.8,4.7-22-.1-44,0-66-.2-2.4,0-5.3-1.4-7.1-3-6.8-6.2-13.1-12.9-19.9-19.2-3.2-2.9-4.5-6-4.4-10.4.2-21.3999,0-42.5999,0-63.7Z" style="fill: #fff;"/>
  </g>
</svg>