<?xml version="1.0" encoding="utf-8"?>
<!-- Generator: Adobe Illustrator 27.9.1, SVG Export Plug-In . SVG Version: 6.00 Build 0)  -->
<svg version="1.1" id="Layer_1" xmlns="http://www.w3.org/2000/svg" xmlns:xlink="http://www.w3.org/1999/xlink" x="0px" y="0px"
	 viewBox="0 0 142.2 125.5" style="enable-background:new 0 0 142.2 125.5;" xml:space="preserve">
<path style="fill:#1185FE;" d="M39.8,76.8c-4.5-0.4-9-0.4-13.3-1.3c-14.6-3-22.2-11.7-23.6-26.3C1.8,38.1,0.8,27,0,15.9
	c-0.2-3.1,0.4-6.3,1.2-9.3C2.8,1.3,7.9-1,13.7,0.4c9.8,2.3,17.5,8,24.5,14.8C50.4,26.9,60.4,40.4,68.8,55c0.7,1.1,1.3,2.2,2.5,4.2
	c1.3-1.9,2.2-3.3,3.1-4.8c8.8-15.1,19.1-28.8,31.9-40.7c6.5-6.1,13.6-11.1,22.6-13.2c7.4-1.7,13.1,1.7,13.2,9.3
	c0.2,10.4-0.8,20.9-1.4,31.3c-0.2,3.6-0.8,7.3-1.4,10.9c-2.3,14.7-12.6,23.7-27.8,24.3c-2.7,0.1-5.5,0-8.3,0.9
	c4.4,1.8,8.9,3.4,13.1,5.5c11.6,6,14.2,16.3,6.1,26.3c-4.3,5.3-9.9,10-15.7,13.6c-7.5,4.7-15.5,3.6-21.1-3.4c-4.8-6-8-13.3-11.8-20
	c-0.8-1.5-1.3-3.3-3.1-5c-0.6,1.6-1.1,3.2-1.9,4.7c-3.4,6.4-6.3,13.3-10.5,19.1c-5.8,7.9-14.3,9.8-22.5,4.6
	c-6.3-4-12.2-9.3-16.8-15.2c-6.5-8.5-4.3-17.4,4.7-23.1C28.8,81.2,34.3,79.3,39.8,76.8z"/>
</svg>
