<?xml version="1.0" encoding="utf-8"?>
<!-- Generator: Adobe Illustrator 26.4.0, SVG Export Plug-In . SVG Version: 6.00 Build 0)  -->
<svg version="1.1" id="Layer_1" xmlns="http://www.w3.org/2000/svg" xmlns:xlink="http://www.w3.org/1999/xlink" x="0px" y="0px"
	 viewBox="0 0 400 400" style="enable-background:new 0 0 400 400;" xml:space="preserve">
<style type="text/css">
	.st0{fill:#303030;}
	.st1{fill:#5C5C5C;}
</style>
<rect class="st0" width="400" height="400"/>
<g>
	<path class="st1" d="M68.2,204.6c0-3,0-5.9,0-8.9c0.1-0.6,0.2-1.1,0.2-1.7c0.8-6.5,1.1-13,2.3-19.3c5.1-26,17.1-48.4,35.7-67.3
		c2.4-2.5,5-4.7,7.6-7.2c0.4,0.5,0.7,0.8,0.9,1.1c27.4,35.8,54.8,71.6,82.2,107.4c0.4,0.5,0.7,1.4,0.7,2.1c0.1,4.9,0,9.9,0,14.8
		c0,0.4,0,0.9,0,1.4c-0.4-0.1-0.7-0.1-0.9-0.2c-6-1-11.8-2.6-18-2.4c-11,0.3-20.8,3.4-28.7,11.5c-5.2,5.3-7.7,11.4-6.2,18.8
		c1.4,7,5.6,12,11.1,16.2c13.4,10.2,33.9,7.5,44.5,0c8.4-5.9,12.1-14.2,12.6-24.2c0.3-5.5,0-10.9,0-16.4c0-0.5,0-0.9,0.1-1.7
		c20.6,26.9,41,53.6,61.5,80.3c-0.2,0.2-0.3,0.3-0.5,0.4c-2.2,1.4-4.4,2.8-6.6,4.1c-16.4,9.6-34,15.4-52.9,17.4
		c-2.7,0.3-5.3,0.5-8,0.8c-3.9,0-7.7,0-11.6,0c-0.5-0.1-1.1-0.2-1.6-0.2c-8.4-0.4-16.6-1.7-24.7-3.7c-25.7-6.5-47.5-19.5-65.3-39.1
		c-20.1-22.1-31.4-48.2-34-77.9C68.5,208.7,68.4,206.6,68.2,204.6z"/>
	<path class="st1" d="M331.8,194.3c0,3.8,0,7.5,0,11.3c-0.1,0.7-0.2,1.3-0.2,2c-0.7,5.6-1,11.2-2,16.7c-4.6,24.5-15.4,46-32.2,64.5
		c-2.3,2.5-4.9,4.8-7.4,7.3c-0.2-0.2-0.4-0.4-0.6-0.7c-25.4-33.2-50.8-66.3-76.2-99.5c-0.4-0.6-0.7-1.4-0.7-2
		c-0.2-12.2-0.3-24.3-0.4-36.5c0-1.2,0.2-2.5,0.6-3.7c0.5-1.5,1.7-2,3.2-1.3c1.1,0.5,2.1,1.2,3,2c1.6,1.4,3.1,3,4.7,4.5
		c4.6,4.1,9.2,8.2,15.3,10.1c2.9,0.9,5.9,1.5,8.8,2.4c5.5,1.7,8.6,5.5,9.5,11.1c0.2,1.1,0.2,2.2,0.6,3.3c0.5,1.7,0.9,3.4,1.8,4.8
		c0.8,1.4,2.1,1.3,3.1,0.1c0.8-0.9,1.6-1.9,2-3c3-7.2,2.9-14.3-1.7-20.8c-3.2-4.5-7.1-8.2-12.1-10.6c-1.9-0.9-3.9-1.9-5.9-2.7
		c-6.6-2.6-12.4-6.7-17.7-11.4c-3.9-3.4-6.7-7.7-9.7-11.8c-1.5-2.1-3.2-4.1-5-6c-0.8-0.8-2.1-1.5-3.3-1.7c-3.6-0.5-6.7,0.5-9.2,3.3
		c-1.8,2-2.2,4.3-2.2,6.9c0,13.8,0,27.6,0,41.3c0,0.5,0,0.9,0,1.4c-0.1,0-0.2,0.1-0.3,0.1c-22.3-29.1-44.6-58.2-66.9-87.4
		c0.1-0.1,0.2-0.2,0.2-0.3c0.3-0.2,0.6-0.4,0.9-0.6c17.8-10.7,37-16.9,57.7-18.6c15-1.2,29.8,0,44.3,4c32.5,8.9,58.1,27.5,76.6,55.6
		c11.5,17.5,18.2,36.7,20.4,57.5C331.3,188.7,331.5,191.5,331.8,194.3z"/>
</g>
</svg>
