<?xml version="1.0" encoding="UTF-8"?>
<svg xmlns="http://www.w3.org/2000/svg" version="1.1" viewBox="0 0 119.3 119.8">
  <defs>
    <style>
      .cls-1 {
        fill: #49343c;
      }

      .cls-2 {
        fill: #5291fa;
      }

      .cls-3 {
        fill: #bb1f7e;
      }

      .cls-4 {
        fill: #faf9f9;
      }

      .cls-5 {
        fill: #fdae30;
      }
    </style>
  </defs>
  <!-- Generator: Adobe Illustrator 28.6.0, SVG Export Plug-In . SVG Version: 1.2.0 Build 709)  -->
  <g>
    <g id="Layer_1">
      <path class="cls-5" d="M118.7,51.5c4.3,32.9-13.2,66.7-55.3,68.2-14.8.5-29-1.7-41.1-10.9C3.2,94.3-1.8,74.2.5,51.5c5.4,0,10.7,0,16.1,0,1.6,5.9,4.1,11.1,9.7,14.4,10.3,5.9,26.1,1.8,29.1-14.4,2.8,0,5.7,0,8.5,0,1.1,6.1,3.9,11.1,9.5,14.4,9.3,5.5,25.5,2.8,29.1-14.4,5.4,0,10.8,0,16.2,0ZM59,102.7c7,0,14,0,21,0,7.1,0,9.9-4.2,7.5-10.8-4-10.9-15.4-18.8-27.5-18.9-12.2-.2-23.6,7.5-28.1,18.8-2.6,6.5.2,10.9,7.2,11,6.7,0,13.3,0,20,0Z"/>
      <path class="cls-2" d="M118.7,51.5c-5.4,0-10.8,0-16.2,0-.9-11.8-6.1-18.8-15.1-20.7-12.3-2.6-24.3,6.4-23.4,20.6-2.8,0-5.7,0-8.5,0-.6-11.9-6.4-19.1-16.1-20.8-10.1-1.7-22.6,4.9-22.7,20.8-5.4,0-10.7,0-16.1,0C1.3,26.2,21.6,4.3,47.4.9c11.4-1.5,22.6-1.3,33.6,2.2,21.9,6.9,36.2,25.3,37.7,48.4ZM97.9,29.9c1.1-.5,3.7.9,4-1.9.2-2.3-2-2.2-3.6-2.4-6.4-.6-10.8-3.9-12.9-10.1-.5-1.4-1.3-3-3.2-2-1.5.7-1.1,2.2-.8,3.5,1.7,6.8,9.1,12.7,16.5,12.9ZM21.2,29.9c7.2,0,14.1-5.4,16.4-12.5.5-1.7,1.2-3.5-1-4.1-1.8-.6-2.5,1.2-3,2.6-2.1,6.3-6.6,9.2-13,9.8-1.7.2-3.7.3-3.4,2.6.4,2.2,2.6,1.5,4,1.7Z"/>
      <path class="cls-3" d="M59,102.7c-6.7,0-13.3,0-20,0-7-.1-9.8-4.5-7.2-11,4.5-11.3,16-19,28.1-18.8,12.1.2,23.5,8,27.5,18.9,2.4,6.6-.4,10.8-7.5,10.8-7,0-14,0-21,0Z"/>
      <path class="cls-4" d="M16.6,51.5c0-15.9,12.6-22.6,22.7-20.8,9.7,1.7,15.5,9,16.1,20.8-3.1,16.2-18.8,20.3-29.1,14.4-5.6-3.3-8.1-8.5-9.7-14.4Z"/>
      <path class="cls-4" d="M63.9,51.5c-.9-14.2,11.1-23.2,23.4-20.6,9.1,1.9,14.2,8.9,15.1,20.7-3.6,17.2-19.8,19.9-29.1,14.4-5.6-3.3-8.3-8.3-9.5-14.4Z"/>
      <path class="cls-1" d="M97.9,29.9c-7.4-.2-14.8-6.1-16.5-12.9-.3-1.3-.8-2.8.8-3.5,1.9-1,2.8.6,3.2,2,2.1,6.2,6.4,9.5,12.9,10.1,1.6.2,3.8.1,3.6,2.4-.2,2.8-2.8,1.4-4,1.9Z"/>
      <path class="cls-1" d="M21.2,29.9c-1.4-.2-3.6.6-4-1.7-.4-2.3,1.7-2.4,3.4-2.6,6.4-.6,10.9-3.5,13-9.8.5-1.4,1.2-3.2,3-2.6,2.2.7,1.5,2.5,1,4.1-2.3,7.1-9.2,12.5-16.4,12.5Z"/>
      <path class="cls-1" d="M38.1,51.7c-.1-4.6,3.7-8.7,8.3-8.8,4.5-.1,8.7,3.9,8.8,8.4.1,4.5-3.8,8.6-8.4,8.8-4.7.1-8.6-3.6-8.7-8.3Z"/>
      <path class="cls-1" d="M93.7,60c-4.6,0-8.5-3.9-8.5-8.6,0-4.6,4-8.6,8.5-8.6,4.5,0,8.5,4,8.5,8.6,0,4.7-3.9,8.5-8.5,8.5Z"/>
    </g>
  </g>
</svg>