<?xml version="1.0" encoding="utf-8"?>
<!-- Generator: Adobe Illustrator 26.2.1, SVG Export Plug-In . SVG Version: 6.00 Build 0)  -->
<svg version="1.1" id="Layer_1" xmlns="http://www.w3.org/2000/svg" xmlns:xlink="http://www.w3.org/1999/xlink" x="0px" y="0px"
	 viewBox="0 0 240.5 240.5" style="enable-background:new 0 0 240.5 240.5;" xml:space="preserve">
<style type="text/css">
	.st0{fill:#078769;}
</style>
<path class="st0" d="M216.7,96.5h-72.7V23.8c0-13.1-10.7-23.8-23.8-23.8h0c-13.1,0-23.8,10.7-23.8,23.8v72.7H23.8
	C10.7,96.5,0,107.1,0,120.3v0c0,13.1,10.7,23.8,23.8,23.8h72.7v72.7c0,13.1,10.7,23.8,23.8,23.8h0c13.1,0,23.8-10.7,23.8-23.8v-72.7
	h72.7c13.1,0,23.8-10.7,23.8-23.8v0C240.5,107.1,229.9,96.5,216.7,96.5z"/>
</svg>
