<?xml version="1.0" encoding="utf-8"?>
<!-- Generator: Adobe Illustrator 26.1.0, SVG Export Plug-In . SVG Version: 6.00 Build 0)  -->
<svg version="1.1" id="Layer_1" xmlns="http://www.w3.org/2000/svg" xmlns:xlink="http://www.w3.org/1999/xlink" x="0px" y="0px"
	 viewBox="0 0 434.1 434.1" style="enable-background:new 0 0 434.1 434.1;" xml:space="preserve">
<style type="text/css">
	.st0{fill:#078769;}
</style>
<path class="st0" d="M353.4,80.7c-4.2-22.6-16.2-43.1-33.9-57.9C301.8,8.1,279.6,0,256.5,0H98.7C72.5,0,47.4,10.4,28.9,28.9
	C10.4,47.4,0,72.5,0,98.7v157.9c0,23,8.1,45.3,22.9,63c14.7,17.7,35.2,29.7,57.9,33.9c4.2,22.6,16.2,43.1,33.9,57.9
	c17.7,14.7,40,22.8,63,22.9h157.9c26.2,0,51.3-10.4,69.8-28.9c18.5-18.5,28.9-43.6,28.9-69.8V177.6c0-23-8.1-45.3-22.9-63
	C396.5,96.9,376.1,84.9,353.4,80.7L353.4,80.7z M39.5,256.5V98.7c0-15.7,6.2-30.8,17.3-41.9C67.9,45.7,83,39.5,98.7,39.5h157.9
	c15.7,0,30.8,6.2,41.9,17.3c11.1,11.1,17.3,26.2,17.3,41.9v157.9c0,15.7-6.2,30.8-17.3,41.9c-11.1,11.1-26.2,17.3-41.9,17.3H98.7
	c-15.7,0-30.8-6.2-41.9-17.3C45.7,287.3,39.5,272.2,39.5,256.5L39.5,256.5z M394.7,335.5L394.7,335.5c0,15.7-6.2,30.8-17.3,41.9
	c-11.1,11.1-26.2,17.3-41.9,17.3H177.6c-12.2,0-24.1-3.8-34.1-10.9c-10-7.1-17.5-17-21.6-28.6h134.6c26.2,0,51.3-10.4,69.8-28.9
	c18.5-18.5,28.9-43.6,28.9-69.8V122c11.5,4.1,21.5,11.6,28.6,21.6c7.1,10,10.9,21.9,10.9,34.1L394.7,335.5z"/>
</svg>
