<?xml version="1.0" encoding="utf-8"?>
<!-- Generator: Adobe Illustrator 23.1.0, SVG Export Plug-In . SVG Version: 6.00 Build 0)  -->
<svg version="1.1" id="Calque_1" xmlns="http://www.w3.org/2000/svg" xmlns:xlink="http://www.w3.org/1999/xlink" x="0px" y="0px"
	 viewBox="0 0 273 285.3" style="enable-background:new 0 0 273 285.3;" xml:space="preserve">
<style type="text/css">
	.st0{fill:#078769;}
</style>
<g>
	<path class="st0" d="M261,40.66h-74.4C182.7,16.96,162,0,137.1,0h-0.9c-24.9,0-45.6,16.63-49.5,40.33l-74.7,0
		c-6.24,0-11.63,6.42-11.98,12.65C-0.37,59.93,4.86,65.4,11.7,65.4h17.1v169.2c0,28,22.7,50.7,50.7,50.7h113.4
		c28,0,50.7-22.7,50.7-50.7V65.4h17.7c6.84,0,12.07-5.47,11.68-12.42C272.63,46.75,267.24,40.66,261,40.66z M136.5,23.4h0.9
		c12,0,22.2,7.8,25.5,17.01h-52.2C114.3,31.2,124.2,23.4,136.5,23.4z M219.78,234.9c0,15.08-12.22,27.3-27.3,27.3H79.8
		c-15.08,0-27.3-12.22-27.3-27.3V65.4h166.98v169.2h0.3V234.9z"/>
	<path class="st0" d="M101.4,223.5c6.6,0,11.7-5.1,11.7-11.7v-95.1c0-6.6-5.1-11.7-11.7-11.7s-11.7,5.1-11.7,11.7v95.1
		C89.7,218.4,94.8,223.5,101.4,223.5z"/>
	<path class="st0" d="M172.2,223.5c6.6,0,11.7-5.1,11.7-11.7v-95.1c0-6.6-5.1-11.7-11.7-11.7c-6.6,0-11.7,5.1-11.7,11.7v95.1
		C160.5,218.4,166.2,223.5,172.2,223.5z"/>
</g>
</svg>
