<?xml version="1.0" encoding="utf-8"?>
<!-- Generator: Adobe Illustrator 26.3.1, SVG Export Plug-In . SVG Version: 6.00 Build 0)  -->
<svg version="1.1" id="Layer_1" xmlns="http://www.w3.org/2000/svg" xmlns:xlink="http://www.w3.org/1999/xlink" x="0px" y="0px"
	 viewBox="0 0 276.6 298.8" style="enable-background:new 0 0 276.6 298.8;" xml:space="preserve">
<style type="text/css">
	.st0{fill:#078769;}
</style>
<path class="st0" d="M265.6,247.9H11.1c-5.5,0-11.1,5.5-11.1,11.1v28.8c0,5.5,5.5,11.1,11.1,11.1h254.5c6.6,0,11.1-5.5,11.1-11.1
	v-28.8C276.6,253.4,272.2,247.9,265.6,247.9L265.6,247.9z"/>
<path class="st0" d="M27.7,222.4H249V110.6C249,49.8,199.2,0,138.3,0C77.5,0,27.7,49.8,27.7,110.6L27.7,222.4L27.7,222.4z M145,52
	c-5.5,0-10-4.4-10-10S139.4,31,145,31c39.8,0,73,33.2,73,73c0,5.5-4.4,10-11.1,10c-5.5,0-10-4.4-10-10C197,75.2,173.7,52,145,52z"/>
</svg>
