<?xml version="1.0" encoding="utf-8"?>
<!-- Generator: Adobe Illustrator 27.1.0, SVG Export Plug-In . SVG Version: 6.00 Build 0)  -->
<svg version="1.1" id="Layer_1" xmlns="http://www.w3.org/2000/svg" xmlns:xlink="http://www.w3.org/1999/xlink" x="0px" y="0px"
	 width="283.6px" height="230.4px" viewBox="0 0 283.6 230.4" style="enable-background:new 0 0 283.6 230.4;" xml:space="preserve"
	>
<style type="text/css">
	.st0{fill:#078769;}
</style>
<path class="st0" d="M71.1,54.2l34-34c4.6-4.6,4.6-12.2,0-16.8l0,0c-4.6-4.6-12.2-4.6-16.8,0l-34,34l-34-34
	c-4.6-4.6-12.2-4.6-16.8,0s-4.6,12.2,0,16.8l34,34l-34,34c-4.6,4.6-4.6,12.2,0,16.8s12.2,4.6,16.8,0l34-34l34,34
	c4.6,4.6,12.2,4.6,16.8,0l0,0c4.6-4.6,4.6-12.2,0-16.8L71.1,54.2z"/>
<path class="st0" d="M266,35.7H151c-9.7,0-17.5-7.8-17.5-17.5v0c0-9.7,7.8-17.5,17.5-17.5h115c9.7,0,17.5,7.8,17.5,17.5v0
	C283.5,27.9,275.7,35.7,266,35.7z"/>
<path class="st0" d="M266,133.1H151c-9.7,0-17.5-7.8-17.5-17.5v0c0-9.7,7.8-17.5,17.5-17.5h115c9.7,0,17.5,7.8,17.5,17.5v0
	C283.5,125.2,275.7,133.1,266,133.1z"/>
<path class="st0" d="M266,230.4H17.5c-9.7,0-17.5-7.8-17.5-17.5v0c0-9.7,7.8-17.5,17.5-17.5H266c9.7,0,17.5,7.8,17.5,17.5v0
	C283.5,222.6,275.7,230.4,266,230.4z"/>
</svg>
