<?xml version="1.0" encoding="utf-8"?>
<!-- Generator: Adobe Illustrator 26.4.0, SVG Export Plug-In . SVG Version: 6.00 Build 0)  -->
<svg version="1.1" id="Layer_1" xmlns="http://www.w3.org/2000/svg" xmlns:xlink="http://www.w3.org/1999/xlink" x="0px" y="0px"
	 viewBox="0 0 206 297.3" style="enable-background:new 0 0 206 297.3;" xml:space="preserve">
<style type="text/css">
	.st0{fill:#078769;}
</style>
<path class="st0" d="M191.8,154.8c-9.4-11.7-19.9-17.6-31.7-17.6V45.7c12.1,0.3,23.2-10.8,22.9-22.9c0.3-12.1-10.8-23.2-22.9-22.9
	c0,0-114.3,0-114.3,0c-30,0.6-30,45.1,0,45.7v91.5C20,136.9-0.9,169.4,0,194.4c-0.2,6,5.4,11.6,11.4,11.4c0,0,72.2,0,72.2,0
	l13.6,86.6c0.6,3.2,2.5,4.8,5.7,4.8c2.9,0.2,5.3-2.4,5.7-5.2c0,0,9.1-86.3,9.1-86.3c5-1.2,83.7,3.4,84.7-3.4
	C211.7,189,200.8,166.7,191.8,154.8z M85.8,131.5c0.3,7.5-11.8,7.5-11.4,0c0,0,0-80,0-80c-0.1-3.3,2.4-5.8,5.7-5.7
	c3.3-0.1,5.8,2.4,5.7,5.7C85.8,51.5,85.8,131.5,85.8,131.5z"/>
</svg>
