<?xml version="1.0" encoding="utf-8"?>
<!-- Generator: Adobe Illustrator 26.3.1, SVG Export Plug-In . SVG Version: 6.00 Build 0)  -->
<svg version="1.1" id="Layer_1" xmlns="http://www.w3.org/2000/svg" xmlns:xlink="http://www.w3.org/1999/xlink" x="0px" y="0px"
	 viewBox="0 0 246.3 283.8" style="enable-background:new 0 0 246.3 283.8;" xml:space="preserve">
<style type="text/css">
	.st0{fill:#078769;}
</style>
<path class="st0" d="M33.4,185.2c-3.3-8.9-5-18.4-5-28.1v-94l94.7-33.2l48.5,17l22.3-22.3L132.6,3.3L123.1,0l-9.5,3.3L18.9,36.4
	L0,43.1v114.1c0,17.3,4.1,34.2,11.8,49.5L33.4,185.2z"/>
<path class="st0" d="M217.8,126.1l0,31.1c0,15.8-4.6,31.2-13.1,44.4c-8.6,13.2-20.7,23.7-35.1,30.2l-46.5,20.9l-22-9.9l-21.5,21.5
	l31.8,14.3l11.7,5.3l11.6-5.3l46.5-20.9l0,0c19.3-8.7,35.8-22.8,47.3-40.7c11.5-17.8,17.7-38.6,17.7-59.8V97.6L217.8,126.1z"/>
<rect x="-15.7" y="135.8" transform="matrix(0.7071 -0.7071 0.7071 0.7071 -67.6968 136.7167)" class="st0" width="293.8" height="28.6"/>
</svg>
